<svg xmlns="http://www.w3.org/2000/svg" xmlns:xlink="http://www.w3.org/1999/xlink" viewBox="0 0 622.65 93.64"><defs><style>.cls-1{fill:none;}.cls-2{isolation:isolate;}.cls-3{fill:url(#Gradiente_sem_nome_20);}.cls-4{clip-path:url(#clip-path);}.cls-5{opacity:0.26;mix-blend-mode:multiply;}.cls-6{fill:#677789;}.cls-7{fill:#fff;}</style><radialGradient id="Gradiente_sem_nome_20" cx="153.03" cy="-299.43" fx="-215.05232116312135" fy="-331.81211797881423" r="475.41" gradientUnits="userSpaceOnUse"><stop offset="0.49" stop-color="#677789"/><stop offset="0.75" stop-color="#69798b"/><stop offset="0.87" stop-color="#708093"/><stop offset="0.97" stop-color="#7d8da0"/><stop offset="0.99" stop-color="#8191a4"/></radialGradient><clipPath id="clip-path"><path class="cls-1" d="M.49,93V10.67a10,10,0,0,1,10-10H612.16a10,10,0,0,1,10,10V93Z"/></clipPath></defs><title>TOPO_Nota_de_Falecimento</title><g class="cls-2"><g id="Camada_1" data-name="Camada 1"><path class="cls-3" d="M.49,93V10.67a10,10,0,0,1,10-10H612.16a10,10,0,0,1,10,10V93Z"/><g class="cls-4"><g class="cls-5"><path class="cls-6" d="M632.93,113.09H619.77a1.81,1.81,0,0,1-1.81-1.82v-1.13a1.81,1.81,0,0,1,1.81-1.82h13.15V95.13a1.82,1.82,0,0,1,1.81-1.82h1.45A1.82,1.82,0,0,1,638,95.13v13.15h13.14a1.81,1.81,0,0,1,1.81,1.81v1.13a1.81,1.81,0,0,1-1.81,1.81H638v31.48a1.82,1.82,0,0,1-1.81,1.82h-1.46a1.83,1.83,0,0,1-1.82-1.82Z"/><path class="cls-6" d="M632.43,112.59H619.27a1.81,1.81,0,0,1-1.81-1.82v-1.13a1.81,1.81,0,0,1,1.81-1.82h13.15V94.63a1.82,1.82,0,0,1,1.81-1.82h1.45a1.82,1.82,0,0,1,1.81,1.82v13.15h13.14a1.81,1.81,0,0,1,1.81,1.81v1.13a1.81,1.81,0,0,1-1.81,1.81H637.52V144a1.82,1.82,0,0,1-1.81,1.82h-1.46a1.83,1.83,0,0,1-1.82-1.82Z"/><path class="cls-6" d="M631.93,112.09H618.77a1.81,1.81,0,0,1-1.81-1.82v-1.13a1.81,1.81,0,0,1,1.81-1.82h13.15V94.13a1.82,1.82,0,0,1,1.81-1.82h1.45A1.82,1.82,0,0,1,637,94.13v13.15h13.14a1.81,1.81,0,0,1,1.81,1.81v1.13a1.81,1.81,0,0,1-1.81,1.81H637v31.48a1.82,1.82,0,0,1-1.81,1.82h-1.46a1.83,1.83,0,0,1-1.82-1.82Z"/><path class="cls-6" d="M631.43,111.59H618.27a1.81,1.81,0,0,1-1.81-1.82v-1.13a1.81,1.81,0,0,1,1.81-1.82h13.15V93.63a1.82,1.82,0,0,1,1.81-1.82h1.45a1.82,1.82,0,0,1,1.81,1.82v13.15h13.14a1.81,1.81,0,0,1,1.81,1.81v1.13a1.81,1.81,0,0,1-1.81,1.81H636.52V143a1.82,1.82,0,0,1-1.81,1.82h-1.46a1.83,1.83,0,0,1-1.82-1.82Z"/><path class="cls-6" d="M630.93,111.09H617.77a1.81,1.81,0,0,1-1.81-1.82v-1.13a1.81,1.81,0,0,1,1.81-1.82h13.15V93.13a1.82,1.82,0,0,1,1.81-1.82h1.45A1.82,1.82,0,0,1,636,93.13v13.15h13.14a1.81,1.81,0,0,1,1.81,1.81v1.13a1.81,1.81,0,0,1-1.81,1.81H636v31.48a1.82,1.82,0,0,1-1.81,1.82h-1.46a1.83,1.83,0,0,1-1.82-1.82Z"/><path class="cls-6" d="M630.43,110.59H617.27a1.81,1.81,0,0,1-1.81-1.82v-1.13a1.81,1.81,0,0,1,1.81-1.82h13.15V92.63a1.82,1.82,0,0,1,1.81-1.82h1.45a1.82,1.82,0,0,1,1.81,1.82v13.15h13.14a1.81,1.81,0,0,1,1.81,1.81v1.13a1.81,1.81,0,0,1-1.81,1.81H635.52V142a1.82,1.82,0,0,1-1.81,1.82h-1.46a1.83,1.83,0,0,1-1.82-1.82Z"/><path class="cls-6" d="M629.93,110.09H616.77a1.81,1.81,0,0,1-1.81-1.82v-1.13a1.81,1.81,0,0,1,1.81-1.82h13.15V92.13a1.82,1.82,0,0,1,1.81-1.82h1.45A1.82,1.82,0,0,1,635,92.13v13.15h13.14a1.81,1.81,0,0,1,1.81,1.81v1.13a1.81,1.81,0,0,1-1.81,1.81H635v31.48a1.82,1.82,0,0,1-1.81,1.82h-1.46a1.83,1.83,0,0,1-1.82-1.82Z"/><path class="cls-6" d="M629.43,109.59H616.27a1.81,1.81,0,0,1-1.81-1.82v-1.13a1.81,1.81,0,0,1,1.81-1.82h13.15V91.63a1.82,1.82,0,0,1,1.81-1.82h1.45a1.82,1.82,0,0,1,1.81,1.82v13.15h13.14a1.81,1.81,0,0,1,1.81,1.81v1.13a1.81,1.81,0,0,1-1.81,1.81H634.52V141a1.82,1.82,0,0,1-1.81,1.82h-1.46a1.83,1.83,0,0,1-1.82-1.82Z"/><path class="cls-6" d="M628.93,109.09H615.77a1.81,1.81,0,0,1-1.81-1.82v-1.13a1.81,1.81,0,0,1,1.81-1.82h13.15V91.13a1.82,1.82,0,0,1,1.81-1.82h1.45A1.82,1.82,0,0,1,634,91.13v13.15h13.14a1.81,1.81,0,0,1,1.81,1.81v1.13a1.81,1.81,0,0,1-1.81,1.81H634v31.48a1.82,1.82,0,0,1-1.81,1.82h-1.46a1.83,1.83,0,0,1-1.82-1.82Z"/><path class="cls-6" d="M628.43,108.59H615.27a1.81,1.81,0,0,1-1.81-1.82v-1.13a1.81,1.81,0,0,1,1.81-1.82h13.15V90.63a1.82,1.82,0,0,1,1.81-1.82h1.45a1.82,1.82,0,0,1,1.81,1.82v13.15h13.14a1.81,1.81,0,0,1,1.81,1.81v1.13a1.81,1.81,0,0,1-1.81,1.81H633.52V140a1.82,1.82,0,0,1-1.81,1.82h-1.46a1.83,1.83,0,0,1-1.82-1.82Z"/><path class="cls-6" d="M627.93,108.09H614.77a1.81,1.81,0,0,1-1.81-1.82v-1.13a1.81,1.81,0,0,1,1.81-1.82h13.15V90.13a1.82,1.82,0,0,1,1.81-1.82h1.45A1.82,1.82,0,0,1,633,90.13v13.15h13.14a1.81,1.81,0,0,1,1.81,1.81v1.13a1.81,1.81,0,0,1-1.81,1.81H633v31.48a1.82,1.82,0,0,1-1.81,1.82h-1.46a1.83,1.83,0,0,1-1.82-1.82Z"/><path class="cls-6" d="M627.43,107.59H614.27a1.81,1.81,0,0,1-1.81-1.82v-1.13a1.81,1.81,0,0,1,1.81-1.82h13.15V89.63a1.82,1.82,0,0,1,1.81-1.82h1.45a1.82,1.82,0,0,1,1.81,1.82v13.15h13.14a1.81,1.81,0,0,1,1.81,1.81v1.13a1.81,1.81,0,0,1-1.81,1.81H632.52V139a1.82,1.82,0,0,1-1.81,1.82h-1.46a1.83,1.83,0,0,1-1.82-1.82Z"/><path class="cls-6" d="M626.93,107.09H613.77a1.81,1.81,0,0,1-1.81-1.82v-1.13a1.81,1.81,0,0,1,1.81-1.82h13.15V89.13a1.82,1.82,0,0,1,1.81-1.82h1.45A1.82,1.82,0,0,1,632,89.13v13.15h13.14a1.81,1.81,0,0,1,1.81,1.81v1.13a1.81,1.81,0,0,1-1.81,1.81H632v31.48a1.82,1.82,0,0,1-1.81,1.82h-1.46a1.83,1.83,0,0,1-1.82-1.82Z"/><path class="cls-6" d="M626.43,106.59H613.27a1.81,1.81,0,0,1-1.81-1.82v-1.13a1.81,1.81,0,0,1,1.81-1.82h13.15V88.63a1.82,1.82,0,0,1,1.81-1.82h1.45a1.82,1.82,0,0,1,1.81,1.82v13.15h13.14a1.81,1.81,0,0,1,1.81,1.81v1.13a1.81,1.81,0,0,1-1.81,1.81H631.52V138a1.82,1.82,0,0,1-1.81,1.82h-1.46a1.83,1.83,0,0,1-1.82-1.82Z"/><path class="cls-6" d="M625.93,106.09H612.77a1.81,1.81,0,0,1-1.81-1.82v-1.13a1.81,1.81,0,0,1,1.81-1.82h13.15V88.13a1.82,1.82,0,0,1,1.81-1.82h1.45A1.82,1.82,0,0,1,631,88.13v13.15h13.14a1.81,1.81,0,0,1,1.81,1.81v1.13a1.81,1.81,0,0,1-1.81,1.81H631v31.48a1.82,1.82,0,0,1-1.81,1.82h-1.46a1.83,1.83,0,0,1-1.82-1.82Z"/><path class="cls-6" d="M625.43,105.59H612.27a1.81,1.81,0,0,1-1.81-1.82v-1.13a1.81,1.81,0,0,1,1.81-1.82h13.15V87.63a1.82,1.82,0,0,1,1.81-1.82h1.45a1.82,1.82,0,0,1,1.81,1.82v13.15h13.14a1.81,1.81,0,0,1,1.81,1.81v1.13a1.81,1.81,0,0,1-1.81,1.81H630.52V137a1.82,1.82,0,0,1-1.81,1.82h-1.46a1.83,1.83,0,0,1-1.82-1.82Z"/><path class="cls-6" d="M624.93,105.09H611.77a1.81,1.81,0,0,1-1.81-1.82v-1.13a1.81,1.81,0,0,1,1.81-1.82h13.15V87.13a1.82,1.82,0,0,1,1.81-1.82h1.45A1.82,1.82,0,0,1,630,87.13v13.15h13.14a1.81,1.81,0,0,1,1.81,1.81v1.13a1.81,1.81,0,0,1-1.81,1.81H630v31.48a1.82,1.82,0,0,1-1.81,1.82h-1.46a1.83,1.83,0,0,1-1.82-1.82Z"/><path class="cls-6" d="M624.43,104.59H611.27a1.81,1.81,0,0,1-1.81-1.82v-1.13a1.81,1.81,0,0,1,1.81-1.82h13.15V86.63a1.82,1.82,0,0,1,1.81-1.82h1.45a1.82,1.82,0,0,1,1.81,1.82V99.78h13.14a1.81,1.81,0,0,1,1.81,1.81v1.13a1.81,1.81,0,0,1-1.81,1.81H629.52V136a1.82,1.82,0,0,1-1.81,1.82h-1.46a1.83,1.83,0,0,1-1.82-1.82Z"/><path class="cls-6" d="M623.93,104.09H610.77a1.81,1.81,0,0,1-1.81-1.82v-1.13a1.81,1.81,0,0,1,1.81-1.82h13.15V86.13a1.82,1.82,0,0,1,1.81-1.82h1.45A1.82,1.82,0,0,1,629,86.13V99.28h13.14a1.81,1.81,0,0,1,1.81,1.81v1.13a1.81,1.81,0,0,1-1.81,1.81H629v31.48a1.82,1.82,0,0,1-1.81,1.82h-1.46a1.83,1.83,0,0,1-1.82-1.82Z"/><path class="cls-6" d="M623.43,103.59H610.27a1.81,1.81,0,0,1-1.81-1.82v-1.13a1.81,1.81,0,0,1,1.81-1.82h13.15V85.63a1.82,1.82,0,0,1,1.81-1.82h1.45a1.82,1.82,0,0,1,1.81,1.82V98.78h13.14a1.81,1.81,0,0,1,1.81,1.81v1.13a1.81,1.81,0,0,1-1.81,1.81H628.52V135a1.82,1.82,0,0,1-1.81,1.82h-1.46a1.83,1.83,0,0,1-1.82-1.82Z"/><path class="cls-6" d="M622.93,103.09H609.77a1.81,1.81,0,0,1-1.81-1.82v-1.13a1.81,1.81,0,0,1,1.81-1.82h13.15V85.13a1.82,1.82,0,0,1,1.81-1.82h1.45A1.82,1.82,0,0,1,628,85.13V98.28h13.14a1.81,1.81,0,0,1,1.81,1.81v1.13a1.81,1.81,0,0,1-1.81,1.81H628v31.48a1.82,1.82,0,0,1-1.81,1.82h-1.46a1.83,1.83,0,0,1-1.82-1.82Z"/><path class="cls-6" d="M622.43,102.59H609.27a1.81,1.81,0,0,1-1.81-1.82V99.64a1.81,1.81,0,0,1,1.81-1.82h13.15V84.63a1.82,1.82,0,0,1,1.81-1.82h1.45a1.82,1.82,0,0,1,1.81,1.82V97.78h13.14a1.81,1.81,0,0,1,1.81,1.81v1.13a1.81,1.81,0,0,1-1.81,1.81H627.52V134a1.82,1.82,0,0,1-1.81,1.82h-1.46a1.83,1.83,0,0,1-1.82-1.82Z"/><path class="cls-6" d="M621.93,102.09H608.77a1.81,1.81,0,0,1-1.81-1.82V99.14a1.81,1.81,0,0,1,1.81-1.82h13.15V84.13a1.82,1.82,0,0,1,1.81-1.82h1.45A1.82,1.82,0,0,1,627,84.13V97.28h13.14a1.81,1.81,0,0,1,1.81,1.81v1.13a1.81,1.81,0,0,1-1.81,1.81H627v31.48a1.82,1.82,0,0,1-1.81,1.82h-1.46a1.83,1.83,0,0,1-1.82-1.82Z"/><path class="cls-6" d="M621.43,101.59H608.27a1.81,1.81,0,0,1-1.81-1.82V98.64a1.81,1.81,0,0,1,1.81-1.82h13.15V83.63a1.82,1.82,0,0,1,1.81-1.82h1.45a1.82,1.82,0,0,1,1.81,1.82V96.78h13.14a1.81,1.81,0,0,1,1.81,1.81v1.13a1.81,1.81,0,0,1-1.81,1.81H626.52V133a1.82,1.82,0,0,1-1.81,1.82h-1.46a1.83,1.83,0,0,1-1.82-1.82Z"/><path class="cls-6" d="M620.93,101.09H607.77A1.81,1.81,0,0,1,606,99.27V98.14a1.81,1.81,0,0,1,1.81-1.82h13.15V83.13a1.82,1.82,0,0,1,1.81-1.82h1.45A1.82,1.82,0,0,1,626,83.13V96.28h13.14a1.81,1.81,0,0,1,1.81,1.81v1.13a1.81,1.81,0,0,1-1.81,1.81H626v31.48a1.82,1.82,0,0,1-1.81,1.82h-1.46a1.83,1.83,0,0,1-1.82-1.82Z"/><path class="cls-6" d="M620.43,100.59H607.27a1.81,1.81,0,0,1-1.81-1.82V97.64a1.81,1.81,0,0,1,1.81-1.82h13.15V82.63a1.82,1.82,0,0,1,1.81-1.82h1.45a1.82,1.82,0,0,1,1.81,1.82V95.78h13.14a1.81,1.81,0,0,1,1.81,1.81v1.13a1.81,1.81,0,0,1-1.81,1.81H625.52V132a1.82,1.82,0,0,1-1.81,1.82h-1.46a1.83,1.83,0,0,1-1.82-1.82Z"/><path class="cls-6" d="M619.93,100.09H606.77A1.81,1.81,0,0,1,605,98.27V97.14a1.81,1.81,0,0,1,1.81-1.82h13.15V82.13a1.82,1.82,0,0,1,1.81-1.82h1.45A1.82,1.82,0,0,1,625,82.13V95.28h13.14a1.81,1.81,0,0,1,1.81,1.81v1.13a1.81,1.81,0,0,1-1.81,1.81H625v31.48a1.82,1.82,0,0,1-1.81,1.82h-1.46a1.83,1.83,0,0,1-1.82-1.82Z"/><path class="cls-6" d="M619.43,99.59H606.27a1.81,1.81,0,0,1-1.81-1.82V96.64a1.81,1.81,0,0,1,1.81-1.82h13.15V81.63a1.82,1.82,0,0,1,1.81-1.82h1.45a1.82,1.82,0,0,1,1.81,1.82V94.78h13.14a1.81,1.81,0,0,1,1.81,1.81v1.13a1.81,1.81,0,0,1-1.81,1.81H624.52V131a1.82,1.82,0,0,1-1.81,1.82h-1.46a1.83,1.83,0,0,1-1.82-1.82Z"/><path class="cls-6" d="M618.93,99.09H605.77A1.81,1.81,0,0,1,604,97.27V96.14a1.81,1.81,0,0,1,1.81-1.82h13.15V81.13a1.82,1.82,0,0,1,1.81-1.82h1.45A1.82,1.82,0,0,1,624,81.13V94.28h13.14a1.81,1.81,0,0,1,1.81,1.81v1.13A1.81,1.81,0,0,1,637.13,99H624v31.48a1.82,1.82,0,0,1-1.81,1.82h-1.46a1.83,1.83,0,0,1-1.82-1.82Z"/><path class="cls-6" d="M618.43,98.59H605.27a1.81,1.81,0,0,1-1.81-1.82V95.64a1.81,1.81,0,0,1,1.81-1.82h13.15V80.63a1.82,1.82,0,0,1,1.81-1.82h1.45a1.82,1.82,0,0,1,1.81,1.82V93.78h13.14a1.81,1.81,0,0,1,1.81,1.81v1.13a1.81,1.81,0,0,1-1.81,1.81H623.52V130a1.82,1.82,0,0,1-1.81,1.82h-1.46a1.83,1.83,0,0,1-1.82-1.82Z"/><path class="cls-6" d="M617.93,98.09H604.77A1.81,1.81,0,0,1,603,96.27V95.14a1.81,1.81,0,0,1,1.81-1.82h13.15V80.13a1.82,1.82,0,0,1,1.81-1.82h1.45A1.82,1.82,0,0,1,623,80.13V93.28h13.14a1.81,1.81,0,0,1,1.81,1.81v1.13A1.81,1.81,0,0,1,636.13,98H623v31.48a1.82,1.82,0,0,1-1.81,1.82h-1.46a1.83,1.83,0,0,1-1.82-1.82Z"/><path class="cls-6" d="M617.43,97.59H604.27a1.81,1.81,0,0,1-1.81-1.82V94.64a1.81,1.81,0,0,1,1.81-1.82h13.15V79.63a1.82,1.82,0,0,1,1.81-1.82h1.45a1.82,1.82,0,0,1,1.81,1.82V92.78h13.14a1.81,1.81,0,0,1,1.81,1.81v1.13a1.81,1.81,0,0,1-1.81,1.81H622.52V129a1.82,1.82,0,0,1-1.81,1.82h-1.46a1.83,1.83,0,0,1-1.82-1.82Z"/><path class="cls-6" d="M616.93,97.09H603.77A1.81,1.81,0,0,1,602,95.27V94.14a1.81,1.81,0,0,1,1.81-1.82h13.15V79.13a1.82,1.82,0,0,1,1.81-1.82h1.45A1.82,1.82,0,0,1,622,79.13V92.28h13.14a1.81,1.81,0,0,1,1.81,1.81v1.13A1.81,1.81,0,0,1,635.13,97H622v31.48a1.82,1.82,0,0,1-1.81,1.82h-1.46a1.83,1.83,0,0,1-1.82-1.82Z"/><path class="cls-6" d="M616.43,96.59H603.27a1.81,1.81,0,0,1-1.81-1.82V93.64a1.81,1.81,0,0,1,1.81-1.82h13.15V78.63a1.82,1.82,0,0,1,1.81-1.82h1.45a1.82,1.82,0,0,1,1.81,1.82V91.78h13.14a1.81,1.81,0,0,1,1.81,1.81v1.13a1.81,1.81,0,0,1-1.81,1.81H621.52V128a1.82,1.82,0,0,1-1.81,1.82h-1.46a1.83,1.83,0,0,1-1.82-1.82Z"/><path class="cls-6" d="M615.93,96.09H602.77A1.81,1.81,0,0,1,601,94.27V93.14a1.81,1.81,0,0,1,1.81-1.82h13.15V78.13a1.82,1.82,0,0,1,1.81-1.82h1.45A1.82,1.82,0,0,1,621,78.13V91.28h13.14a1.81,1.81,0,0,1,1.81,1.81v1.13A1.81,1.81,0,0,1,634.13,96H621v31.48a1.82,1.82,0,0,1-1.81,1.82h-1.46a1.83,1.83,0,0,1-1.82-1.82Z"/><path class="cls-6" d="M615.43,95.59H602.27a1.81,1.81,0,0,1-1.81-1.82V92.64a1.81,1.81,0,0,1,1.81-1.82h13.15V77.63a1.82,1.82,0,0,1,1.81-1.82h1.45a1.82,1.82,0,0,1,1.81,1.82V90.78h13.14a1.81,1.81,0,0,1,1.81,1.81v1.13a1.81,1.81,0,0,1-1.81,1.81H620.52V127a1.82,1.82,0,0,1-1.81,1.82h-1.46a1.83,1.83,0,0,1-1.82-1.82Z"/><path class="cls-6" d="M614.93,95.09H601.77A1.81,1.81,0,0,1,600,93.27V92.14a1.81,1.81,0,0,1,1.81-1.82h13.15V77.13a1.82,1.82,0,0,1,1.81-1.82h1.45A1.82,1.82,0,0,1,620,77.13V90.28h13.14a1.81,1.81,0,0,1,1.81,1.81v1.13A1.81,1.81,0,0,1,633.13,95H620v31.48a1.82,1.82,0,0,1-1.81,1.82h-1.46a1.83,1.83,0,0,1-1.82-1.82Z"/><path class="cls-6" d="M614.43,94.59H601.27a1.81,1.81,0,0,1-1.81-1.82V91.64a1.81,1.81,0,0,1,1.81-1.82h13.15V76.63a1.82,1.82,0,0,1,1.81-1.82h1.45a1.82,1.82,0,0,1,1.81,1.82V89.78h13.14a1.81,1.81,0,0,1,1.81,1.81v1.13a1.81,1.81,0,0,1-1.81,1.81H619.52V126a1.82,1.82,0,0,1-1.81,1.82h-1.46a1.83,1.83,0,0,1-1.82-1.82Z"/><path class="cls-6" d="M613.93,94.09H600.77A1.81,1.81,0,0,1,599,92.27V91.14a1.81,1.81,0,0,1,1.81-1.82h13.15V76.13a1.82,1.82,0,0,1,1.81-1.82h1.45A1.82,1.82,0,0,1,619,76.13V89.28h13.14a1.81,1.81,0,0,1,1.81,1.81v1.13A1.81,1.81,0,0,1,632.13,94H619v31.48a1.82,1.82,0,0,1-1.81,1.82h-1.46a1.83,1.83,0,0,1-1.82-1.82Z"/><path class="cls-6" d="M613.43,93.59H600.27a1.81,1.81,0,0,1-1.81-1.82V90.64a1.81,1.81,0,0,1,1.81-1.82h13.15V75.63a1.82,1.82,0,0,1,1.81-1.82h1.45a1.82,1.82,0,0,1,1.81,1.82V88.78h13.14a1.81,1.81,0,0,1,1.81,1.81v1.13a1.81,1.81,0,0,1-1.81,1.81H618.52V125a1.82,1.82,0,0,1-1.81,1.82h-1.46a1.83,1.83,0,0,1-1.82-1.82Z"/><path class="cls-6" d="M612.93,93.09H599.77A1.81,1.81,0,0,1,598,91.27V90.14a1.81,1.81,0,0,1,1.81-1.82h13.15V75.13a1.82,1.82,0,0,1,1.81-1.82h1.45A1.82,1.82,0,0,1,618,75.13V88.28h13.14a1.81,1.81,0,0,1,1.81,1.81v1.13A1.81,1.81,0,0,1,631.13,93H618v31.48a1.82,1.82,0,0,1-1.81,1.82h-1.46a1.83,1.83,0,0,1-1.82-1.82Z"/><path class="cls-6" d="M612.43,92.59H599.27a1.81,1.81,0,0,1-1.81-1.82V89.64a1.81,1.81,0,0,1,1.81-1.82h13.15V74.63a1.82,1.82,0,0,1,1.81-1.82h1.45a1.82,1.82,0,0,1,1.81,1.82V87.78h13.14a1.81,1.81,0,0,1,1.81,1.81v1.13a1.81,1.81,0,0,1-1.81,1.81H617.52V124a1.82,1.82,0,0,1-1.81,1.82h-1.46a1.83,1.83,0,0,1-1.82-1.82Z"/><path class="cls-6" d="M611.93,92.09H598.77A1.81,1.81,0,0,1,597,90.27V89.14a1.81,1.81,0,0,1,1.81-1.82h13.15V74.13a1.82,1.82,0,0,1,1.81-1.82h1.45A1.82,1.82,0,0,1,617,74.13V87.28h13.14a1.81,1.81,0,0,1,1.81,1.81v1.13A1.81,1.81,0,0,1,630.13,92H617v31.48a1.82,1.82,0,0,1-1.81,1.82h-1.46a1.83,1.83,0,0,1-1.82-1.82Z"/><path class="cls-6" d="M611.43,91.59H598.27a1.81,1.81,0,0,1-1.81-1.82V88.64a1.81,1.81,0,0,1,1.81-1.82h13.15V73.63a1.82,1.82,0,0,1,1.81-1.82h1.45a1.82,1.82,0,0,1,1.81,1.82V86.78h13.14a1.81,1.81,0,0,1,1.81,1.81v1.13a1.81,1.81,0,0,1-1.81,1.81H616.52V123a1.82,1.82,0,0,1-1.81,1.82h-1.46a1.83,1.83,0,0,1-1.82-1.82Z"/><path class="cls-6" d="M610.93,91.09H597.77A1.81,1.81,0,0,1,596,89.27V88.14a1.81,1.81,0,0,1,1.81-1.82h13.15V73.13a1.82,1.82,0,0,1,1.81-1.82h1.45A1.82,1.82,0,0,1,616,73.13V86.28h13.14a1.81,1.81,0,0,1,1.81,1.81v1.13A1.81,1.81,0,0,1,629.13,91H616v31.48a1.82,1.82,0,0,1-1.81,1.82h-1.46a1.83,1.83,0,0,1-1.82-1.82Z"/><path class="cls-6" d="M610.43,90.59H597.27a1.81,1.81,0,0,1-1.81-1.82V87.64a1.81,1.81,0,0,1,1.81-1.82h13.15V72.63a1.82,1.82,0,0,1,1.81-1.82h1.45a1.82,1.82,0,0,1,1.81,1.82V85.78h13.14a1.81,1.81,0,0,1,1.81,1.81v1.13a1.81,1.81,0,0,1-1.81,1.81H615.52V122a1.82,1.82,0,0,1-1.81,1.82h-1.46a1.83,1.83,0,0,1-1.82-1.82Z"/><path class="cls-6" d="M609.93,90.09H596.77A1.81,1.81,0,0,1,595,88.27V87.14a1.81,1.81,0,0,1,1.81-1.82h13.15V72.13a1.82,1.82,0,0,1,1.81-1.82h1.45A1.82,1.82,0,0,1,615,72.13V85.28h13.14a1.81,1.81,0,0,1,1.81,1.81v1.13A1.81,1.81,0,0,1,628.13,90H615v31.48a1.82,1.82,0,0,1-1.81,1.82h-1.46a1.83,1.83,0,0,1-1.82-1.82Z"/><path class="cls-6" d="M609.43,89.59H596.27a1.81,1.81,0,0,1-1.81-1.82V86.64a1.81,1.81,0,0,1,1.81-1.82h13.15V71.63a1.82,1.82,0,0,1,1.81-1.82h1.45a1.82,1.82,0,0,1,1.81,1.82V84.78h13.14a1.81,1.81,0,0,1,1.81,1.81v1.13a1.81,1.81,0,0,1-1.81,1.81H614.52V121a1.82,1.82,0,0,1-1.81,1.82h-1.46a1.83,1.83,0,0,1-1.82-1.82Z"/><path class="cls-6" d="M608.93,89.09H595.77A1.81,1.81,0,0,1,594,87.27V86.14a1.81,1.81,0,0,1,1.81-1.82h13.15V71.13a1.82,1.82,0,0,1,1.81-1.82h1.45A1.82,1.82,0,0,1,614,71.13V84.28h13.14a1.81,1.81,0,0,1,1.81,1.81v1.13A1.81,1.81,0,0,1,627.13,89H614v31.48a1.82,1.82,0,0,1-1.81,1.82h-1.46a1.83,1.83,0,0,1-1.82-1.82Z"/><path class="cls-6" d="M608.43,88.59H595.27a1.81,1.81,0,0,1-1.81-1.82V85.64a1.81,1.81,0,0,1,1.81-1.82h13.15V70.63a1.82,1.82,0,0,1,1.81-1.82h1.45a1.82,1.82,0,0,1,1.81,1.82V83.78h13.14a1.81,1.81,0,0,1,1.81,1.81v1.13a1.81,1.81,0,0,1-1.81,1.81H613.52V120a1.82,1.82,0,0,1-1.81,1.82h-1.46a1.83,1.83,0,0,1-1.82-1.82Z"/><path class="cls-6" d="M607.93,88.09H594.77A1.81,1.81,0,0,1,593,86.27V85.14a1.81,1.81,0,0,1,1.81-1.82h13.15V70.13a1.82,1.82,0,0,1,1.81-1.82h1.45A1.82,1.82,0,0,1,613,70.13V83.28h13.14a1.81,1.81,0,0,1,1.81,1.81v1.13A1.81,1.81,0,0,1,626.13,88H613v31.48a1.82,1.82,0,0,1-1.81,1.82h-1.46a1.83,1.83,0,0,1-1.82-1.82Z"/><path class="cls-6" d="M607.43,87.59H594.27a1.81,1.81,0,0,1-1.81-1.82V84.64a1.81,1.81,0,0,1,1.81-1.82h13.15V69.63a1.82,1.82,0,0,1,1.81-1.82h1.45a1.82,1.82,0,0,1,1.81,1.82V82.78h13.14a1.81,1.81,0,0,1,1.81,1.81v1.13a1.81,1.81,0,0,1-1.81,1.81H612.52V119a1.82,1.82,0,0,1-1.81,1.82h-1.46a1.83,1.83,0,0,1-1.82-1.82Z"/><path class="cls-6" d="M606.93,87.09H593.77A1.81,1.81,0,0,1,592,85.27V84.14a1.81,1.81,0,0,1,1.81-1.82h13.15V69.13a1.82,1.82,0,0,1,1.81-1.82h1.45A1.82,1.82,0,0,1,612,69.13V82.28h13.14a1.81,1.81,0,0,1,1.81,1.81v1.13A1.81,1.81,0,0,1,625.13,87H612v31.48a1.82,1.82,0,0,1-1.81,1.82h-1.46a1.83,1.83,0,0,1-1.82-1.82Z"/><path class="cls-6" d="M606.43,86.59H593.27a1.81,1.81,0,0,1-1.81-1.82V83.64a1.81,1.81,0,0,1,1.81-1.82h13.15V68.63a1.82,1.82,0,0,1,1.81-1.82h1.45a1.82,1.82,0,0,1,1.81,1.82V81.78h13.14a1.81,1.81,0,0,1,1.81,1.81v1.13a1.81,1.81,0,0,1-1.81,1.81H611.52V118a1.82,1.82,0,0,1-1.81,1.82h-1.46a1.83,1.83,0,0,1-1.82-1.82Z"/><path class="cls-6" d="M605.93,86.09H592.77A1.81,1.81,0,0,1,591,84.27V83.14a1.81,1.81,0,0,1,1.81-1.82h13.15V68.13a1.82,1.82,0,0,1,1.81-1.82h1.45A1.82,1.82,0,0,1,611,68.13V81.28h13.14a1.81,1.81,0,0,1,1.81,1.81v1.13A1.81,1.81,0,0,1,624.13,86H611v31.48a1.82,1.82,0,0,1-1.81,1.82h-1.46a1.83,1.83,0,0,1-1.82-1.82Z"/><path class="cls-6" d="M605.43,85.59H592.27a1.81,1.81,0,0,1-1.81-1.82V82.64a1.81,1.81,0,0,1,1.81-1.82h13.15V67.63a1.82,1.82,0,0,1,1.81-1.82h1.45a1.82,1.82,0,0,1,1.81,1.82V80.78h13.14a1.81,1.81,0,0,1,1.81,1.81v1.13a1.81,1.81,0,0,1-1.81,1.81H610.52V117a1.82,1.82,0,0,1-1.81,1.82h-1.46a1.83,1.83,0,0,1-1.82-1.82Z"/><path class="cls-6" d="M604.93,85.09H591.77A1.81,1.81,0,0,1,590,83.27V82.14a1.81,1.81,0,0,1,1.81-1.82h13.15V67.13a1.82,1.82,0,0,1,1.81-1.82h1.45A1.82,1.82,0,0,1,610,67.13V80.28h13.14a1.81,1.81,0,0,1,1.81,1.81v1.13A1.81,1.81,0,0,1,623.13,85H610v31.48a1.82,1.82,0,0,1-1.81,1.82h-1.46a1.83,1.83,0,0,1-1.82-1.82Z"/><path class="cls-6" d="M604.43,84.59H591.27a1.81,1.81,0,0,1-1.81-1.82V81.64a1.81,1.81,0,0,1,1.81-1.82h13.15V66.63a1.82,1.82,0,0,1,1.81-1.82h1.45a1.82,1.82,0,0,1,1.81,1.82V79.78h13.14a1.81,1.81,0,0,1,1.81,1.81v1.13a1.81,1.81,0,0,1-1.81,1.81H609.52V116a1.82,1.82,0,0,1-1.81,1.82h-1.46a1.83,1.83,0,0,1-1.82-1.82Z"/><path class="cls-6" d="M603.93,84.09H590.77A1.81,1.81,0,0,1,589,82.27V81.14a1.81,1.81,0,0,1,1.81-1.82h13.15V66.13a1.82,1.82,0,0,1,1.81-1.82h1.45A1.82,1.82,0,0,1,609,66.13V79.28h13.14a1.81,1.81,0,0,1,1.81,1.81v1.13A1.81,1.81,0,0,1,622.13,84H609v31.48a1.82,1.82,0,0,1-1.81,1.82h-1.46a1.83,1.83,0,0,1-1.82-1.82Z"/><path class="cls-6" d="M603.43,83.59H590.27a1.81,1.81,0,0,1-1.81-1.82V80.64a1.81,1.81,0,0,1,1.81-1.82h13.15V65.63a1.82,1.82,0,0,1,1.81-1.82h1.45a1.82,1.82,0,0,1,1.81,1.82V78.78h13.14a1.81,1.81,0,0,1,1.81,1.81v1.13a1.81,1.81,0,0,1-1.81,1.81H608.52V115a1.82,1.82,0,0,1-1.81,1.82h-1.46a1.83,1.83,0,0,1-1.82-1.82Z"/><path class="cls-6" d="M602.93,83.09H589.77A1.81,1.81,0,0,1,588,81.27V80.14a1.81,1.81,0,0,1,1.81-1.82h13.15V65.13a1.82,1.82,0,0,1,1.81-1.82h1.45A1.82,1.82,0,0,1,608,65.13V78.28h13.14a1.81,1.81,0,0,1,1.81,1.81v1.13A1.81,1.81,0,0,1,621.13,83H608v31.48a1.82,1.82,0,0,1-1.81,1.82h-1.46a1.83,1.83,0,0,1-1.82-1.82Z"/><path class="cls-6" d="M602.43,82.59H589.27a1.81,1.81,0,0,1-1.81-1.82V79.64a1.81,1.81,0,0,1,1.81-1.82h13.15V64.63a1.82,1.82,0,0,1,1.81-1.82h1.45a1.82,1.82,0,0,1,1.81,1.82V77.78h13.14a1.81,1.81,0,0,1,1.81,1.81v1.13a1.81,1.81,0,0,1-1.81,1.81H607.52V114a1.82,1.82,0,0,1-1.81,1.82h-1.46a1.83,1.83,0,0,1-1.82-1.82Z"/><path class="cls-6" d="M601.93,82.09H588.77A1.81,1.81,0,0,1,587,80.27V79.14a1.81,1.81,0,0,1,1.81-1.82h13.15V64.13a1.82,1.82,0,0,1,1.81-1.82h1.45A1.82,1.82,0,0,1,607,64.13V77.28h13.14a1.81,1.81,0,0,1,1.81,1.81v1.13A1.81,1.81,0,0,1,620.13,82H607v31.48a1.82,1.82,0,0,1-1.81,1.82h-1.46a1.83,1.83,0,0,1-1.82-1.82Z"/><path class="cls-6" d="M601.43,81.59H588.27a1.81,1.81,0,0,1-1.81-1.82V78.64a1.81,1.81,0,0,1,1.81-1.82h13.15V63.63a1.82,1.82,0,0,1,1.81-1.82h1.45a1.82,1.82,0,0,1,1.81,1.82V76.78h13.14a1.81,1.81,0,0,1,1.81,1.81v1.13a1.81,1.81,0,0,1-1.81,1.81H606.52V113a1.82,1.82,0,0,1-1.81,1.82h-1.46a1.83,1.83,0,0,1-1.82-1.82Z"/><path class="cls-6" d="M600.93,81.09H587.77A1.81,1.81,0,0,1,586,79.27V78.14a1.81,1.81,0,0,1,1.81-1.82h13.15V63.13a1.82,1.82,0,0,1,1.81-1.82h1.45A1.82,1.82,0,0,1,606,63.13V76.28h13.14a1.81,1.81,0,0,1,1.81,1.81v1.13A1.81,1.81,0,0,1,619.13,81H606v31.48a1.82,1.82,0,0,1-1.81,1.82h-1.46a1.83,1.83,0,0,1-1.82-1.82Z"/><path class="cls-6" d="M600.43,80.59H587.27a1.81,1.81,0,0,1-1.81-1.82V77.64a1.81,1.81,0,0,1,1.81-1.82h13.15V62.63a1.82,1.82,0,0,1,1.81-1.82h1.45a1.82,1.82,0,0,1,1.81,1.82V75.78h13.14a1.81,1.81,0,0,1,1.81,1.81v1.13a1.81,1.81,0,0,1-1.81,1.81H605.52V112a1.82,1.82,0,0,1-1.81,1.82h-1.46a1.83,1.83,0,0,1-1.82-1.82Z"/><path class="cls-6" d="M599.93,80.09H586.77A1.81,1.81,0,0,1,585,78.27V77.14a1.81,1.81,0,0,1,1.81-1.82h13.15V62.13a1.82,1.82,0,0,1,1.81-1.82h1.45A1.82,1.82,0,0,1,605,62.13V75.28h13.14a1.81,1.81,0,0,1,1.81,1.81v1.13A1.81,1.81,0,0,1,618.13,80H605v31.48a1.82,1.82,0,0,1-1.81,1.82h-1.46a1.83,1.83,0,0,1-1.82-1.82Z"/><path class="cls-6" d="M599.43,79.59H586.27a1.81,1.81,0,0,1-1.81-1.82V76.64a1.81,1.81,0,0,1,1.81-1.82h13.15V61.63a1.82,1.82,0,0,1,1.81-1.82h1.45a1.82,1.82,0,0,1,1.81,1.82V74.78h13.14a1.81,1.81,0,0,1,1.81,1.81v1.13a1.81,1.81,0,0,1-1.81,1.81H604.52V111a1.82,1.82,0,0,1-1.81,1.82h-1.46a1.83,1.83,0,0,1-1.82-1.82Z"/><path class="cls-6" d="M598.93,79.09H585.77A1.81,1.81,0,0,1,584,77.27V76.14a1.81,1.81,0,0,1,1.81-1.82h13.15V61.13a1.82,1.82,0,0,1,1.81-1.82h1.45A1.82,1.82,0,0,1,604,61.13V74.28h13.14a1.81,1.81,0,0,1,1.81,1.81v1.13A1.81,1.81,0,0,1,617.13,79H604v31.48a1.82,1.82,0,0,1-1.81,1.82h-1.46a1.83,1.83,0,0,1-1.82-1.82Z"/><path class="cls-6" d="M598.43,78.59H585.27a1.81,1.81,0,0,1-1.81-1.82V75.64a1.81,1.81,0,0,1,1.81-1.82h13.15V60.63a1.82,1.82,0,0,1,1.81-1.82h1.45a1.82,1.82,0,0,1,1.81,1.82V73.78h13.14a1.81,1.81,0,0,1,1.81,1.81v1.13a1.81,1.81,0,0,1-1.81,1.81H603.52V110a1.82,1.82,0,0,1-1.81,1.82h-1.46a1.83,1.83,0,0,1-1.82-1.82Z"/><path class="cls-6" d="M597.93,78.09H584.77A1.81,1.81,0,0,1,583,76.27V75.14a1.81,1.81,0,0,1,1.81-1.82h13.15V60.13a1.82,1.82,0,0,1,1.81-1.82h1.45A1.82,1.82,0,0,1,603,60.13V73.28h13.14a1.81,1.81,0,0,1,1.81,1.81v1.13A1.81,1.81,0,0,1,616.13,78H603v31.48a1.82,1.82,0,0,1-1.81,1.82h-1.46a1.83,1.83,0,0,1-1.82-1.82Z"/><path class="cls-6" d="M597.43,77.59H584.27a1.81,1.81,0,0,1-1.81-1.82V74.64a1.81,1.81,0,0,1,1.81-1.82h13.15V59.63a1.82,1.82,0,0,1,1.81-1.82h1.45a1.82,1.82,0,0,1,1.81,1.82V72.78h13.14a1.81,1.81,0,0,1,1.81,1.81v1.13a1.81,1.81,0,0,1-1.81,1.81H602.52V109a1.82,1.82,0,0,1-1.81,1.82h-1.46a1.83,1.83,0,0,1-1.82-1.82Z"/><path class="cls-6" d="M596.93,77.09H583.77A1.81,1.81,0,0,1,582,75.27V74.14a1.81,1.81,0,0,1,1.81-1.82h13.15V59.13a1.82,1.82,0,0,1,1.81-1.82h1.45A1.82,1.82,0,0,1,602,59.13V72.28h13.14a1.81,1.81,0,0,1,1.81,1.81v1.13A1.81,1.81,0,0,1,615.13,77H602v31.48a1.82,1.82,0,0,1-1.81,1.82h-1.46a1.83,1.83,0,0,1-1.82-1.82Z"/><path class="cls-6" d="M596.43,76.59H583.27a1.81,1.81,0,0,1-1.81-1.82V73.64a1.81,1.81,0,0,1,1.81-1.82h13.15V58.63a1.82,1.82,0,0,1,1.81-1.82h1.45a1.82,1.82,0,0,1,1.81,1.82V71.78h13.14a1.81,1.81,0,0,1,1.81,1.81v1.13a1.81,1.81,0,0,1-1.81,1.81H601.52V108a1.82,1.82,0,0,1-1.81,1.82h-1.46a1.83,1.83,0,0,1-1.82-1.82Z"/><path class="cls-6" d="M595.93,76.09H582.77A1.81,1.81,0,0,1,581,74.27V73.14a1.81,1.81,0,0,1,1.81-1.82h13.15V58.13a1.82,1.82,0,0,1,1.81-1.82h1.45A1.82,1.82,0,0,1,601,58.13V71.28h13.14a1.81,1.81,0,0,1,1.81,1.81v1.13A1.81,1.81,0,0,1,614.13,76H601v31.48a1.82,1.82,0,0,1-1.81,1.82h-1.46a1.83,1.83,0,0,1-1.82-1.82Z"/><path class="cls-6" d="M595.43,75.59H582.27a1.81,1.81,0,0,1-1.81-1.82V72.64a1.81,1.81,0,0,1,1.81-1.82h13.15V57.63a1.82,1.82,0,0,1,1.81-1.82h1.45a1.82,1.82,0,0,1,1.81,1.82V70.78h13.14a1.81,1.81,0,0,1,1.81,1.81v1.13a1.81,1.81,0,0,1-1.81,1.81H600.52V107a1.82,1.82,0,0,1-1.81,1.82h-1.46a1.83,1.83,0,0,1-1.82-1.82Z"/><path class="cls-6" d="M594.93,75.09H581.77A1.81,1.81,0,0,1,580,73.27V72.14a1.81,1.81,0,0,1,1.81-1.82h13.15V57.13a1.82,1.82,0,0,1,1.81-1.82h1.45A1.82,1.82,0,0,1,600,57.13V70.28h13.14a1.81,1.81,0,0,1,1.81,1.81v1.13A1.81,1.81,0,0,1,613.13,75H600v31.48a1.82,1.82,0,0,1-1.81,1.82h-1.46a1.83,1.83,0,0,1-1.82-1.82Z"/><path class="cls-6" d="M594.43,74.59H581.27a1.81,1.81,0,0,1-1.81-1.82V71.64a1.81,1.81,0,0,1,1.81-1.82h13.15V56.63a1.82,1.82,0,0,1,1.81-1.82h1.45a1.82,1.82,0,0,1,1.81,1.82V69.78h13.14a1.81,1.81,0,0,1,1.81,1.81v1.13a1.81,1.81,0,0,1-1.81,1.81H599.52V106a1.82,1.82,0,0,1-1.81,1.82h-1.46a1.83,1.83,0,0,1-1.82-1.82Z"/><path class="cls-6" d="M593.93,74.09H580.77A1.81,1.81,0,0,1,579,72.27V71.14a1.81,1.81,0,0,1,1.81-1.82h13.15V56.13a1.82,1.82,0,0,1,1.81-1.82h1.45A1.82,1.82,0,0,1,599,56.13V69.28h13.14a1.81,1.81,0,0,1,1.81,1.81v1.13A1.81,1.81,0,0,1,612.13,74H599v31.48a1.82,1.82,0,0,1-1.81,1.82h-1.46a1.83,1.83,0,0,1-1.82-1.82Z"/><path class="cls-6" d="M593.43,73.59H580.27a1.81,1.81,0,0,1-1.81-1.82V70.64a1.81,1.81,0,0,1,1.81-1.82h13.15V55.63a1.82,1.82,0,0,1,1.81-1.82h1.45a1.82,1.82,0,0,1,1.81,1.82V68.78h13.14a1.81,1.81,0,0,1,1.81,1.81v1.13a1.81,1.81,0,0,1-1.81,1.81H598.52V105a1.82,1.82,0,0,1-1.81,1.82h-1.46a1.83,1.83,0,0,1-1.82-1.82Z"/><path class="cls-6" d="M592.93,73.09H579.77A1.81,1.81,0,0,1,578,71.27V70.14a1.81,1.81,0,0,1,1.81-1.82h13.15V55.13a1.82,1.82,0,0,1,1.81-1.82h1.45A1.82,1.82,0,0,1,598,55.13V68.28h13.14a1.81,1.81,0,0,1,1.81,1.81v1.13A1.81,1.81,0,0,1,611.13,73H598v31.48a1.82,1.82,0,0,1-1.81,1.82h-1.46a1.83,1.83,0,0,1-1.82-1.82Z"/><path class="cls-6" d="M592.43,72.59H579.27a1.81,1.81,0,0,1-1.81-1.82V69.64a1.81,1.81,0,0,1,1.81-1.82h13.15V54.63a1.82,1.82,0,0,1,1.81-1.82h1.45a1.82,1.82,0,0,1,1.81,1.82V67.78h13.14a1.81,1.81,0,0,1,1.81,1.81v1.13a1.81,1.81,0,0,1-1.81,1.81H597.52V104a1.82,1.82,0,0,1-1.81,1.82h-1.46a1.83,1.83,0,0,1-1.82-1.82Z"/><path class="cls-6" d="M591.93,72.09H578.77A1.81,1.81,0,0,1,577,70.27V69.14a1.81,1.81,0,0,1,1.81-1.82h13.15V54.13a1.82,1.82,0,0,1,1.81-1.82h1.45A1.82,1.82,0,0,1,597,54.13V67.28h13.14a1.81,1.81,0,0,1,1.81,1.81v1.13A1.81,1.81,0,0,1,610.13,72H597v31.48a1.82,1.82,0,0,1-1.81,1.82h-1.46a1.83,1.83,0,0,1-1.82-1.82Z"/><path class="cls-6" d="M591.43,71.59H578.27a1.81,1.81,0,0,1-1.81-1.82V68.64a1.81,1.81,0,0,1,1.81-1.82h13.15V53.63a1.82,1.82,0,0,1,1.81-1.82h1.45a1.82,1.82,0,0,1,1.81,1.82V66.78h13.14a1.81,1.81,0,0,1,1.81,1.81v1.13a1.81,1.81,0,0,1-1.81,1.81H596.52V103a1.82,1.82,0,0,1-1.81,1.82h-1.46a1.83,1.83,0,0,1-1.82-1.82Z"/><path class="cls-6" d="M590.93,71.09H577.77A1.81,1.81,0,0,1,576,69.27V68.14a1.81,1.81,0,0,1,1.81-1.82h13.15V53.13a1.82,1.82,0,0,1,1.81-1.82h1.45A1.82,1.82,0,0,1,596,53.13V66.28h13.14a1.81,1.81,0,0,1,1.81,1.81v1.13A1.81,1.81,0,0,1,609.13,71H596v31.48a1.82,1.82,0,0,1-1.81,1.82h-1.46a1.83,1.83,0,0,1-1.82-1.82Z"/><path class="cls-6" d="M590.43,70.59H577.27a1.81,1.81,0,0,1-1.81-1.82V67.64a1.81,1.81,0,0,1,1.81-1.82h13.15V52.63a1.82,1.82,0,0,1,1.81-1.82h1.45a1.82,1.82,0,0,1,1.81,1.82V65.78h13.14a1.81,1.81,0,0,1,1.81,1.81v1.13a1.81,1.81,0,0,1-1.81,1.81H595.52V102a1.82,1.82,0,0,1-1.81,1.82h-1.46a1.83,1.83,0,0,1-1.82-1.82Z"/><path class="cls-6" d="M589.93,70.09H576.77A1.81,1.81,0,0,1,575,68.27V67.14a1.81,1.81,0,0,1,1.81-1.82h13.15V52.13a1.82,1.82,0,0,1,1.81-1.82h1.45A1.82,1.82,0,0,1,595,52.13V65.28h13.14a1.81,1.81,0,0,1,1.81,1.81v1.13A1.81,1.81,0,0,1,608.13,70H595v31.48a1.82,1.82,0,0,1-1.81,1.82h-1.46a1.83,1.83,0,0,1-1.82-1.82Z"/><path class="cls-6" d="M589.43,69.59H576.27a1.81,1.81,0,0,1-1.81-1.82V66.64a1.81,1.81,0,0,1,1.81-1.82h13.15V51.63a1.82,1.82,0,0,1,1.81-1.82h1.45a1.82,1.82,0,0,1,1.81,1.82V64.78h13.14a1.81,1.81,0,0,1,1.81,1.81v1.13a1.81,1.81,0,0,1-1.81,1.81H594.52V101a1.82,1.82,0,0,1-1.81,1.82h-1.46a1.83,1.83,0,0,1-1.82-1.82Z"/><path class="cls-6" d="M588.93,69.09H575.77A1.81,1.81,0,0,1,574,67.27V66.14a1.81,1.81,0,0,1,1.81-1.82h13.15V51.13a1.82,1.82,0,0,1,1.81-1.82h1.45A1.82,1.82,0,0,1,594,51.13V64.28h13.14a1.81,1.81,0,0,1,1.81,1.81v1.13A1.81,1.81,0,0,1,607.13,69H594v31.48a1.82,1.82,0,0,1-1.81,1.82h-1.46a1.83,1.83,0,0,1-1.82-1.82Z"/><path class="cls-6" d="M588.43,68.59H575.27a1.81,1.81,0,0,1-1.81-1.82V65.64a1.81,1.81,0,0,1,1.81-1.82h13.15V50.63a1.82,1.82,0,0,1,1.81-1.82h1.45a1.82,1.82,0,0,1,1.81,1.82V63.78h13.14a1.81,1.81,0,0,1,1.81,1.81v1.13a1.81,1.81,0,0,1-1.81,1.81H593.52V100a1.82,1.82,0,0,1-1.81,1.82h-1.46a1.83,1.83,0,0,1-1.82-1.82Z"/><path class="cls-6" d="M587.93,68.09H574.77A1.81,1.81,0,0,1,573,66.27V65.14a1.81,1.81,0,0,1,1.81-1.82h13.15V50.13a1.82,1.82,0,0,1,1.81-1.82h1.45A1.82,1.82,0,0,1,593,50.13V63.28h13.14a1.81,1.81,0,0,1,1.81,1.81v1.13A1.81,1.81,0,0,1,606.13,68H593V99.51a1.82,1.82,0,0,1-1.81,1.82h-1.46a1.83,1.83,0,0,1-1.82-1.82Z"/><path class="cls-6" d="M587.43,67.59H574.27a1.81,1.81,0,0,1-1.81-1.82V64.64a1.81,1.81,0,0,1,1.81-1.82h13.15V49.63a1.82,1.82,0,0,1,1.81-1.82h1.45a1.82,1.82,0,0,1,1.81,1.82V62.78h13.14a1.81,1.81,0,0,1,1.81,1.81v1.13a1.81,1.81,0,0,1-1.81,1.81H592.52V99a1.82,1.82,0,0,1-1.81,1.82h-1.46A1.83,1.83,0,0,1,587.43,99Z"/><path class="cls-6" d="M586.93,67.09H573.77A1.81,1.81,0,0,1,572,65.27V64.14a1.81,1.81,0,0,1,1.81-1.82h13.15V49.13a1.82,1.82,0,0,1,1.81-1.82h1.45A1.82,1.82,0,0,1,592,49.13V62.28h13.14a1.81,1.81,0,0,1,1.81,1.81v1.13A1.81,1.81,0,0,1,605.13,67H592V98.51a1.82,1.82,0,0,1-1.81,1.82h-1.46a1.83,1.83,0,0,1-1.82-1.82Z"/><path class="cls-6" d="M586.43,66.59H573.27a1.81,1.81,0,0,1-1.81-1.82V63.64a1.81,1.81,0,0,1,1.81-1.82h13.15V48.63a1.82,1.82,0,0,1,1.81-1.82h1.45a1.82,1.82,0,0,1,1.81,1.82V61.78h13.14a1.81,1.81,0,0,1,1.81,1.81v1.13a1.81,1.81,0,0,1-1.81,1.81H591.52V98a1.82,1.82,0,0,1-1.81,1.82h-1.46A1.83,1.83,0,0,1,586.43,98Z"/><path class="cls-6" d="M585.93,66.09H572.77A1.81,1.81,0,0,1,571,64.27V63.14a1.81,1.81,0,0,1,1.81-1.82h13.15V48.13a1.82,1.82,0,0,1,1.81-1.82h1.45A1.82,1.82,0,0,1,591,48.13V61.28h13.14a1.81,1.81,0,0,1,1.81,1.81v1.13A1.81,1.81,0,0,1,604.13,66H591V97.51a1.82,1.82,0,0,1-1.81,1.82h-1.46a1.83,1.83,0,0,1-1.82-1.82Z"/><path class="cls-6" d="M585.43,65.59H572.27a1.81,1.81,0,0,1-1.81-1.82V62.64a1.81,1.81,0,0,1,1.81-1.82h13.15V47.63a1.82,1.82,0,0,1,1.81-1.82h1.45a1.82,1.82,0,0,1,1.81,1.82V60.78h13.14a1.81,1.81,0,0,1,1.81,1.81v1.13a1.81,1.81,0,0,1-1.81,1.81H590.52V97a1.82,1.82,0,0,1-1.81,1.82h-1.46A1.83,1.83,0,0,1,585.43,97Z"/><path class="cls-6" d="M584.93,65.09H571.77A1.81,1.81,0,0,1,570,63.27V62.14a1.81,1.81,0,0,1,1.81-1.82h13.15V47.13a1.82,1.82,0,0,1,1.81-1.82h1.45A1.82,1.82,0,0,1,590,47.13V60.28h13.14a1.81,1.81,0,0,1,1.81,1.81v1.13A1.81,1.81,0,0,1,603.13,65H590V96.51a1.82,1.82,0,0,1-1.81,1.82h-1.46a1.83,1.83,0,0,1-1.82-1.82Z"/><path class="cls-6" d="M584.43,64.59H571.27a1.81,1.81,0,0,1-1.81-1.82V61.64a1.81,1.81,0,0,1,1.81-1.82h13.15V46.63a1.82,1.82,0,0,1,1.81-1.82h1.45a1.82,1.82,0,0,1,1.81,1.82V59.78h13.14a1.81,1.81,0,0,1,1.81,1.81v1.13a1.81,1.81,0,0,1-1.81,1.81H589.52V96a1.82,1.82,0,0,1-1.81,1.82h-1.46A1.83,1.83,0,0,1,584.43,96Z"/><path class="cls-6" d="M583.93,64.09H570.77A1.81,1.81,0,0,1,569,62.27V61.14a1.81,1.81,0,0,1,1.81-1.82h13.15V46.13a1.82,1.82,0,0,1,1.81-1.82h1.45A1.82,1.82,0,0,1,589,46.13V59.28h13.14a1.81,1.81,0,0,1,1.81,1.81v1.13A1.81,1.81,0,0,1,602.13,64H589V95.51a1.82,1.82,0,0,1-1.81,1.82h-1.46a1.83,1.83,0,0,1-1.82-1.82Z"/><path class="cls-6" d="M583.43,63.59H570.27a1.81,1.81,0,0,1-1.81-1.82V60.64a1.81,1.81,0,0,1,1.81-1.82h13.15V45.63a1.82,1.82,0,0,1,1.81-1.82h1.45a1.82,1.82,0,0,1,1.81,1.82V58.78h13.14a1.81,1.81,0,0,1,1.81,1.81v1.13a1.81,1.81,0,0,1-1.81,1.81H588.52V95a1.82,1.82,0,0,1-1.81,1.82h-1.46A1.83,1.83,0,0,1,583.43,95Z"/><path class="cls-6" d="M582.93,63.09H569.77A1.81,1.81,0,0,1,568,61.27V60.14a1.81,1.81,0,0,1,1.81-1.82h13.15V45.13a1.82,1.82,0,0,1,1.81-1.82h1.45A1.82,1.82,0,0,1,588,45.13V58.28h13.14a1.81,1.81,0,0,1,1.81,1.81v1.13A1.81,1.81,0,0,1,601.13,63H588V94.51a1.82,1.82,0,0,1-1.81,1.82h-1.46a1.83,1.83,0,0,1-1.82-1.82Z"/><path class="cls-6" d="M582.43,62.59H569.27a1.81,1.81,0,0,1-1.81-1.82V59.64a1.81,1.81,0,0,1,1.81-1.82h13.15V44.63a1.82,1.82,0,0,1,1.81-1.82h1.45a1.82,1.82,0,0,1,1.81,1.82V57.78h13.14a1.81,1.81,0,0,1,1.81,1.81v1.13a1.81,1.81,0,0,1-1.81,1.81H587.52V94a1.82,1.82,0,0,1-1.81,1.82h-1.46A1.83,1.83,0,0,1,582.43,94Z"/><path class="cls-6" d="M581.93,62.09H568.77A1.81,1.81,0,0,1,567,60.27V59.14a1.81,1.81,0,0,1,1.81-1.82h13.15V44.13a1.82,1.82,0,0,1,1.81-1.82h1.45A1.82,1.82,0,0,1,587,44.13V57.28h13.14a1.81,1.81,0,0,1,1.81,1.81v1.13A1.81,1.81,0,0,1,600.13,62H587V93.51a1.82,1.82,0,0,1-1.81,1.82h-1.46a1.83,1.83,0,0,1-1.82-1.82Z"/><path class="cls-6" d="M581.43,61.59H568.27a1.81,1.81,0,0,1-1.81-1.82V58.64a1.81,1.81,0,0,1,1.81-1.82h13.15V43.63a1.82,1.82,0,0,1,1.81-1.82h1.45a1.82,1.82,0,0,1,1.81,1.82V56.78h13.14a1.81,1.81,0,0,1,1.81,1.81v1.13a1.81,1.81,0,0,1-1.81,1.81H586.52V93a1.82,1.82,0,0,1-1.81,1.82h-1.46A1.83,1.83,0,0,1,581.43,93Z"/><path class="cls-6" d="M580.93,61.09H567.77A1.81,1.81,0,0,1,566,59.27V58.14a1.81,1.81,0,0,1,1.81-1.82h13.15V43.13a1.82,1.82,0,0,1,1.81-1.82h1.45A1.82,1.82,0,0,1,586,43.13V56.28h13.14a1.81,1.81,0,0,1,1.81,1.81v1.13A1.81,1.81,0,0,1,599.13,61H586V92.51a1.82,1.82,0,0,1-1.81,1.82h-1.46a1.83,1.83,0,0,1-1.82-1.82Z"/><path class="cls-6" d="M580.43,60.59H567.27a1.81,1.81,0,0,1-1.81-1.82V57.64a1.81,1.81,0,0,1,1.81-1.82h13.15V42.63a1.82,1.82,0,0,1,1.81-1.82h1.45a1.82,1.82,0,0,1,1.81,1.82V55.78h13.14a1.81,1.81,0,0,1,1.81,1.81v1.13a1.81,1.81,0,0,1-1.81,1.81H585.52V92a1.82,1.82,0,0,1-1.81,1.82h-1.46A1.83,1.83,0,0,1,580.43,92Z"/><path class="cls-6" d="M579.93,60.09H566.77A1.81,1.81,0,0,1,565,58.27V57.14a1.81,1.81,0,0,1,1.81-1.82h13.15V42.13a1.82,1.82,0,0,1,1.81-1.82h1.45A1.82,1.82,0,0,1,585,42.13V55.28h13.14a1.81,1.81,0,0,1,1.81,1.81v1.13A1.81,1.81,0,0,1,598.13,60H585V91.51a1.82,1.82,0,0,1-1.81,1.82h-1.46a1.83,1.83,0,0,1-1.82-1.82Z"/><path class="cls-6" d="M579.43,59.59H566.27a1.81,1.81,0,0,1-1.81-1.82V56.64a1.81,1.81,0,0,1,1.81-1.82h13.15V41.63a1.82,1.82,0,0,1,1.81-1.82h1.45a1.82,1.82,0,0,1,1.81,1.82V54.78h13.14a1.81,1.81,0,0,1,1.81,1.81v1.13a1.81,1.81,0,0,1-1.81,1.81H584.52V91a1.82,1.82,0,0,1-1.81,1.82h-1.46A1.83,1.83,0,0,1,579.43,91Z"/><path class="cls-6" d="M578.93,59.09H565.77A1.81,1.81,0,0,1,564,57.27V56.14a1.81,1.81,0,0,1,1.81-1.82h13.15V41.13a1.82,1.82,0,0,1,1.81-1.82h1.45A1.82,1.82,0,0,1,584,41.13V54.28h13.14a1.81,1.81,0,0,1,1.81,1.81v1.13A1.81,1.81,0,0,1,597.13,59H584V90.51a1.82,1.82,0,0,1-1.81,1.82h-1.46a1.83,1.83,0,0,1-1.82-1.82Z"/><path class="cls-6" d="M578.43,58.59H565.27a1.81,1.81,0,0,1-1.81-1.82V55.64a1.81,1.81,0,0,1,1.81-1.82h13.15V40.63a1.82,1.82,0,0,1,1.81-1.82h1.45a1.82,1.82,0,0,1,1.81,1.82V53.78h13.14a1.81,1.81,0,0,1,1.81,1.81v1.13a1.81,1.81,0,0,1-1.81,1.81H583.52V90a1.82,1.82,0,0,1-1.81,1.82h-1.46A1.83,1.83,0,0,1,578.43,90Z"/><path class="cls-6" d="M577.93,58.09H564.77A1.81,1.81,0,0,1,563,56.27V55.14a1.81,1.81,0,0,1,1.81-1.82h13.15V40.13a1.82,1.82,0,0,1,1.81-1.82h1.45A1.82,1.82,0,0,1,583,40.13V53.28h13.14a1.81,1.81,0,0,1,1.81,1.81v1.13A1.81,1.81,0,0,1,596.13,58H583V89.51a1.82,1.82,0,0,1-1.81,1.82h-1.46a1.83,1.83,0,0,1-1.82-1.82Z"/><path class="cls-6" d="M577.43,57.59H564.27a1.81,1.81,0,0,1-1.81-1.82V54.64a1.81,1.81,0,0,1,1.81-1.82h13.15V39.63a1.82,1.82,0,0,1,1.81-1.82h1.45a1.82,1.82,0,0,1,1.81,1.82V52.78h13.14a1.81,1.81,0,0,1,1.81,1.81v1.13a1.81,1.81,0,0,1-1.81,1.81H582.52V89a1.82,1.82,0,0,1-1.81,1.82h-1.46A1.83,1.83,0,0,1,577.43,89Z"/><path class="cls-6" d="M576.93,57.09H563.77A1.81,1.81,0,0,1,562,55.27V54.14a1.81,1.81,0,0,1,1.81-1.82h13.15V39.13a1.82,1.82,0,0,1,1.81-1.82h1.45A1.82,1.82,0,0,1,582,39.13V52.28h13.14a1.81,1.81,0,0,1,1.81,1.81v1.13A1.81,1.81,0,0,1,595.13,57H582V88.51a1.82,1.82,0,0,1-1.81,1.82h-1.46a1.83,1.83,0,0,1-1.82-1.82Z"/><path class="cls-6" d="M576.43,56.59H563.27a1.81,1.81,0,0,1-1.81-1.82V53.64a1.81,1.81,0,0,1,1.81-1.82h13.15V38.63a1.82,1.82,0,0,1,1.81-1.82h1.45a1.82,1.82,0,0,1,1.81,1.82V51.78h13.14a1.81,1.81,0,0,1,1.81,1.81v1.13a1.81,1.81,0,0,1-1.81,1.81H581.52V88a1.82,1.82,0,0,1-1.81,1.82h-1.46A1.83,1.83,0,0,1,576.43,88Z"/><path class="cls-6" d="M575.93,56.09H562.77A1.81,1.81,0,0,1,561,54.27V53.14a1.81,1.81,0,0,1,1.81-1.82h13.15V38.13a1.82,1.82,0,0,1,1.81-1.82h1.45A1.82,1.82,0,0,1,581,38.13V51.28h13.14a1.81,1.81,0,0,1,1.81,1.81v1.13A1.81,1.81,0,0,1,594.13,56H581V87.51a1.82,1.82,0,0,1-1.81,1.82h-1.46a1.83,1.83,0,0,1-1.82-1.82Z"/><path class="cls-6" d="M575.43,55.59H562.27a1.81,1.81,0,0,1-1.81-1.82V52.64a1.81,1.81,0,0,1,1.81-1.82h13.15V37.63a1.82,1.82,0,0,1,1.81-1.82h1.45a1.82,1.82,0,0,1,1.81,1.82V50.78h13.14a1.81,1.81,0,0,1,1.81,1.81v1.13a1.81,1.81,0,0,1-1.81,1.81H580.52V87a1.82,1.82,0,0,1-1.81,1.82h-1.46A1.83,1.83,0,0,1,575.43,87Z"/><path class="cls-6" d="M574.93,55.09H561.77A1.81,1.81,0,0,1,560,53.27V52.14a1.81,1.81,0,0,1,1.81-1.82h13.15V37.13a1.82,1.82,0,0,1,1.81-1.82h1.45A1.82,1.82,0,0,1,580,37.13V50.28h13.14a1.81,1.81,0,0,1,1.81,1.81v1.13A1.81,1.81,0,0,1,593.13,55H580V86.51a1.82,1.82,0,0,1-1.81,1.82h-1.46a1.83,1.83,0,0,1-1.82-1.82Z"/><path class="cls-6" d="M574.43,54.59H561.27a1.81,1.81,0,0,1-1.81-1.82V51.64a1.81,1.81,0,0,1,1.81-1.82h13.15V36.63a1.82,1.82,0,0,1,1.81-1.82h1.45a1.82,1.82,0,0,1,1.81,1.82V49.78h13.14a1.81,1.81,0,0,1,1.81,1.81v1.13a1.81,1.81,0,0,1-1.81,1.81H579.52V86a1.82,1.82,0,0,1-1.81,1.82h-1.46A1.83,1.83,0,0,1,574.43,86Z"/><path class="cls-6" d="M573.93,54.09H560.77A1.81,1.81,0,0,1,559,52.27V51.14a1.81,1.81,0,0,1,1.81-1.82h13.15V36.13a1.82,1.82,0,0,1,1.81-1.82h1.45A1.82,1.82,0,0,1,579,36.13V49.28h13.14a1.81,1.81,0,0,1,1.81,1.81v1.13A1.81,1.81,0,0,1,592.13,54H579V85.51a1.82,1.82,0,0,1-1.81,1.82h-1.46a1.83,1.83,0,0,1-1.82-1.82Z"/><path class="cls-6" d="M573.43,53.59H560.27a1.81,1.81,0,0,1-1.81-1.82V50.64a1.81,1.81,0,0,1,1.81-1.82h13.15V35.63a1.82,1.82,0,0,1,1.81-1.82h1.45a1.82,1.82,0,0,1,1.81,1.82V48.78h13.14a1.81,1.81,0,0,1,1.81,1.81v1.13a1.81,1.81,0,0,1-1.81,1.81H578.52V85a1.82,1.82,0,0,1-1.81,1.82h-1.46A1.83,1.83,0,0,1,573.43,85Z"/><path class="cls-6" d="M572.93,53.09H559.77A1.81,1.81,0,0,1,558,51.27V50.14a1.81,1.81,0,0,1,1.81-1.82h13.15V35.13a1.82,1.82,0,0,1,1.81-1.82h1.45A1.82,1.82,0,0,1,578,35.13V48.28h13.14a1.81,1.81,0,0,1,1.81,1.81v1.13A1.81,1.81,0,0,1,591.13,53H578V84.51a1.82,1.82,0,0,1-1.81,1.82h-1.46a1.83,1.83,0,0,1-1.82-1.82Z"/><path class="cls-6" d="M572.43,52.59H559.27a1.81,1.81,0,0,1-1.81-1.82V49.64a1.81,1.81,0,0,1,1.81-1.82h13.15V34.63a1.82,1.82,0,0,1,1.81-1.82h1.45a1.82,1.82,0,0,1,1.81,1.82V47.78h13.14a1.81,1.81,0,0,1,1.81,1.81v1.13a1.81,1.81,0,0,1-1.81,1.81H577.52V84a1.82,1.82,0,0,1-1.81,1.82h-1.46A1.83,1.83,0,0,1,572.43,84Z"/><path class="cls-6" d="M571.93,52.09H558.77A1.81,1.81,0,0,1,557,50.27V49.14a1.81,1.81,0,0,1,1.81-1.82h13.15V34.13a1.82,1.82,0,0,1,1.81-1.82h1.45A1.82,1.82,0,0,1,577,34.13V47.28h13.14a1.81,1.81,0,0,1,1.81,1.81v1.13A1.81,1.81,0,0,1,590.13,52H577V83.51a1.82,1.82,0,0,1-1.81,1.82h-1.46a1.83,1.83,0,0,1-1.82-1.82Z"/><path class="cls-6" d="M571.43,51.59H558.27a1.81,1.81,0,0,1-1.81-1.82V48.64a1.81,1.81,0,0,1,1.81-1.82h13.15V33.63a1.82,1.82,0,0,1,1.81-1.82h1.45a1.82,1.82,0,0,1,1.81,1.82V46.78h13.14a1.81,1.81,0,0,1,1.81,1.81v1.13a1.81,1.81,0,0,1-1.81,1.81H576.52V83a1.82,1.82,0,0,1-1.81,1.82h-1.46A1.83,1.83,0,0,1,571.43,83Z"/><path class="cls-6" d="M570.93,51.09H557.77A1.81,1.81,0,0,1,556,49.27V48.14a1.81,1.81,0,0,1,1.81-1.82h13.15V33.13a1.82,1.82,0,0,1,1.81-1.82h1.45A1.82,1.82,0,0,1,576,33.13V46.28h13.14a1.81,1.81,0,0,1,1.81,1.81v1.13A1.81,1.81,0,0,1,589.13,51H576V82.51a1.82,1.82,0,0,1-1.81,1.82h-1.46a1.83,1.83,0,0,1-1.82-1.82Z"/><path class="cls-6" d="M570.43,50.59H557.27a1.81,1.81,0,0,1-1.81-1.82V47.64a1.81,1.81,0,0,1,1.81-1.82h13.15V32.63a1.82,1.82,0,0,1,1.81-1.82h1.45a1.82,1.82,0,0,1,1.81,1.82V45.78h13.14a1.81,1.81,0,0,1,1.81,1.81v1.13a1.81,1.81,0,0,1-1.81,1.81H575.52V82a1.82,1.82,0,0,1-1.81,1.82h-1.46A1.83,1.83,0,0,1,570.43,82Z"/><path class="cls-6" d="M569.93,50.09H556.77A1.81,1.81,0,0,1,555,48.27V47.14a1.81,1.81,0,0,1,1.81-1.82h13.15V32.13a1.82,1.82,0,0,1,1.81-1.82h1.45A1.82,1.82,0,0,1,575,32.13V45.28h13.14a1.81,1.81,0,0,1,1.81,1.81v1.13A1.81,1.81,0,0,1,588.13,50H575V81.51a1.82,1.82,0,0,1-1.81,1.82h-1.46a1.83,1.83,0,0,1-1.82-1.82Z"/><path class="cls-6" d="M569.43,49.59H556.27a1.81,1.81,0,0,1-1.81-1.82V46.64a1.81,1.81,0,0,1,1.81-1.82h13.15V31.63a1.82,1.82,0,0,1,1.81-1.82h1.45a1.82,1.82,0,0,1,1.81,1.82V44.78h13.14a1.81,1.81,0,0,1,1.81,1.81v1.13a1.81,1.81,0,0,1-1.81,1.81H574.52V81a1.82,1.82,0,0,1-1.81,1.82h-1.46A1.83,1.83,0,0,1,569.43,81Z"/><path class="cls-6" d="M568.93,49.09H555.77A1.81,1.81,0,0,1,554,47.27V46.14a1.81,1.81,0,0,1,1.81-1.82h13.15V31.13a1.82,1.82,0,0,1,1.81-1.82h1.45A1.82,1.82,0,0,1,574,31.13V44.28h13.14a1.81,1.81,0,0,1,1.81,1.81v1.13A1.81,1.81,0,0,1,587.13,49H574V80.51a1.82,1.82,0,0,1-1.81,1.82h-1.46a1.83,1.83,0,0,1-1.82-1.82Z"/><path class="cls-6" d="M568.43,48.59H555.27a1.81,1.81,0,0,1-1.81-1.82V45.64a1.81,1.81,0,0,1,1.81-1.82h13.15V30.63a1.82,1.82,0,0,1,1.81-1.82h1.45a1.82,1.82,0,0,1,1.81,1.82V43.78h13.14a1.81,1.81,0,0,1,1.81,1.81v1.13a1.81,1.81,0,0,1-1.81,1.81H573.52V80a1.82,1.82,0,0,1-1.81,1.82h-1.46A1.83,1.83,0,0,1,568.43,80Z"/><path class="cls-6" d="M567.93,48.09H554.77A1.81,1.81,0,0,1,553,46.27V45.14a1.81,1.81,0,0,1,1.81-1.82h13.15V30.13a1.82,1.82,0,0,1,1.81-1.82h1.45A1.82,1.82,0,0,1,573,30.13V43.28h13.14a1.81,1.81,0,0,1,1.81,1.81v1.13A1.81,1.81,0,0,1,586.13,48H573V79.51a1.82,1.82,0,0,1-1.81,1.82h-1.46a1.83,1.83,0,0,1-1.82-1.82Z"/><path class="cls-6" d="M567.43,47.59H554.27a1.81,1.81,0,0,1-1.81-1.82V44.64a1.81,1.81,0,0,1,1.81-1.82h13.15V29.63a1.82,1.82,0,0,1,1.81-1.82h1.45a1.82,1.82,0,0,1,1.81,1.82V42.78h13.14a1.81,1.81,0,0,1,1.81,1.81v1.13a1.81,1.81,0,0,1-1.81,1.81H572.52V79a1.82,1.82,0,0,1-1.81,1.82h-1.46A1.83,1.83,0,0,1,567.43,79Z"/><path class="cls-6" d="M566.93,47.09H553.77A1.81,1.81,0,0,1,552,45.27V44.14a1.81,1.81,0,0,1,1.81-1.82h13.15V29.13a1.82,1.82,0,0,1,1.81-1.82h1.45A1.82,1.82,0,0,1,572,29.13V42.28h13.14a1.81,1.81,0,0,1,1.81,1.81v1.13A1.81,1.81,0,0,1,585.13,47H572V78.51a1.82,1.82,0,0,1-1.81,1.82h-1.46a1.83,1.83,0,0,1-1.82-1.82Z"/><path class="cls-6" d="M566.43,46.59H553.27a1.81,1.81,0,0,1-1.81-1.82V43.64a1.81,1.81,0,0,1,1.81-1.82h13.15V28.63a1.82,1.82,0,0,1,1.81-1.82h1.45a1.82,1.82,0,0,1,1.81,1.82V41.78h13.14a1.81,1.81,0,0,1,1.81,1.81v1.13a1.81,1.81,0,0,1-1.81,1.81H571.52V78a1.82,1.82,0,0,1-1.81,1.82h-1.46A1.83,1.83,0,0,1,566.43,78Z"/><path class="cls-6" d="M565.93,46.09H552.77A1.81,1.81,0,0,1,551,44.27V43.14a1.81,1.81,0,0,1,1.81-1.82h13.15V28.13a1.82,1.82,0,0,1,1.81-1.82h1.45A1.82,1.82,0,0,1,571,28.13V41.28h13.14a1.81,1.81,0,0,1,1.81,1.81v1.13A1.81,1.81,0,0,1,584.13,46H571V77.51a1.82,1.82,0,0,1-1.81,1.82h-1.46a1.83,1.83,0,0,1-1.82-1.82Z"/><path class="cls-6" d="M565.43,45.59H552.27a1.81,1.81,0,0,1-1.81-1.82V42.64a1.81,1.81,0,0,1,1.81-1.82h13.15V27.63a1.82,1.82,0,0,1,1.81-1.82h1.45a1.82,1.82,0,0,1,1.81,1.82V40.78h13.14a1.81,1.81,0,0,1,1.81,1.81v1.13a1.81,1.81,0,0,1-1.81,1.81H570.52V77a1.82,1.82,0,0,1-1.81,1.82h-1.46A1.83,1.83,0,0,1,565.43,77Z"/><path class="cls-6" d="M564.93,45.09H551.77A1.81,1.81,0,0,1,550,43.27V42.14a1.81,1.81,0,0,1,1.81-1.82h13.15V27.13a1.82,1.82,0,0,1,1.81-1.82h1.45A1.82,1.82,0,0,1,570,27.13V40.28h13.14a1.81,1.81,0,0,1,1.81,1.81v1.13A1.81,1.81,0,0,1,583.13,45H570V76.51a1.82,1.82,0,0,1-1.81,1.82h-1.46a1.83,1.83,0,0,1-1.82-1.82Z"/><path class="cls-6" d="M564.43,44.59H551.27a1.81,1.81,0,0,1-1.81-1.82V41.64a1.81,1.81,0,0,1,1.81-1.82h13.15V26.63a1.82,1.82,0,0,1,1.81-1.82h1.45a1.82,1.82,0,0,1,1.81,1.82V39.78h13.14a1.81,1.81,0,0,1,1.81,1.81v1.13a1.81,1.81,0,0,1-1.81,1.81H569.52V76a1.82,1.82,0,0,1-1.81,1.82h-1.46A1.83,1.83,0,0,1,564.43,76Z"/><path class="cls-6" d="M563.93,44.09H550.77A1.81,1.81,0,0,1,549,42.27V41.14a1.81,1.81,0,0,1,1.81-1.82h13.15V26.13a1.82,1.82,0,0,1,1.81-1.82h1.45A1.82,1.82,0,0,1,569,26.13V39.28h13.14a1.81,1.81,0,0,1,1.81,1.81v1.13A1.81,1.81,0,0,1,582.13,44H569V75.51a1.82,1.82,0,0,1-1.81,1.82h-1.46a1.83,1.83,0,0,1-1.82-1.82Z"/><path class="cls-6" d="M563.43,43.59H550.27a1.81,1.81,0,0,1-1.81-1.82V40.64a1.81,1.81,0,0,1,1.81-1.82h13.15V25.63a1.82,1.82,0,0,1,1.81-1.82h1.45a1.82,1.82,0,0,1,1.81,1.82V38.78h13.14a1.81,1.81,0,0,1,1.81,1.81v1.13a1.81,1.81,0,0,1-1.81,1.81H568.52V75a1.82,1.82,0,0,1-1.81,1.82h-1.46A1.83,1.83,0,0,1,563.43,75Z"/><path class="cls-6" d="M562.93,43.09H549.77A1.81,1.81,0,0,1,548,41.27V40.14a1.81,1.81,0,0,1,1.81-1.82h13.15V25.13a1.82,1.82,0,0,1,1.81-1.82h1.45A1.82,1.82,0,0,1,568,25.13V38.28h13.14a1.81,1.81,0,0,1,1.81,1.81v1.13A1.81,1.81,0,0,1,581.13,43H568V74.51a1.82,1.82,0,0,1-1.81,1.82h-1.46a1.83,1.83,0,0,1-1.82-1.82Z"/><path class="cls-6" d="M562.43,42.59H549.27a1.81,1.81,0,0,1-1.81-1.82V39.64a1.81,1.81,0,0,1,1.81-1.82h13.15V24.63a1.82,1.82,0,0,1,1.81-1.82h1.45a1.82,1.82,0,0,1,1.81,1.82V37.78h13.14a1.81,1.81,0,0,1,1.81,1.81v1.13a1.81,1.81,0,0,1-1.81,1.81H567.52V74a1.82,1.82,0,0,1-1.81,1.82h-1.46A1.83,1.83,0,0,1,562.43,74Z"/><path class="cls-6" d="M561.93,42.09H548.77A1.81,1.81,0,0,1,547,40.27V39.14a1.81,1.81,0,0,1,1.81-1.82h13.15V24.13a1.82,1.82,0,0,1,1.81-1.82h1.45A1.82,1.82,0,0,1,567,24.13V37.28h13.14a1.81,1.81,0,0,1,1.81,1.81v1.13A1.81,1.81,0,0,1,580.13,42H567V73.51a1.82,1.82,0,0,1-1.81,1.82h-1.46a1.83,1.83,0,0,1-1.82-1.82Z"/><path class="cls-6" d="M561.43,41.59H548.27a1.81,1.81,0,0,1-1.81-1.82V38.64a1.81,1.81,0,0,1,1.81-1.82h13.15V23.63a1.82,1.82,0,0,1,1.81-1.82h1.45a1.82,1.82,0,0,1,1.81,1.82V36.78h13.14a1.81,1.81,0,0,1,1.81,1.81v1.13a1.81,1.81,0,0,1-1.81,1.81H566.52V73a1.82,1.82,0,0,1-1.81,1.82h-1.46A1.83,1.83,0,0,1,561.43,73Z"/><path class="cls-6" d="M560.93,41.09H547.77A1.81,1.81,0,0,1,546,39.27V38.14a1.81,1.81,0,0,1,1.81-1.82h13.15V23.13a1.82,1.82,0,0,1,1.81-1.82h1.45A1.82,1.82,0,0,1,566,23.13V36.28h13.14a1.81,1.81,0,0,1,1.81,1.81v1.13A1.81,1.81,0,0,1,579.13,41H566V72.51a1.82,1.82,0,0,1-1.81,1.82h-1.46a1.83,1.83,0,0,1-1.82-1.82Z"/><path class="cls-6" d="M560.43,40.59H547.27a1.81,1.81,0,0,1-1.81-1.82V37.64a1.81,1.81,0,0,1,1.81-1.82h13.15V22.63a1.82,1.82,0,0,1,1.81-1.82h1.45a1.82,1.82,0,0,1,1.81,1.82V35.78h13.14a1.81,1.81,0,0,1,1.81,1.81v1.13a1.81,1.81,0,0,1-1.81,1.81H565.52V72a1.82,1.82,0,0,1-1.81,1.82h-1.46A1.83,1.83,0,0,1,560.43,72Z"/><path class="cls-6" d="M559.93,40.09H546.77A1.81,1.81,0,0,1,545,38.27V37.14a1.81,1.81,0,0,1,1.81-1.82h13.15V22.13a1.82,1.82,0,0,1,1.81-1.82h1.45A1.82,1.82,0,0,1,565,22.13V35.28h13.14a1.81,1.81,0,0,1,1.81,1.81v1.13A1.81,1.81,0,0,1,578.13,40H565V71.51a1.82,1.82,0,0,1-1.81,1.82h-1.46a1.83,1.83,0,0,1-1.82-1.82Z"/></g><path class="cls-7" d="M559.93,40.09H546.77A1.81,1.81,0,0,1,545,38.27V37.14a1.81,1.81,0,0,1,1.81-1.82h13.15V22.13a1.82,1.82,0,0,1,1.81-1.82h1.45A1.82,1.82,0,0,1,565,22.13V35.28h13.14a1.81,1.81,0,0,1,1.81,1.81v1.13A1.81,1.81,0,0,1,578.13,40H565V71.51a1.82,1.82,0,0,1-1.81,1.82h-1.46a1.83,1.83,0,0,1-1.82-1.82Z"/></g></g></g></svg>