<svg xmlns="http://www.w3.org/2000/svg" xmlns:xlink="http://www.w3.org/1999/xlink" viewBox="0 0 77.39 72.75"><defs><style>.cls-1{fill:none;}.cls-2{isolation:isolate;}.cls-3{clip-path:url(#clip-path);}.cls-4{opacity:0.26;mix-blend-mode:multiply;}.cls-5{fill:#677789;}.cls-6{fill:#fff;}</style><clipPath id="clip-path"><path class="cls-1" d="M-544.28,72.75V-9.55a10,10,0,0,1,10-10H67.39a10,10,0,0,1,10,10v82.3Z"/></clipPath></defs><title>ícone_nota_de_falecimento</title><g class="cls-2"><g id="Camada_1" data-name="Camada 1"><g class="cls-3"><g class="cls-4"><path class="cls-5" d="M87.66,92.37H74.5a1.81,1.81,0,0,1-1.81-1.81V89.42A1.81,1.81,0,0,1,74.5,87.6H87.65V74.41a1.81,1.81,0,0,1,1.81-1.81h1.45a1.81,1.81,0,0,1,1.81,1.81V87.56h13.14a1.81,1.81,0,0,1,1.81,1.81V90.5a1.81,1.81,0,0,1-1.81,1.81H92.75v31.48a1.82,1.82,0,0,1-1.81,1.82H89.48a1.83,1.83,0,0,1-1.82-1.82Z"/><path class="cls-5" d="M87.16,91.87H74a1.81,1.81,0,0,1-1.81-1.81V88.92A1.81,1.81,0,0,1,74,87.1H87.15V73.91A1.81,1.81,0,0,1,89,72.1h1.45a1.81,1.81,0,0,1,1.81,1.81V87.06h13.14a1.81,1.81,0,0,1,1.81,1.81V90a1.81,1.81,0,0,1-1.81,1.81H92.25v31.48a1.82,1.82,0,0,1-1.81,1.82H89a1.83,1.83,0,0,1-1.82-1.82Z"/><path class="cls-5" d="M86.66,91.37H73.5a1.81,1.81,0,0,1-1.81-1.81V88.42A1.81,1.81,0,0,1,73.5,86.6H86.65V73.41a1.81,1.81,0,0,1,1.81-1.81h1.45a1.81,1.81,0,0,1,1.81,1.81V86.56h13.14a1.81,1.81,0,0,1,1.81,1.81V89.5a1.81,1.81,0,0,1-1.81,1.81H91.75v31.48a1.82,1.82,0,0,1-1.81,1.82H88.48a1.83,1.83,0,0,1-1.82-1.82Z"/><path class="cls-5" d="M86.16,90.87H73a1.81,1.81,0,0,1-1.81-1.81V87.92A1.81,1.81,0,0,1,73,86.1H86.15V72.91A1.81,1.81,0,0,1,88,71.1h1.45a1.81,1.81,0,0,1,1.81,1.81V86.06h13.14a1.81,1.81,0,0,1,1.81,1.81V89a1.81,1.81,0,0,1-1.81,1.81H91.25v31.48a1.82,1.82,0,0,1-1.81,1.82H88a1.83,1.83,0,0,1-1.82-1.82Z"/><path class="cls-5" d="M85.66,90.37H72.5a1.81,1.81,0,0,1-1.81-1.81V87.42A1.81,1.81,0,0,1,72.5,85.6H85.65V72.41a1.81,1.81,0,0,1,1.81-1.81h1.45a1.81,1.81,0,0,1,1.81,1.81V85.56h13.14a1.81,1.81,0,0,1,1.81,1.81V88.5a1.81,1.81,0,0,1-1.81,1.81H90.75v31.48a1.82,1.82,0,0,1-1.81,1.82H87.48a1.83,1.83,0,0,1-1.82-1.82Z"/><path class="cls-5" d="M85.16,89.87H72a1.81,1.81,0,0,1-1.81-1.81V86.92A1.81,1.81,0,0,1,72,85.1H85.15V71.91A1.81,1.81,0,0,1,87,70.1h1.45a1.81,1.81,0,0,1,1.81,1.81V85.06h13.14a1.81,1.81,0,0,1,1.81,1.81V88a1.81,1.81,0,0,1-1.81,1.81H90.25v31.48a1.82,1.82,0,0,1-1.81,1.82H87a1.83,1.83,0,0,1-1.82-1.82Z"/><path class="cls-5" d="M84.66,89.37H71.5a1.81,1.81,0,0,1-1.81-1.81V86.42A1.81,1.81,0,0,1,71.5,84.6H84.65V71.41a1.81,1.81,0,0,1,1.81-1.81h1.45a1.81,1.81,0,0,1,1.81,1.81V84.56h13.14a1.81,1.81,0,0,1,1.81,1.81V87.5a1.81,1.81,0,0,1-1.81,1.81H89.75v31.48a1.82,1.82,0,0,1-1.81,1.82H86.48a1.83,1.83,0,0,1-1.82-1.82Z"/><path class="cls-5" d="M84.16,88.87H71a1.81,1.81,0,0,1-1.81-1.81V85.92A1.81,1.81,0,0,1,71,84.1H84.15V70.91A1.81,1.81,0,0,1,86,69.1h1.45a1.81,1.81,0,0,1,1.81,1.81V84.06h13.14a1.81,1.81,0,0,1,1.81,1.81V87a1.81,1.81,0,0,1-1.81,1.81H89.25v31.48a1.82,1.82,0,0,1-1.81,1.82H86a1.83,1.83,0,0,1-1.82-1.82Z"/><path class="cls-5" d="M83.66,88.37H70.5a1.81,1.81,0,0,1-1.81-1.81V85.42A1.81,1.81,0,0,1,70.5,83.6H83.65V70.41a1.81,1.81,0,0,1,1.81-1.81h1.45a1.81,1.81,0,0,1,1.81,1.81V83.56h13.14a1.81,1.81,0,0,1,1.81,1.81V86.5a1.81,1.81,0,0,1-1.81,1.81H88.75v31.48a1.82,1.82,0,0,1-1.81,1.82H85.48a1.83,1.83,0,0,1-1.82-1.82Z"/><path class="cls-5" d="M83.16,87.87H70a1.81,1.81,0,0,1-1.81-1.81V84.92A1.81,1.81,0,0,1,70,83.1H83.15V69.91A1.81,1.81,0,0,1,85,68.1h1.45a1.81,1.81,0,0,1,1.81,1.81V83.06h13.14a1.81,1.81,0,0,1,1.81,1.81V86a1.81,1.81,0,0,1-1.81,1.81H88.25v31.48a1.82,1.82,0,0,1-1.81,1.82H85a1.83,1.83,0,0,1-1.82-1.82Z"/><path class="cls-5" d="M82.66,87.37H69.5a1.81,1.81,0,0,1-1.81-1.81V84.42A1.81,1.81,0,0,1,69.5,82.6H82.65V69.41a1.81,1.81,0,0,1,1.81-1.81h1.45a1.81,1.81,0,0,1,1.81,1.81V82.56h13.14a1.81,1.81,0,0,1,1.81,1.81V85.5a1.81,1.81,0,0,1-1.81,1.81H87.75v31.48a1.82,1.82,0,0,1-1.81,1.82H84.48a1.83,1.83,0,0,1-1.82-1.82Z"/><path class="cls-5" d="M82.16,86.87H69a1.81,1.81,0,0,1-1.81-1.81V83.92A1.81,1.81,0,0,1,69,82.1H82.15V68.91A1.81,1.81,0,0,1,84,67.1h1.45a1.81,1.81,0,0,1,1.81,1.81V82.06h13.14a1.81,1.81,0,0,1,1.81,1.81V85a1.81,1.81,0,0,1-1.81,1.81H87.25v31.48a1.82,1.82,0,0,1-1.81,1.82H84a1.83,1.83,0,0,1-1.82-1.82Z"/><path class="cls-5" d="M81.66,86.37H68.5a1.81,1.81,0,0,1-1.81-1.81V83.42A1.81,1.81,0,0,1,68.5,81.6H81.65V68.41a1.81,1.81,0,0,1,1.81-1.81h1.45a1.81,1.81,0,0,1,1.81,1.81V81.56H99.86a1.81,1.81,0,0,1,1.81,1.81V84.5a1.81,1.81,0,0,1-1.81,1.81H86.75v31.48a1.82,1.82,0,0,1-1.81,1.82H83.48a1.83,1.83,0,0,1-1.82-1.82Z"/><path class="cls-5" d="M81.16,85.87H68a1.81,1.81,0,0,1-1.81-1.81V82.92A1.81,1.81,0,0,1,68,81.1H81.15V67.91A1.81,1.81,0,0,1,83,66.1h1.45a1.81,1.81,0,0,1,1.81,1.81V81.06H99.36a1.81,1.81,0,0,1,1.81,1.81V84a1.81,1.81,0,0,1-1.81,1.81H86.25v31.48a1.82,1.82,0,0,1-1.81,1.82H83a1.83,1.83,0,0,1-1.82-1.82Z"/><path class="cls-5" d="M80.66,85.37H67.5a1.81,1.81,0,0,1-1.81-1.81V82.42A1.81,1.81,0,0,1,67.5,80.6H80.65V67.41a1.81,1.81,0,0,1,1.81-1.81h1.45a1.81,1.81,0,0,1,1.81,1.81V80.56H98.86a1.81,1.81,0,0,1,1.81,1.81V83.5a1.81,1.81,0,0,1-1.81,1.81H85.75v31.48a1.82,1.82,0,0,1-1.81,1.82H82.48a1.83,1.83,0,0,1-1.82-1.82Z"/><path class="cls-5" d="M80.16,84.87H67a1.81,1.81,0,0,1-1.81-1.81V81.92A1.81,1.81,0,0,1,67,80.1H80.15V66.91A1.81,1.81,0,0,1,82,65.1h1.45a1.81,1.81,0,0,1,1.81,1.81V80.06H98.36a1.81,1.81,0,0,1,1.81,1.81V83a1.81,1.81,0,0,1-1.81,1.81H85.25v31.48a1.82,1.82,0,0,1-1.81,1.82H82a1.83,1.83,0,0,1-1.82-1.82Z"/><path class="cls-5" d="M79.66,84.37H66.5a1.81,1.81,0,0,1-1.81-1.81V81.42A1.81,1.81,0,0,1,66.5,79.6H79.65V66.41a1.81,1.81,0,0,1,1.81-1.81h1.45a1.81,1.81,0,0,1,1.81,1.81V79.56H97.86a1.81,1.81,0,0,1,1.81,1.81V82.5a1.81,1.81,0,0,1-1.81,1.81H84.75v31.48a1.82,1.82,0,0,1-1.81,1.82H81.48a1.83,1.83,0,0,1-1.82-1.82Z"/><path class="cls-5" d="M79.16,83.87H66a1.81,1.81,0,0,1-1.81-1.81V80.92A1.81,1.81,0,0,1,66,79.1H79.15V65.91A1.81,1.81,0,0,1,81,64.1h1.45a1.81,1.81,0,0,1,1.81,1.81V79.06H97.36a1.81,1.81,0,0,1,1.81,1.81V82a1.81,1.81,0,0,1-1.81,1.81H84.25v31.48a1.82,1.82,0,0,1-1.81,1.82H81a1.83,1.83,0,0,1-1.82-1.82Z"/><path class="cls-5" d="M78.66,83.37H65.5a1.81,1.81,0,0,1-1.81-1.81V80.42A1.81,1.81,0,0,1,65.5,78.6H78.65V65.41a1.81,1.81,0,0,1,1.81-1.81h1.45a1.81,1.81,0,0,1,1.81,1.81V78.56H96.86a1.81,1.81,0,0,1,1.81,1.81V81.5a1.81,1.81,0,0,1-1.81,1.81H83.75v31.48a1.82,1.82,0,0,1-1.81,1.82H80.48a1.83,1.83,0,0,1-1.82-1.82Z"/><path class="cls-5" d="M78.16,82.87H65a1.81,1.81,0,0,1-1.81-1.81V79.92A1.81,1.81,0,0,1,65,78.1H78.15V64.91A1.81,1.81,0,0,1,80,63.1h1.45a1.81,1.81,0,0,1,1.81,1.81V78.06H96.36a1.81,1.81,0,0,1,1.81,1.81V81a1.81,1.81,0,0,1-1.81,1.81H83.25v31.48a1.82,1.82,0,0,1-1.81,1.82H80a1.83,1.83,0,0,1-1.82-1.82Z"/><path class="cls-5" d="M77.66,82.37H64.5a1.81,1.81,0,0,1-1.81-1.81V79.42A1.81,1.81,0,0,1,64.5,77.6H77.65V64.41a1.81,1.81,0,0,1,1.81-1.81h1.45a1.81,1.81,0,0,1,1.81,1.81V77.56H95.86a1.81,1.81,0,0,1,1.81,1.81V80.5a1.81,1.81,0,0,1-1.81,1.81H82.75v31.48a1.82,1.82,0,0,1-1.81,1.82H79.48a1.83,1.83,0,0,1-1.82-1.82Z"/><path class="cls-5" d="M77.16,81.87H64a1.81,1.81,0,0,1-1.81-1.81V78.92A1.81,1.81,0,0,1,64,77.1H77.15V63.91A1.81,1.81,0,0,1,79,62.1h1.45a1.81,1.81,0,0,1,1.81,1.81V77.06H95.36a1.81,1.81,0,0,1,1.81,1.81V80a1.81,1.81,0,0,1-1.81,1.81H82.25v31.48a1.82,1.82,0,0,1-1.81,1.82H79a1.83,1.83,0,0,1-1.82-1.82Z"/><path class="cls-5" d="M76.66,81.37H63.5a1.81,1.81,0,0,1-1.81-1.81V78.42A1.81,1.81,0,0,1,63.5,76.6H76.65V63.41a1.81,1.81,0,0,1,1.81-1.81h1.45a1.81,1.81,0,0,1,1.81,1.81V76.56H94.86a1.81,1.81,0,0,1,1.81,1.81V79.5a1.81,1.81,0,0,1-1.81,1.81H81.75v31.48a1.82,1.82,0,0,1-1.81,1.82H78.48a1.83,1.83,0,0,1-1.82-1.82Z"/><path class="cls-5" d="M76.16,80.87H63a1.81,1.81,0,0,1-1.81-1.81V77.92A1.81,1.81,0,0,1,63,76.1H76.15V62.91A1.81,1.81,0,0,1,78,61.1h1.45a1.81,1.81,0,0,1,1.81,1.81V76.06H94.36a1.81,1.81,0,0,1,1.81,1.81V79a1.81,1.81,0,0,1-1.81,1.81H81.25v31.48a1.82,1.82,0,0,1-1.81,1.82H78a1.83,1.83,0,0,1-1.82-1.82Z"/><path class="cls-5" d="M75.66,80.37H62.5a1.81,1.81,0,0,1-1.81-1.81V77.42A1.81,1.81,0,0,1,62.5,75.6H75.65V62.41a1.81,1.81,0,0,1,1.81-1.81h1.45a1.81,1.81,0,0,1,1.81,1.81V75.56H93.86a1.81,1.81,0,0,1,1.81,1.81V78.5a1.81,1.81,0,0,1-1.81,1.81H80.75v31.48a1.82,1.82,0,0,1-1.81,1.82H77.48a1.83,1.83,0,0,1-1.82-1.82Z"/><path class="cls-5" d="M75.16,79.87H62a1.81,1.81,0,0,1-1.81-1.81V76.92A1.81,1.81,0,0,1,62,75.1H75.15V61.91A1.81,1.81,0,0,1,77,60.1h1.45a1.81,1.81,0,0,1,1.81,1.81V75.06H93.36a1.81,1.81,0,0,1,1.81,1.81V78a1.81,1.81,0,0,1-1.81,1.81H80.25v31.48a1.82,1.82,0,0,1-1.81,1.82H77a1.83,1.83,0,0,1-1.82-1.82Z"/><path class="cls-5" d="M74.66,79.37H61.5a1.81,1.81,0,0,1-1.81-1.81V76.42A1.81,1.81,0,0,1,61.5,74.6H74.65V61.41a1.81,1.81,0,0,1,1.81-1.81h1.45a1.81,1.81,0,0,1,1.81,1.81V74.56H92.86a1.81,1.81,0,0,1,1.81,1.81V77.5a1.81,1.81,0,0,1-1.81,1.81H79.75v31.48a1.82,1.82,0,0,1-1.81,1.82H76.48a1.83,1.83,0,0,1-1.82-1.82Z"/><path class="cls-5" d="M74.16,78.87H61a1.81,1.81,0,0,1-1.81-1.81V75.92A1.81,1.81,0,0,1,61,74.1H74.15V60.91A1.81,1.81,0,0,1,76,59.1h1.45a1.81,1.81,0,0,1,1.81,1.81V74.06H92.36a1.81,1.81,0,0,1,1.81,1.81V77a1.81,1.81,0,0,1-1.81,1.81H79.25v31.48a1.82,1.82,0,0,1-1.81,1.82H76a1.83,1.83,0,0,1-1.82-1.82Z"/><path class="cls-5" d="M73.66,78.37H60.5a1.81,1.81,0,0,1-1.81-1.81V75.42A1.81,1.81,0,0,1,60.5,73.6H73.65V60.41a1.81,1.81,0,0,1,1.81-1.81h1.45a1.81,1.81,0,0,1,1.81,1.81V73.56H91.86a1.81,1.81,0,0,1,1.81,1.81V76.5a1.81,1.81,0,0,1-1.81,1.81H78.75v31.48a1.82,1.82,0,0,1-1.81,1.82H75.48a1.83,1.83,0,0,1-1.82-1.82Z"/><path class="cls-5" d="M73.16,77.87H60a1.81,1.81,0,0,1-1.81-1.81V74.92A1.81,1.81,0,0,1,60,73.1H73.15V59.91A1.81,1.81,0,0,1,75,58.1h1.45a1.81,1.81,0,0,1,1.81,1.81V73.06H91.36a1.81,1.81,0,0,1,1.81,1.81V76a1.81,1.81,0,0,1-1.81,1.81H78.25v31.48a1.82,1.82,0,0,1-1.81,1.82H75a1.83,1.83,0,0,1-1.82-1.82Z"/><path class="cls-5" d="M72.66,77.37H59.5a1.81,1.81,0,0,1-1.81-1.81V74.42A1.81,1.81,0,0,1,59.5,72.6H72.65V59.41a1.81,1.81,0,0,1,1.81-1.81h1.45a1.81,1.81,0,0,1,1.81,1.81V72.56H90.86a1.81,1.81,0,0,1,1.81,1.81V75.5a1.81,1.81,0,0,1-1.81,1.81H77.75v31.48a1.82,1.82,0,0,1-1.81,1.82H74.48a1.83,1.83,0,0,1-1.82-1.82Z"/><path class="cls-5" d="M72.16,76.87H59a1.81,1.81,0,0,1-1.81-1.81V73.92A1.81,1.81,0,0,1,59,72.1H72.15V58.91A1.81,1.81,0,0,1,74,57.1h1.45a1.81,1.81,0,0,1,1.81,1.81V72.06H90.36a1.81,1.81,0,0,1,1.81,1.81V75a1.81,1.81,0,0,1-1.81,1.81H77.25v31.48a1.82,1.82,0,0,1-1.81,1.82H74a1.83,1.83,0,0,1-1.82-1.82Z"/><path class="cls-5" d="M71.66,76.37H58.5a1.81,1.81,0,0,1-1.81-1.81V73.42A1.81,1.81,0,0,1,58.5,71.6H71.65V58.41a1.81,1.81,0,0,1,1.81-1.81h1.45a1.81,1.81,0,0,1,1.81,1.81V71.56H89.86a1.81,1.81,0,0,1,1.81,1.81V74.5a1.81,1.81,0,0,1-1.81,1.81H76.75v31.48a1.82,1.82,0,0,1-1.81,1.82H73.48a1.83,1.83,0,0,1-1.82-1.82Z"/><path class="cls-5" d="M71.16,75.87H58a1.81,1.81,0,0,1-1.81-1.81V72.92A1.81,1.81,0,0,1,58,71.1H71.15V57.91A1.81,1.81,0,0,1,73,56.1h1.45a1.81,1.81,0,0,1,1.81,1.81V71.06H89.36a1.81,1.81,0,0,1,1.81,1.81V74a1.81,1.81,0,0,1-1.81,1.81H76.25v31.48a1.82,1.82,0,0,1-1.81,1.82H73a1.83,1.83,0,0,1-1.82-1.82Z"/><path class="cls-5" d="M70.66,75.37H57.5a1.81,1.81,0,0,1-1.81-1.81V72.42A1.81,1.81,0,0,1,57.5,70.6H70.65V57.41a1.81,1.81,0,0,1,1.81-1.81h1.45a1.81,1.81,0,0,1,1.81,1.81V70.56H88.86a1.81,1.81,0,0,1,1.81,1.81V73.5a1.81,1.81,0,0,1-1.81,1.81H75.75v31.48a1.82,1.82,0,0,1-1.81,1.82H72.48a1.83,1.83,0,0,1-1.82-1.82Z"/><path class="cls-5" d="M70.16,74.87H57a1.81,1.81,0,0,1-1.81-1.81V71.92A1.81,1.81,0,0,1,57,70.1H70.15V56.91A1.81,1.81,0,0,1,72,55.1h1.45a1.81,1.81,0,0,1,1.81,1.81V70.06H88.36a1.81,1.81,0,0,1,1.81,1.81V73a1.81,1.81,0,0,1-1.81,1.81H75.25v31.48a1.82,1.82,0,0,1-1.81,1.82H72a1.83,1.83,0,0,1-1.82-1.82Z"/><path class="cls-5" d="M69.66,74.37H56.5a1.81,1.81,0,0,1-1.81-1.81V71.42A1.81,1.81,0,0,1,56.5,69.6H69.65V56.41a1.81,1.81,0,0,1,1.81-1.81h1.45a1.81,1.81,0,0,1,1.81,1.81V69.56H87.86a1.81,1.81,0,0,1,1.81,1.81V72.5a1.81,1.81,0,0,1-1.81,1.81H74.75v31.48a1.82,1.82,0,0,1-1.81,1.82H71.48a1.83,1.83,0,0,1-1.82-1.82Z"/><path class="cls-5" d="M69.16,73.87H56a1.81,1.81,0,0,1-1.81-1.81V70.92A1.81,1.81,0,0,1,56,69.1H69.15V55.91A1.81,1.81,0,0,1,71,54.1h1.45a1.81,1.81,0,0,1,1.81,1.81V69.06H87.36a1.81,1.81,0,0,1,1.81,1.81V72a1.81,1.81,0,0,1-1.81,1.81H74.25v31.48a1.82,1.82,0,0,1-1.81,1.82H71a1.83,1.83,0,0,1-1.82-1.82Z"/><path class="cls-5" d="M68.66,73.37H55.5a1.81,1.81,0,0,1-1.81-1.81V70.42A1.81,1.81,0,0,1,55.5,68.6H68.65V55.41a1.81,1.81,0,0,1,1.81-1.81h1.45a1.81,1.81,0,0,1,1.81,1.81V68.56H86.86a1.81,1.81,0,0,1,1.81,1.81V71.5a1.81,1.81,0,0,1-1.81,1.81H73.75v31.48a1.82,1.82,0,0,1-1.81,1.82H70.48a1.83,1.83,0,0,1-1.82-1.82Z"/><path class="cls-5" d="M68.16,72.87H55a1.81,1.81,0,0,1-1.81-1.81V69.92A1.81,1.81,0,0,1,55,68.1H68.15V54.91A1.81,1.81,0,0,1,70,53.1h1.45a1.81,1.81,0,0,1,1.81,1.81V68.06H86.36a1.81,1.81,0,0,1,1.81,1.81V71a1.81,1.81,0,0,1-1.81,1.81H73.25v31.48a1.82,1.82,0,0,1-1.81,1.82H70a1.83,1.83,0,0,1-1.82-1.82Z"/><path class="cls-5" d="M67.66,72.37H54.5a1.81,1.81,0,0,1-1.81-1.81V69.42A1.81,1.81,0,0,1,54.5,67.6H67.65V54.41a1.81,1.81,0,0,1,1.81-1.81h1.45a1.81,1.81,0,0,1,1.81,1.81V67.56H85.86a1.81,1.81,0,0,1,1.81,1.81V70.5a1.81,1.81,0,0,1-1.81,1.81H72.75v31.48a1.82,1.82,0,0,1-1.81,1.82H69.48a1.83,1.83,0,0,1-1.82-1.82Z"/><path class="cls-5" d="M67.16,71.87H54a1.81,1.81,0,0,1-1.81-1.81V68.92A1.81,1.81,0,0,1,54,67.1H67.15V53.91A1.81,1.81,0,0,1,69,52.1h1.45a1.81,1.81,0,0,1,1.81,1.81V67.06H85.36a1.81,1.81,0,0,1,1.81,1.81V70a1.81,1.81,0,0,1-1.81,1.81H72.25v31.48a1.82,1.82,0,0,1-1.81,1.82H69a1.83,1.83,0,0,1-1.82-1.82Z"/><path class="cls-5" d="M66.66,71.37H53.5a1.81,1.81,0,0,1-1.81-1.81V68.42A1.81,1.81,0,0,1,53.5,66.6H66.65V53.41a1.81,1.81,0,0,1,1.81-1.81h1.45a1.81,1.81,0,0,1,1.81,1.81V66.56H84.86a1.81,1.81,0,0,1,1.81,1.81V69.5a1.81,1.81,0,0,1-1.81,1.81H71.75v31.48a1.82,1.82,0,0,1-1.81,1.82H68.48a1.83,1.83,0,0,1-1.82-1.82Z"/><path class="cls-5" d="M66.16,70.87H53a1.81,1.81,0,0,1-1.81-1.81V67.92A1.81,1.81,0,0,1,53,66.1H66.15V52.91A1.81,1.81,0,0,1,68,51.1h1.45a1.81,1.81,0,0,1,1.81,1.81V66.06H84.36a1.81,1.81,0,0,1,1.81,1.81V69a1.81,1.81,0,0,1-1.81,1.81H71.25v31.48a1.82,1.82,0,0,1-1.81,1.82H68a1.83,1.83,0,0,1-1.82-1.82Z"/><path class="cls-5" d="M65.66,70.37H52.5a1.81,1.81,0,0,1-1.81-1.81V67.42A1.81,1.81,0,0,1,52.5,65.6H65.65V52.41a1.81,1.81,0,0,1,1.81-1.81h1.45a1.81,1.81,0,0,1,1.81,1.81V65.56H83.86a1.81,1.81,0,0,1,1.81,1.81V68.5a1.81,1.81,0,0,1-1.81,1.81H70.75v31.48a1.82,1.82,0,0,1-1.81,1.82H67.48a1.83,1.83,0,0,1-1.82-1.82Z"/><path class="cls-5" d="M65.16,69.87H52a1.81,1.81,0,0,1-1.81-1.81V66.92A1.81,1.81,0,0,1,52,65.1H65.15V51.91A1.81,1.81,0,0,1,67,50.1h1.45a1.81,1.81,0,0,1,1.81,1.81V65.06H83.36a1.81,1.81,0,0,1,1.81,1.81V68a1.81,1.81,0,0,1-1.81,1.81H70.25v31.48a1.82,1.82,0,0,1-1.81,1.82H67a1.83,1.83,0,0,1-1.82-1.82Z"/><path class="cls-5" d="M64.66,69.37H51.5a1.81,1.81,0,0,1-1.81-1.81V66.42A1.81,1.81,0,0,1,51.5,64.6H64.65V51.41a1.81,1.81,0,0,1,1.81-1.81h1.45a1.81,1.81,0,0,1,1.81,1.81V64.56H82.86a1.81,1.81,0,0,1,1.81,1.81V67.5a1.81,1.81,0,0,1-1.81,1.81H69.75v31.48a1.82,1.82,0,0,1-1.81,1.82H66.48a1.83,1.83,0,0,1-1.82-1.82Z"/><path class="cls-5" d="M64.16,68.87H51a1.81,1.81,0,0,1-1.81-1.81V65.92A1.81,1.81,0,0,1,51,64.1H64.15V50.91A1.81,1.81,0,0,1,66,49.1h1.45a1.81,1.81,0,0,1,1.81,1.81V64.06H82.36a1.81,1.81,0,0,1,1.81,1.81V67a1.81,1.81,0,0,1-1.81,1.81H69.25v31.48a1.82,1.82,0,0,1-1.81,1.82H66a1.83,1.83,0,0,1-1.82-1.82Z"/><path class="cls-5" d="M63.66,68.37H50.5a1.81,1.81,0,0,1-1.81-1.81V65.42A1.81,1.81,0,0,1,50.5,63.6H63.65V50.41a1.81,1.81,0,0,1,1.81-1.81h1.45a1.81,1.81,0,0,1,1.81,1.81V63.56H81.86a1.81,1.81,0,0,1,1.81,1.81V66.5a1.81,1.81,0,0,1-1.81,1.81H68.75V99.79a1.82,1.82,0,0,1-1.81,1.82H65.48a1.83,1.83,0,0,1-1.82-1.82Z"/><path class="cls-5" d="M63.16,67.87H50a1.81,1.81,0,0,1-1.81-1.81V64.92A1.81,1.81,0,0,1,50,63.1H63.15V49.91A1.81,1.81,0,0,1,65,48.1h1.45a1.81,1.81,0,0,1,1.81,1.81V63.06H81.36a1.81,1.81,0,0,1,1.81,1.81V66a1.81,1.81,0,0,1-1.81,1.81H68.25V99.29a1.82,1.82,0,0,1-1.81,1.82H65a1.83,1.83,0,0,1-1.82-1.82Z"/><path class="cls-5" d="M62.66,67.37H49.5a1.81,1.81,0,0,1-1.81-1.81V64.42A1.81,1.81,0,0,1,49.5,62.6H62.65V49.41a1.81,1.81,0,0,1,1.81-1.81h1.45a1.81,1.81,0,0,1,1.81,1.81V62.56H80.86a1.81,1.81,0,0,1,1.81,1.81V65.5a1.81,1.81,0,0,1-1.81,1.81H67.75V98.79a1.82,1.82,0,0,1-1.81,1.82H64.48a1.83,1.83,0,0,1-1.82-1.82Z"/><path class="cls-5" d="M62.16,66.87H49a1.81,1.81,0,0,1-1.81-1.81V63.92A1.81,1.81,0,0,1,49,62.1H62.15V48.91A1.81,1.81,0,0,1,64,47.1h1.45a1.81,1.81,0,0,1,1.81,1.81V62.06H80.36a1.81,1.81,0,0,1,1.81,1.81V65a1.81,1.81,0,0,1-1.81,1.81H67.25V98.29a1.82,1.82,0,0,1-1.81,1.82H64a1.83,1.83,0,0,1-1.82-1.82Z"/><path class="cls-5" d="M61.66,66.37H48.5a1.81,1.81,0,0,1-1.81-1.81V63.42A1.81,1.81,0,0,1,48.5,61.6H61.65V48.41a1.81,1.81,0,0,1,1.81-1.81h1.45a1.81,1.81,0,0,1,1.81,1.81V61.56H79.86a1.81,1.81,0,0,1,1.81,1.81V64.5a1.81,1.81,0,0,1-1.81,1.81H66.75V97.79a1.82,1.82,0,0,1-1.81,1.82H63.48a1.83,1.83,0,0,1-1.82-1.82Z"/><path class="cls-5" d="M61.16,65.87H48a1.81,1.81,0,0,1-1.81-1.81V62.92A1.81,1.81,0,0,1,48,61.1H61.15V47.91A1.81,1.81,0,0,1,63,46.1h1.45a1.81,1.81,0,0,1,1.81,1.81V61.06H79.36a1.81,1.81,0,0,1,1.81,1.81V64a1.81,1.81,0,0,1-1.81,1.81H66.25V97.29a1.82,1.82,0,0,1-1.81,1.82H63a1.83,1.83,0,0,1-1.82-1.82Z"/><path class="cls-5" d="M60.66,65.37H47.5a1.81,1.81,0,0,1-1.81-1.81V62.42A1.81,1.81,0,0,1,47.5,60.6H60.65V47.41a1.81,1.81,0,0,1,1.81-1.81h1.45a1.81,1.81,0,0,1,1.81,1.81V60.56H78.86a1.81,1.81,0,0,1,1.81,1.81V63.5a1.81,1.81,0,0,1-1.81,1.81H65.75V96.79a1.82,1.82,0,0,1-1.81,1.82H62.48a1.83,1.83,0,0,1-1.82-1.82Z"/><path class="cls-5" d="M60.16,64.87H47a1.81,1.81,0,0,1-1.81-1.81V61.92A1.81,1.81,0,0,1,47,60.1H60.15V46.91A1.81,1.81,0,0,1,62,45.1h1.45a1.81,1.81,0,0,1,1.81,1.81V60.06H78.36a1.81,1.81,0,0,1,1.81,1.81V63a1.81,1.81,0,0,1-1.81,1.81H65.25V96.29a1.82,1.82,0,0,1-1.81,1.82H62a1.83,1.83,0,0,1-1.82-1.82Z"/><path class="cls-5" d="M59.66,64.37H46.5a1.81,1.81,0,0,1-1.81-1.81V61.42A1.81,1.81,0,0,1,46.5,59.6H59.65V46.41a1.81,1.81,0,0,1,1.81-1.81h1.45a1.81,1.81,0,0,1,1.81,1.81V59.56H77.86a1.81,1.81,0,0,1,1.81,1.81V62.5a1.81,1.81,0,0,1-1.81,1.81H64.75V95.79a1.82,1.82,0,0,1-1.81,1.82H61.48a1.83,1.83,0,0,1-1.82-1.82Z"/><path class="cls-5" d="M59.16,63.87H46a1.81,1.81,0,0,1-1.81-1.81V60.92A1.81,1.81,0,0,1,46,59.1H59.15V45.91A1.81,1.81,0,0,1,61,44.1h1.45a1.81,1.81,0,0,1,1.81,1.81V59.06H77.36a1.81,1.81,0,0,1,1.81,1.81V62a1.81,1.81,0,0,1-1.81,1.81H64.25V95.29a1.82,1.82,0,0,1-1.81,1.82H61a1.83,1.83,0,0,1-1.82-1.82Z"/><path class="cls-5" d="M58.66,63.37H45.5a1.81,1.81,0,0,1-1.81-1.81V60.42A1.81,1.81,0,0,1,45.5,58.6H58.65V45.41a1.81,1.81,0,0,1,1.81-1.81h1.45a1.81,1.81,0,0,1,1.81,1.81V58.56H76.86a1.81,1.81,0,0,1,1.81,1.81V61.5a1.81,1.81,0,0,1-1.81,1.81H63.75V94.79a1.82,1.82,0,0,1-1.81,1.82H60.48a1.83,1.83,0,0,1-1.82-1.82Z"/><path class="cls-5" d="M58.16,62.87H45a1.81,1.81,0,0,1-1.81-1.81V59.92A1.81,1.81,0,0,1,45,58.1H58.15V44.91A1.81,1.81,0,0,1,60,43.1h1.45a1.81,1.81,0,0,1,1.81,1.81V58.06H76.36a1.81,1.81,0,0,1,1.81,1.81V61a1.81,1.81,0,0,1-1.81,1.81H63.25V94.29a1.82,1.82,0,0,1-1.81,1.82H60a1.83,1.83,0,0,1-1.82-1.82Z"/><path class="cls-5" d="M57.66,62.37H44.5a1.81,1.81,0,0,1-1.81-1.81V59.42A1.81,1.81,0,0,1,44.5,57.6H57.65V44.41a1.81,1.81,0,0,1,1.81-1.81h1.45a1.81,1.81,0,0,1,1.81,1.81V57.56H75.86a1.81,1.81,0,0,1,1.81,1.81V60.5a1.81,1.81,0,0,1-1.81,1.81H62.75V93.79a1.82,1.82,0,0,1-1.81,1.82H59.48a1.83,1.83,0,0,1-1.82-1.82Z"/><path class="cls-5" d="M57.16,61.87H44a1.81,1.81,0,0,1-1.81-1.81V58.92A1.81,1.81,0,0,1,44,57.1H57.15V43.91A1.81,1.81,0,0,1,59,42.1h1.45a1.81,1.81,0,0,1,1.81,1.81V57.06H75.36a1.81,1.81,0,0,1,1.81,1.81V60a1.81,1.81,0,0,1-1.81,1.81H62.25V93.29a1.82,1.82,0,0,1-1.81,1.82H59a1.83,1.83,0,0,1-1.82-1.82Z"/><path class="cls-5" d="M56.66,61.37H43.5a1.81,1.81,0,0,1-1.81-1.81V58.42A1.81,1.81,0,0,1,43.5,56.6H56.65V43.41a1.81,1.81,0,0,1,1.81-1.81h1.45a1.81,1.81,0,0,1,1.81,1.81V56.56H74.86a1.81,1.81,0,0,1,1.81,1.81V59.5a1.81,1.81,0,0,1-1.81,1.81H61.75V92.79a1.82,1.82,0,0,1-1.81,1.82H58.48a1.83,1.83,0,0,1-1.82-1.82Z"/><path class="cls-5" d="M56.16,60.87H43a1.81,1.81,0,0,1-1.81-1.81V57.92A1.81,1.81,0,0,1,43,56.1H56.15V42.91A1.81,1.81,0,0,1,58,41.1h1.45a1.81,1.81,0,0,1,1.81,1.81V56.06H74.36a1.81,1.81,0,0,1,1.81,1.81V59a1.81,1.81,0,0,1-1.81,1.81H61.25V92.29a1.82,1.82,0,0,1-1.81,1.82H58a1.83,1.83,0,0,1-1.82-1.82Z"/><path class="cls-5" d="M55.66,60.37H42.5a1.81,1.81,0,0,1-1.81-1.81V57.42A1.81,1.81,0,0,1,42.5,55.6H55.65V42.41a1.81,1.81,0,0,1,1.81-1.81h1.45a1.81,1.81,0,0,1,1.81,1.81V55.56H73.86a1.81,1.81,0,0,1,1.81,1.81V58.5a1.81,1.81,0,0,1-1.81,1.81H60.75V91.79a1.82,1.82,0,0,1-1.81,1.82H57.48a1.83,1.83,0,0,1-1.82-1.82Z"/><path class="cls-5" d="M55.16,59.87H42a1.81,1.81,0,0,1-1.81-1.81V56.92A1.81,1.81,0,0,1,42,55.1H55.15V41.91A1.81,1.81,0,0,1,57,40.1h1.45a1.81,1.81,0,0,1,1.81,1.81V55.06H73.36a1.81,1.81,0,0,1,1.81,1.81V58a1.81,1.81,0,0,1-1.81,1.81H60.25V91.29a1.82,1.82,0,0,1-1.81,1.82H57a1.83,1.83,0,0,1-1.82-1.82Z"/><path class="cls-5" d="M54.66,59.37H41.5a1.81,1.81,0,0,1-1.81-1.81V56.42A1.81,1.81,0,0,1,41.5,54.6H54.65V41.41a1.81,1.81,0,0,1,1.81-1.81h1.45a1.81,1.81,0,0,1,1.81,1.81V54.56H72.86a1.81,1.81,0,0,1,1.81,1.81V57.5a1.81,1.81,0,0,1-1.81,1.81H59.75V90.79a1.82,1.82,0,0,1-1.81,1.82H56.48a1.83,1.83,0,0,1-1.82-1.82Z"/><path class="cls-5" d="M54.16,58.87H41a1.81,1.81,0,0,1-1.81-1.81V55.92A1.81,1.81,0,0,1,41,54.1H54.15V40.91A1.81,1.81,0,0,1,56,39.1h1.45a1.81,1.81,0,0,1,1.81,1.81V54.06H72.36a1.81,1.81,0,0,1,1.81,1.81V57a1.81,1.81,0,0,1-1.81,1.81H59.25V90.29a1.82,1.82,0,0,1-1.81,1.82H56a1.83,1.83,0,0,1-1.82-1.82Z"/><path class="cls-5" d="M53.66,58.37H40.5a1.81,1.81,0,0,1-1.81-1.81V55.42A1.81,1.81,0,0,1,40.5,53.6H53.65V40.41a1.81,1.81,0,0,1,1.81-1.81h1.45a1.81,1.81,0,0,1,1.81,1.81V53.56H71.86a1.81,1.81,0,0,1,1.81,1.81V56.5a1.81,1.81,0,0,1-1.81,1.81H58.75V89.79a1.82,1.82,0,0,1-1.81,1.82H55.48a1.83,1.83,0,0,1-1.82-1.82Z"/><path class="cls-5" d="M53.16,57.87H40a1.81,1.81,0,0,1-1.81-1.81V54.92A1.81,1.81,0,0,1,40,53.1H53.15V39.91A1.81,1.81,0,0,1,55,38.1h1.45a1.81,1.81,0,0,1,1.81,1.81V53.06H71.36a1.81,1.81,0,0,1,1.81,1.81V56a1.81,1.81,0,0,1-1.81,1.81H58.25V89.29a1.82,1.82,0,0,1-1.81,1.82H55a1.83,1.83,0,0,1-1.82-1.82Z"/><path class="cls-5" d="M52.66,57.37H39.5a1.81,1.81,0,0,1-1.81-1.81V54.42A1.81,1.81,0,0,1,39.5,52.6H52.65V39.41a1.81,1.81,0,0,1,1.81-1.81h1.45a1.81,1.81,0,0,1,1.81,1.81V52.56H70.86a1.81,1.81,0,0,1,1.81,1.81V55.5a1.81,1.81,0,0,1-1.81,1.81H57.75V88.79a1.82,1.82,0,0,1-1.81,1.82H54.48a1.83,1.83,0,0,1-1.82-1.82Z"/><path class="cls-5" d="M52.16,56.87H39a1.81,1.81,0,0,1-1.81-1.81V53.92A1.81,1.81,0,0,1,39,52.1H52.15V38.91A1.81,1.81,0,0,1,54,37.1h1.45a1.81,1.81,0,0,1,1.81,1.81V52.06H70.36a1.81,1.81,0,0,1,1.81,1.81V55a1.81,1.81,0,0,1-1.81,1.81H57.25V88.29a1.82,1.82,0,0,1-1.81,1.82H54a1.83,1.83,0,0,1-1.82-1.82Z"/><path class="cls-5" d="M51.66,56.37H38.5a1.81,1.81,0,0,1-1.81-1.81V53.42A1.81,1.81,0,0,1,38.5,51.6H51.65V38.41a1.81,1.81,0,0,1,1.81-1.81h1.45a1.81,1.81,0,0,1,1.81,1.81V51.56H69.86a1.81,1.81,0,0,1,1.81,1.81V54.5a1.81,1.81,0,0,1-1.81,1.81H56.75V87.79a1.82,1.82,0,0,1-1.81,1.82H53.48a1.83,1.83,0,0,1-1.82-1.82Z"/><path class="cls-5" d="M51.16,55.87H38a1.81,1.81,0,0,1-1.81-1.81V52.92A1.81,1.81,0,0,1,38,51.1H51.15V37.91A1.81,1.81,0,0,1,53,36.1h1.45a1.81,1.81,0,0,1,1.81,1.81V51.06H69.36a1.81,1.81,0,0,1,1.81,1.81V54a1.81,1.81,0,0,1-1.81,1.81H56.25V87.29a1.82,1.82,0,0,1-1.81,1.82H53a1.83,1.83,0,0,1-1.82-1.82Z"/><path class="cls-5" d="M50.66,55.37H37.5a1.81,1.81,0,0,1-1.81-1.81V52.42A1.81,1.81,0,0,1,37.5,50.6H50.65V37.41a1.81,1.81,0,0,1,1.81-1.81h1.45a1.81,1.81,0,0,1,1.81,1.81V50.56H68.86a1.81,1.81,0,0,1,1.81,1.81V53.5a1.81,1.81,0,0,1-1.81,1.81H55.75V86.79a1.82,1.82,0,0,1-1.81,1.82H52.48a1.83,1.83,0,0,1-1.82-1.82Z"/><path class="cls-5" d="M50.16,54.87H37a1.81,1.81,0,0,1-1.81-1.81V51.92A1.81,1.81,0,0,1,37,50.1H50.15V36.91A1.81,1.81,0,0,1,52,35.1h1.45a1.81,1.81,0,0,1,1.81,1.81V50.06H68.36a1.81,1.81,0,0,1,1.81,1.81V53a1.81,1.81,0,0,1-1.81,1.81H55.25V86.29a1.82,1.82,0,0,1-1.81,1.82H52a1.83,1.83,0,0,1-1.82-1.82Z"/><path class="cls-5" d="M49.66,54.37H36.5a1.81,1.81,0,0,1-1.81-1.81V51.42A1.81,1.81,0,0,1,36.5,49.6H49.65V36.41a1.81,1.81,0,0,1,1.81-1.81h1.45a1.81,1.81,0,0,1,1.81,1.81V49.56H67.86a1.81,1.81,0,0,1,1.81,1.81V52.5a1.81,1.81,0,0,1-1.81,1.81H54.75V85.79a1.82,1.82,0,0,1-1.81,1.82H51.48a1.83,1.83,0,0,1-1.82-1.82Z"/><path class="cls-5" d="M49.16,53.87H36a1.81,1.81,0,0,1-1.81-1.81V50.92A1.81,1.81,0,0,1,36,49.1H49.15V35.91A1.81,1.81,0,0,1,51,34.1h1.45a1.81,1.81,0,0,1,1.81,1.81V49.06H67.36a1.81,1.81,0,0,1,1.81,1.81V52a1.81,1.81,0,0,1-1.81,1.81H54.25V85.29a1.82,1.82,0,0,1-1.81,1.82H51a1.83,1.83,0,0,1-1.82-1.82Z"/><path class="cls-5" d="M48.66,53.37H35.5a1.81,1.81,0,0,1-1.81-1.81V50.42A1.81,1.81,0,0,1,35.5,48.6H48.65V35.41a1.81,1.81,0,0,1,1.81-1.81h1.45a1.81,1.81,0,0,1,1.81,1.81V48.56H66.86a1.81,1.81,0,0,1,1.81,1.81V51.5a1.81,1.81,0,0,1-1.81,1.81H53.75V84.79a1.82,1.82,0,0,1-1.81,1.82H50.48a1.83,1.83,0,0,1-1.82-1.82Z"/><path class="cls-5" d="M48.16,52.87H35a1.81,1.81,0,0,1-1.81-1.81V49.92A1.81,1.81,0,0,1,35,48.1H48.15V34.91A1.81,1.81,0,0,1,50,33.1h1.45a1.81,1.81,0,0,1,1.81,1.81V48.06H66.36a1.81,1.81,0,0,1,1.81,1.81V51a1.81,1.81,0,0,1-1.81,1.81H53.25V84.29a1.82,1.82,0,0,1-1.81,1.82H50a1.83,1.83,0,0,1-1.82-1.82Z"/><path class="cls-5" d="M47.66,52.37H34.5a1.81,1.81,0,0,1-1.81-1.81V49.42A1.81,1.81,0,0,1,34.5,47.6H47.65V34.41a1.81,1.81,0,0,1,1.81-1.81h1.45a1.81,1.81,0,0,1,1.81,1.81V47.56H65.86a1.81,1.81,0,0,1,1.81,1.81V50.5a1.81,1.81,0,0,1-1.81,1.81H52.75V83.79a1.82,1.82,0,0,1-1.81,1.82H49.48a1.83,1.83,0,0,1-1.82-1.82Z"/><path class="cls-5" d="M47.16,51.87H34a1.81,1.81,0,0,1-1.81-1.81V48.92A1.81,1.81,0,0,1,34,47.1H47.15V33.91A1.81,1.81,0,0,1,49,32.1h1.45a1.81,1.81,0,0,1,1.81,1.81V47.06H65.36a1.81,1.81,0,0,1,1.81,1.81V50a1.81,1.81,0,0,1-1.81,1.81H52.25V83.29a1.82,1.82,0,0,1-1.81,1.82H49a1.83,1.83,0,0,1-1.82-1.82Z"/><path class="cls-5" d="M46.66,51.37H33.5a1.81,1.81,0,0,1-1.81-1.81V48.42A1.81,1.81,0,0,1,33.5,46.6H46.65V33.41a1.81,1.81,0,0,1,1.81-1.81h1.45a1.81,1.81,0,0,1,1.81,1.81V46.56H64.86a1.81,1.81,0,0,1,1.81,1.81V49.5a1.81,1.81,0,0,1-1.81,1.81H51.75V82.79a1.82,1.82,0,0,1-1.81,1.82H48.48a1.83,1.83,0,0,1-1.82-1.82Z"/><path class="cls-5" d="M46.16,50.87H33a1.81,1.81,0,0,1-1.81-1.81V47.92A1.81,1.81,0,0,1,33,46.1H46.15V32.91A1.81,1.81,0,0,1,48,31.1h1.45a1.81,1.81,0,0,1,1.81,1.81V46.06H64.36a1.81,1.81,0,0,1,1.81,1.81V49a1.81,1.81,0,0,1-1.81,1.81H51.25V82.29a1.82,1.82,0,0,1-1.81,1.82H48a1.83,1.83,0,0,1-1.82-1.82Z"/><path class="cls-5" d="M45.66,50.37H32.5a1.81,1.81,0,0,1-1.81-1.81V47.42A1.81,1.81,0,0,1,32.5,45.6H45.65V32.41a1.81,1.81,0,0,1,1.81-1.81h1.45a1.81,1.81,0,0,1,1.81,1.81V45.56H63.86a1.81,1.81,0,0,1,1.81,1.81V48.5a1.81,1.81,0,0,1-1.81,1.81H50.75V81.79a1.82,1.82,0,0,1-1.81,1.82H47.48a1.83,1.83,0,0,1-1.82-1.82Z"/><path class="cls-5" d="M45.16,49.87H32a1.81,1.81,0,0,1-1.81-1.81V46.92A1.81,1.81,0,0,1,32,45.1H45.15V31.91A1.81,1.81,0,0,1,47,30.1h1.45a1.81,1.81,0,0,1,1.81,1.81V45.06H63.36a1.81,1.81,0,0,1,1.81,1.81V48a1.81,1.81,0,0,1-1.81,1.81H50.25V81.29a1.82,1.82,0,0,1-1.81,1.82H47a1.83,1.83,0,0,1-1.82-1.82Z"/><path class="cls-5" d="M44.66,49.37H31.5a1.81,1.81,0,0,1-1.81-1.81V46.42A1.81,1.81,0,0,1,31.5,44.6H44.65V31.41a1.81,1.81,0,0,1,1.81-1.81h1.45a1.81,1.81,0,0,1,1.81,1.81V44.56H62.86a1.81,1.81,0,0,1,1.81,1.81V47.5a1.81,1.81,0,0,1-1.81,1.81H49.75V80.79a1.82,1.82,0,0,1-1.81,1.82H46.48a1.83,1.83,0,0,1-1.82-1.82Z"/><path class="cls-5" d="M44.16,48.87H31a1.81,1.81,0,0,1-1.81-1.81V45.92A1.81,1.81,0,0,1,31,44.1H44.15V30.91A1.81,1.81,0,0,1,46,29.1h1.45a1.81,1.81,0,0,1,1.81,1.81V44.06H62.36a1.81,1.81,0,0,1,1.81,1.81V47a1.81,1.81,0,0,1-1.81,1.81H49.25V80.29a1.82,1.82,0,0,1-1.81,1.82H46a1.83,1.83,0,0,1-1.82-1.82Z"/><path class="cls-5" d="M43.66,48.37H30.5a1.81,1.81,0,0,1-1.81-1.81V45.42A1.81,1.81,0,0,1,30.5,43.6H43.65V30.41a1.81,1.81,0,0,1,1.81-1.81h1.45a1.81,1.81,0,0,1,1.81,1.81V43.56H61.86a1.81,1.81,0,0,1,1.81,1.81V46.5a1.81,1.81,0,0,1-1.81,1.81H48.75V79.79a1.82,1.82,0,0,1-1.81,1.82H45.48a1.83,1.83,0,0,1-1.82-1.82Z"/><path class="cls-5" d="M43.16,47.87H30a1.81,1.81,0,0,1-1.81-1.81V44.92A1.81,1.81,0,0,1,30,43.1H43.15V29.91A1.81,1.81,0,0,1,45,28.1h1.45a1.81,1.81,0,0,1,1.81,1.81V43.06H61.36a1.81,1.81,0,0,1,1.81,1.81V46a1.81,1.81,0,0,1-1.81,1.81H48.25V79.29a1.82,1.82,0,0,1-1.81,1.82H45a1.83,1.83,0,0,1-1.82-1.82Z"/><path class="cls-5" d="M42.66,47.37H29.5a1.81,1.81,0,0,1-1.81-1.81V44.42A1.81,1.81,0,0,1,29.5,42.6H42.65V29.41a1.81,1.81,0,0,1,1.81-1.81h1.45a1.81,1.81,0,0,1,1.81,1.81V42.56H60.86a1.81,1.81,0,0,1,1.81,1.81V45.5a1.81,1.81,0,0,1-1.81,1.81H47.75V78.79a1.82,1.82,0,0,1-1.81,1.82H44.48a1.83,1.83,0,0,1-1.82-1.82Z"/><path class="cls-5" d="M42.16,46.87H29a1.81,1.81,0,0,1-1.81-1.81V43.92A1.81,1.81,0,0,1,29,42.1H42.15V28.91A1.81,1.81,0,0,1,44,27.1h1.45a1.81,1.81,0,0,1,1.81,1.81V42.06H60.36a1.81,1.81,0,0,1,1.81,1.81V45a1.81,1.81,0,0,1-1.81,1.81H47.25V78.29a1.82,1.82,0,0,1-1.81,1.82H44a1.83,1.83,0,0,1-1.82-1.82Z"/><path class="cls-5" d="M41.66,46.37H28.5a1.81,1.81,0,0,1-1.81-1.81V43.42A1.81,1.81,0,0,1,28.5,41.6H41.65V28.41a1.81,1.81,0,0,1,1.81-1.81h1.45a1.81,1.81,0,0,1,1.81,1.81V41.56H59.86a1.81,1.81,0,0,1,1.81,1.81V44.5a1.81,1.81,0,0,1-1.81,1.81H46.75V77.79a1.82,1.82,0,0,1-1.81,1.82H43.48a1.83,1.83,0,0,1-1.82-1.82Z"/><path class="cls-5" d="M41.16,45.87H28a1.81,1.81,0,0,1-1.81-1.81V42.92A1.81,1.81,0,0,1,28,41.1H41.15V27.91A1.81,1.81,0,0,1,43,26.1h1.45a1.81,1.81,0,0,1,1.81,1.81V41.06H59.36a1.81,1.81,0,0,1,1.81,1.81V44a1.81,1.81,0,0,1-1.81,1.81H46.25V77.29a1.82,1.82,0,0,1-1.81,1.82H43a1.83,1.83,0,0,1-1.82-1.82Z"/><path class="cls-5" d="M40.66,45.37H27.5a1.81,1.81,0,0,1-1.81-1.81V42.42A1.81,1.81,0,0,1,27.5,40.6H40.65V27.41a1.81,1.81,0,0,1,1.81-1.81h1.45a1.81,1.81,0,0,1,1.81,1.81V40.56H58.86a1.81,1.81,0,0,1,1.81,1.81V43.5a1.81,1.81,0,0,1-1.81,1.81H45.75V76.79a1.82,1.82,0,0,1-1.81,1.82H42.48a1.83,1.83,0,0,1-1.82-1.82Z"/><path class="cls-5" d="M40.16,44.87H27a1.81,1.81,0,0,1-1.81-1.81V41.92A1.81,1.81,0,0,1,27,40.1H40.15V26.91A1.81,1.81,0,0,1,42,25.1h1.45a1.81,1.81,0,0,1,1.81,1.81V40.06H58.36a1.81,1.81,0,0,1,1.81,1.81V43a1.81,1.81,0,0,1-1.81,1.81H45.25V76.29a1.82,1.82,0,0,1-1.81,1.82H42a1.83,1.83,0,0,1-1.82-1.82Z"/><path class="cls-5" d="M39.66,44.37H26.5a1.81,1.81,0,0,1-1.81-1.81V41.42A1.81,1.81,0,0,1,26.5,39.6H39.65V26.41a1.81,1.81,0,0,1,1.81-1.81h1.45a1.81,1.81,0,0,1,1.81,1.81V39.56H57.86a1.81,1.81,0,0,1,1.81,1.81V42.5a1.81,1.81,0,0,1-1.81,1.81H44.75V75.79a1.82,1.82,0,0,1-1.81,1.82H41.48a1.83,1.83,0,0,1-1.82-1.82Z"/><path class="cls-5" d="M39.16,43.87H26a1.81,1.81,0,0,1-1.81-1.81V40.92A1.81,1.81,0,0,1,26,39.1H39.15V25.91A1.81,1.81,0,0,1,41,24.1h1.45a1.81,1.81,0,0,1,1.81,1.81V39.06H57.36a1.81,1.81,0,0,1,1.81,1.81V42a1.81,1.81,0,0,1-1.81,1.81H44.25V75.29a1.82,1.82,0,0,1-1.81,1.82H41a1.83,1.83,0,0,1-1.82-1.82Z"/><path class="cls-5" d="M38.66,43.37H25.5a1.81,1.81,0,0,1-1.81-1.81V40.42A1.81,1.81,0,0,1,25.5,38.6H38.65V25.41a1.81,1.81,0,0,1,1.81-1.81h1.45a1.81,1.81,0,0,1,1.81,1.81V38.56H56.86a1.81,1.81,0,0,1,1.81,1.81V41.5a1.81,1.81,0,0,1-1.81,1.81H43.75V74.79a1.82,1.82,0,0,1-1.81,1.82H40.48a1.83,1.83,0,0,1-1.82-1.82Z"/><path class="cls-5" d="M38.16,42.87H25a1.81,1.81,0,0,1-1.81-1.81V39.92A1.81,1.81,0,0,1,25,38.1H38.15V24.91A1.81,1.81,0,0,1,40,23.1h1.45a1.81,1.81,0,0,1,1.81,1.81V38.06H56.36a1.81,1.81,0,0,1,1.81,1.81V41a1.81,1.81,0,0,1-1.81,1.81H43.25V74.29a1.82,1.82,0,0,1-1.81,1.82H40a1.83,1.83,0,0,1-1.82-1.82Z"/><path class="cls-5" d="M37.66,42.37H24.5a1.81,1.81,0,0,1-1.81-1.81V39.42A1.81,1.81,0,0,1,24.5,37.6H37.65V24.41a1.81,1.81,0,0,1,1.81-1.81h1.45a1.81,1.81,0,0,1,1.81,1.81V37.56H55.86a1.81,1.81,0,0,1,1.81,1.81V40.5a1.81,1.81,0,0,1-1.81,1.81H42.75V73.79a1.82,1.82,0,0,1-1.81,1.82H39.48a1.83,1.83,0,0,1-1.82-1.82Z"/><path class="cls-5" d="M37.16,41.87H24a1.81,1.81,0,0,1-1.81-1.81V38.92A1.81,1.81,0,0,1,24,37.1H37.15V23.91A1.81,1.81,0,0,1,39,22.1h1.45a1.81,1.81,0,0,1,1.81,1.81V37.06H55.36a1.81,1.81,0,0,1,1.81,1.81V40a1.81,1.81,0,0,1-1.81,1.81H42.25V73.29a1.82,1.82,0,0,1-1.81,1.82H39a1.83,1.83,0,0,1-1.82-1.82Z"/><path class="cls-5" d="M36.66,41.37H23.5a1.81,1.81,0,0,1-1.81-1.81V38.42A1.81,1.81,0,0,1,23.5,36.6H36.65V23.41a1.81,1.81,0,0,1,1.81-1.81h1.45a1.81,1.81,0,0,1,1.81,1.81V36.56H54.86a1.81,1.81,0,0,1,1.81,1.81V39.5a1.81,1.81,0,0,1-1.81,1.81H41.75V72.79a1.82,1.82,0,0,1-1.81,1.82H38.48a1.83,1.83,0,0,1-1.82-1.82Z"/><path class="cls-5" d="M36.16,40.87H23a1.81,1.81,0,0,1-1.81-1.81V37.92A1.81,1.81,0,0,1,23,36.1H36.15V22.91A1.81,1.81,0,0,1,38,21.1h1.45a1.81,1.81,0,0,1,1.81,1.81V36.06H54.36a1.81,1.81,0,0,1,1.81,1.81V39a1.81,1.81,0,0,1-1.81,1.81H41.25V72.29a1.82,1.82,0,0,1-1.81,1.82H38a1.83,1.83,0,0,1-1.82-1.82Z"/><path class="cls-5" d="M35.66,40.37H22.5a1.81,1.81,0,0,1-1.81-1.81V37.42A1.81,1.81,0,0,1,22.5,35.6H35.65V22.41a1.81,1.81,0,0,1,1.81-1.81h1.45a1.81,1.81,0,0,1,1.81,1.81V35.56H53.86a1.81,1.81,0,0,1,1.81,1.81V38.5a1.81,1.81,0,0,1-1.81,1.81H40.75V71.79a1.82,1.82,0,0,1-1.81,1.82H37.48a1.83,1.83,0,0,1-1.82-1.82Z"/><path class="cls-5" d="M35.16,39.87H22a1.81,1.81,0,0,1-1.81-1.81V36.92A1.81,1.81,0,0,1,22,35.1H35.15V21.91A1.81,1.81,0,0,1,37,20.1h1.45a1.81,1.81,0,0,1,1.81,1.81V35.06H53.36a1.81,1.81,0,0,1,1.81,1.81V38a1.81,1.81,0,0,1-1.81,1.81H40.25V71.29a1.82,1.82,0,0,1-1.81,1.82H37a1.83,1.83,0,0,1-1.82-1.82Z"/><path class="cls-5" d="M34.66,39.37H21.5a1.81,1.81,0,0,1-1.81-1.81V36.42A1.81,1.81,0,0,1,21.5,34.6H34.65V21.41a1.81,1.81,0,0,1,1.81-1.81h1.45a1.81,1.81,0,0,1,1.81,1.81V34.56H52.86a1.81,1.81,0,0,1,1.81,1.81V37.5a1.81,1.81,0,0,1-1.81,1.81H39.75V70.79a1.82,1.82,0,0,1-1.81,1.82H36.48a1.83,1.83,0,0,1-1.82-1.82Z"/><path class="cls-5" d="M34.16,38.87H21a1.81,1.81,0,0,1-1.81-1.81V35.92A1.81,1.81,0,0,1,21,34.1H34.15V20.91A1.81,1.81,0,0,1,36,19.1h1.45a1.81,1.81,0,0,1,1.81,1.81V34.06H52.36a1.81,1.81,0,0,1,1.81,1.81V37a1.81,1.81,0,0,1-1.81,1.81H39.25V70.29a1.82,1.82,0,0,1-1.81,1.82H36a1.83,1.83,0,0,1-1.82-1.82Z"/><path class="cls-5" d="M33.66,38.37H20.5a1.81,1.81,0,0,1-1.81-1.81V35.42A1.81,1.81,0,0,1,20.5,33.6H33.65V20.41a1.81,1.81,0,0,1,1.81-1.81h1.45a1.81,1.81,0,0,1,1.81,1.81V33.56H51.86a1.81,1.81,0,0,1,1.81,1.81V36.5a1.81,1.81,0,0,1-1.81,1.81H38.75V69.79a1.82,1.82,0,0,1-1.81,1.82H35.48a1.83,1.83,0,0,1-1.82-1.82Z"/><path class="cls-5" d="M33.16,37.87H20a1.81,1.81,0,0,1-1.81-1.81V34.92A1.81,1.81,0,0,1,20,33.1H33.15V19.91A1.81,1.81,0,0,1,35,18.1h1.45a1.81,1.81,0,0,1,1.81,1.81V33.06H51.36a1.81,1.81,0,0,1,1.81,1.81V36a1.81,1.81,0,0,1-1.81,1.81H38.25V69.29a1.82,1.82,0,0,1-1.81,1.82H35a1.83,1.83,0,0,1-1.82-1.82Z"/><path class="cls-5" d="M32.66,37.37H19.5a1.81,1.81,0,0,1-1.81-1.81V34.42A1.81,1.81,0,0,1,19.5,32.6H32.65V19.41a1.81,1.81,0,0,1,1.81-1.81h1.45a1.81,1.81,0,0,1,1.81,1.81V32.56H50.86a1.81,1.81,0,0,1,1.81,1.81V35.5a1.81,1.81,0,0,1-1.81,1.81H37.75V68.79a1.82,1.82,0,0,1-1.81,1.82H34.48a1.83,1.83,0,0,1-1.82-1.82Z"/><path class="cls-5" d="M32.16,36.87H19a1.81,1.81,0,0,1-1.81-1.81V33.92A1.81,1.81,0,0,1,19,32.1H32.15V18.91A1.81,1.81,0,0,1,34,17.1h1.45a1.81,1.81,0,0,1,1.81,1.81V32.06H50.36a1.81,1.81,0,0,1,1.81,1.81V35a1.81,1.81,0,0,1-1.81,1.81H37.25V68.29a1.82,1.82,0,0,1-1.81,1.82H34a1.83,1.83,0,0,1-1.82-1.82Z"/><path class="cls-5" d="M31.66,36.37H18.5a1.81,1.81,0,0,1-1.81-1.81V33.42A1.81,1.81,0,0,1,18.5,31.6H31.65V18.41a1.81,1.81,0,0,1,1.81-1.81h1.45a1.81,1.81,0,0,1,1.81,1.81V31.56H49.86a1.81,1.81,0,0,1,1.81,1.81V34.5a1.81,1.81,0,0,1-1.81,1.81H36.75V67.79a1.82,1.82,0,0,1-1.81,1.82H33.48a1.83,1.83,0,0,1-1.82-1.82Z"/><path class="cls-5" d="M31.16,35.87H18a1.81,1.81,0,0,1-1.81-1.81V32.92A1.81,1.81,0,0,1,18,31.1H31.15V17.91A1.81,1.81,0,0,1,33,16.1h1.45a1.81,1.81,0,0,1,1.81,1.81V31.06H49.36a1.81,1.81,0,0,1,1.81,1.81V34a1.81,1.81,0,0,1-1.81,1.81H36.25V67.29a1.82,1.82,0,0,1-1.81,1.82H33a1.83,1.83,0,0,1-1.82-1.82Z"/><path class="cls-5" d="M30.66,35.37H17.5a1.81,1.81,0,0,1-1.81-1.81V32.42A1.81,1.81,0,0,1,17.5,30.6H30.65V17.41a1.81,1.81,0,0,1,1.81-1.81h1.45a1.81,1.81,0,0,1,1.81,1.81V30.56H48.86a1.81,1.81,0,0,1,1.81,1.81V33.5a1.81,1.81,0,0,1-1.81,1.81H35.75V66.79a1.82,1.82,0,0,1-1.81,1.82H32.48a1.83,1.83,0,0,1-1.82-1.82Z"/><path class="cls-5" d="M30.16,34.87H17a1.81,1.81,0,0,1-1.81-1.81V31.92A1.81,1.81,0,0,1,17,30.1H30.15V16.91A1.81,1.81,0,0,1,32,15.1h1.45a1.81,1.81,0,0,1,1.81,1.81V30.06H48.36a1.81,1.81,0,0,1,1.81,1.81V33a1.81,1.81,0,0,1-1.81,1.81H35.25V66.29a1.82,1.82,0,0,1-1.81,1.82H32a1.83,1.83,0,0,1-1.82-1.82Z"/><path class="cls-5" d="M29.66,34.37H16.5a1.81,1.81,0,0,1-1.81-1.81V31.42A1.81,1.81,0,0,1,16.5,29.6H29.65V16.41a1.81,1.81,0,0,1,1.81-1.81h1.45a1.81,1.81,0,0,1,1.81,1.81V29.56H47.86a1.81,1.81,0,0,1,1.81,1.81V32.5a1.81,1.81,0,0,1-1.81,1.81H34.75V65.79a1.82,1.82,0,0,1-1.81,1.82H31.48a1.83,1.83,0,0,1-1.82-1.82Z"/><path class="cls-5" d="M29.16,33.87H16a1.81,1.81,0,0,1-1.81-1.81V30.92A1.81,1.81,0,0,1,16,29.1H29.15V15.91A1.81,1.81,0,0,1,31,14.1h1.45a1.81,1.81,0,0,1,1.81,1.81V29.06H47.36a1.81,1.81,0,0,1,1.81,1.81V32a1.81,1.81,0,0,1-1.81,1.81H34.25V65.29a1.82,1.82,0,0,1-1.81,1.82H31a1.83,1.83,0,0,1-1.82-1.82Z"/><path class="cls-5" d="M28.66,33.37H15.5a1.81,1.81,0,0,1-1.81-1.81V30.42A1.81,1.81,0,0,1,15.5,28.6H28.65V15.41a1.81,1.81,0,0,1,1.81-1.81h1.45a1.81,1.81,0,0,1,1.81,1.81V28.56H46.86a1.81,1.81,0,0,1,1.81,1.81V31.5a1.81,1.81,0,0,1-1.81,1.81H33.75V64.79a1.82,1.82,0,0,1-1.81,1.82H30.48a1.83,1.83,0,0,1-1.82-1.82Z"/><path class="cls-5" d="M28.16,32.87H15a1.81,1.81,0,0,1-1.81-1.81V29.92A1.81,1.81,0,0,1,15,28.1H28.15V14.91A1.81,1.81,0,0,1,30,13.1h1.45a1.81,1.81,0,0,1,1.81,1.81V28.06H46.36a1.81,1.81,0,0,1,1.81,1.81V31a1.81,1.81,0,0,1-1.81,1.81H33.25V64.29a1.82,1.82,0,0,1-1.81,1.82H30a1.83,1.83,0,0,1-1.82-1.82Z"/><path class="cls-5" d="M27.66,32.37H14.5a1.81,1.81,0,0,1-1.81-1.81V29.42A1.81,1.81,0,0,1,14.5,27.6H27.65V14.41a1.81,1.81,0,0,1,1.81-1.81h1.45a1.81,1.81,0,0,1,1.81,1.81V27.56H45.86a1.81,1.81,0,0,1,1.81,1.81V30.5a1.81,1.81,0,0,1-1.81,1.81H32.75V63.79a1.82,1.82,0,0,1-1.81,1.82H29.48a1.83,1.83,0,0,1-1.82-1.82Z"/><path class="cls-5" d="M27.16,31.87H14a1.81,1.81,0,0,1-1.81-1.81V28.92A1.81,1.81,0,0,1,14,27.1H27.15V13.91A1.81,1.81,0,0,1,29,12.1h1.45a1.81,1.81,0,0,1,1.81,1.81V27.06H45.36a1.81,1.81,0,0,1,1.81,1.81V30a1.81,1.81,0,0,1-1.81,1.81H32.25V63.29a1.82,1.82,0,0,1-1.81,1.82H29a1.83,1.83,0,0,1-1.82-1.82Z"/><path class="cls-5" d="M26.66,31.37H13.5a1.81,1.81,0,0,1-1.81-1.81V28.42A1.81,1.81,0,0,1,13.5,26.6H26.65V13.41a1.81,1.81,0,0,1,1.81-1.81h1.45a1.81,1.81,0,0,1,1.81,1.81V26.56H44.86a1.81,1.81,0,0,1,1.81,1.81V29.5a1.81,1.81,0,0,1-1.81,1.81H31.75V62.79a1.82,1.82,0,0,1-1.81,1.82H28.48a1.83,1.83,0,0,1-1.82-1.82Z"/><path class="cls-5" d="M26.16,30.87H13a1.81,1.81,0,0,1-1.81-1.81V27.92A1.81,1.81,0,0,1,13,26.1H26.15V12.91A1.81,1.81,0,0,1,28,11.1h1.45a1.81,1.81,0,0,1,1.81,1.81V26.06H44.36a1.81,1.81,0,0,1,1.81,1.81V29a1.81,1.81,0,0,1-1.81,1.81H31.25V62.29a1.82,1.82,0,0,1-1.81,1.82H28a1.83,1.83,0,0,1-1.82-1.82Z"/><path class="cls-5" d="M25.66,30.37H12.5a1.81,1.81,0,0,1-1.81-1.81V27.42A1.81,1.81,0,0,1,12.5,25.6H25.65V12.41a1.81,1.81,0,0,1,1.81-1.81h1.45a1.81,1.81,0,0,1,1.81,1.81V25.56H43.86a1.81,1.81,0,0,1,1.81,1.81V28.5a1.81,1.81,0,0,1-1.81,1.81H30.75V61.79a1.82,1.82,0,0,1-1.81,1.82H27.48a1.83,1.83,0,0,1-1.82-1.82Z"/><path class="cls-5" d="M25.16,29.87H12a1.81,1.81,0,0,1-1.81-1.81V26.92A1.81,1.81,0,0,1,12,25.1H25.15V11.91A1.81,1.81,0,0,1,27,10.1h1.45a1.81,1.81,0,0,1,1.81,1.81V25.06H43.36a1.81,1.81,0,0,1,1.81,1.81V28a1.81,1.81,0,0,1-1.81,1.81H30.25V61.29a1.82,1.82,0,0,1-1.81,1.82H27a1.83,1.83,0,0,1-1.82-1.82Z"/><path class="cls-5" d="M24.66,29.37H11.5a1.81,1.81,0,0,1-1.81-1.81V26.42A1.81,1.81,0,0,1,11.5,24.6H24.65V11.41A1.81,1.81,0,0,1,26.46,9.6h1.45a1.81,1.81,0,0,1,1.81,1.81V24.56H42.86a1.81,1.81,0,0,1,1.81,1.81V27.5a1.81,1.81,0,0,1-1.81,1.81H29.75V60.79a1.82,1.82,0,0,1-1.81,1.82H26.48a1.83,1.83,0,0,1-1.82-1.82Z"/><path class="cls-5" d="M24.16,28.87H11a1.81,1.81,0,0,1-1.81-1.81V25.92A1.81,1.81,0,0,1,11,24.1H24.15V10.91A1.81,1.81,0,0,1,26,9.1h1.45a1.81,1.81,0,0,1,1.81,1.81V24.06H42.36a1.81,1.81,0,0,1,1.81,1.81V27a1.81,1.81,0,0,1-1.81,1.81H29.25V60.29a1.82,1.82,0,0,1-1.81,1.82H26a1.83,1.83,0,0,1-1.82-1.82Z"/><path class="cls-5" d="M23.66,28.37H10.5a1.81,1.81,0,0,1-1.81-1.81V25.42A1.81,1.81,0,0,1,10.5,23.6H23.65V10.41A1.81,1.81,0,0,1,25.46,8.6h1.45a1.81,1.81,0,0,1,1.81,1.81V23.56H41.86a1.81,1.81,0,0,1,1.81,1.81V26.5a1.81,1.81,0,0,1-1.81,1.81H28.75V59.79a1.82,1.82,0,0,1-1.81,1.82H25.48a1.83,1.83,0,0,1-1.82-1.82Z"/><path class="cls-5" d="M23.16,27.87H10a1.81,1.81,0,0,1-1.81-1.81V24.92A1.81,1.81,0,0,1,10,23.1H23.15V9.91A1.81,1.81,0,0,1,25,8.1h1.45a1.81,1.81,0,0,1,1.81,1.81V23.06H41.36a1.81,1.81,0,0,1,1.81,1.81V26a1.81,1.81,0,0,1-1.81,1.81H28.25V59.29a1.82,1.82,0,0,1-1.81,1.82H25a1.83,1.83,0,0,1-1.82-1.82Z"/><path class="cls-5" d="M22.66,27.37H9.5a1.81,1.81,0,0,1-1.81-1.81V24.42A1.81,1.81,0,0,1,9.5,22.6H22.65V9.41A1.81,1.81,0,0,1,24.46,7.6h1.45a1.81,1.81,0,0,1,1.81,1.81V22.56H40.86a1.81,1.81,0,0,1,1.81,1.81V25.5a1.81,1.81,0,0,1-1.81,1.81H27.75V58.79a1.82,1.82,0,0,1-1.81,1.82H24.48a1.83,1.83,0,0,1-1.82-1.82Z"/><path class="cls-5" d="M22.16,26.87H9a1.81,1.81,0,0,1-1.81-1.81V23.92A1.81,1.81,0,0,1,9,22.1H22.15V8.91A1.81,1.81,0,0,1,24,7.1h1.45a1.81,1.81,0,0,1,1.81,1.81V22.06H40.36a1.81,1.81,0,0,1,1.81,1.81V25a1.81,1.81,0,0,1-1.81,1.81H27.25V58.29a1.82,1.82,0,0,1-1.81,1.82H24a1.83,1.83,0,0,1-1.82-1.82Z"/><path class="cls-5" d="M21.66,26.37H8.5a1.81,1.81,0,0,1-1.81-1.81V23.42A1.81,1.81,0,0,1,8.5,21.6H21.65V8.41A1.81,1.81,0,0,1,23.46,6.6h1.45a1.81,1.81,0,0,1,1.81,1.81V21.56H39.86a1.81,1.81,0,0,1,1.81,1.81V24.5a1.81,1.81,0,0,1-1.81,1.81H26.75V57.79a1.82,1.82,0,0,1-1.81,1.82H23.48a1.83,1.83,0,0,1-1.82-1.82Z"/><path class="cls-5" d="M21.16,25.87H8a1.81,1.81,0,0,1-1.81-1.81V22.92A1.81,1.81,0,0,1,8,21.1H21.15V7.91A1.81,1.81,0,0,1,23,6.1h1.45a1.81,1.81,0,0,1,1.81,1.81V21.06H39.36a1.81,1.81,0,0,1,1.81,1.81V24a1.81,1.81,0,0,1-1.81,1.81H26.25V57.29a1.82,1.82,0,0,1-1.81,1.82H23a1.83,1.83,0,0,1-1.82-1.82Z"/><path class="cls-5" d="M20.66,25.37H7.5a1.81,1.81,0,0,1-1.81-1.81V22.42A1.81,1.81,0,0,1,7.5,20.6H20.65V7.41A1.81,1.81,0,0,1,22.46,5.6h1.45a1.81,1.81,0,0,1,1.81,1.81V20.56H38.86a1.81,1.81,0,0,1,1.81,1.81V23.5a1.81,1.81,0,0,1-1.81,1.81H25.75V56.79a1.82,1.82,0,0,1-1.81,1.82H22.48a1.83,1.83,0,0,1-1.82-1.82Z"/><path class="cls-5" d="M20.16,24.87H7a1.81,1.81,0,0,1-1.81-1.81V21.92A1.81,1.81,0,0,1,7,20.1H20.15V6.91A1.81,1.81,0,0,1,22,5.1h1.45a1.81,1.81,0,0,1,1.81,1.81V20.06H38.36a1.81,1.81,0,0,1,1.81,1.81V23a1.81,1.81,0,0,1-1.81,1.81H25.25V56.29a1.82,1.82,0,0,1-1.81,1.82H22a1.83,1.83,0,0,1-1.82-1.82Z"/><path class="cls-5" d="M19.66,24.37H6.5a1.81,1.81,0,0,1-1.81-1.81V21.42A1.81,1.81,0,0,1,6.5,19.6H19.65V6.41A1.81,1.81,0,0,1,21.46,4.6h1.45a1.81,1.81,0,0,1,1.81,1.81V19.56H37.86a1.81,1.81,0,0,1,1.81,1.81V22.5a1.81,1.81,0,0,1-1.81,1.81H24.75V55.79a1.82,1.82,0,0,1-1.81,1.82H21.48a1.83,1.83,0,0,1-1.82-1.82Z"/><path class="cls-5" d="M19.16,23.87H6a1.81,1.81,0,0,1-1.81-1.81V20.92A1.81,1.81,0,0,1,6,19.1H19.15V5.91A1.81,1.81,0,0,1,21,4.1h1.45a1.81,1.81,0,0,1,1.81,1.81V19.06H37.36a1.81,1.81,0,0,1,1.81,1.81V22a1.81,1.81,0,0,1-1.81,1.81H24.25V55.29a1.82,1.82,0,0,1-1.81,1.82H21a1.83,1.83,0,0,1-1.82-1.82Z"/><path class="cls-5" d="M18.66,23.37H5.5a1.81,1.81,0,0,1-1.81-1.81V20.42A1.81,1.81,0,0,1,5.5,18.6H18.65V5.41A1.81,1.81,0,0,1,20.46,3.6h1.45a1.81,1.81,0,0,1,1.81,1.81V18.56H36.86a1.81,1.81,0,0,1,1.81,1.81V21.5a1.81,1.81,0,0,1-1.81,1.81H23.75V54.79a1.82,1.82,0,0,1-1.81,1.82H20.48a1.83,1.83,0,0,1-1.82-1.82Z"/><path class="cls-5" d="M18.16,22.87H5a1.81,1.81,0,0,1-1.81-1.81V19.92A1.81,1.81,0,0,1,5,18.1H18.15V4.91A1.81,1.81,0,0,1,20,3.1h1.45a1.81,1.81,0,0,1,1.81,1.81V18.06H36.36a1.81,1.81,0,0,1,1.81,1.81V21a1.81,1.81,0,0,1-1.81,1.81H23.25V54.29a1.82,1.82,0,0,1-1.81,1.82H20a1.83,1.83,0,0,1-1.82-1.82Z"/><path class="cls-5" d="M17.66,22.37H4.5a1.81,1.81,0,0,1-1.81-1.81V19.42A1.81,1.81,0,0,1,4.5,17.6H17.65V4.41A1.81,1.81,0,0,1,19.46,2.6h1.45a1.81,1.81,0,0,1,1.81,1.81V17.56H35.86a1.81,1.81,0,0,1,1.81,1.81V20.5a1.81,1.81,0,0,1-1.81,1.81H22.75V53.79a1.82,1.82,0,0,1-1.81,1.82H19.48a1.83,1.83,0,0,1-1.82-1.82Z"/><path class="cls-5" d="M17.16,21.87H4a1.81,1.81,0,0,1-1.81-1.81V18.92A1.81,1.81,0,0,1,4,17.1H17.15V3.91A1.81,1.81,0,0,1,19,2.1h1.45a1.81,1.81,0,0,1,1.81,1.81V17.06H35.36a1.81,1.81,0,0,1,1.81,1.81V20a1.81,1.81,0,0,1-1.81,1.81H22.25V53.29a1.82,1.82,0,0,1-1.81,1.82H19a1.83,1.83,0,0,1-1.82-1.82Z"/><path class="cls-5" d="M16.66,21.37H3.5a1.81,1.81,0,0,1-1.81-1.81V18.42A1.81,1.81,0,0,1,3.5,16.6H16.65V3.41A1.81,1.81,0,0,1,18.46,1.6h1.45a1.81,1.81,0,0,1,1.81,1.81V16.56H34.86a1.81,1.81,0,0,1,1.81,1.81V19.5a1.81,1.81,0,0,1-1.81,1.81H21.75V52.79a1.82,1.82,0,0,1-1.81,1.82H18.48a1.83,1.83,0,0,1-1.82-1.82Z"/><path class="cls-5" d="M16.16,20.87H3a1.81,1.81,0,0,1-1.81-1.81V17.92A1.81,1.81,0,0,1,3,16.1H16.15V2.91A1.81,1.81,0,0,1,18,1.1h1.45a1.81,1.81,0,0,1,1.81,1.81V16.06H34.36a1.81,1.81,0,0,1,1.81,1.81V19a1.81,1.81,0,0,1-1.81,1.81H21.25V52.29a1.82,1.82,0,0,1-1.81,1.82H18a1.83,1.83,0,0,1-1.82-1.82Z"/><path class="cls-5" d="M15.66,20.37H2.5A1.81,1.81,0,0,1,.69,18.56V17.42A1.81,1.81,0,0,1,2.5,15.6H15.65V2.41A1.81,1.81,0,0,1,17.46.6h1.45a1.81,1.81,0,0,1,1.81,1.81V15.56H33.86a1.81,1.81,0,0,1,1.81,1.81V18.5a1.81,1.81,0,0,1-1.81,1.81H20.75V51.79a1.82,1.82,0,0,1-1.81,1.82H17.48a1.83,1.83,0,0,1-1.82-1.82Z"/><path class="cls-5" d="M15.16,19.87H2A1.81,1.81,0,0,1,.19,18.06V16.92A1.81,1.81,0,0,1,2,15.1H15.15V1.91A1.81,1.81,0,0,1,17,.1h1.45a1.81,1.81,0,0,1,1.81,1.81V15.06H33.36a1.81,1.81,0,0,1,1.81,1.81V18a1.81,1.81,0,0,1-1.81,1.81H20.25V51.29a1.82,1.82,0,0,1-1.81,1.82H17a1.83,1.83,0,0,1-1.82-1.82Z"/></g><path class="cls-6" d="M15.16,19.87H2A1.81,1.81,0,0,1,.19,18.06V16.92A1.81,1.81,0,0,1,2,15.1H15.15V1.91A1.81,1.81,0,0,1,17,.1h1.45a1.81,1.81,0,0,1,1.81,1.81V15.06H33.36a1.81,1.81,0,0,1,1.81,1.81V18a1.81,1.81,0,0,1-1.81,1.81H20.25V51.29a1.82,1.82,0,0,1-1.81,1.82H17a1.83,1.83,0,0,1-1.82-1.82Z"/></g></g></g></svg>