<svg xmlns="http://www.w3.org/2000/svg" xmlns:xlink="http://www.w3.org/1999/xlink" viewBox="0 0 93.78 70.04"><defs><style>.cls-1{fill:none;}.cls-2{isolation:isolate;}.cls-3{clip-path:url(#clip-path);}.cls-4{opacity:0.26;mix-blend-mode:multiply;}.cls-5{fill:#a06159;}.cls-6{fill:#fff;}</style><clipPath id="clip-path"><path class="cls-1" d="M-528,70v-82.3a10,10,0,0,1,10-10H83.69a10,10,0,0,1,10,10V70Z"/></clipPath></defs><title>ícone_doação_de_sangue</title><g class="cls-2"><g id="Camada_1" data-name="Camada 1"><g class="cls-3"><g class="cls-4"><path class="cls-5" d="M121.24,108.54a19.87,19.87,0,0,1-.95,3.16,8.91,8.91,0,0,1-8.52,5.31c-7.28,0-14.57,0-21.85,0H79a8.88,8.88,0,0,1-7.29-3.37A8.61,8.61,0,0,1,70.46,104c1.37-2.84,3.07-5.52,4.65-8.25q6.08-10.55,12.17-21.09a9.32,9.32,0,0,1,6.54-4.76,9,9,0,0,1,9,3.75c1.92,3.08,3.69,6.25,5.51,9.39,3.74,6.46,7.45,12.93,11.2,19.38a12.29,12.29,0,0,1,1.68,4.59Zm-25.93,4.31h16.34a5.2,5.2,0,0,0,4-1.59,5,5,0,0,0,.62-6.19q-6.52-11.31-13.06-22.61c-1.22-2.11-2.39-4.25-3.69-6.31A4.63,4.63,0,0,0,94.89,74a5,5,0,0,0-4,2.73Q84.49,87.87,78,99c-1.27,2.2-2.58,4.37-3.77,6.61a4.68,4.68,0,0,0,.33,5,5,5,0,0,0,4.47,2.25Z"/><path class="cls-5" d="M120.74,108a19.87,19.87,0,0,1-.95,3.16,8.91,8.91,0,0,1-8.52,5.31c-7.28,0-14.57,0-21.85,0h-11a8.88,8.88,0,0,1-7.29-3.37A8.61,8.61,0,0,1,70,103.51c1.37-2.84,3.07-5.52,4.65-8.25q6.08-10.55,12.17-21.09a9.32,9.32,0,0,1,6.54-4.76,9,9,0,0,1,9,3.75c1.92,3.08,3.69,6.25,5.51,9.39,3.74,6.46,7.45,12.93,11.2,19.38a12.29,12.29,0,0,1,1.68,4.59Zm-25.93,4.31h16.34a5.2,5.2,0,0,0,4-1.59,5,5,0,0,0,.62-6.19Q109.25,93.26,102.71,82c-1.22-2.11-2.39-4.25-3.69-6.31a4.63,4.63,0,0,0-4.63-2.17,5,5,0,0,0-4,2.73Q84,87.37,77.53,98.51c-1.27,2.2-2.58,4.37-3.77,6.61a4.68,4.68,0,0,0,.33,5,5,5,0,0,0,4.47,2.25Z"/><path class="cls-5" d="M120.24,107.54a19.87,19.87,0,0,1-.95,3.16,8.91,8.91,0,0,1-8.52,5.31c-7.28,0-14.57,0-21.85,0H78a8.88,8.88,0,0,1-7.29-3.37A8.61,8.61,0,0,1,69.46,103c1.37-2.84,3.07-5.52,4.65-8.25q6.08-10.55,12.17-21.09a9.32,9.32,0,0,1,6.54-4.76,9,9,0,0,1,9,3.75c1.92,3.08,3.69,6.25,5.51,9.39,3.74,6.46,7.45,12.93,11.2,19.38a12.29,12.29,0,0,1,1.68,4.59Zm-25.93,4.31h16.34a5.2,5.2,0,0,0,4-1.59,5,5,0,0,0,.62-6.19q-6.52-11.31-13.06-22.61c-1.22-2.11-2.39-4.25-3.69-6.31A4.63,4.63,0,0,0,93.89,73a5,5,0,0,0-4,2.73Q83.49,86.87,77,98c-1.27,2.2-2.58,4.37-3.77,6.61a4.68,4.68,0,0,0,.33,5,5,5,0,0,0,4.47,2.25Z"/><path class="cls-5" d="M119.74,107a19.87,19.87,0,0,1-.95,3.16,8.91,8.91,0,0,1-8.52,5.31c-7.28,0-14.57,0-21.85,0h-11a8.88,8.88,0,0,1-7.29-3.37A8.61,8.61,0,0,1,69,102.51C70.33,99.67,72,97,73.61,94.26q6.08-10.55,12.17-21.09a9.32,9.32,0,0,1,6.54-4.76,9,9,0,0,1,9,3.75c1.92,3.08,3.69,6.25,5.51,9.39,3.74,6.46,7.45,12.93,11.2,19.38a12.29,12.29,0,0,1,1.68,4.59Zm-25.93,4.31h16.34a5.2,5.2,0,0,0,4-1.59,5,5,0,0,0,.62-6.19Q108.25,92.26,101.71,81c-1.22-2.11-2.39-4.25-3.69-6.31a4.63,4.63,0,0,0-4.63-2.17,5,5,0,0,0-4,2.73Q83,86.37,76.53,97.51c-1.27,2.2-2.58,4.37-3.77,6.61a4.68,4.68,0,0,0,.33,5,5,5,0,0,0,4.47,2.25Z"/><path class="cls-5" d="M119.24,106.54a19.87,19.87,0,0,1-.95,3.16,8.91,8.91,0,0,1-8.52,5.31c-7.28,0-14.57,0-21.85,0H77a8.88,8.88,0,0,1-7.29-3.37A8.61,8.61,0,0,1,68.46,102c1.37-2.84,3.07-5.52,4.65-8.25q6.08-10.55,12.17-21.09a9.32,9.32,0,0,1,6.54-4.76,9,9,0,0,1,9,3.75c1.92,3.08,3.69,6.25,5.51,9.39,3.74,6.46,7.45,12.93,11.2,19.38a12.29,12.29,0,0,1,1.68,4.59Zm-25.93,4.31h16.34a5.2,5.2,0,0,0,4-1.59,5,5,0,0,0,.62-6.19q-6.52-11.31-13.06-22.61c-1.22-2.11-2.39-4.25-3.69-6.31A4.63,4.63,0,0,0,92.89,72a5,5,0,0,0-4,2.73Q82.49,85.87,76,97c-1.27,2.2-2.58,4.37-3.77,6.61a4.68,4.68,0,0,0,.33,5,5,5,0,0,0,4.47,2.25Z"/><path class="cls-5" d="M118.74,106a19.87,19.87,0,0,1-.95,3.16,8.91,8.91,0,0,1-8.52,5.31c-7.28,0-14.57,0-21.85,0h-11a8.88,8.88,0,0,1-7.29-3.37A8.61,8.61,0,0,1,68,101.51C69.33,98.67,71,96,72.61,93.26q6.08-10.55,12.17-21.09a9.32,9.32,0,0,1,6.54-4.76,9,9,0,0,1,9,3.75c1.92,3.08,3.69,6.25,5.51,9.39,3.74,6.46,7.45,12.93,11.2,19.38a12.29,12.29,0,0,1,1.68,4.59Zm-25.93,4.31h16.34a5.2,5.2,0,0,0,4-1.59,5,5,0,0,0,.62-6.19Q107.25,91.26,100.71,80c-1.22-2.11-2.39-4.25-3.69-6.31a4.63,4.63,0,0,0-4.63-2.17,5,5,0,0,0-4,2.73Q82,85.37,75.53,96.51c-1.27,2.2-2.58,4.37-3.77,6.61a4.68,4.68,0,0,0,.33,5,5,5,0,0,0,4.47,2.25Z"/><path class="cls-5" d="M118.24,105.54a19.87,19.87,0,0,1-.95,3.16,8.91,8.91,0,0,1-8.52,5.31c-7.28,0-14.57,0-21.85,0H76a8.88,8.88,0,0,1-7.29-3.37A8.61,8.61,0,0,1,67.46,101c1.37-2.84,3.07-5.52,4.65-8.25q6.08-10.55,12.17-21.09a9.32,9.32,0,0,1,6.54-4.76,9,9,0,0,1,9,3.75c1.92,3.08,3.69,6.25,5.51,9.39,3.74,6.46,7.45,12.93,11.2,19.38a12.29,12.29,0,0,1,1.68,4.59Zm-25.93,4.31h16.34a5.2,5.2,0,0,0,4-1.59,5,5,0,0,0,.62-6.19q-6.52-11.31-13.06-22.61c-1.22-2.11-2.39-4.25-3.69-6.31A4.63,4.63,0,0,0,91.89,71a5,5,0,0,0-4,2.73Q81.49,84.87,75,96c-1.27,2.2-2.58,4.37-3.77,6.61a4.68,4.68,0,0,0,.33,5,5,5,0,0,0,4.47,2.25Z"/><path class="cls-5" d="M117.74,105a19.87,19.87,0,0,1-.95,3.16,8.91,8.91,0,0,1-8.52,5.31c-7.28,0-14.57,0-21.85,0h-11a8.88,8.88,0,0,1-7.29-3.37A8.61,8.61,0,0,1,67,100.51C68.33,97.67,70,95,71.61,92.26q6.08-10.55,12.17-21.09a9.32,9.32,0,0,1,6.54-4.76,9,9,0,0,1,9,3.75c1.92,3.08,3.69,6.25,5.51,9.39,3.74,6.46,7.45,12.93,11.2,19.38a12.29,12.29,0,0,1,1.68,4.59Zm-25.93,4.31h16.34a5.2,5.2,0,0,0,4-1.59,5,5,0,0,0,.62-6.19Q106.25,90.26,99.71,79c-1.22-2.11-2.39-4.25-3.69-6.31a4.63,4.63,0,0,0-4.63-2.17,5,5,0,0,0-4,2.73Q81,84.37,74.53,95.51c-1.27,2.2-2.58,4.37-3.77,6.61a4.68,4.68,0,0,0,.33,5,5,5,0,0,0,4.47,2.25Z"/><path class="cls-5" d="M117.24,104.54a19.87,19.87,0,0,1-.95,3.16,8.91,8.91,0,0,1-8.52,5.31c-7.28,0-14.57,0-21.85,0H75a8.88,8.88,0,0,1-7.29-3.37A8.61,8.61,0,0,1,66.46,100c1.37-2.84,3.07-5.52,4.65-8.25q6.08-10.55,12.17-21.09a9.32,9.32,0,0,1,6.54-4.76,9,9,0,0,1,9,3.75c1.92,3.08,3.69,6.25,5.51,9.39,3.74,6.46,7.45,12.93,11.2,19.38a12.29,12.29,0,0,1,1.68,4.59Zm-25.93,4.31h16.34a5.2,5.2,0,0,0,4-1.59,5,5,0,0,0,.62-6.19q-6.52-11.31-13.06-22.61c-1.22-2.11-2.39-4.25-3.69-6.31A4.63,4.63,0,0,0,90.89,70a5,5,0,0,0-4,2.73Q80.49,83.87,74,95c-1.27,2.2-2.58,4.37-3.77,6.61a4.68,4.68,0,0,0,.33,5,5,5,0,0,0,4.47,2.25Z"/><path class="cls-5" d="M116.74,104a19.87,19.87,0,0,1-.95,3.16,8.91,8.91,0,0,1-8.52,5.31c-7.28,0-14.57,0-21.85,0h-11a8.88,8.88,0,0,1-7.29-3.37A8.61,8.61,0,0,1,66,99.51C67.33,96.67,69,94,70.61,91.26q6.08-10.55,12.17-21.09a9.32,9.32,0,0,1,6.54-4.76,9,9,0,0,1,9,3.75c1.92,3.08,3.69,6.25,5.51,9.39,3.74,6.46,7.45,12.93,11.2,19.38a12.29,12.29,0,0,1,1.68,4.59Zm-25.93,4.31h16.34a5.2,5.2,0,0,0,4-1.59,5,5,0,0,0,.62-6.19Q105.25,89.26,98.71,78c-1.22-2.11-2.39-4.25-3.69-6.31a4.63,4.63,0,0,0-4.63-2.17,5,5,0,0,0-4,2.73Q80,83.37,73.53,94.51c-1.27,2.2-2.58,4.37-3.77,6.61a4.68,4.68,0,0,0,.33,5,5,5,0,0,0,4.47,2.25Z"/><path class="cls-5" d="M116.24,103.54a19.87,19.87,0,0,1-.95,3.16,8.91,8.91,0,0,1-8.52,5.31c-7.28,0-14.57,0-21.85,0H74a8.88,8.88,0,0,1-7.29-3.37A8.61,8.61,0,0,1,65.46,99c1.37-2.84,3.07-5.52,4.65-8.25q6.08-10.55,12.17-21.09a9.32,9.32,0,0,1,6.54-4.76,9,9,0,0,1,9,3.75c1.92,3.08,3.69,6.25,5.51,9.39,3.74,6.46,7.45,12.93,11.2,19.38a12.29,12.29,0,0,1,1.68,4.59Zm-25.93,4.31h16.34a5.2,5.2,0,0,0,4-1.59,5,5,0,0,0,.62-6.19q-6.52-11.31-13.06-22.61c-1.22-2.11-2.39-4.25-3.69-6.31A4.63,4.63,0,0,0,89.89,69a5,5,0,0,0-4,2.73Q79.49,82.87,73,94c-1.27,2.2-2.58,4.37-3.77,6.61a4.68,4.68,0,0,0,.33,5,5,5,0,0,0,4.47,2.25Z"/><path class="cls-5" d="M115.74,103a19.87,19.87,0,0,1-.95,3.16,8.91,8.91,0,0,1-8.52,5.31c-7.28,0-14.57,0-21.85,0h-11a8.88,8.88,0,0,1-7.29-3.37A8.61,8.61,0,0,1,65,98.51C66.33,95.67,68,93,69.61,90.26q6.08-10.55,12.17-21.09a9.32,9.32,0,0,1,6.54-4.76,9,9,0,0,1,9,3.75c1.92,3.08,3.69,6.25,5.51,9.39,3.74,6.46,7.45,12.93,11.2,19.38a12.29,12.29,0,0,1,1.68,4.59Zm-25.93,4.31h16.34a5.2,5.2,0,0,0,4-1.59,5,5,0,0,0,.62-6.19Q104.25,88.26,97.71,77c-1.22-2.11-2.39-4.25-3.69-6.31a4.63,4.63,0,0,0-4.63-2.17,5,5,0,0,0-4,2.73Q79,82.37,72.53,93.51c-1.27,2.2-2.58,4.37-3.77,6.61a4.68,4.68,0,0,0,.33,5,5,5,0,0,0,4.47,2.25Z"/><path class="cls-5" d="M115.24,102.54a19.87,19.87,0,0,1-.95,3.16,8.91,8.91,0,0,1-8.52,5.31c-7.28,0-14.57,0-21.85,0H73a8.88,8.88,0,0,1-7.29-3.37A8.61,8.61,0,0,1,64.46,98c1.37-2.84,3.07-5.52,4.65-8.25q6.08-10.55,12.17-21.09a9.32,9.32,0,0,1,6.54-4.76,9,9,0,0,1,9,3.75c1.92,3.08,3.69,6.25,5.51,9.39,3.74,6.46,7.45,12.93,11.2,19.38a12.29,12.29,0,0,1,1.68,4.59Zm-25.93,4.31h16.34a5.2,5.2,0,0,0,4-1.59,5,5,0,0,0,.62-6.19q-6.52-11.31-13.06-22.61c-1.22-2.11-2.39-4.25-3.69-6.31A4.63,4.63,0,0,0,88.89,68a5,5,0,0,0-4,2.73Q78.49,81.87,72,93c-1.27,2.2-2.58,4.37-3.77,6.61a4.68,4.68,0,0,0,.33,5,5,5,0,0,0,4.47,2.25Z"/><path class="cls-5" d="M114.74,102a19.87,19.87,0,0,1-.95,3.16,8.91,8.91,0,0,1-8.52,5.31c-7.28,0-14.57,0-21.85,0h-11a8.88,8.88,0,0,1-7.29-3.37A8.61,8.61,0,0,1,64,97.51C65.33,94.67,67,92,68.61,89.26q6.08-10.55,12.17-21.09a9.32,9.32,0,0,1,6.54-4.76,9,9,0,0,1,9,3.75c1.92,3.08,3.69,6.25,5.51,9.39,3.74,6.46,7.45,12.93,11.2,19.38a12.29,12.29,0,0,1,1.68,4.59Zm-25.93,4.31h16.34a5.2,5.2,0,0,0,4-1.59,5,5,0,0,0,.62-6.19Q103.25,87.26,96.71,76c-1.22-2.11-2.39-4.25-3.69-6.31a4.63,4.63,0,0,0-4.63-2.17,5,5,0,0,0-4,2.73Q78,81.37,71.53,92.51c-1.27,2.2-2.58,4.37-3.77,6.61a4.68,4.68,0,0,0,.33,5,5,5,0,0,0,4.47,2.25Z"/><path class="cls-5" d="M114.24,101.54a19.87,19.87,0,0,1-.95,3.16,8.91,8.91,0,0,1-8.52,5.31c-7.28,0-14.57,0-21.85,0H72a8.88,8.88,0,0,1-7.29-3.37A8.61,8.61,0,0,1,63.46,97c1.37-2.84,3.07-5.52,4.65-8.25q6.08-10.55,12.17-21.09a9.32,9.32,0,0,1,6.54-4.76,9,9,0,0,1,9,3.75c1.92,3.08,3.69,6.25,5.51,9.39,3.74,6.46,7.45,12.93,11.2,19.38a12.29,12.29,0,0,1,1.68,4.59Zm-25.93,4.31h16.34a5.2,5.2,0,0,0,4-1.59,5,5,0,0,0,.62-6.19q-6.52-11.31-13.06-22.61c-1.22-2.11-2.39-4.25-3.69-6.31A4.63,4.63,0,0,0,87.89,67a5,5,0,0,0-4,2.73Q77.49,80.87,71,92c-1.27,2.2-2.58,4.37-3.77,6.61a4.68,4.68,0,0,0,.33,5,5,5,0,0,0,4.47,2.25Z"/><path class="cls-5" d="M113.74,101a19.87,19.87,0,0,1-.95,3.16,8.91,8.91,0,0,1-8.52,5.31c-7.28,0-14.57,0-21.85,0h-11a8.88,8.88,0,0,1-7.29-3.37A8.61,8.61,0,0,1,63,96.51C64.33,93.67,66,91,67.61,88.26q6.08-10.55,12.17-21.09a9.32,9.32,0,0,1,6.54-4.76,9,9,0,0,1,9,3.75c1.92,3.08,3.69,6.25,5.51,9.39,3.74,6.46,7.45,12.93,11.2,19.38a12.29,12.29,0,0,1,1.68,4.59Zm-25.93,4.31h16.34a5.2,5.2,0,0,0,4-1.59,5,5,0,0,0,.62-6.19Q102.25,86.26,95.71,75c-1.22-2.11-2.39-4.25-3.69-6.31a4.63,4.63,0,0,0-4.63-2.17,5,5,0,0,0-4,2.73Q77,80.37,70.53,91.51c-1.27,2.2-2.58,4.37-3.77,6.61a4.68,4.68,0,0,0,.33,5,5,5,0,0,0,4.47,2.25Z"/><path class="cls-5" d="M113.24,100.54a19.87,19.87,0,0,1-.95,3.16,8.91,8.91,0,0,1-8.52,5.31c-7.28,0-14.57,0-21.85,0H71a8.88,8.88,0,0,1-7.29-3.37A8.61,8.61,0,0,1,62.46,96c1.37-2.84,3.07-5.52,4.65-8.25q6.08-10.55,12.17-21.09a9.32,9.32,0,0,1,6.54-4.76,9,9,0,0,1,9,3.75c1.92,3.08,3.69,6.25,5.51,9.39,3.74,6.46,7.45,12.93,11.2,19.38A12.29,12.29,0,0,1,113.24,99Zm-25.93,4.31h16.34a5.2,5.2,0,0,0,4-1.59,5,5,0,0,0,.62-6.19q-6.52-11.31-13.06-22.61c-1.22-2.11-2.39-4.25-3.69-6.31A4.63,4.63,0,0,0,86.89,66a5,5,0,0,0-4,2.73Q76.49,79.87,70,91c-1.27,2.2-2.58,4.37-3.77,6.61a4.68,4.68,0,0,0,.33,5,5,5,0,0,0,4.47,2.25Z"/><path class="cls-5" d="M112.74,100a19.87,19.87,0,0,1-.95,3.16,8.91,8.91,0,0,1-8.52,5.31c-7.28,0-14.57,0-21.85,0h-11a8.88,8.88,0,0,1-7.29-3.37A8.61,8.61,0,0,1,62,95.51C63.33,92.67,65,90,66.61,87.26q6.08-10.55,12.17-21.09a9.32,9.32,0,0,1,6.54-4.76,9,9,0,0,1,9,3.75c1.92,3.08,3.69,6.25,5.51,9.39,3.74,6.46,7.45,12.93,11.2,19.38a12.29,12.29,0,0,1,1.68,4.59Zm-25.93,4.31h16.34a5.2,5.2,0,0,0,4-1.59,5,5,0,0,0,.62-6.19Q101.25,85.26,94.71,74c-1.22-2.11-2.39-4.25-3.69-6.31a4.63,4.63,0,0,0-4.63-2.17,5,5,0,0,0-4,2.73Q76,79.37,69.53,90.51c-1.27,2.2-2.58,4.37-3.77,6.61a4.68,4.68,0,0,0,.33,5,5,5,0,0,0,4.47,2.25Z"/><path class="cls-5" d="M112.24,99.54a19.87,19.87,0,0,1-.95,3.16,8.91,8.91,0,0,1-8.52,5.31c-7.28,0-14.57,0-21.85,0H70a8.88,8.88,0,0,1-7.29-3.37A8.61,8.61,0,0,1,61.46,95c1.37-2.84,3.07-5.52,4.65-8.25q6.08-10.55,12.17-21.09a9.32,9.32,0,0,1,6.54-4.76,9,9,0,0,1,9,3.75c1.92,3.08,3.69,6.25,5.51,9.39,3.74,6.46,7.45,12.93,11.2,19.38A12.29,12.29,0,0,1,112.24,98Zm-25.93,4.31h16.34a5.2,5.2,0,0,0,4-1.59,5,5,0,0,0,.62-6.19q-6.52-11.31-13.06-22.61c-1.22-2.11-2.39-4.25-3.69-6.31A4.63,4.63,0,0,0,85.89,65a5,5,0,0,0-4,2.73Q75.49,78.87,69,90c-1.27,2.2-2.58,4.37-3.77,6.61a4.68,4.68,0,0,0,.33,5,5,5,0,0,0,4.47,2.25Z"/><path class="cls-5" d="M111.74,99a19.87,19.87,0,0,1-.95,3.16,8.91,8.91,0,0,1-8.52,5.31c-7.28,0-14.57,0-21.85,0h-11a8.88,8.88,0,0,1-7.29-3.37A8.61,8.61,0,0,1,61,94.51C62.33,91.67,64,89,65.61,86.26q6.08-10.55,12.17-21.09a9.32,9.32,0,0,1,6.54-4.76,9,9,0,0,1,9,3.75c1.92,3.08,3.69,6.25,5.51,9.39,3.74,6.46,7.45,12.93,11.2,19.38a12.29,12.29,0,0,1,1.68,4.59Zm-25.93,4.31h16.34a5.2,5.2,0,0,0,4-1.59,5,5,0,0,0,.62-6.19Q100.25,84.26,93.71,73c-1.22-2.11-2.39-4.25-3.69-6.31a4.63,4.63,0,0,0-4.63-2.17,5,5,0,0,0-4,2.73Q75,78.37,68.53,89.51c-1.27,2.2-2.58,4.37-3.77,6.61a4.68,4.68,0,0,0,.33,5,5,5,0,0,0,4.47,2.25Z"/><path class="cls-5" d="M111.24,98.54a19.87,19.87,0,0,1-.95,3.16,8.91,8.91,0,0,1-8.52,5.31c-7.28,0-14.57,0-21.85,0H69a8.88,8.88,0,0,1-7.29-3.37A8.61,8.61,0,0,1,60.46,94c1.37-2.84,3.07-5.52,4.65-8.25q6.08-10.55,12.17-21.09a9.32,9.32,0,0,1,6.54-4.76,9,9,0,0,1,9,3.75c1.92,3.08,3.69,6.25,5.51,9.39,3.74,6.46,7.45,12.93,11.2,19.38A12.29,12.29,0,0,1,111.24,97Zm-25.93,4.31h16.34a5.2,5.2,0,0,0,4-1.59,5,5,0,0,0,.62-6.19Q99.75,83.76,93.21,72.46c-1.22-2.11-2.39-4.25-3.69-6.31A4.63,4.63,0,0,0,84.89,64a5,5,0,0,0-4,2.73Q74.49,77.87,68,89c-1.27,2.2-2.58,4.37-3.77,6.61a4.68,4.68,0,0,0,.33,5,5,5,0,0,0,4.47,2.25Z"/><path class="cls-5" d="M110.74,98a19.87,19.87,0,0,1-.95,3.16,8.91,8.91,0,0,1-8.52,5.31c-7.28,0-14.57,0-21.85,0h-11a8.88,8.88,0,0,1-7.29-3.37A8.61,8.61,0,0,1,60,93.51C61.33,90.67,63,88,64.61,85.26q6.08-10.55,12.17-21.09a9.32,9.32,0,0,1,6.54-4.76,9,9,0,0,1,9,3.75c1.92,3.08,3.69,6.25,5.51,9.39,3.74,6.46,7.45,12.93,11.2,19.38a12.29,12.29,0,0,1,1.68,4.59Zm-25.93,4.31h16.34a5.2,5.2,0,0,0,4-1.59,5,5,0,0,0,.62-6.19Q99.25,83.26,92.71,72c-1.22-2.11-2.39-4.25-3.69-6.31a4.63,4.63,0,0,0-4.63-2.17,5,5,0,0,0-4,2.73Q74,77.37,67.53,88.51c-1.27,2.2-2.58,4.37-3.77,6.61a4.68,4.68,0,0,0,.33,5,5,5,0,0,0,4.47,2.25Z"/><path class="cls-5" d="M110.24,97.54a19.87,19.87,0,0,1-.95,3.16,8.91,8.91,0,0,1-8.52,5.31c-7.28,0-14.57,0-21.85,0H68a8.88,8.88,0,0,1-7.29-3.37A8.61,8.61,0,0,1,59.46,93c1.37-2.84,3.07-5.52,4.65-8.25q6.08-10.55,12.17-21.09a9.32,9.32,0,0,1,6.54-4.76,9,9,0,0,1,9,3.75c1.92,3.08,3.69,6.25,5.51,9.39,3.74,6.46,7.45,12.93,11.2,19.38A12.29,12.29,0,0,1,110.24,96Zm-25.93,4.31h16.34a5.2,5.2,0,0,0,4-1.59,5,5,0,0,0,.62-6.19Q98.75,82.76,92.21,71.46c-1.22-2.11-2.39-4.25-3.69-6.31A4.63,4.63,0,0,0,83.89,63a5,5,0,0,0-4,2.73Q73.49,76.87,67,88c-1.27,2.2-2.58,4.37-3.77,6.61a4.68,4.68,0,0,0,.33,5,5,5,0,0,0,4.47,2.25Z"/><path class="cls-5" d="M109.74,97a19.87,19.87,0,0,1-.95,3.16,8.91,8.91,0,0,1-8.52,5.31c-7.28,0-14.57,0-21.85,0h-11a8.88,8.88,0,0,1-7.29-3.37A8.61,8.61,0,0,1,59,92.51C60.33,89.67,62,87,63.61,84.26q6.08-10.55,12.17-21.09a9.32,9.32,0,0,1,6.54-4.76,9,9,0,0,1,9,3.75c1.92,3.08,3.69,6.25,5.51,9.39,3.74,6.46,7.45,12.93,11.2,19.38a12.29,12.29,0,0,1,1.68,4.59Zm-25.93,4.31h16.34a5.2,5.2,0,0,0,4-1.59,5,5,0,0,0,.62-6.19Q98.25,82.26,91.71,71c-1.22-2.11-2.39-4.25-3.69-6.31a4.63,4.63,0,0,0-4.63-2.17,5,5,0,0,0-4,2.73Q73,76.37,66.53,87.51c-1.27,2.2-2.58,4.37-3.77,6.61a4.68,4.68,0,0,0,.33,5,5,5,0,0,0,4.47,2.25Z"/><path class="cls-5" d="M109.24,96.54a19.87,19.87,0,0,1-.95,3.16A8.91,8.91,0,0,1,99.77,105c-7.28,0-14.57,0-21.85,0H67a8.88,8.88,0,0,1-7.29-3.37A8.61,8.61,0,0,1,58.46,92c1.37-2.84,3.07-5.52,4.65-8.25q6.08-10.55,12.17-21.09a9.32,9.32,0,0,1,6.54-4.76,9,9,0,0,1,9,3.75c1.92,3.08,3.69,6.25,5.51,9.39,3.74,6.46,7.45,12.93,11.2,19.38A12.29,12.29,0,0,1,109.24,95Zm-25.93,4.31H99.65a5.2,5.2,0,0,0,4-1.59,5,5,0,0,0,.62-6.19Q97.75,81.76,91.21,70.46c-1.22-2.11-2.39-4.25-3.69-6.31A4.63,4.63,0,0,0,82.89,62a5,5,0,0,0-4,2.73Q72.49,75.87,66,87c-1.27,2.2-2.58,4.37-3.77,6.61a4.68,4.68,0,0,0,.33,5,5,5,0,0,0,4.47,2.25Z"/><path class="cls-5" d="M108.74,96a19.87,19.87,0,0,1-.95,3.16,8.91,8.91,0,0,1-8.52,5.31c-7.28,0-14.57,0-21.85,0h-11a8.88,8.88,0,0,1-7.29-3.37A8.61,8.61,0,0,1,58,91.51C59.33,88.67,61,86,62.61,83.26q6.08-10.55,12.17-21.09a9.32,9.32,0,0,1,6.54-4.76,9,9,0,0,1,9,3.75c1.92,3.08,3.69,6.25,5.51,9.39,3.74,6.46,7.45,12.93,11.2,19.38a12.29,12.29,0,0,1,1.68,4.59Zm-25.93,4.31H99.15a5.2,5.2,0,0,0,4-1.59,5,5,0,0,0,.62-6.19Q97.25,81.26,90.71,70c-1.22-2.11-2.39-4.25-3.69-6.31a4.63,4.63,0,0,0-4.63-2.17,5,5,0,0,0-4,2.73Q72,75.37,65.53,86.51c-1.27,2.2-2.58,4.37-3.77,6.61a4.68,4.68,0,0,0,.33,5,5,5,0,0,0,4.47,2.25Z"/><path class="cls-5" d="M108.24,95.54a19.87,19.87,0,0,1-.95,3.16A8.91,8.91,0,0,1,98.77,104c-7.28,0-14.57,0-21.85,0H66a8.88,8.88,0,0,1-7.29-3.37A8.61,8.61,0,0,1,57.46,91c1.37-2.84,3.07-5.52,4.65-8.25q6.08-10.55,12.17-21.09a9.32,9.32,0,0,1,6.54-4.76,9,9,0,0,1,9,3.75c1.92,3.08,3.69,6.25,5.51,9.39,3.74,6.46,7.45,12.93,11.2,19.38A12.29,12.29,0,0,1,108.24,94ZM82.31,99.85H98.65a5.2,5.2,0,0,0,4-1.59,5,5,0,0,0,.62-6.19Q96.75,80.76,90.21,69.46c-1.22-2.11-2.39-4.25-3.69-6.31A4.63,4.63,0,0,0,81.89,61a5,5,0,0,0-4,2.73Q71.49,74.87,65,86c-1.27,2.2-2.58,4.37-3.77,6.61a4.68,4.68,0,0,0,.33,5,5,5,0,0,0,4.47,2.25Z"/><path class="cls-5" d="M107.74,95a19.87,19.87,0,0,1-.95,3.16,8.91,8.91,0,0,1-8.52,5.31c-7.28,0-14.57,0-21.85,0h-11a8.88,8.88,0,0,1-7.29-3.37A8.61,8.61,0,0,1,57,90.51C58.33,87.67,60,85,61.61,82.26q6.08-10.55,12.17-21.09a9.32,9.32,0,0,1,6.54-4.76,9,9,0,0,1,9,3.75c1.92,3.08,3.69,6.25,5.51,9.39,3.74,6.46,7.45,12.93,11.2,19.38a12.29,12.29,0,0,1,1.68,4.59ZM81.81,99.35H98.15a5.2,5.2,0,0,0,4-1.59,5,5,0,0,0,.62-6.19Q96.25,80.26,89.71,69c-1.22-2.11-2.39-4.25-3.69-6.31a4.63,4.63,0,0,0-4.63-2.17,5,5,0,0,0-4,2.73Q71,74.37,64.53,85.51c-1.27,2.2-2.58,4.37-3.77,6.61a4.68,4.68,0,0,0,.33,5,5,5,0,0,0,4.47,2.25Z"/><path class="cls-5" d="M107.24,94.54a19.87,19.87,0,0,1-.95,3.16A8.91,8.91,0,0,1,97.77,103c-7.28,0-14.57,0-21.85,0H65a8.88,8.88,0,0,1-7.29-3.37A8.61,8.61,0,0,1,56.46,90c1.37-2.84,3.07-5.52,4.65-8.25q6.08-10.55,12.17-21.09a9.32,9.32,0,0,1,6.54-4.76,9,9,0,0,1,9,3.75c1.92,3.08,3.69,6.25,5.51,9.39,3.74,6.46,7.45,12.93,11.2,19.38A12.29,12.29,0,0,1,107.24,93ZM81.31,98.85H97.65a5.2,5.2,0,0,0,4-1.59,5,5,0,0,0,.62-6.19Q95.75,79.76,89.21,68.46c-1.22-2.11-2.39-4.25-3.69-6.31A4.63,4.63,0,0,0,80.89,60a5,5,0,0,0-4,2.73Q70.49,73.87,64,85c-1.27,2.2-2.58,4.37-3.77,6.61a4.68,4.68,0,0,0,.33,5,5,5,0,0,0,4.47,2.25Z"/><path class="cls-5" d="M106.74,94a19.87,19.87,0,0,1-.95,3.16,8.91,8.91,0,0,1-8.52,5.31c-7.28,0-14.57,0-21.85,0h-11a8.88,8.88,0,0,1-7.29-3.37A8.61,8.61,0,0,1,56,89.51C57.33,86.67,59,84,60.61,81.26q6.08-10.55,12.17-21.09a9.32,9.32,0,0,1,6.54-4.76,9,9,0,0,1,9,3.75c1.92,3.08,3.69,6.25,5.51,9.39,3.74,6.46,7.45,12.93,11.2,19.38a12.29,12.29,0,0,1,1.68,4.59ZM80.81,98.35H97.15a5.2,5.2,0,0,0,4-1.59,5,5,0,0,0,.62-6.19Q95.25,79.26,88.71,68c-1.22-2.11-2.39-4.25-3.69-6.31a4.63,4.63,0,0,0-4.63-2.17,5,5,0,0,0-4,2.73Q70,73.37,63.53,84.51c-1.27,2.2-2.58,4.37-3.77,6.61a4.68,4.68,0,0,0,.33,5,5,5,0,0,0,4.47,2.25Z"/><path class="cls-5" d="M106.24,93.54a19.87,19.87,0,0,1-.95,3.16A8.91,8.91,0,0,1,96.77,102c-7.28,0-14.57,0-21.85,0H64a8.88,8.88,0,0,1-7.29-3.37A8.61,8.61,0,0,1,55.46,89c1.37-2.84,3.07-5.52,4.65-8.25q6.08-10.55,12.17-21.09a9.32,9.32,0,0,1,6.54-4.76,9,9,0,0,1,9,3.75c1.92,3.08,3.69,6.25,5.51,9.39,3.74,6.46,7.45,12.93,11.2,19.38A12.29,12.29,0,0,1,106.24,92ZM80.31,97.85H96.65a5.2,5.2,0,0,0,4-1.59,5,5,0,0,0,.62-6.19Q94.75,78.76,88.21,67.46c-1.22-2.11-2.39-4.25-3.69-6.31A4.63,4.63,0,0,0,79.89,59a5,5,0,0,0-4,2.73Q69.49,72.87,63,84c-1.27,2.2-2.58,4.37-3.77,6.61a4.68,4.68,0,0,0,.33,5,5,5,0,0,0,4.47,2.25Z"/><path class="cls-5" d="M105.74,93a19.87,19.87,0,0,1-.95,3.16,8.91,8.91,0,0,1-8.52,5.31c-7.28,0-14.57,0-21.85,0h-11a8.88,8.88,0,0,1-7.29-3.37A8.61,8.61,0,0,1,55,88.51C56.33,85.67,58,83,59.61,80.26q6.08-10.55,12.17-21.09a9.32,9.32,0,0,1,6.54-4.76,9,9,0,0,1,9,3.75c1.92,3.08,3.69,6.25,5.51,9.39,3.74,6.46,7.45,12.93,11.2,19.38a12.29,12.29,0,0,1,1.68,4.59ZM79.81,97.35H96.15a5.2,5.2,0,0,0,4-1.59,5,5,0,0,0,.62-6.19Q94.25,78.26,87.71,67c-1.22-2.11-2.39-4.25-3.69-6.31a4.63,4.63,0,0,0-4.63-2.17,5,5,0,0,0-4,2.73Q69,72.37,62.53,83.51c-1.27,2.2-2.58,4.37-3.77,6.61a4.68,4.68,0,0,0,.33,5,5,5,0,0,0,4.47,2.25Z"/><path class="cls-5" d="M105.24,92.54a19.87,19.87,0,0,1-.95,3.16A8.91,8.91,0,0,1,95.77,101c-7.28,0-14.57,0-21.85,0H63a8.88,8.88,0,0,1-7.29-3.37A8.61,8.61,0,0,1,54.46,88c1.37-2.84,3.07-5.52,4.65-8.25q6.08-10.55,12.17-21.09a9.32,9.32,0,0,1,6.54-4.76,9,9,0,0,1,9,3.75c1.92,3.08,3.69,6.25,5.51,9.39,3.74,6.46,7.45,12.93,11.2,19.38A12.29,12.29,0,0,1,105.24,91ZM79.31,96.85H95.65a5.2,5.2,0,0,0,4-1.59,5,5,0,0,0,.62-6.19Q93.75,77.76,87.21,66.46c-1.22-2.11-2.39-4.25-3.69-6.31A4.63,4.63,0,0,0,78.89,58a5,5,0,0,0-4,2.73Q68.49,71.87,62,83c-1.27,2.2-2.58,4.37-3.77,6.61a4.68,4.68,0,0,0,.33,5,5,5,0,0,0,4.47,2.25Z"/><path class="cls-5" d="M104.74,92a19.87,19.87,0,0,1-.95,3.16,8.91,8.91,0,0,1-8.52,5.31c-7.28,0-14.57,0-21.85,0h-11a8.88,8.88,0,0,1-7.29-3.37A8.61,8.61,0,0,1,54,87.51C55.33,84.67,57,82,58.61,79.26q6.08-10.55,12.17-21.09a9.32,9.32,0,0,1,6.54-4.76,9,9,0,0,1,9,3.75c1.92,3.08,3.69,6.25,5.51,9.39,3.74,6.46,7.45,12.93,11.2,19.38a12.29,12.29,0,0,1,1.68,4.59ZM78.81,96.35H95.15a5.2,5.2,0,0,0,4-1.59,5,5,0,0,0,.62-6.19Q93.25,77.26,86.71,66c-1.22-2.11-2.39-4.25-3.69-6.31a4.63,4.63,0,0,0-4.63-2.17,5,5,0,0,0-4,2.73Q68,71.37,61.53,82.51c-1.27,2.2-2.58,4.37-3.77,6.61a4.68,4.68,0,0,0,.33,5,5,5,0,0,0,4.47,2.25Z"/><path class="cls-5" d="M104.24,91.54a19.87,19.87,0,0,1-.95,3.16A8.91,8.91,0,0,1,94.77,100c-7.28,0-14.57,0-21.85,0H62a8.88,8.88,0,0,1-7.29-3.37A8.61,8.61,0,0,1,53.46,87c1.37-2.84,3.07-5.52,4.65-8.25q6.08-10.55,12.17-21.09a9.32,9.32,0,0,1,6.54-4.76,9,9,0,0,1,9,3.75c1.92,3.08,3.69,6.25,5.51,9.39,3.74,6.46,7.45,12.93,11.2,19.38A12.29,12.29,0,0,1,104.24,90ZM78.31,95.85H94.65a5.2,5.2,0,0,0,4-1.59,5,5,0,0,0,.62-6.19Q92.75,76.76,86.21,65.46c-1.22-2.11-2.39-4.25-3.69-6.31A4.63,4.63,0,0,0,77.89,57a5,5,0,0,0-4,2.73Q67.49,70.87,61,82c-1.27,2.2-2.58,4.37-3.77,6.61a4.68,4.68,0,0,0,.33,5,5,5,0,0,0,4.47,2.25Z"/><path class="cls-5" d="M103.74,91a19.87,19.87,0,0,1-.95,3.16,8.91,8.91,0,0,1-8.52,5.31c-7.28,0-14.57,0-21.85,0h-11a8.88,8.88,0,0,1-7.29-3.37A8.61,8.61,0,0,1,53,86.51C54.33,83.67,56,81,57.61,78.26q6.07-10.55,12.17-21.09a9.32,9.32,0,0,1,6.54-4.76,9,9,0,0,1,9,3.75c1.92,3.08,3.69,6.25,5.51,9.39,3.74,6.46,7.45,12.93,11.2,19.38a12.29,12.29,0,0,1,1.68,4.59ZM77.81,95.35H94.15a5.2,5.2,0,0,0,4-1.59,5,5,0,0,0,.62-6.19Q92.25,76.26,85.71,65c-1.22-2.11-2.39-4.25-3.69-6.31a4.63,4.63,0,0,0-4.63-2.17,5,5,0,0,0-4,2.73Q67,70.37,60.53,81.51c-1.27,2.2-2.58,4.37-3.77,6.61a4.68,4.68,0,0,0,.33,5,5,5,0,0,0,4.47,2.25Z"/><path class="cls-5" d="M103.24,90.54a19.87,19.87,0,0,1-.95,3.16A8.91,8.91,0,0,1,93.77,99c-7.28,0-14.57,0-21.85,0H61a8.88,8.88,0,0,1-7.29-3.37A8.61,8.61,0,0,1,52.46,86c1.37-2.84,3.07-5.52,4.65-8.25q6.07-10.55,12.17-21.09a9.32,9.32,0,0,1,6.54-4.76,9,9,0,0,1,9,3.75c1.92,3.08,3.69,6.25,5.51,9.39,3.74,6.46,7.45,12.93,11.2,19.38A12.29,12.29,0,0,1,103.24,89ZM77.31,94.85H93.65a5.2,5.2,0,0,0,4-1.59,5,5,0,0,0,.62-6.19Q91.75,75.76,85.21,64.46c-1.22-2.11-2.39-4.25-3.69-6.31A4.63,4.63,0,0,0,76.89,56a5,5,0,0,0-4,2.73Q66.49,69.87,60,81c-1.27,2.2-2.58,4.37-3.77,6.61a4.68,4.68,0,0,0,.33,5,5,5,0,0,0,4.47,2.25Z"/><path class="cls-5" d="M102.74,90a19.87,19.87,0,0,1-.95,3.16,8.91,8.91,0,0,1-8.52,5.31c-7.28,0-14.57,0-21.85,0h-11a8.88,8.88,0,0,1-7.29-3.37A8.61,8.61,0,0,1,52,85.51C53.33,82.67,55,80,56.61,77.26q6.07-10.55,12.17-21.09a9.32,9.32,0,0,1,6.54-4.76,9,9,0,0,1,9,3.75c1.92,3.08,3.69,6.25,5.51,9.39,3.74,6.46,7.45,12.93,11.2,19.38a12.29,12.29,0,0,1,1.68,4.59ZM76.81,94.35H93.15a5.2,5.2,0,0,0,4-1.59,5,5,0,0,0,.62-6.19Q91.25,75.26,84.71,64c-1.22-2.11-2.39-4.25-3.69-6.31a4.63,4.63,0,0,0-4.63-2.17,5,5,0,0,0-4,2.73Q66,69.37,59.53,80.51c-1.27,2.2-2.58,4.37-3.77,6.61a4.68,4.68,0,0,0,.33,5,5,5,0,0,0,4.47,2.25Z"/><path class="cls-5" d="M102.24,89.54a19.87,19.87,0,0,1-.95,3.16A8.91,8.91,0,0,1,92.77,98c-7.28,0-14.57,0-21.85,0H60a8.88,8.88,0,0,1-7.29-3.37A8.61,8.61,0,0,1,51.46,85c1.37-2.84,3.07-5.52,4.65-8.25q6.07-10.55,12.17-21.09a9.32,9.32,0,0,1,6.54-4.76,9,9,0,0,1,9,3.75c1.92,3.08,3.69,6.25,5.51,9.39,3.74,6.46,7.45,12.93,11.2,19.38A12.29,12.29,0,0,1,102.24,88ZM76.31,93.85H92.65a5.2,5.2,0,0,0,4-1.59,5,5,0,0,0,.62-6.19Q90.75,74.76,84.21,63.46c-1.22-2.11-2.39-4.25-3.69-6.31A4.63,4.63,0,0,0,75.89,55a5,5,0,0,0-4,2.73Q65.49,68.87,59,80c-1.27,2.2-2.58,4.37-3.77,6.61a4.68,4.68,0,0,0,.33,5,5,5,0,0,0,4.47,2.25Z"/><path class="cls-5" d="M101.74,89a19.87,19.87,0,0,1-.95,3.16,8.91,8.91,0,0,1-8.52,5.31c-7.28,0-14.57,0-21.85,0h-11a8.88,8.88,0,0,1-7.29-3.37A8.61,8.61,0,0,1,51,84.51C52.33,81.67,54,79,55.61,76.26q6.07-10.55,12.17-21.09a9.32,9.32,0,0,1,6.54-4.76,9,9,0,0,1,9,3.75c1.92,3.08,3.69,6.25,5.51,9.39,3.74,6.46,7.45,12.93,11.2,19.38a12.29,12.29,0,0,1,1.68,4.59ZM75.81,93.35H92.15a5.2,5.2,0,0,0,4-1.59,5,5,0,0,0,.62-6.19Q90.25,74.26,83.71,63c-1.22-2.11-2.39-4.25-3.69-6.31a4.63,4.63,0,0,0-4.63-2.17,5,5,0,0,0-4,2.73Q65,68.37,58.53,79.51c-1.27,2.2-2.58,4.37-3.77,6.61a4.68,4.68,0,0,0,.33,5,5,5,0,0,0,4.47,2.25Z"/><path class="cls-5" d="M101.24,88.54a19.87,19.87,0,0,1-.95,3.16A8.91,8.91,0,0,1,91.77,97c-7.28,0-14.57,0-21.85,0H59a8.88,8.88,0,0,1-7.29-3.37A8.61,8.61,0,0,1,50.46,84c1.37-2.84,3.07-5.52,4.65-8.25q6.07-10.55,12.17-21.09a9.32,9.32,0,0,1,6.54-4.76,9,9,0,0,1,9,3.75c1.92,3.08,3.69,6.25,5.51,9.39C92.1,69.51,95.81,76,99.56,82.43A12.29,12.29,0,0,1,101.24,87ZM75.31,92.85H91.65a5.2,5.2,0,0,0,4-1.59,5,5,0,0,0,.62-6.19Q89.75,73.76,83.21,62.46c-1.22-2.11-2.39-4.25-3.69-6.31A4.63,4.63,0,0,0,74.89,54a5,5,0,0,0-4,2.73Q64.49,67.87,58,79c-1.27,2.2-2.58,4.37-3.77,6.61a4.68,4.68,0,0,0,.33,5,5,5,0,0,0,4.47,2.25Z"/><path class="cls-5" d="M100.74,88a19.87,19.87,0,0,1-.95,3.16,8.91,8.91,0,0,1-8.52,5.31c-7.28,0-14.57,0-21.85,0h-11a8.88,8.88,0,0,1-7.29-3.37A8.61,8.61,0,0,1,50,83.51C51.33,80.67,53,78,54.61,75.26q6.07-10.55,12.17-21.09a9.32,9.32,0,0,1,6.54-4.76,9,9,0,0,1,9,3.75c1.92,3.08,3.69,6.25,5.51,9.39C91.6,69,95.31,75.48,99.06,81.93a12.29,12.29,0,0,1,1.68,4.59ZM74.81,92.35H91.15a5.2,5.2,0,0,0,4-1.59,5,5,0,0,0,.62-6.19Q89.25,73.26,82.71,62c-1.22-2.11-2.39-4.25-3.69-6.31a4.63,4.63,0,0,0-4.63-2.17,5,5,0,0,0-4,2.73Q64,67.37,57.53,78.51c-1.27,2.2-2.58,4.37-3.77,6.61a4.68,4.68,0,0,0,.33,5,5,5,0,0,0,4.47,2.25Z"/><path class="cls-5" d="M100.24,87.54a19.87,19.87,0,0,1-.95,3.16A8.91,8.91,0,0,1,90.77,96c-7.28,0-14.57,0-21.85,0H58a8.88,8.88,0,0,1-7.29-3.37A8.61,8.61,0,0,1,49.46,83c1.37-2.84,3.07-5.52,4.65-8.25q6.07-10.55,12.17-21.09a9.32,9.32,0,0,1,6.54-4.76,9,9,0,0,1,9,3.75c1.92,3.08,3.69,6.25,5.51,9.39C91.1,68.51,94.81,75,98.56,81.43A12.29,12.29,0,0,1,100.24,86ZM74.31,91.85H90.65a5.2,5.2,0,0,0,4-1.59,5,5,0,0,0,.62-6.19Q88.75,72.76,82.21,61.46c-1.22-2.11-2.39-4.25-3.69-6.31A4.63,4.63,0,0,0,73.89,53a5,5,0,0,0-4,2.73Q63.49,66.87,57,78c-1.27,2.2-2.58,4.37-3.77,6.61a4.68,4.68,0,0,0,.33,5,5,5,0,0,0,4.47,2.25Z"/><path class="cls-5" d="M99.74,87a19.87,19.87,0,0,1-.95,3.16,8.91,8.91,0,0,1-8.52,5.31c-7.28,0-14.57,0-21.85,0h-11a8.88,8.88,0,0,1-7.29-3.37A8.61,8.61,0,0,1,49,82.51C50.33,79.67,52,77,53.61,74.26q6.07-10.55,12.17-21.09a9.32,9.32,0,0,1,6.54-4.76,9,9,0,0,1,9,3.75c1.92,3.08,3.69,6.25,5.51,9.39C90.6,68,94.31,74.48,98.06,80.93a12.29,12.29,0,0,1,1.68,4.59ZM73.81,91.35H90.15a5.2,5.2,0,0,0,4-1.59,5,5,0,0,0,.62-6.19Q88.25,72.26,81.71,61c-1.22-2.11-2.39-4.25-3.69-6.31a4.63,4.63,0,0,0-4.63-2.17,5,5,0,0,0-4,2.73Q63,66.37,56.53,77.51c-1.27,2.2-2.58,4.37-3.77,6.61a4.68,4.68,0,0,0,.33,5,5,5,0,0,0,4.47,2.25Z"/><path class="cls-5" d="M99.24,86.54a19.87,19.87,0,0,1-.95,3.16A8.91,8.91,0,0,1,89.77,95c-7.28,0-14.57,0-21.85,0H57a8.88,8.88,0,0,1-7.29-3.37A8.61,8.61,0,0,1,48.46,82c1.37-2.84,3.07-5.52,4.65-8.25q6.07-10.55,12.17-21.09a9.32,9.32,0,0,1,6.54-4.76,9,9,0,0,1,9,3.75c1.92,3.08,3.69,6.25,5.51,9.39C90.1,67.51,93.81,74,97.56,80.43A12.29,12.29,0,0,1,99.24,85ZM73.31,90.85H89.65a5.2,5.2,0,0,0,4-1.59,5,5,0,0,0,.62-6.19Q87.75,71.76,81.21,60.46c-1.22-2.11-2.39-4.25-3.69-6.31A4.63,4.63,0,0,0,72.89,52a5,5,0,0,0-4,2.73Q62.49,65.87,56,77c-1.27,2.2-2.58,4.37-3.77,6.61a4.68,4.68,0,0,0,.33,5,5,5,0,0,0,4.47,2.25Z"/><path class="cls-5" d="M98.74,86a19.87,19.87,0,0,1-.95,3.16,8.91,8.91,0,0,1-8.52,5.31c-7.28,0-14.57,0-21.85,0h-11a8.88,8.88,0,0,1-7.29-3.37A8.61,8.61,0,0,1,48,81.51C49.33,78.67,51,76,52.61,73.26q6.07-10.55,12.17-21.09a9.32,9.32,0,0,1,6.54-4.76,9,9,0,0,1,9,3.75c1.92,3.08,3.69,6.25,5.51,9.39C89.6,67,93.31,73.48,97.06,79.93a12.29,12.29,0,0,1,1.68,4.59ZM72.81,90.35H89.15a5.2,5.2,0,0,0,4-1.59,5,5,0,0,0,.62-6.19Q87.25,71.26,80.71,60c-1.22-2.11-2.39-4.25-3.69-6.31a4.63,4.63,0,0,0-4.63-2.17,5,5,0,0,0-4,2.73Q62,65.37,55.53,76.51c-1.27,2.2-2.58,4.37-3.77,6.61a4.68,4.68,0,0,0,.33,5,5,5,0,0,0,4.47,2.25Z"/><path class="cls-5" d="M98.24,85.54a19.87,19.87,0,0,1-.95,3.16A8.91,8.91,0,0,1,88.77,94c-7.28,0-14.57,0-21.85,0H56a8.88,8.88,0,0,1-7.29-3.37A8.61,8.61,0,0,1,47.46,81c1.37-2.84,3.07-5.52,4.65-8.25q6.07-10.55,12.17-21.09a9.32,9.32,0,0,1,6.54-4.76,9,9,0,0,1,9,3.75c1.92,3.08,3.69,6.25,5.51,9.39C89.1,66.51,92.81,73,96.56,79.43A12.29,12.29,0,0,1,98.24,84ZM72.31,89.85H88.65a5.2,5.2,0,0,0,4-1.59,5,5,0,0,0,.62-6.19Q86.75,70.76,80.21,59.46c-1.22-2.11-2.39-4.25-3.69-6.31A4.63,4.63,0,0,0,71.89,51a5,5,0,0,0-4,2.73Q61.49,64.87,55,76c-1.27,2.2-2.58,4.37-3.77,6.61a4.68,4.68,0,0,0,.33,5,5,5,0,0,0,4.47,2.25Z"/><path class="cls-5" d="M97.74,85a19.87,19.87,0,0,1-.95,3.16,8.91,8.91,0,0,1-8.52,5.31c-7.28,0-14.57,0-21.85,0h-11a8.88,8.88,0,0,1-7.29-3.37A8.61,8.61,0,0,1,47,80.51C48.33,77.67,50,75,51.61,72.26q6.07-10.55,12.17-21.09a9.32,9.32,0,0,1,6.54-4.76,9,9,0,0,1,9,3.75c1.92,3.08,3.69,6.25,5.51,9.39C88.6,66,92.31,72.48,96.06,78.93a12.29,12.29,0,0,1,1.68,4.59ZM71.81,89.35H88.15a5.2,5.2,0,0,0,4-1.59,5,5,0,0,0,.62-6.19Q86.25,70.26,79.71,59c-1.22-2.11-2.39-4.25-3.69-6.31a4.63,4.63,0,0,0-4.63-2.17,5,5,0,0,0-4,2.73Q61,64.37,54.53,75.51c-1.27,2.2-2.58,4.37-3.77,6.61a4.68,4.68,0,0,0,.33,5,5,5,0,0,0,4.47,2.25Z"/><path class="cls-5" d="M97.24,84.54a19.87,19.87,0,0,1-.95,3.16A8.91,8.91,0,0,1,87.77,93c-7.28,0-14.57,0-21.85,0H55a8.88,8.88,0,0,1-7.29-3.37A8.61,8.61,0,0,1,46.46,80c1.37-2.84,3.07-5.52,4.65-8.25q6.07-10.55,12.17-21.09a9.32,9.32,0,0,1,6.54-4.76,9,9,0,0,1,9,3.75c1.92,3.08,3.69,6.25,5.51,9.39C88.1,65.51,91.81,72,95.56,78.43A12.29,12.29,0,0,1,97.24,83ZM71.31,88.85H87.65a5.2,5.2,0,0,0,4-1.59,5,5,0,0,0,.62-6.19Q85.75,69.76,79.21,58.46c-1.22-2.11-2.39-4.25-3.69-6.31A4.63,4.63,0,0,0,70.89,50a5,5,0,0,0-4,2.73Q60.49,63.87,54,75c-1.27,2.2-2.58,4.37-3.77,6.61a4.68,4.68,0,0,0,.33,5,5,5,0,0,0,4.47,2.25Z"/><path class="cls-5" d="M96.74,84a19.87,19.87,0,0,1-.95,3.16,8.91,8.91,0,0,1-8.52,5.31c-7.28,0-14.57,0-21.85,0h-11a8.88,8.88,0,0,1-7.29-3.37A8.61,8.61,0,0,1,46,79.51C47.33,76.67,49,74,50.61,71.26q6.07-10.55,12.17-21.09a9.32,9.32,0,0,1,6.54-4.76,9,9,0,0,1,9,3.75c1.92,3.08,3.69,6.25,5.51,9.39C87.6,65,91.31,71.48,95.06,77.93a12.29,12.29,0,0,1,1.68,4.59ZM70.81,88.35H87.15a5.2,5.2,0,0,0,4-1.59,5,5,0,0,0,.62-6.19Q85.25,69.26,78.71,58c-1.22-2.11-2.39-4.25-3.69-6.31a4.63,4.63,0,0,0-4.63-2.17,5,5,0,0,0-4,2.73Q60,63.37,53.53,74.51c-1.27,2.2-2.58,4.37-3.77,6.61a4.68,4.68,0,0,0,.33,5,5,5,0,0,0,4.47,2.25Z"/><path class="cls-5" d="M96.24,83.54a19.87,19.87,0,0,1-.95,3.16A8.91,8.91,0,0,1,86.77,92c-7.28,0-14.57,0-21.85,0H54a8.88,8.88,0,0,1-7.29-3.37A8.61,8.61,0,0,1,45.46,79c1.37-2.84,3.07-5.52,4.65-8.25q6.07-10.55,12.17-21.09a9.32,9.32,0,0,1,6.54-4.76,9,9,0,0,1,9,3.75c1.92,3.08,3.69,6.25,5.51,9.39C87.1,64.51,90.81,71,94.56,77.43A12.29,12.29,0,0,1,96.24,82ZM70.31,87.85H86.65a5.2,5.2,0,0,0,4-1.59,5,5,0,0,0,.62-6.19Q84.75,68.76,78.21,57.46c-1.22-2.11-2.39-4.25-3.69-6.31A4.63,4.63,0,0,0,69.89,49a5,5,0,0,0-4,2.73Q59.49,62.87,53,74c-1.27,2.2-2.58,4.37-3.77,6.61a4.68,4.68,0,0,0,.33,5,5,5,0,0,0,4.47,2.25Z"/><path class="cls-5" d="M95.74,83a19.87,19.87,0,0,1-.95,3.16,8.91,8.91,0,0,1-8.52,5.31c-7.28,0-14.57,0-21.85,0h-11a8.88,8.88,0,0,1-7.29-3.37A8.61,8.61,0,0,1,45,78.51C46.33,75.67,48,73,49.61,70.26q6.07-10.55,12.17-21.09a9.32,9.32,0,0,1,6.54-4.76,9,9,0,0,1,9,3.75c1.92,3.08,3.69,6.25,5.51,9.39C86.6,64,90.31,70.48,94.06,76.93a12.29,12.29,0,0,1,1.68,4.59ZM69.81,87.35H86.15a5.2,5.2,0,0,0,4-1.59,5,5,0,0,0,.62-6.19Q84.25,68.26,77.71,57c-1.22-2.11-2.39-4.25-3.69-6.31a4.63,4.63,0,0,0-4.63-2.17,5,5,0,0,0-4,2.73Q59,62.37,52.53,73.51c-1.27,2.2-2.58,4.37-3.77,6.61a4.68,4.68,0,0,0,.33,5,5,5,0,0,0,4.47,2.25Z"/><path class="cls-5" d="M95.24,82.54a19.87,19.87,0,0,1-.95,3.16A8.91,8.91,0,0,1,85.77,91c-7.28,0-14.57,0-21.85,0H53a8.88,8.88,0,0,1-7.29-3.37A8.61,8.61,0,0,1,44.46,78c1.37-2.84,3.07-5.52,4.65-8.25q6.07-10.55,12.17-21.09a9.32,9.32,0,0,1,6.54-4.76,9,9,0,0,1,9,3.75c1.92,3.08,3.69,6.25,5.51,9.39C86.1,63.51,89.81,70,93.56,76.43A12.29,12.29,0,0,1,95.24,81ZM69.31,86.85H85.65a5.2,5.2,0,0,0,4-1.59,5,5,0,0,0,.62-6.19Q83.75,67.76,77.21,56.46c-1.22-2.11-2.39-4.25-3.69-6.31A4.63,4.63,0,0,0,68.89,48a5,5,0,0,0-4,2.73Q58.49,61.87,52,73c-1.27,2.2-2.58,4.37-3.77,6.61a4.68,4.68,0,0,0,.33,5,5,5,0,0,0,4.47,2.25Z"/><path class="cls-5" d="M94.74,82a19.87,19.87,0,0,1-.95,3.16,8.91,8.91,0,0,1-8.52,5.31c-7.28,0-14.57,0-21.85,0h-11a8.88,8.88,0,0,1-7.29-3.37A8.61,8.61,0,0,1,44,77.51C45.33,74.67,47,72,48.61,69.26q6.07-10.55,12.17-21.09a9.32,9.32,0,0,1,6.54-4.76,9,9,0,0,1,9,3.75c1.92,3.08,3.69,6.25,5.51,9.39C85.6,63,89.31,69.48,93.06,75.93a12.29,12.29,0,0,1,1.68,4.59ZM68.81,86.35H85.15a5.2,5.2,0,0,0,4-1.59,5,5,0,0,0,.62-6.19Q83.25,67.26,76.71,56c-1.22-2.11-2.39-4.25-3.69-6.31a4.63,4.63,0,0,0-4.63-2.17,5,5,0,0,0-4,2.73Q58,61.37,51.53,72.51c-1.27,2.2-2.58,4.37-3.77,6.61a4.68,4.68,0,0,0,.33,5,5,5,0,0,0,4.47,2.25Z"/><path class="cls-5" d="M94.24,81.54a19.87,19.87,0,0,1-.95,3.16A8.91,8.91,0,0,1,84.77,90c-7.28,0-14.57,0-21.85,0H52a8.88,8.88,0,0,1-7.29-3.37A8.61,8.61,0,0,1,43.46,77c1.37-2.84,3.07-5.52,4.65-8.25q6.07-10.55,12.17-21.09a9.32,9.32,0,0,1,6.54-4.76,9,9,0,0,1,9,3.75c1.92,3.08,3.69,6.25,5.51,9.39C85.1,62.51,88.81,69,92.56,75.43A12.29,12.29,0,0,1,94.24,80ZM68.31,85.85H84.65a5.2,5.2,0,0,0,4-1.59,5,5,0,0,0,.62-6.19Q82.75,66.76,76.21,55.46c-1.22-2.11-2.39-4.25-3.69-6.31A4.63,4.63,0,0,0,67.89,47a5,5,0,0,0-4,2.73Q57.49,60.87,51,72c-1.27,2.2-2.58,4.37-3.77,6.61a4.68,4.68,0,0,0,.33,5,5,5,0,0,0,4.47,2.25Z"/><path class="cls-5" d="M93.74,81a19.87,19.87,0,0,1-.95,3.16,8.91,8.91,0,0,1-8.52,5.31c-7.28,0-14.57,0-21.85,0h-11a8.88,8.88,0,0,1-7.29-3.37A8.61,8.61,0,0,1,43,76.51C44.33,73.67,46,71,47.61,68.26q6.07-10.55,12.17-21.09a9.32,9.32,0,0,1,6.54-4.76,9,9,0,0,1,9,3.75c1.92,3.08,3.69,6.25,5.51,9.39C84.6,62,88.31,68.48,92.06,74.93a12.29,12.29,0,0,1,1.68,4.59ZM67.81,85.35H84.15a5.2,5.2,0,0,0,4-1.59,5,5,0,0,0,.62-6.19Q82.25,66.26,75.71,55c-1.22-2.11-2.39-4.25-3.69-6.31a4.63,4.63,0,0,0-4.63-2.17,5,5,0,0,0-4,2.73Q57,60.37,50.53,71.51c-1.27,2.2-2.58,4.37-3.77,6.61a4.68,4.68,0,0,0,.33,5,5,5,0,0,0,4.47,2.25Z"/><path class="cls-5" d="M93.24,80.54a19.87,19.87,0,0,1-.95,3.16A8.91,8.91,0,0,1,83.77,89c-7.28,0-14.57,0-21.85,0H51a8.88,8.88,0,0,1-7.29-3.37A8.61,8.61,0,0,1,42.46,76c1.37-2.84,3.07-5.52,4.65-8.25q6.07-10.55,12.17-21.09a9.32,9.32,0,0,1,6.54-4.76,9,9,0,0,1,9,3.75c1.92,3.08,3.69,6.25,5.51,9.39C84.1,61.51,87.81,68,91.56,74.43A12.29,12.29,0,0,1,93.24,79ZM67.31,84.85H83.65a5.2,5.2,0,0,0,4-1.59,5,5,0,0,0,.62-6.19Q81.75,65.76,75.21,54.46c-1.22-2.11-2.39-4.25-3.69-6.31A4.63,4.63,0,0,0,66.89,46a5,5,0,0,0-4,2.73Q56.49,59.87,50,71c-1.27,2.2-2.58,4.37-3.77,6.61a4.68,4.68,0,0,0,.33,5,5,5,0,0,0,4.47,2.25Z"/><path class="cls-5" d="M92.74,80a19.87,19.87,0,0,1-.95,3.16,8.91,8.91,0,0,1-8.52,5.31c-7.28,0-14.57,0-21.85,0h-11a8.88,8.88,0,0,1-7.29-3.37A8.61,8.61,0,0,1,42,75.51C43.33,72.67,45,70,46.61,67.26q6.07-10.55,12.17-21.09a9.32,9.32,0,0,1,6.54-4.76,9,9,0,0,1,9,3.75c1.92,3.08,3.69,6.25,5.51,9.39C83.6,61,87.31,67.48,91.06,73.93a12.29,12.29,0,0,1,1.68,4.59ZM66.81,84.35H83.15a5.2,5.2,0,0,0,4-1.59,5,5,0,0,0,.62-6.19Q81.25,65.26,74.71,54c-1.22-2.11-2.39-4.25-3.69-6.31a4.63,4.63,0,0,0-4.63-2.17,5,5,0,0,0-4,2.73Q56,59.37,49.53,70.51c-1.27,2.2-2.58,4.37-3.77,6.61a4.68,4.68,0,0,0,.33,5,5,5,0,0,0,4.47,2.25Z"/><path class="cls-5" d="M92.24,79.54a19.87,19.87,0,0,1-.95,3.16A8.91,8.91,0,0,1,82.77,88c-7.28,0-14.57,0-21.85,0H50a8.88,8.88,0,0,1-7.29-3.37A8.61,8.61,0,0,1,41.46,75c1.37-2.84,3.07-5.52,4.65-8.25q6.07-10.55,12.17-21.09a9.32,9.32,0,0,1,6.54-4.76,9,9,0,0,1,9,3.75c1.92,3.08,3.69,6.25,5.51,9.39C83.1,60.51,86.81,67,90.56,73.43A12.29,12.29,0,0,1,92.24,78ZM66.31,83.85H82.65a5.2,5.2,0,0,0,4-1.59,5,5,0,0,0,.62-6.19Q80.75,64.76,74.21,53.46c-1.22-2.11-2.39-4.25-3.69-6.31A4.63,4.63,0,0,0,65.89,45a5,5,0,0,0-4,2.73Q55.49,58.87,49,70c-1.27,2.2-2.58,4.37-3.77,6.61a4.68,4.68,0,0,0,.33,5,5,5,0,0,0,4.47,2.25Z"/><path class="cls-5" d="M91.74,79a19.87,19.87,0,0,1-.95,3.16,8.91,8.91,0,0,1-8.52,5.31c-7.28,0-14.57,0-21.85,0h-11a8.88,8.88,0,0,1-7.29-3.37A8.61,8.61,0,0,1,41,74.51C42.33,71.67,44,69,45.61,66.26q6.07-10.55,12.17-21.09a9.32,9.32,0,0,1,6.54-4.76,9,9,0,0,1,9,3.75c1.92,3.08,3.69,6.25,5.51,9.39C82.6,60,86.31,66.48,90.06,72.93a12.29,12.29,0,0,1,1.68,4.59ZM65.81,83.35H82.15a5.2,5.2,0,0,0,4-1.59,5,5,0,0,0,.62-6.19Q80.25,64.26,73.71,53c-1.22-2.11-2.39-4.25-3.69-6.31a4.63,4.63,0,0,0-4.63-2.17,5,5,0,0,0-4,2.73Q55,58.37,48.53,69.51c-1.27,2.2-2.58,4.37-3.77,6.61a4.68,4.68,0,0,0,.33,5,5,5,0,0,0,4.47,2.25Z"/><path class="cls-5" d="M91.24,78.54a19.87,19.87,0,0,1-.95,3.16A8.91,8.91,0,0,1,81.77,87c-7.28,0-14.57,0-21.85,0H49a8.88,8.88,0,0,1-7.29-3.37A8.61,8.61,0,0,1,40.46,74c1.37-2.84,3.07-5.52,4.65-8.25q6.07-10.55,12.17-21.09a9.32,9.32,0,0,1,6.54-4.76,9,9,0,0,1,9,3.75c1.92,3.08,3.69,6.25,5.51,9.39C82.1,59.51,85.81,66,89.56,72.43A12.29,12.29,0,0,1,91.24,77ZM65.31,82.85H81.65a5.2,5.2,0,0,0,4-1.59,5,5,0,0,0,.62-6.19Q79.75,63.76,73.21,52.46c-1.22-2.11-2.39-4.25-3.69-6.31A4.63,4.63,0,0,0,64.89,44a5,5,0,0,0-4,2.73Q54.49,57.87,48,69c-1.27,2.2-2.58,4.37-3.77,6.61a4.68,4.68,0,0,0,.33,5,5,5,0,0,0,4.47,2.25Z"/><path class="cls-5" d="M90.74,78a19.87,19.87,0,0,1-.95,3.16,8.91,8.91,0,0,1-8.52,5.31c-7.28,0-14.57,0-21.85,0h-11a8.88,8.88,0,0,1-7.29-3.37A8.61,8.61,0,0,1,40,73.51C41.33,70.67,43,68,44.61,65.26q6.07-10.55,12.17-21.09a9.32,9.32,0,0,1,6.54-4.76,9,9,0,0,1,9,3.75c1.92,3.08,3.69,6.25,5.51,9.39C81.6,59,85.31,65.48,89.06,71.93a12.29,12.29,0,0,1,1.68,4.59ZM64.81,82.35H81.15a5.2,5.2,0,0,0,4-1.59,5,5,0,0,0,.62-6.19Q79.25,63.26,72.71,52c-1.22-2.11-2.39-4.25-3.69-6.31a4.63,4.63,0,0,0-4.63-2.17,5,5,0,0,0-4,2.73Q54,57.37,47.53,68.51c-1.27,2.2-2.58,4.37-3.77,6.61a4.68,4.68,0,0,0,.33,5,5,5,0,0,0,4.47,2.25Z"/><path class="cls-5" d="M90.24,77.54a19.87,19.87,0,0,1-.95,3.16A8.91,8.91,0,0,1,80.77,86c-7.28,0-14.57,0-21.85,0H48a8.88,8.88,0,0,1-7.29-3.37A8.61,8.61,0,0,1,39.46,73c1.37-2.84,3.07-5.52,4.65-8.25q6.07-10.55,12.17-21.09a9.32,9.32,0,0,1,6.54-4.76,9,9,0,0,1,9,3.75c1.92,3.08,3.69,6.25,5.51,9.39C81.1,58.51,84.81,65,88.56,71.43A12.29,12.29,0,0,1,90.24,76ZM64.31,81.85H80.65a5.2,5.2,0,0,0,4-1.59,5,5,0,0,0,.62-6.19Q78.75,62.76,72.21,51.46c-1.22-2.11-2.39-4.25-3.69-6.31A4.63,4.63,0,0,0,63.89,43a5,5,0,0,0-4,2.73Q53.49,56.87,47,68c-1.27,2.2-2.58,4.37-3.77,6.61a4.68,4.68,0,0,0,.33,5,5,5,0,0,0,4.47,2.25Z"/><path class="cls-5" d="M89.74,77a19.87,19.87,0,0,1-.95,3.16,8.91,8.91,0,0,1-8.52,5.31c-7.28,0-14.57,0-21.85,0h-11a8.88,8.88,0,0,1-7.29-3.37A8.61,8.61,0,0,1,39,72.51C40.33,69.67,42,67,43.61,64.26q6.07-10.55,12.17-21.09a9.32,9.32,0,0,1,6.54-4.76,9,9,0,0,1,9,3.75c1.92,3.08,3.69,6.25,5.51,9.39C80.6,58,84.31,64.48,88.06,70.93a12.29,12.29,0,0,1,1.68,4.59ZM63.81,81.35H80.15a5.2,5.2,0,0,0,4-1.59,5,5,0,0,0,.62-6.19Q78.25,62.26,71.71,51c-1.22-2.11-2.39-4.25-3.69-6.31a4.63,4.63,0,0,0-4.63-2.17,5,5,0,0,0-4,2.73Q53,56.37,46.53,67.51c-1.27,2.2-2.58,4.37-3.77,6.61a4.68,4.68,0,0,0,.33,5,5,5,0,0,0,4.47,2.25Z"/><path class="cls-5" d="M89.24,76.54a19.87,19.87,0,0,1-.95,3.16A8.91,8.91,0,0,1,79.77,85c-7.28,0-14.57,0-21.85,0H47a8.88,8.88,0,0,1-7.29-3.37A8.61,8.61,0,0,1,38.46,72c1.37-2.84,3.07-5.52,4.65-8.25q6.07-10.55,12.17-21.09a9.32,9.32,0,0,1,6.54-4.76,9,9,0,0,1,9,3.75c1.92,3.08,3.69,6.25,5.51,9.39C80.1,57.51,83.81,64,87.56,70.43A12.29,12.29,0,0,1,89.24,75ZM63.31,80.85H79.65a5.2,5.2,0,0,0,4-1.59,5,5,0,0,0,.62-6.19Q77.75,61.76,71.21,50.46c-1.22-2.11-2.39-4.25-3.69-6.31A4.63,4.63,0,0,0,62.89,42a5,5,0,0,0-4,2.73Q52.49,55.87,46,67c-1.27,2.2-2.58,4.37-3.77,6.61a4.68,4.68,0,0,0,.33,5,5,5,0,0,0,4.47,2.25Z"/><path class="cls-5" d="M88.74,76a19.87,19.87,0,0,1-.95,3.16,8.91,8.91,0,0,1-8.52,5.31c-7.28,0-14.57,0-21.85,0h-11a8.88,8.88,0,0,1-7.29-3.37A8.61,8.61,0,0,1,38,71.51C39.33,68.67,41,66,42.61,63.26q6.07-10.55,12.17-21.09a9.32,9.32,0,0,1,6.54-4.76,9,9,0,0,1,9,3.75c1.92,3.08,3.69,6.25,5.51,9.39C79.6,57,83.31,63.48,87.06,69.93a12.29,12.29,0,0,1,1.68,4.59ZM62.81,80.35H79.15a5.2,5.2,0,0,0,4-1.59,5,5,0,0,0,.62-6.19Q77.25,61.26,70.71,50c-1.22-2.11-2.39-4.25-3.69-6.31a4.63,4.63,0,0,0-4.63-2.17,5,5,0,0,0-4,2.73Q52,55.37,45.53,66.51c-1.27,2.2-2.58,4.37-3.77,6.61a4.68,4.68,0,0,0,.33,5,5,5,0,0,0,4.47,2.25Z"/><path class="cls-5" d="M88.24,75.54a19.87,19.87,0,0,1-.95,3.16A8.91,8.91,0,0,1,78.77,84c-7.28,0-14.57,0-21.85,0H46a8.88,8.88,0,0,1-7.29-3.37A8.61,8.61,0,0,1,37.46,71c1.37-2.84,3.07-5.52,4.65-8.25q6.07-10.55,12.17-21.09a9.32,9.32,0,0,1,6.54-4.76,9,9,0,0,1,9,3.75c1.92,3.08,3.69,6.25,5.51,9.39C79.1,56.51,82.81,63,86.56,69.43A12.29,12.29,0,0,1,88.24,74ZM62.31,79.85H78.65a5.2,5.2,0,0,0,4-1.59,5,5,0,0,0,.62-6.19Q76.75,60.76,70.21,49.46c-1.22-2.11-2.39-4.25-3.69-6.31A4.63,4.63,0,0,0,61.89,41a5,5,0,0,0-4,2.73Q51.49,54.87,45,66c-1.27,2.2-2.58,4.37-3.77,6.61a4.68,4.68,0,0,0,.33,5,5,5,0,0,0,4.47,2.25Z"/><path class="cls-5" d="M87.74,75a19.87,19.87,0,0,1-.95,3.16,8.91,8.91,0,0,1-8.52,5.31c-7.28,0-14.57,0-21.85,0h-11a8.88,8.88,0,0,1-7.29-3.37A8.61,8.61,0,0,1,37,70.51C38.33,67.67,40,65,41.61,62.26q6.07-10.55,12.17-21.09a9.32,9.32,0,0,1,6.54-4.76,9,9,0,0,1,9,3.75c1.92,3.08,3.69,6.25,5.51,9.39C78.6,56,82.31,62.48,86.06,68.93a12.29,12.29,0,0,1,1.68,4.59ZM61.81,79.35H78.15a5.2,5.2,0,0,0,4-1.59,5,5,0,0,0,.62-6.19Q76.25,60.26,69.71,49c-1.22-2.11-2.39-4.25-3.69-6.31a4.63,4.63,0,0,0-4.63-2.17,5,5,0,0,0-4,2.73Q51,54.37,44.53,65.51c-1.27,2.2-2.58,4.37-3.77,6.61a4.68,4.68,0,0,0,.33,5,5,5,0,0,0,4.47,2.25Z"/><path class="cls-5" d="M87.24,74.54a19.87,19.87,0,0,1-.95,3.16A8.91,8.91,0,0,1,77.77,83c-7.28,0-14.57,0-21.85,0H45a8.88,8.88,0,0,1-7.29-3.37A8.61,8.61,0,0,1,36.46,70c1.37-2.84,3.07-5.52,4.65-8.25q6.07-10.55,12.17-21.09a9.32,9.32,0,0,1,6.54-4.76,9,9,0,0,1,9,3.75c1.92,3.08,3.69,6.25,5.51,9.39C78.1,55.51,81.81,62,85.56,68.43A12.29,12.29,0,0,1,87.24,73ZM61.31,78.85H77.65a5.2,5.2,0,0,0,4-1.59,5,5,0,0,0,.62-6.19Q75.75,59.76,69.21,48.46c-1.22-2.11-2.39-4.25-3.69-6.31A4.63,4.63,0,0,0,60.89,40a5,5,0,0,0-4,2.73Q50.49,53.87,44,65c-1.27,2.2-2.58,4.37-3.77,6.61a4.68,4.68,0,0,0,.33,5,5,5,0,0,0,4.47,2.25Z"/><path class="cls-5" d="M86.74,74a19.87,19.87,0,0,1-.95,3.16,8.91,8.91,0,0,1-8.52,5.31c-7.28,0-14.57,0-21.85,0h-11a8.88,8.88,0,0,1-7.29-3.37A8.61,8.61,0,0,1,36,69.51C37.33,66.67,39,64,40.61,61.26q6.07-10.55,12.17-21.09a9.32,9.32,0,0,1,6.54-4.76,9,9,0,0,1,9,3.75c1.92,3.08,3.69,6.25,5.51,9.39C77.6,55,81.31,61.48,85.06,67.93a12.29,12.29,0,0,1,1.68,4.59ZM60.81,78.35H77.15a5.2,5.2,0,0,0,4-1.59,5,5,0,0,0,.62-6.19Q75.25,59.26,68.71,48c-1.22-2.11-2.39-4.25-3.69-6.31a4.63,4.63,0,0,0-4.63-2.17,5,5,0,0,0-4,2.73Q50,53.37,43.53,64.51c-1.27,2.2-2.58,4.37-3.77,6.61a4.68,4.68,0,0,0,.33,5,5,5,0,0,0,4.47,2.25Z"/><path class="cls-5" d="M86.24,73.54a19.87,19.87,0,0,1-.95,3.16A8.91,8.91,0,0,1,76.77,82c-7.28,0-14.57,0-21.85,0H44a8.88,8.88,0,0,1-7.29-3.37A8.61,8.61,0,0,1,35.46,69c1.37-2.84,3.07-5.52,4.65-8.25q6.07-10.55,12.17-21.09a9.32,9.32,0,0,1,6.54-4.76,9,9,0,0,1,9,3.75c1.92,3.08,3.69,6.25,5.51,9.39C77.1,54.51,80.81,61,84.56,67.43A12.29,12.29,0,0,1,86.24,72ZM60.31,77.85H76.65a5.2,5.2,0,0,0,4-1.59,5,5,0,0,0,.62-6.19Q74.75,58.76,68.21,47.46c-1.22-2.11-2.39-4.25-3.69-6.31A4.63,4.63,0,0,0,59.89,39a5,5,0,0,0-4,2.73Q49.49,52.87,43,64c-1.27,2.2-2.58,4.37-3.77,6.61a4.68,4.68,0,0,0,.33,5,5,5,0,0,0,4.47,2.25Z"/><path class="cls-5" d="M85.74,73a19.87,19.87,0,0,1-.95,3.16,8.91,8.91,0,0,1-8.52,5.31c-7.28,0-14.57,0-21.85,0h-11a8.88,8.88,0,0,1-7.29-3.37A8.61,8.61,0,0,1,35,68.51C36.33,65.67,38,63,39.61,60.26q6.07-10.55,12.17-21.09a9.32,9.32,0,0,1,6.54-4.76,9,9,0,0,1,9,3.75c1.92,3.08,3.69,6.25,5.51,9.39C76.6,54,80.31,60.48,84.06,66.93a12.29,12.29,0,0,1,1.68,4.59ZM59.81,77.35H76.15a5.2,5.2,0,0,0,4-1.59,5,5,0,0,0,.62-6.19Q74.25,58.26,67.71,47c-1.22-2.11-2.39-4.25-3.69-6.31a4.63,4.63,0,0,0-4.63-2.17,5,5,0,0,0-4,2.73Q49,52.37,42.53,63.51c-1.27,2.2-2.58,4.37-3.77,6.61a4.68,4.68,0,0,0,.33,5,5,5,0,0,0,4.47,2.25Z"/><path class="cls-5" d="M85.24,72.54a19.87,19.87,0,0,1-.95,3.16A8.91,8.91,0,0,1,75.77,81c-7.28,0-14.57,0-21.85,0H43a8.88,8.88,0,0,1-7.29-3.37A8.61,8.61,0,0,1,34.46,68c1.37-2.84,3.07-5.52,4.65-8.25q6.07-10.55,12.17-21.09a9.32,9.32,0,0,1,6.54-4.76,9,9,0,0,1,9,3.75c1.92,3.08,3.69,6.25,5.51,9.39C76.1,53.51,79.81,60,83.56,66.43A12.29,12.29,0,0,1,85.24,71ZM59.31,76.85H75.65a5.2,5.2,0,0,0,4-1.59,5,5,0,0,0,.62-6.19Q73.75,57.76,67.21,46.46c-1.22-2.11-2.39-4.25-3.69-6.31A4.63,4.63,0,0,0,58.89,38a5,5,0,0,0-4,2.73Q48.49,51.87,42,63c-1.27,2.2-2.58,4.37-3.77,6.61a4.68,4.68,0,0,0,.33,5,5,5,0,0,0,4.47,2.25Z"/><path class="cls-5" d="M84.74,72a19.87,19.87,0,0,1-.95,3.16,8.91,8.91,0,0,1-8.52,5.31c-7.28,0-14.57,0-21.85,0h-11a8.88,8.88,0,0,1-7.29-3.37A8.61,8.61,0,0,1,34,67.51C35.33,64.67,37,62,38.61,59.26q6.07-10.55,12.17-21.09a9.32,9.32,0,0,1,6.54-4.76,9,9,0,0,1,9,3.75c1.92,3.08,3.69,6.25,5.51,9.39C75.6,53,79.31,59.48,83.06,65.93a12.29,12.29,0,0,1,1.68,4.59ZM58.81,76.35H75.15a5.2,5.2,0,0,0,4-1.59,5,5,0,0,0,.62-6.19Q73.25,57.26,66.71,46c-1.22-2.11-2.39-4.25-3.69-6.31a4.63,4.63,0,0,0-4.63-2.17,5,5,0,0,0-4,2.73Q48,51.37,41.53,62.51c-1.27,2.2-2.58,4.37-3.77,6.61a4.68,4.68,0,0,0,.33,5,5,5,0,0,0,4.47,2.25Z"/><path class="cls-5" d="M84.24,71.54a19.87,19.87,0,0,1-.95,3.16A8.91,8.91,0,0,1,74.77,80c-7.28,0-14.57,0-21.85,0H42a8.88,8.88,0,0,1-7.29-3.37A8.61,8.61,0,0,1,33.46,67c1.37-2.84,3.07-5.52,4.65-8.25q6.07-10.55,12.17-21.09a9.32,9.32,0,0,1,6.54-4.76,9,9,0,0,1,9,3.75c1.92,3.08,3.69,6.25,5.51,9.39C75.1,52.51,78.81,59,82.56,65.43A12.29,12.29,0,0,1,84.24,70ZM58.31,75.85H74.65a5.2,5.2,0,0,0,4-1.59,5,5,0,0,0,.62-6.19Q72.75,56.76,66.21,45.46c-1.22-2.11-2.39-4.25-3.69-6.31A4.63,4.63,0,0,0,57.89,37a5,5,0,0,0-4,2.73Q47.49,50.87,41,62c-1.27,2.2-2.58,4.37-3.77,6.61a4.68,4.68,0,0,0,.33,5,5,5,0,0,0,4.47,2.25Z"/><path class="cls-5" d="M83.74,71a19.87,19.87,0,0,1-.95,3.16,8.91,8.91,0,0,1-8.52,5.31c-7.28,0-14.57,0-21.85,0h-11a8.88,8.88,0,0,1-7.29-3.37A8.61,8.61,0,0,1,33,66.51C34.33,63.67,36,61,37.61,58.26q6.07-10.55,12.17-21.09a9.32,9.32,0,0,1,6.54-4.76,9,9,0,0,1,9,3.75c1.92,3.08,3.69,6.25,5.51,9.39C74.6,52,78.31,58.48,82.06,64.93a12.29,12.29,0,0,1,1.68,4.59ZM57.81,75.35H74.15a5.2,5.2,0,0,0,4-1.59,5,5,0,0,0,.62-6.19Q72.25,56.26,65.71,45c-1.22-2.11-2.39-4.25-3.69-6.31a4.63,4.63,0,0,0-4.63-2.17,5,5,0,0,0-4,2.73Q47,50.37,40.53,61.51c-1.27,2.2-2.58,4.37-3.77,6.61a4.68,4.68,0,0,0,.33,5,5,5,0,0,0,4.47,2.25Z"/><path class="cls-5" d="M83.24,70.54a19.87,19.87,0,0,1-.95,3.16A8.91,8.91,0,0,1,73.77,79c-7.28,0-14.57,0-21.85,0H41a8.88,8.88,0,0,1-7.29-3.37A8.61,8.61,0,0,1,32.46,66c1.37-2.84,3.07-5.52,4.65-8.25q6.07-10.55,12.17-21.09a9.32,9.32,0,0,1,6.54-4.76,9,9,0,0,1,9,3.75c1.92,3.08,3.69,6.25,5.51,9.39C74.1,51.51,77.81,58,81.56,64.43A12.29,12.29,0,0,1,83.24,69ZM57.31,74.85H73.65a5.2,5.2,0,0,0,4-1.59,5,5,0,0,0,.62-6.19Q71.75,55.76,65.21,44.46c-1.22-2.11-2.39-4.25-3.69-6.31A4.63,4.63,0,0,0,56.89,36a5,5,0,0,0-4,2.73Q46.49,49.87,40,61c-1.27,2.2-2.58,4.37-3.77,6.61a4.68,4.68,0,0,0,.33,5,5,5,0,0,0,4.47,2.25Z"/><path class="cls-5" d="M82.74,70a19.87,19.87,0,0,1-.95,3.16,8.91,8.91,0,0,1-8.52,5.31c-7.28,0-14.57,0-21.85,0h-11a8.88,8.88,0,0,1-7.29-3.37A8.61,8.61,0,0,1,32,65.51C33.33,62.67,35,60,36.61,57.26q6.07-10.55,12.17-21.09a9.32,9.32,0,0,1,6.54-4.76,9,9,0,0,1,9,3.75c1.92,3.08,3.69,6.25,5.51,9.39C73.6,51,77.31,57.48,81.06,63.93a12.29,12.29,0,0,1,1.68,4.59ZM56.81,74.35H73.15a5.2,5.2,0,0,0,4-1.59,5,5,0,0,0,.62-6.19Q71.25,55.26,64.71,44c-1.22-2.11-2.39-4.25-3.69-6.31a4.63,4.63,0,0,0-4.63-2.17,5,5,0,0,0-4,2.73Q46,49.37,39.53,60.51c-1.27,2.2-2.58,4.37-3.77,6.61a4.68,4.68,0,0,0,.33,5,5,5,0,0,0,4.47,2.25Z"/><path class="cls-5" d="M82.24,69.54a19.87,19.87,0,0,1-.95,3.16A8.91,8.91,0,0,1,72.77,78c-7.28,0-14.57,0-21.85,0H40a8.88,8.88,0,0,1-7.29-3.37A8.61,8.61,0,0,1,31.46,65c1.37-2.84,3.07-5.52,4.65-8.25q6.07-10.55,12.17-21.09a9.32,9.32,0,0,1,6.54-4.76,9,9,0,0,1,9,3.75c1.92,3.08,3.69,6.25,5.51,9.39C73.1,50.51,76.81,57,80.56,63.43A12.29,12.29,0,0,1,82.24,68ZM56.31,73.85H72.65a5.2,5.2,0,0,0,4-1.59,5,5,0,0,0,.62-6.19Q70.75,54.76,64.21,43.46c-1.22-2.11-2.39-4.25-3.69-6.31A4.63,4.63,0,0,0,55.89,35a5,5,0,0,0-4,2.73Q45.49,48.87,39,60c-1.27,2.2-2.58,4.37-3.77,6.61a4.68,4.68,0,0,0,.33,5,5,5,0,0,0,4.47,2.25Z"/><path class="cls-5" d="M81.74,69a19.87,19.87,0,0,1-.95,3.16,8.91,8.91,0,0,1-8.52,5.31c-7.28,0-14.57,0-21.85,0h-11a8.88,8.88,0,0,1-7.29-3.37A8.61,8.61,0,0,1,31,64.51C32.33,61.67,34,59,35.61,56.26q6.07-10.55,12.17-21.09a9.32,9.32,0,0,1,6.54-4.76,9,9,0,0,1,9,3.75c1.92,3.08,3.69,6.25,5.51,9.39C72.6,50,76.31,56.48,80.06,62.93a12.29,12.29,0,0,1,1.68,4.59ZM55.81,73.35H72.15a5.2,5.2,0,0,0,4-1.59,5,5,0,0,0,.62-6.19Q70.25,54.26,63.71,43c-1.22-2.11-2.39-4.25-3.69-6.31a4.63,4.63,0,0,0-4.63-2.17,5,5,0,0,0-4,2.73Q45,48.37,38.53,59.51c-1.27,2.2-2.58,4.37-3.77,6.61a4.68,4.68,0,0,0,.33,5,5,5,0,0,0,4.47,2.25Z"/><path class="cls-5" d="M81.24,68.54a19.87,19.87,0,0,1-.95,3.16A8.91,8.91,0,0,1,71.77,77c-7.28,0-14.57,0-21.85,0H39a8.88,8.88,0,0,1-7.29-3.37A8.61,8.61,0,0,1,30.46,64c1.37-2.84,3.07-5.52,4.65-8.25q6.07-10.55,12.17-21.09a9.32,9.32,0,0,1,6.54-4.76,9,9,0,0,1,9,3.75c1.92,3.08,3.69,6.25,5.51,9.39C72.1,49.51,75.81,56,79.56,62.43A12.29,12.29,0,0,1,81.24,67ZM55.31,72.85H71.65a5.2,5.2,0,0,0,4-1.59,5,5,0,0,0,.62-6.19Q69.75,53.76,63.21,42.46c-1.22-2.11-2.39-4.25-3.69-6.31A4.63,4.63,0,0,0,54.89,34a5,5,0,0,0-4,2.73Q44.49,47.87,38,59c-1.27,2.2-2.58,4.37-3.77,6.61a4.68,4.68,0,0,0,.33,5,5,5,0,0,0,4.47,2.25Z"/><path class="cls-5" d="M80.74,68a19.87,19.87,0,0,1-.95,3.16,8.91,8.91,0,0,1-8.52,5.31c-7.28,0-14.57,0-21.85,0h-11a8.88,8.88,0,0,1-7.29-3.37A8.61,8.61,0,0,1,30,63.51C31.33,60.67,33,58,34.61,55.26q6.07-10.55,12.17-21.09a9.32,9.32,0,0,1,6.54-4.76,9,9,0,0,1,9,3.75c1.92,3.08,3.69,6.25,5.51,9.39C71.6,49,75.31,55.48,79.06,61.93a12.29,12.29,0,0,1,1.68,4.59ZM54.81,72.35H71.15a5.2,5.2,0,0,0,4-1.59,5,5,0,0,0,.62-6.19Q69.25,53.26,62.71,42c-1.22-2.11-2.39-4.25-3.69-6.31a4.63,4.63,0,0,0-4.63-2.17,5,5,0,0,0-4,2.73Q44,47.37,37.53,58.51c-1.27,2.2-2.58,4.37-3.77,6.61a4.68,4.68,0,0,0,.33,5,5,5,0,0,0,4.47,2.25Z"/><path class="cls-5" d="M80.24,67.54a19.87,19.87,0,0,1-.95,3.16A8.91,8.91,0,0,1,70.77,76c-7.28,0-14.57,0-21.85,0H38a8.88,8.88,0,0,1-7.29-3.37A8.61,8.61,0,0,1,29.46,63c1.37-2.84,3.07-5.52,4.65-8.25q6.07-10.55,12.17-21.09a9.32,9.32,0,0,1,6.54-4.76,9,9,0,0,1,9,3.75c1.92,3.08,3.69,6.25,5.51,9.39C71.1,48.51,74.81,55,78.56,61.43A12.29,12.29,0,0,1,80.24,66ZM54.31,71.85H70.65a5.2,5.2,0,0,0,4-1.59,5,5,0,0,0,.62-6.19Q68.75,52.76,62.21,41.46c-1.22-2.11-2.39-4.25-3.69-6.31A4.63,4.63,0,0,0,53.89,33a5,5,0,0,0-4,2.73Q43.49,46.87,37,58c-1.27,2.2-2.58,4.37-3.77,6.61a4.68,4.68,0,0,0,.33,5,5,5,0,0,0,4.47,2.25Z"/><path class="cls-5" d="M79.74,67a19.87,19.87,0,0,1-.95,3.16,8.91,8.91,0,0,1-8.52,5.31c-7.28,0-14.57,0-21.85,0h-11a8.88,8.88,0,0,1-7.29-3.37A8.61,8.61,0,0,1,29,62.51C30.33,59.67,32,57,33.61,54.26q6.07-10.55,12.17-21.09a9.32,9.32,0,0,1,6.54-4.76,9,9,0,0,1,9,3.75c1.92,3.08,3.69,6.25,5.51,9.39C70.6,48,74.31,54.48,78.06,60.93a12.29,12.29,0,0,1,1.68,4.59ZM53.81,71.35H70.15a5.2,5.2,0,0,0,4-1.59,5,5,0,0,0,.62-6.19Q68.25,52.26,61.71,41c-1.22-2.11-2.39-4.25-3.69-6.31a4.63,4.63,0,0,0-4.63-2.17,5,5,0,0,0-4,2.73Q43,46.37,36.53,57.51c-1.27,2.2-2.58,4.37-3.77,6.61a4.68,4.68,0,0,0,.33,5,5,5,0,0,0,4.47,2.25Z"/><path class="cls-5" d="M79.24,66.54a19.87,19.87,0,0,1-.95,3.16A8.91,8.91,0,0,1,69.77,75c-7.28,0-14.57,0-21.85,0H37a8.88,8.88,0,0,1-7.29-3.37A8.61,8.61,0,0,1,28.46,62c1.37-2.84,3.07-5.52,4.65-8.25q6.07-10.55,12.17-21.09a9.32,9.32,0,0,1,6.54-4.76,9,9,0,0,1,9,3.75c1.92,3.08,3.69,6.25,5.51,9.39C70.1,47.51,73.81,54,77.56,60.43A12.29,12.29,0,0,1,79.24,65ZM53.31,70.85H69.65a5.2,5.2,0,0,0,4-1.59,5,5,0,0,0,.62-6.19Q67.75,51.76,61.21,40.46c-1.22-2.11-2.39-4.25-3.69-6.31A4.63,4.63,0,0,0,52.89,32a5,5,0,0,0-4,2.73Q42.49,45.87,36,57c-1.27,2.2-2.58,4.37-3.77,6.61a4.68,4.68,0,0,0,.33,5,5,5,0,0,0,4.47,2.25Z"/><path class="cls-5" d="M78.74,66a19.87,19.87,0,0,1-.95,3.16,8.91,8.91,0,0,1-8.52,5.31c-7.28,0-14.57,0-21.85,0h-11a8.88,8.88,0,0,1-7.29-3.37A8.61,8.61,0,0,1,28,61.51C29.33,58.67,31,56,32.61,53.26q6.07-10.55,12.17-21.09a9.32,9.32,0,0,1,6.54-4.76,9,9,0,0,1,9,3.75c1.92,3.08,3.69,6.25,5.51,9.39C69.6,47,73.31,53.48,77.06,59.93a12.29,12.29,0,0,1,1.68,4.59ZM52.81,70.35H69.15a5.2,5.2,0,0,0,4-1.59,5,5,0,0,0,.62-6.19Q67.25,51.26,60.71,40c-1.22-2.11-2.39-4.25-3.69-6.31a4.63,4.63,0,0,0-4.63-2.17,5,5,0,0,0-4,2.73Q42,45.37,35.53,56.51c-1.27,2.2-2.58,4.37-3.77,6.61a4.68,4.68,0,0,0,.33,5,5,5,0,0,0,4.47,2.25Z"/><path class="cls-5" d="M78.24,65.54a19.87,19.87,0,0,1-.95,3.16A8.91,8.91,0,0,1,68.77,74c-7.28,0-14.57,0-21.85,0H36a8.88,8.88,0,0,1-7.29-3.37A8.61,8.61,0,0,1,27.46,61c1.37-2.84,3.07-5.52,4.65-8.25q6.07-10.55,12.17-21.09a9.32,9.32,0,0,1,6.54-4.76,9,9,0,0,1,9,3.75c1.92,3.08,3.69,6.25,5.51,9.39C69.1,46.51,72.81,53,76.56,59.43A12.29,12.29,0,0,1,78.24,64ZM52.31,69.85H68.65a5.2,5.2,0,0,0,4-1.59,5,5,0,0,0,.62-6.19Q66.75,50.76,60.21,39.46c-1.22-2.11-2.39-4.25-3.69-6.31A4.63,4.63,0,0,0,51.89,31a5,5,0,0,0-4,2.73Q41.49,44.87,35,56c-1.27,2.2-2.58,4.37-3.77,6.61a4.68,4.68,0,0,0,.33,5,5,5,0,0,0,4.47,2.25Z"/><path class="cls-5" d="M77.74,65a19.87,19.87,0,0,1-.95,3.16,8.91,8.91,0,0,1-8.52,5.31c-7.28,0-14.57,0-21.85,0h-11a8.88,8.88,0,0,1-7.29-3.37A8.61,8.61,0,0,1,27,60.51C28.33,57.67,30,55,31.61,52.26q6.07-10.55,12.17-21.09a9.32,9.32,0,0,1,6.54-4.76,9,9,0,0,1,9,3.75c1.92,3.08,3.69,6.25,5.51,9.39C68.6,46,72.31,52.48,76.06,58.93a12.29,12.29,0,0,1,1.68,4.59ZM51.81,69.35H68.15a5.2,5.2,0,0,0,4-1.59,5,5,0,0,0,.62-6.19Q66.25,50.26,59.71,39c-1.22-2.11-2.39-4.25-3.69-6.31a4.63,4.63,0,0,0-4.63-2.17,5,5,0,0,0-4,2.73Q41,44.37,34.53,55.51c-1.27,2.2-2.58,4.37-3.77,6.61a4.68,4.68,0,0,0,.33,5,5,5,0,0,0,4.47,2.25Z"/><path class="cls-5" d="M77.24,64.54a19.87,19.87,0,0,1-.95,3.16A8.91,8.91,0,0,1,67.77,73c-7.28,0-14.57,0-21.85,0H35a8.88,8.88,0,0,1-7.29-3.37A8.61,8.61,0,0,1,26.46,60c1.37-2.84,3.07-5.52,4.65-8.25q6.07-10.55,12.17-21.09a9.32,9.32,0,0,1,6.54-4.76,9,9,0,0,1,9,3.75c1.92,3.08,3.69,6.25,5.51,9.39C68.1,45.51,71.81,52,75.56,58.43A12.29,12.29,0,0,1,77.24,63ZM51.31,68.85H67.65a5.2,5.2,0,0,0,4-1.59,5,5,0,0,0,.62-6.19Q65.75,49.76,59.21,38.46c-1.22-2.11-2.39-4.25-3.69-6.31A4.63,4.63,0,0,0,50.89,30a5,5,0,0,0-4,2.73Q40.49,43.87,34,55c-1.27,2.2-2.58,4.37-3.77,6.61a4.68,4.68,0,0,0,.33,5,5,5,0,0,0,4.47,2.25Z"/><path class="cls-5" d="M76.74,64a19.87,19.87,0,0,1-.95,3.16,8.91,8.91,0,0,1-8.52,5.31c-7.28,0-14.57,0-21.85,0h-11a8.88,8.88,0,0,1-7.29-3.37A8.61,8.61,0,0,1,26,59.51C27.33,56.67,29,54,30.61,51.26q6.07-10.55,12.17-21.09a9.32,9.32,0,0,1,6.54-4.76,9,9,0,0,1,9,3.75c1.92,3.08,3.69,6.25,5.51,9.39C67.6,45,71.31,51.48,75.06,57.93a12.29,12.29,0,0,1,1.68,4.59ZM50.81,68.35H67.15a5.2,5.2,0,0,0,4-1.59,5,5,0,0,0,.62-6.19Q65.25,49.26,58.71,38c-1.22-2.11-2.39-4.25-3.69-6.31a4.63,4.63,0,0,0-4.63-2.17,5,5,0,0,0-4,2.73Q40,43.37,33.53,54.51c-1.27,2.2-2.58,4.37-3.77,6.61a4.68,4.68,0,0,0,.33,5,5,5,0,0,0,4.47,2.25Z"/><path class="cls-5" d="M76.24,63.54a19.87,19.87,0,0,1-.95,3.16A8.91,8.91,0,0,1,66.77,72c-7.28,0-14.57,0-21.85,0H34a8.88,8.88,0,0,1-7.29-3.37A8.61,8.61,0,0,1,25.46,59c1.37-2.84,3.07-5.52,4.65-8.25q6.07-10.55,12.17-21.09a9.32,9.32,0,0,1,6.54-4.76,9,9,0,0,1,9,3.75c1.92,3.08,3.69,6.25,5.51,9.39C67.1,44.51,70.81,51,74.56,57.43A12.29,12.29,0,0,1,76.24,62ZM50.31,67.85H66.65a5.2,5.2,0,0,0,4-1.59,5,5,0,0,0,.62-6.19Q64.75,48.76,58.21,37.46c-1.22-2.11-2.39-4.25-3.69-6.31A4.63,4.63,0,0,0,49.89,29a5,5,0,0,0-4,2.73Q39.49,42.87,33,54c-1.27,2.2-2.58,4.37-3.77,6.61a4.68,4.68,0,0,0,.33,5,5,5,0,0,0,4.47,2.25Z"/><path class="cls-5" d="M75.74,63a19.87,19.87,0,0,1-.95,3.16,8.91,8.91,0,0,1-8.52,5.31c-7.28,0-14.57,0-21.85,0h-11a8.88,8.88,0,0,1-7.29-3.37A8.61,8.61,0,0,1,25,58.51C26.33,55.67,28,53,29.61,50.26q6.07-10.55,12.17-21.09a9.32,9.32,0,0,1,6.54-4.76,9,9,0,0,1,9,3.75c1.92,3.08,3.69,6.25,5.51,9.39C66.6,44,70.31,50.48,74.06,56.93a12.29,12.29,0,0,1,1.68,4.59ZM49.81,67.35H66.15a5.2,5.2,0,0,0,4-1.59,5,5,0,0,0,.62-6.19Q64.25,48.26,57.71,37c-1.22-2.11-2.39-4.25-3.69-6.31a4.63,4.63,0,0,0-4.63-2.17,5,5,0,0,0-4,2.73Q39,42.37,32.53,53.51c-1.27,2.2-2.58,4.37-3.77,6.61a4.68,4.68,0,0,0,.33,5,5,5,0,0,0,4.47,2.25Z"/><path class="cls-5" d="M75.24,62.54a19.87,19.87,0,0,1-.95,3.16A8.91,8.91,0,0,1,65.77,71c-7.28,0-14.57,0-21.85,0H33a8.88,8.88,0,0,1-7.29-3.37A8.61,8.61,0,0,1,24.46,58c1.37-2.84,3.07-5.52,4.65-8.25q6.07-10.55,12.17-21.09a9.32,9.32,0,0,1,6.54-4.76,9,9,0,0,1,9,3.75c1.92,3.08,3.69,6.25,5.51,9.39C66.1,43.51,69.81,50,73.56,56.43A12.29,12.29,0,0,1,75.24,61ZM49.31,66.85H65.65a5.2,5.2,0,0,0,4-1.59,5,5,0,0,0,.62-6.19Q63.75,47.76,57.21,36.46c-1.22-2.11-2.39-4.25-3.69-6.31A4.63,4.63,0,0,0,48.89,28a5,5,0,0,0-4,2.73Q38.49,41.87,32,53c-1.27,2.2-2.58,4.37-3.77,6.61a4.68,4.68,0,0,0,.33,5,5,5,0,0,0,4.47,2.25Z"/><path class="cls-5" d="M74.74,62a19.87,19.87,0,0,1-.95,3.16,8.91,8.91,0,0,1-8.52,5.31c-7.28,0-14.57,0-21.85,0h-11a8.88,8.88,0,0,1-7.29-3.37A8.61,8.61,0,0,1,24,57.51C25.33,54.67,27,52,28.61,49.26q6.07-10.55,12.17-21.09a9.32,9.32,0,0,1,6.54-4.76,9,9,0,0,1,9,3.75c1.92,3.08,3.69,6.25,5.51,9.39C65.6,43,69.31,49.48,73.06,55.93a12.29,12.29,0,0,1,1.68,4.59ZM48.81,66.35H65.15a5.2,5.2,0,0,0,4-1.59,5,5,0,0,0,.62-6.19Q63.25,47.26,56.71,36c-1.22-2.11-2.39-4.25-3.69-6.31a4.63,4.63,0,0,0-4.63-2.17,5,5,0,0,0-4,2.73Q38,41.37,31.53,52.51c-1.27,2.2-2.58,4.37-3.77,6.61a4.68,4.68,0,0,0,.33,5,5,5,0,0,0,4.47,2.25Z"/><path class="cls-5" d="M74.24,61.54a19.87,19.87,0,0,1-.95,3.16A8.91,8.91,0,0,1,64.77,70c-7.28,0-14.57,0-21.85,0H32a8.88,8.88,0,0,1-7.29-3.37A8.61,8.61,0,0,1,23.46,57c1.37-2.84,3.07-5.52,4.65-8.25q6.07-10.55,12.17-21.09a9.32,9.32,0,0,1,6.54-4.76,9,9,0,0,1,9,3.75c1.92,3.08,3.69,6.25,5.51,9.39C65.1,42.51,68.81,49,72.56,55.43A12.29,12.29,0,0,1,74.24,60ZM48.31,65.85H64.65a5.2,5.2,0,0,0,4-1.59,5,5,0,0,0,.62-6.19Q62.75,46.76,56.21,35.46c-1.22-2.11-2.39-4.25-3.69-6.31A4.63,4.63,0,0,0,47.89,27a5,5,0,0,0-4,2.73Q37.49,40.87,31,52c-1.27,2.2-2.58,4.37-3.77,6.61a4.68,4.68,0,0,0,.33,5,5,5,0,0,0,4.47,2.25Z"/><path class="cls-5" d="M73.74,61a19.87,19.87,0,0,1-.95,3.16,8.91,8.91,0,0,1-8.52,5.31c-7.28,0-14.57,0-21.85,0h-11a8.88,8.88,0,0,1-7.29-3.37A8.61,8.61,0,0,1,23,56.51C24.33,53.67,26,51,27.61,48.26q6.08-10.55,12.17-21.09a9.32,9.32,0,0,1,6.54-4.76,9,9,0,0,1,9,3.75c1.92,3.08,3.69,6.25,5.51,9.39C64.6,42,68.31,48.48,72.06,54.93a12.29,12.29,0,0,1,1.68,4.59ZM47.81,65.35H64.15a5.2,5.2,0,0,0,4-1.59,5,5,0,0,0,.62-6.19Q62.25,46.26,55.71,35c-1.22-2.11-2.39-4.25-3.69-6.31a4.63,4.63,0,0,0-4.63-2.17,5,5,0,0,0-4,2.73Q37,40.37,30.53,51.51c-1.27,2.2-2.58,4.37-3.77,6.61a4.68,4.68,0,0,0,.33,5,5,5,0,0,0,4.47,2.25Z"/><path class="cls-5" d="M73.24,60.54a19.87,19.87,0,0,1-.95,3.16A8.91,8.91,0,0,1,63.77,69c-7.28,0-14.57,0-21.85,0H31a8.88,8.88,0,0,1-7.29-3.37A8.61,8.61,0,0,1,22.46,56c1.37-2.84,3.07-5.52,4.65-8.25q6.08-10.55,12.17-21.09a9.32,9.32,0,0,1,6.54-4.76,9,9,0,0,1,9,3.75c1.92,3.08,3.69,6.25,5.51,9.39C64.1,41.51,67.81,48,71.56,54.43A12.29,12.29,0,0,1,73.24,59ZM47.31,64.85H63.65a5.2,5.2,0,0,0,4-1.59,5,5,0,0,0,.62-6.19Q61.75,45.76,55.21,34.46c-1.22-2.11-2.39-4.25-3.69-6.31A4.63,4.63,0,0,0,46.89,26a5,5,0,0,0-4,2.73Q36.49,39.87,30,51c-1.27,2.2-2.58,4.37-3.77,6.61a4.68,4.68,0,0,0,.33,5,5,5,0,0,0,4.47,2.25Z"/><path class="cls-5" d="M72.74,60a19.87,19.87,0,0,1-.95,3.16,8.91,8.91,0,0,1-8.52,5.31c-7.28,0-14.57,0-21.85,0h-11a8.88,8.88,0,0,1-7.29-3.37A8.61,8.61,0,0,1,22,55.51C23.33,52.67,25,50,26.61,47.26q6.08-10.55,12.17-21.09a9.32,9.32,0,0,1,6.54-4.76,9,9,0,0,1,9,3.75c1.92,3.08,3.69,6.25,5.51,9.39C63.6,41,67.31,47.48,71.06,53.93a12.29,12.29,0,0,1,1.68,4.59ZM46.81,64.35H63.15a5.2,5.2,0,0,0,4-1.59,5,5,0,0,0,.62-6.19Q61.25,45.26,54.71,34c-1.22-2.11-2.39-4.25-3.69-6.31a4.63,4.63,0,0,0-4.63-2.17,5,5,0,0,0-4,2.73Q36,39.37,29.53,50.51c-1.27,2.2-2.58,4.37-3.77,6.61a4.68,4.68,0,0,0,.33,5,5,5,0,0,0,4.47,2.25Z"/><path class="cls-5" d="M72.24,59.54a19.87,19.87,0,0,1-.95,3.16A8.91,8.91,0,0,1,62.77,68c-7.28,0-14.57,0-21.85,0H30a8.88,8.88,0,0,1-7.29-3.37A8.61,8.61,0,0,1,21.46,55c1.37-2.84,3.07-5.52,4.65-8.25q6.08-10.55,12.17-21.09a9.32,9.32,0,0,1,6.54-4.76,9,9,0,0,1,9,3.75c1.92,3.08,3.69,6.25,5.51,9.39C63.1,40.51,66.81,47,70.56,53.43A12.29,12.29,0,0,1,72.24,58ZM46.31,63.85H62.65a5.2,5.2,0,0,0,4-1.59,5,5,0,0,0,.62-6.19Q60.75,44.76,54.21,33.46c-1.22-2.11-2.39-4.25-3.69-6.31A4.63,4.63,0,0,0,45.89,25a5,5,0,0,0-4,2.73Q35.49,38.87,29,50c-1.27,2.2-2.58,4.37-3.77,6.61a4.68,4.68,0,0,0,.33,5,5,5,0,0,0,4.47,2.25Z"/><path class="cls-5" d="M71.74,59a19.87,19.87,0,0,1-.95,3.16,8.91,8.91,0,0,1-8.52,5.31c-7.28,0-14.57,0-21.85,0h-11a8.88,8.88,0,0,1-7.29-3.37A8.61,8.61,0,0,1,21,54.51C22.33,51.67,24,49,25.61,46.26q6.08-10.55,12.17-21.09a9.32,9.32,0,0,1,6.54-4.76,9,9,0,0,1,9,3.75c1.92,3.08,3.69,6.25,5.51,9.39C62.6,40,66.31,46.48,70.06,52.93a12.29,12.29,0,0,1,1.68,4.59ZM45.81,63.35H62.15a5.2,5.2,0,0,0,4-1.59,5,5,0,0,0,.62-6.19Q60.25,44.26,53.71,33c-1.22-2.11-2.39-4.25-3.69-6.31a4.63,4.63,0,0,0-4.63-2.17,5,5,0,0,0-4,2.73Q35,38.37,28.53,49.51c-1.27,2.2-2.58,4.37-3.77,6.61a4.68,4.68,0,0,0,.33,5,5,5,0,0,0,4.47,2.25Z"/><path class="cls-5" d="M71.24,58.54a19.87,19.87,0,0,1-.95,3.16A8.91,8.91,0,0,1,61.77,67c-7.28,0-14.57,0-21.85,0H29a8.88,8.88,0,0,1-7.29-3.37A8.61,8.61,0,0,1,20.46,54c1.37-2.84,3.07-5.52,4.65-8.25q6.08-10.55,12.17-21.09a9.32,9.32,0,0,1,6.54-4.76,9,9,0,0,1,9,3.75c1.92,3.08,3.69,6.25,5.51,9.39C62.1,39.51,65.81,46,69.56,52.43A12.29,12.29,0,0,1,71.24,57ZM45.31,62.85H61.65a5.2,5.2,0,0,0,4-1.59,5,5,0,0,0,.62-6.19Q59.75,43.76,53.21,32.46c-1.22-2.11-2.39-4.25-3.69-6.31A4.63,4.63,0,0,0,44.89,24a5,5,0,0,0-4,2.73Q34.49,37.87,28,49c-1.27,2.2-2.58,4.37-3.77,6.61a4.68,4.68,0,0,0,.33,5,5,5,0,0,0,4.47,2.25Z"/><path class="cls-5" d="M70.74,58a19.87,19.87,0,0,1-.95,3.16,8.91,8.91,0,0,1-8.52,5.31c-7.28,0-14.57,0-21.85,0h-11a8.88,8.88,0,0,1-7.29-3.37A8.61,8.61,0,0,1,20,53.51C21.33,50.67,23,48,24.61,45.26q6.08-10.55,12.17-21.09a9.32,9.32,0,0,1,6.54-4.76,9,9,0,0,1,9,3.75c1.92,3.08,3.69,6.25,5.51,9.39C61.6,39,65.31,45.48,69.06,51.93a12.29,12.29,0,0,1,1.68,4.59ZM44.81,62.35H61.15a5.2,5.2,0,0,0,4-1.59,5,5,0,0,0,.62-6.19Q59.25,43.26,52.71,32c-1.22-2.11-2.39-4.25-3.69-6.31a4.63,4.63,0,0,0-4.63-2.17,5,5,0,0,0-4,2.73Q34,37.37,27.53,48.51c-1.27,2.2-2.58,4.37-3.77,6.61a4.68,4.68,0,0,0,.33,5,5,5,0,0,0,4.47,2.25Z"/><path class="cls-5" d="M70.24,57.54a19.87,19.87,0,0,1-.95,3.16A8.91,8.91,0,0,1,60.77,66c-7.28,0-14.57,0-21.85,0H28a8.88,8.88,0,0,1-7.29-3.37A8.61,8.61,0,0,1,19.46,53c1.37-2.84,3.07-5.52,4.65-8.25q6.08-10.55,12.17-21.09a9.32,9.32,0,0,1,6.54-4.76,9,9,0,0,1,9,3.75c1.92,3.08,3.69,6.25,5.51,9.39C61.1,38.51,64.81,45,68.56,51.43A12.29,12.29,0,0,1,70.24,56ZM44.31,61.85H60.65a5.2,5.2,0,0,0,4-1.59,5,5,0,0,0,.62-6.19Q58.75,42.76,52.21,31.46c-1.22-2.11-2.39-4.25-3.69-6.31A4.63,4.63,0,0,0,43.89,23a5,5,0,0,0-4,2.73Q33.49,36.87,27,48c-1.27,2.2-2.58,4.37-3.77,6.61a4.68,4.68,0,0,0,.33,5,5,5,0,0,0,4.47,2.25Z"/><path class="cls-5" d="M69.74,57a19.87,19.87,0,0,1-.95,3.16,8.91,8.91,0,0,1-8.52,5.31c-7.28,0-14.57,0-21.85,0h-11a8.88,8.88,0,0,1-7.29-3.37A8.61,8.61,0,0,1,19,52.51C20.33,49.67,22,47,23.61,44.26q6.08-10.55,12.17-21.09a9.32,9.32,0,0,1,6.54-4.76,9,9,0,0,1,9,3.75c1.92,3.08,3.69,6.25,5.51,9.39C60.6,38,64.31,44.48,68.06,50.93a12.29,12.29,0,0,1,1.68,4.59ZM43.81,61.35H60.15a5.2,5.2,0,0,0,4-1.59,5,5,0,0,0,.62-6.19Q58.25,42.26,51.71,31c-1.22-2.11-2.39-4.25-3.69-6.31a4.63,4.63,0,0,0-4.63-2.17,5,5,0,0,0-4,2.73Q33,36.37,26.53,47.51c-1.27,2.2-2.58,4.37-3.77,6.61a4.68,4.68,0,0,0,.33,5,5,5,0,0,0,4.47,2.25Z"/><path class="cls-5" d="M69.24,56.54a19.87,19.87,0,0,1-.95,3.16A8.91,8.91,0,0,1,59.77,65c-7.28,0-14.57,0-21.85,0H27a8.88,8.88,0,0,1-7.29-3.37A8.61,8.61,0,0,1,18.46,52c1.37-2.84,3.07-5.52,4.65-8.25q6.08-10.55,12.17-21.09a9.32,9.32,0,0,1,6.54-4.76,9,9,0,0,1,9,3.75c1.92,3.08,3.69,6.25,5.51,9.39C60.1,37.51,63.81,44,67.56,50.43A12.29,12.29,0,0,1,69.24,55ZM43.31,60.85H59.65a5.2,5.2,0,0,0,4-1.59,5,5,0,0,0,.62-6.19Q57.75,41.76,51.21,30.46c-1.22-2.11-2.39-4.25-3.69-6.31A4.63,4.63,0,0,0,42.89,22a5,5,0,0,0-4,2.73Q32.49,35.87,26,47c-1.27,2.2-2.58,4.37-3.77,6.61a4.68,4.68,0,0,0,.33,5,5,5,0,0,0,4.47,2.25Z"/><path class="cls-5" d="M68.74,56a19.87,19.87,0,0,1-.95,3.16,8.91,8.91,0,0,1-8.52,5.31c-7.28,0-14.57,0-21.85,0h-11a8.88,8.88,0,0,1-7.29-3.37A8.61,8.61,0,0,1,18,51.51C19.33,48.67,21,46,22.61,43.26q6.08-10.55,12.17-21.09a9.32,9.32,0,0,1,6.54-4.76,9,9,0,0,1,9,3.75c1.92,3.08,3.69,6.25,5.51,9.39C59.6,37,63.31,43.48,67.06,49.93a12.29,12.29,0,0,1,1.68,4.59ZM42.81,60.35H59.15a5.2,5.2,0,0,0,4-1.59,5,5,0,0,0,.62-6.19Q57.25,41.26,50.71,30c-1.22-2.11-2.39-4.25-3.69-6.31a4.63,4.63,0,0,0-4.63-2.17,5,5,0,0,0-4,2.73Q32,35.37,25.53,46.51c-1.27,2.2-2.58,4.37-3.77,6.61a4.68,4.68,0,0,0,.33,5,5,5,0,0,0,4.47,2.25Z"/><path class="cls-5" d="M68.24,55.54a19.87,19.87,0,0,1-.95,3.16A8.91,8.91,0,0,1,58.77,64c-7.28,0-14.57,0-21.85,0H26a8.88,8.88,0,0,1-7.29-3.37A8.61,8.61,0,0,1,17.46,51c1.37-2.84,3.07-5.52,4.65-8.25q6.08-10.55,12.17-21.09a9.32,9.32,0,0,1,6.54-4.76,9,9,0,0,1,9,3.75c1.92,3.08,3.69,6.25,5.51,9.39C59.1,36.51,62.81,43,66.56,49.43A12.29,12.29,0,0,1,68.24,54ZM42.31,59.85H58.65a5.2,5.2,0,0,0,4-1.59,5,5,0,0,0,.62-6.19Q56.75,40.76,50.21,29.46c-1.22-2.11-2.39-4.25-3.69-6.31A4.63,4.63,0,0,0,41.89,21a5,5,0,0,0-4,2.73Q31.49,34.87,25,46c-1.27,2.2-2.58,4.37-3.77,6.61a4.68,4.68,0,0,0,.33,5,5,5,0,0,0,4.47,2.25Z"/><path class="cls-5" d="M67.74,55a19.87,19.87,0,0,1-.95,3.16,8.91,8.91,0,0,1-8.52,5.31c-7.28,0-14.57,0-21.85,0h-11a8.88,8.88,0,0,1-7.29-3.37A8.61,8.61,0,0,1,17,50.51C18.33,47.67,20,45,21.61,42.26q6.08-10.55,12.17-21.09a9.32,9.32,0,0,1,6.54-4.76,9,9,0,0,1,9,3.75c1.92,3.08,3.69,6.25,5.51,9.39C58.6,36,62.31,42.48,66.06,48.93a12.29,12.29,0,0,1,1.68,4.59ZM41.81,59.35H58.15a5.2,5.2,0,0,0,4-1.59,5,5,0,0,0,.62-6.19Q56.25,40.26,49.71,29c-1.22-2.11-2.39-4.25-3.69-6.31a4.63,4.63,0,0,0-4.63-2.17,5,5,0,0,0-4,2.73Q31,34.37,24.53,45.51c-1.27,2.2-2.58,4.37-3.77,6.61a4.68,4.68,0,0,0,.33,5,5,5,0,0,0,4.47,2.25Z"/><path class="cls-5" d="M67.24,54.54a19.87,19.87,0,0,1-.95,3.16A8.91,8.91,0,0,1,57.77,63c-7.28,0-14.57,0-21.85,0H25a8.88,8.88,0,0,1-7.29-3.37A8.61,8.61,0,0,1,16.46,50c1.37-2.84,3.07-5.52,4.65-8.25q6.08-10.55,12.17-21.09a9.32,9.32,0,0,1,6.54-4.76,9,9,0,0,1,9,3.75c1.92,3.08,3.69,6.25,5.51,9.39C58.1,35.51,61.81,42,65.56,48.43A12.29,12.29,0,0,1,67.24,53ZM41.31,58.85H57.65a5.2,5.2,0,0,0,4-1.59,5,5,0,0,0,.62-6.19Q55.75,39.76,49.21,28.46c-1.22-2.11-2.39-4.25-3.69-6.31A4.63,4.63,0,0,0,40.89,20a5,5,0,0,0-4,2.73Q30.49,33.87,24,45c-1.27,2.2-2.58,4.37-3.77,6.61a4.68,4.68,0,0,0,.33,5,5,5,0,0,0,4.47,2.25Z"/><path class="cls-5" d="M66.74,54a19.87,19.87,0,0,1-.95,3.16,8.91,8.91,0,0,1-8.52,5.31c-7.28,0-14.57,0-21.85,0h-11a8.88,8.88,0,0,1-7.29-3.37A8.61,8.61,0,0,1,16,49.51C17.33,46.67,19,44,20.61,41.26q6.08-10.55,12.17-21.09a9.32,9.32,0,0,1,6.54-4.76,9,9,0,0,1,9,3.75c1.92,3.08,3.69,6.25,5.51,9.39C57.6,35,61.31,41.48,65.06,47.93a12.29,12.29,0,0,1,1.68,4.59ZM40.81,58.35H57.15a5.2,5.2,0,0,0,4-1.59,5,5,0,0,0,.62-6.19Q55.25,39.26,48.71,28c-1.22-2.11-2.39-4.25-3.69-6.31a4.63,4.63,0,0,0-4.63-2.17,5,5,0,0,0-4,2.73Q30,33.37,23.53,44.51c-1.27,2.2-2.58,4.37-3.77,6.61a4.68,4.68,0,0,0,.33,5,5,5,0,0,0,4.47,2.25Z"/><path class="cls-5" d="M66.24,53.54a19.87,19.87,0,0,1-.95,3.16A8.91,8.91,0,0,1,56.77,62c-7.28,0-14.57,0-21.85,0H24a8.88,8.88,0,0,1-7.29-3.37A8.61,8.61,0,0,1,15.46,49c1.37-2.84,3.07-5.52,4.65-8.25q6.08-10.55,12.17-21.09a9.32,9.32,0,0,1,6.54-4.76,9,9,0,0,1,9,3.75c1.92,3.08,3.69,6.25,5.51,9.39C57.1,34.51,60.81,41,64.56,47.43A12.29,12.29,0,0,1,66.24,52ZM40.31,57.85H56.65a5.2,5.2,0,0,0,4-1.59,5,5,0,0,0,.62-6.19Q54.75,38.76,48.21,27.46c-1.22-2.11-2.39-4.25-3.69-6.31A4.63,4.63,0,0,0,39.89,19a5,5,0,0,0-4,2.73Q29.49,32.87,23,44c-1.27,2.2-2.58,4.37-3.77,6.61a4.68,4.68,0,0,0,.33,5,5,5,0,0,0,4.47,2.25Z"/><path class="cls-5" d="M65.74,53a19.87,19.87,0,0,1-.95,3.16,8.91,8.91,0,0,1-8.52,5.31c-7.28,0-14.57,0-21.85,0h-11a8.88,8.88,0,0,1-7.29-3.37A8.61,8.61,0,0,1,15,48.51C16.33,45.67,18,43,19.61,40.26q6.08-10.55,12.17-21.09a9.32,9.32,0,0,1,6.54-4.76,9,9,0,0,1,9,3.75c1.92,3.08,3.69,6.25,5.51,9.39C56.6,34,60.31,40.48,64.06,46.93a12.29,12.29,0,0,1,1.68,4.59ZM39.81,57.35H56.15a5.2,5.2,0,0,0,4-1.59,5,5,0,0,0,.62-6.19Q54.25,38.26,47.71,27c-1.22-2.11-2.39-4.25-3.69-6.31a4.63,4.63,0,0,0-4.63-2.17,5,5,0,0,0-4,2.73Q29,32.37,22.53,43.51c-1.27,2.2-2.58,4.37-3.77,6.61a4.68,4.68,0,0,0,.33,5,5,5,0,0,0,4.47,2.25Z"/><path class="cls-5" d="M65.24,52.54a19.87,19.87,0,0,1-.95,3.16A8.91,8.91,0,0,1,55.77,61c-7.28,0-14.57,0-21.85,0H23a8.88,8.88,0,0,1-7.29-3.37A8.61,8.61,0,0,1,14.46,48c1.37-2.84,3.07-5.52,4.65-8.25q6.08-10.55,12.17-21.09a9.32,9.32,0,0,1,6.54-4.76,9,9,0,0,1,9,3.75c1.92,3.08,3.69,6.25,5.51,9.39C56.1,33.51,59.81,40,63.56,46.43A12.29,12.29,0,0,1,65.24,51ZM39.31,56.85H55.65a5.2,5.2,0,0,0,4-1.59,5,5,0,0,0,.62-6.19Q53.75,37.76,47.21,26.46c-1.22-2.11-2.39-4.25-3.69-6.31A4.63,4.63,0,0,0,38.89,18a5,5,0,0,0-4,2.73Q28.49,31.87,22,43c-1.27,2.2-2.58,4.37-3.77,6.61a4.68,4.68,0,0,0,.33,5,5,5,0,0,0,4.47,2.25Z"/><path class="cls-5" d="M64.74,52a19.87,19.87,0,0,1-.95,3.16,8.91,8.91,0,0,1-8.52,5.31c-7.28,0-14.57,0-21.85,0h-11a8.88,8.88,0,0,1-7.29-3.37A8.61,8.61,0,0,1,14,47.51C15.33,44.67,17,42,18.61,39.26q6.08-10.55,12.17-21.09a9.32,9.32,0,0,1,6.54-4.76,9,9,0,0,1,9,3.75c1.92,3.08,3.69,6.25,5.51,9.39C55.6,33,59.31,39.48,63.06,45.93a12.29,12.29,0,0,1,1.68,4.59ZM38.81,56.35H55.15a5.2,5.2,0,0,0,4-1.59,5,5,0,0,0,.62-6.19Q53.25,37.26,46.71,26c-1.22-2.11-2.39-4.25-3.69-6.31a4.63,4.63,0,0,0-4.63-2.17,5,5,0,0,0-4,2.73Q28,31.37,21.53,42.51c-1.27,2.2-2.58,4.37-3.77,6.61a4.68,4.68,0,0,0,.33,5,5,5,0,0,0,4.47,2.25Z"/><path class="cls-5" d="M64.24,51.54a19.87,19.87,0,0,1-.95,3.16A8.91,8.91,0,0,1,54.77,60c-7.28,0-14.57,0-21.85,0H22a8.88,8.88,0,0,1-7.29-3.37A8.61,8.61,0,0,1,13.46,47c1.37-2.84,3.07-5.52,4.65-8.25q6.08-10.54,12.17-21.09a9.32,9.32,0,0,1,6.54-4.76,9,9,0,0,1,9,3.75c1.92,3.08,3.69,6.25,5.51,9.39C55.1,32.51,58.81,39,62.56,45.43A12.29,12.29,0,0,1,64.24,50ZM38.31,55.85H54.65a5.2,5.2,0,0,0,4-1.59,5,5,0,0,0,.62-6.19Q52.75,36.76,46.21,25.46c-1.22-2.11-2.39-4.25-3.69-6.31A4.63,4.63,0,0,0,37.89,17a5,5,0,0,0-4,2.73Q27.49,30.87,21,42c-1.27,2.2-2.58,4.37-3.77,6.61a4.68,4.68,0,0,0,.33,5,5,5,0,0,0,4.47,2.25Z"/><path class="cls-5" d="M63.74,51a19.87,19.87,0,0,1-1,3.16,8.91,8.91,0,0,1-8.52,5.31c-7.28,0-14.57,0-21.85,0h-11a8.88,8.88,0,0,1-7.29-3.37A8.61,8.61,0,0,1,13,46.51C14.33,43.67,16,41,17.61,38.26q6.08-10.54,12.17-21.09a9.32,9.32,0,0,1,6.54-4.76,9,9,0,0,1,9,3.75c1.92,3.08,3.69,6.25,5.51,9.39C54.6,32,58.31,38.48,62.06,44.93a12.29,12.29,0,0,1,1.68,4.59ZM37.81,55.35H54.15a5.2,5.2,0,0,0,4-1.59,5,5,0,0,0,.62-6.19Q52.25,36.26,45.71,25c-1.22-2.11-2.39-4.25-3.69-6.31a4.63,4.63,0,0,0-4.63-2.17,5,5,0,0,0-4,2.73Q27,30.37,20.53,41.51c-1.27,2.2-2.58,4.37-3.77,6.61a4.68,4.68,0,0,0,.33,5,5,5,0,0,0,4.47,2.25Z"/><path class="cls-5" d="M63.24,50.54a19.87,19.87,0,0,1-1,3.16A8.91,8.91,0,0,1,53.77,59c-7.28,0-14.57,0-21.85,0H21a8.88,8.88,0,0,1-7.29-3.37A8.61,8.61,0,0,1,12.46,46c1.37-2.84,3.07-5.52,4.65-8.25q6.08-10.54,12.17-21.09a9.32,9.32,0,0,1,6.54-4.76,9,9,0,0,1,9,3.75c1.92,3.08,3.69,6.25,5.51,9.39C54.1,31.51,57.81,38,61.56,44.43A12.29,12.29,0,0,1,63.24,49ZM37.31,54.85H53.65a5.2,5.2,0,0,0,4-1.59,5,5,0,0,0,.62-6.19Q51.75,35.76,45.21,24.46c-1.22-2.11-2.39-4.25-3.69-6.31A4.63,4.63,0,0,0,36.89,16a5,5,0,0,0-4,2.73Q26.49,29.87,20,41c-1.27,2.2-2.58,4.37-3.77,6.61a4.68,4.68,0,0,0,.33,5,5,5,0,0,0,4.47,2.25Z"/><path class="cls-5" d="M62.74,50a19.87,19.87,0,0,1-1,3.16,8.91,8.91,0,0,1-8.52,5.31c-7.28,0-14.57,0-21.85,0h-11a8.88,8.88,0,0,1-7.29-3.37A8.61,8.61,0,0,1,12,45.51C13.33,42.67,15,40,16.61,37.26q6.08-10.54,12.17-21.09a9.32,9.32,0,0,1,6.54-4.76,9,9,0,0,1,9,3.75c1.92,3.08,3.69,6.25,5.51,9.39C53.6,31,57.31,37.48,61.06,43.93a12.29,12.29,0,0,1,1.68,4.59ZM36.81,54.35H53.15a5.2,5.2,0,0,0,4-1.59,5,5,0,0,0,.62-6.19Q51.25,35.26,44.71,24c-1.22-2.11-2.39-4.25-3.69-6.31a4.63,4.63,0,0,0-4.63-2.17,5,5,0,0,0-4,2.73Q26,29.37,19.53,40.51c-1.27,2.2-2.58,4.37-3.77,6.61a4.68,4.68,0,0,0,.33,5,5,5,0,0,0,4.47,2.25Z"/><path class="cls-5" d="M62.24,49.54a19.87,19.87,0,0,1-1,3.16A8.91,8.91,0,0,1,52.77,58c-7.28,0-14.57,0-21.85,0H20a8.88,8.88,0,0,1-7.29-3.37A8.61,8.61,0,0,1,11.46,45c1.37-2.84,3.07-5.52,4.65-8.25q6.08-10.54,12.17-21.09a9.32,9.32,0,0,1,6.54-4.76,9,9,0,0,1,9,3.75c1.92,3.08,3.69,6.25,5.51,9.39C53.1,30.51,56.81,37,60.56,43.43A12.29,12.29,0,0,1,62.24,48ZM36.31,53.85H52.65a5.2,5.2,0,0,0,4-1.59,5,5,0,0,0,.62-6.19Q50.75,34.76,44.21,23.46c-1.22-2.11-2.39-4.25-3.69-6.31A4.63,4.63,0,0,0,35.89,15a5,5,0,0,0-4,2.73Q25.49,28.87,19,40c-1.27,2.2-2.58,4.37-3.77,6.61a4.68,4.68,0,0,0,.33,5,5,5,0,0,0,4.47,2.25Z"/><path class="cls-5" d="M61.74,49a19.87,19.87,0,0,1-1,3.16,8.91,8.91,0,0,1-8.52,5.31c-7.28,0-14.57,0-21.85,0h-11a8.88,8.88,0,0,1-7.29-3.37A8.61,8.61,0,0,1,11,44.51C12.33,41.67,14,39,15.61,36.26q6.08-10.54,12.17-21.09a9.32,9.32,0,0,1,6.54-4.76,9,9,0,0,1,9,3.75c1.92,3.08,3.69,6.25,5.51,9.39C52.6,30,56.31,36.48,60.06,42.93a12.29,12.29,0,0,1,1.68,4.59ZM35.81,53.35H52.15a5.2,5.2,0,0,0,4-1.59,5,5,0,0,0,.62-6.19Q50.25,34.26,43.71,23c-1.22-2.11-2.39-4.25-3.69-6.31a4.63,4.63,0,0,0-4.63-2.17,5,5,0,0,0-4,2.73Q25,28.37,18.53,39.51c-1.27,2.2-2.58,4.37-3.77,6.61a4.68,4.68,0,0,0,.33,5,5,5,0,0,0,4.47,2.25Z"/><path class="cls-5" d="M61.24,48.54a19.87,19.87,0,0,1-1,3.16A8.91,8.91,0,0,1,51.77,57c-7.28,0-14.57,0-21.85,0H19a8.88,8.88,0,0,1-7.29-3.37A8.61,8.61,0,0,1,10.46,44c1.37-2.84,3.07-5.52,4.65-8.25q6.08-10.54,12.17-21.09a9.32,9.32,0,0,1,6.54-4.76,9,9,0,0,1,9,3.75c1.92,3.08,3.69,6.25,5.51,9.39C52.1,29.51,55.81,36,59.56,42.43A12.29,12.29,0,0,1,61.24,47ZM35.31,52.85H51.65a5.2,5.2,0,0,0,4-1.59,5,5,0,0,0,.62-6.19Q49.75,33.76,43.21,22.46c-1.22-2.11-2.39-4.25-3.69-6.31A4.63,4.63,0,0,0,34.89,14a5,5,0,0,0-4,2.73Q24.49,27.87,18,39c-1.27,2.2-2.58,4.37-3.77,6.61a4.68,4.68,0,0,0,.33,5,5,5,0,0,0,4.47,2.25Z"/><path class="cls-5" d="M60.74,48a19.87,19.87,0,0,1-1,3.16,8.91,8.91,0,0,1-8.52,5.31c-7.28,0-14.57,0-21.85,0h-11a8.88,8.88,0,0,1-7.29-3.37A8.61,8.61,0,0,1,10,43.51C11.33,40.67,13,38,14.61,35.26q6.08-10.54,12.17-21.09a9.32,9.32,0,0,1,6.54-4.76,9,9,0,0,1,9,3.75c1.92,3.08,3.69,6.25,5.51,9.39C51.6,29,55.31,35.48,59.06,41.93a12.29,12.29,0,0,1,1.68,4.59ZM34.81,52.35H51.15a5.2,5.2,0,0,0,4-1.59,5,5,0,0,0,.62-6.19Q49.25,33.26,42.71,22c-1.22-2.11-2.39-4.25-3.69-6.31a4.63,4.63,0,0,0-4.63-2.17,5,5,0,0,0-4,2.73Q24,27.37,17.53,38.51c-1.27,2.2-2.58,4.37-3.77,6.61a4.68,4.68,0,0,0,.33,5,5,5,0,0,0,4.47,2.25Z"/><path class="cls-5" d="M60.24,47.54a19.87,19.87,0,0,1-1,3.16A8.91,8.91,0,0,1,50.77,56c-7.28,0-14.57,0-21.85,0H18a8.88,8.88,0,0,1-7.29-3.37A8.61,8.61,0,0,1,9.46,43c1.37-2.84,3.07-5.52,4.65-8.25q6.08-10.54,12.17-21.09a9.32,9.32,0,0,1,6.54-4.76,9,9,0,0,1,9,3.75c1.92,3.08,3.69,6.25,5.51,9.39C51.1,28.51,54.81,35,58.56,41.43A12.29,12.29,0,0,1,60.24,46ZM34.31,51.85H50.65a5.2,5.2,0,0,0,4-1.59,5,5,0,0,0,.62-6.19Q48.75,32.76,42.21,21.46c-1.22-2.11-2.39-4.25-3.69-6.31A4.63,4.63,0,0,0,33.89,13a5,5,0,0,0-4,2.73Q23.49,26.87,17,38c-1.27,2.2-2.58,4.37-3.77,6.61a4.68,4.68,0,0,0,.33,5,5,5,0,0,0,4.47,2.25Z"/><path class="cls-5" d="M59.74,47a19.87,19.87,0,0,1-1,3.16,8.91,8.91,0,0,1-8.52,5.31c-7.28,0-14.57,0-21.85,0h-11a8.88,8.88,0,0,1-7.29-3.37A8.61,8.61,0,0,1,9,42.51C10.33,39.67,12,37,13.61,34.26q6.08-10.54,12.17-21.09a9.32,9.32,0,0,1,6.54-4.76,9,9,0,0,1,9,3.75c1.92,3.08,3.69,6.25,5.51,9.39C50.6,28,54.31,34.48,58.06,40.93a12.29,12.29,0,0,1,1.68,4.59ZM33.81,51.35H50.15a5.2,5.2,0,0,0,4-1.59,5,5,0,0,0,.62-6.19Q48.25,32.26,41.71,21c-1.22-2.11-2.39-4.25-3.69-6.31a4.63,4.63,0,0,0-4.63-2.17,5,5,0,0,0-4,2.73Q23,26.37,16.53,37.51c-1.27,2.2-2.58,4.37-3.77,6.61a4.68,4.68,0,0,0,.33,5,5,5,0,0,0,4.47,2.25Z"/><path class="cls-5" d="M59.24,46.54a19.87,19.87,0,0,1-1,3.16A8.91,8.91,0,0,1,49.77,55c-7.28,0-14.57,0-21.85,0H17a8.88,8.88,0,0,1-7.29-3.37A8.61,8.61,0,0,1,8.46,42c1.37-2.84,3.07-5.52,4.65-8.25q6.08-10.54,12.17-21.09a9.32,9.32,0,0,1,6.54-4.76,9,9,0,0,1,9,3.75c1.92,3.08,3.69,6.25,5.51,9.39C50.1,27.51,53.81,34,57.56,40.43A12.29,12.29,0,0,1,59.24,45ZM33.31,50.85H49.65a5.2,5.2,0,0,0,4-1.59,5,5,0,0,0,.62-6.19Q47.75,31.76,41.21,20.46c-1.22-2.11-2.39-4.25-3.69-6.31A4.63,4.63,0,0,0,32.89,12a5,5,0,0,0-4,2.73Q22.49,25.87,16,37c-1.27,2.2-2.58,4.37-3.77,6.61a4.68,4.68,0,0,0,.33,5,5,5,0,0,0,4.47,2.25Z"/><path class="cls-5" d="M58.74,46a19.87,19.87,0,0,1-1,3.16,8.91,8.91,0,0,1-8.52,5.31c-7.28,0-14.57,0-21.85,0h-11a8.88,8.88,0,0,1-7.29-3.37A8.61,8.61,0,0,1,8,41.51C9.33,38.67,11,36,12.61,33.26q6.08-10.54,12.17-21.09a9.32,9.32,0,0,1,6.54-4.76,9,9,0,0,1,9,3.75c1.92,3.08,3.69,6.25,5.51,9.39C49.6,27,53.31,33.48,57.06,39.93a12.29,12.29,0,0,1,1.68,4.59ZM32.81,50.35H49.15a5.2,5.2,0,0,0,4-1.59,5,5,0,0,0,.62-6.19Q47.25,31.26,40.71,20c-1.22-2.11-2.39-4.25-3.69-6.31a4.63,4.63,0,0,0-4.63-2.17,5,5,0,0,0-4,2.73Q22,25.37,15.53,36.51c-1.27,2.2-2.58,4.37-3.77,6.61a4.68,4.68,0,0,0,.33,5,5,5,0,0,0,4.47,2.25Z"/><path class="cls-5" d="M58.24,45.54a19.87,19.87,0,0,1-1,3.16A8.91,8.91,0,0,1,48.77,54c-7.28,0-14.57,0-21.85,0H16a8.88,8.88,0,0,1-7.29-3.37A8.61,8.61,0,0,1,7.46,41c1.37-2.84,3.07-5.52,4.65-8.25q6.08-10.54,12.17-21.09a9.32,9.32,0,0,1,6.54-4.76,9,9,0,0,1,9,3.75c1.92,3.08,3.69,6.25,5.51,9.39C49.1,26.51,52.81,33,56.56,39.43A12.29,12.29,0,0,1,58.24,44ZM32.31,49.85H48.65a5.2,5.2,0,0,0,4-1.59,5,5,0,0,0,.62-6.19Q46.75,30.76,40.21,19.46c-1.22-2.11-2.39-4.25-3.69-6.31A4.63,4.63,0,0,0,31.89,11a5,5,0,0,0-4,2.73Q21.49,24.87,15,36c-1.27,2.2-2.58,4.37-3.77,6.61a4.68,4.68,0,0,0,.33,5,5,5,0,0,0,4.47,2.25Z"/><path class="cls-5" d="M57.74,45a19.87,19.87,0,0,1-1,3.16,8.91,8.91,0,0,1-8.52,5.31c-7.28,0-14.57,0-21.85,0h-11a8.88,8.88,0,0,1-7.29-3.37A8.61,8.61,0,0,1,7,40.51C8.33,37.67,10,35,11.61,32.26q6.08-10.54,12.17-21.09a9.32,9.32,0,0,1,6.54-4.76,9,9,0,0,1,9,3.75c1.92,3.08,3.69,6.25,5.51,9.39C48.6,26,52.31,32.48,56.06,38.93a12.29,12.29,0,0,1,1.68,4.59ZM31.81,49.35H48.15a5.2,5.2,0,0,0,4-1.59,5,5,0,0,0,.62-6.19Q46.25,30.26,39.71,19c-1.22-2.11-2.39-4.25-3.69-6.31a4.63,4.63,0,0,0-4.63-2.17,5,5,0,0,0-4,2.73Q21,24.37,14.53,35.51c-1.27,2.2-2.58,4.37-3.77,6.61a4.68,4.68,0,0,0,.33,5,5,5,0,0,0,4.47,2.25Z"/><path class="cls-5" d="M57.24,44.54a19.87,19.87,0,0,1-1,3.16A8.91,8.91,0,0,1,47.77,53c-7.28,0-14.57,0-21.85,0H15a8.88,8.88,0,0,1-7.29-3.37A8.61,8.61,0,0,1,6.46,40c1.37-2.84,3.07-5.52,4.65-8.25q6.08-10.55,12.17-21.09a9.32,9.32,0,0,1,6.54-4.76,9,9,0,0,1,9,3.75c1.92,3.08,3.69,6.25,5.51,9.39C48.1,25.51,51.81,32,55.56,38.43A12.29,12.29,0,0,1,57.24,43ZM31.31,48.85H47.65a5.2,5.2,0,0,0,4-1.59,5,5,0,0,0,.62-6.19Q45.75,29.76,39.21,18.46c-1.22-2.11-2.39-4.25-3.69-6.31A4.63,4.63,0,0,0,30.89,10a5,5,0,0,0-4,2.73Q20.49,23.87,14,35c-1.27,2.2-2.58,4.37-3.77,6.61a4.68,4.68,0,0,0,.33,5,5,5,0,0,0,4.47,2.25Z"/><path class="cls-5" d="M56.74,44a19.87,19.87,0,0,1-1,3.16,8.91,8.91,0,0,1-8.52,5.31c-7.28,0-14.57,0-21.85,0h-11a8.88,8.88,0,0,1-7.29-3.37A8.61,8.61,0,0,1,6,39.51C7.33,36.67,9,34,10.61,31.26q6.08-10.55,12.17-21.09a9.32,9.32,0,0,1,6.54-4.76,9,9,0,0,1,9,3.75c1.92,3.08,3.69,6.25,5.51,9.39C47.6,25,51.31,31.48,55.06,37.93a12.29,12.29,0,0,1,1.68,4.59ZM30.81,48.35H47.15a5.2,5.2,0,0,0,4-1.59,5,5,0,0,0,.62-6.19Q45.25,29.26,38.71,18c-1.22-2.11-2.39-4.25-3.69-6.31a4.63,4.63,0,0,0-4.63-2.17,5,5,0,0,0-4,2.73Q20,23.37,13.53,34.51c-1.27,2.2-2.58,4.37-3.77,6.61a4.68,4.68,0,0,0,.33,5,5,5,0,0,0,4.47,2.25Z"/><path class="cls-5" d="M56.24,43.54a19.87,19.87,0,0,1-1,3.16A8.91,8.91,0,0,1,46.77,52c-7.28,0-14.57,0-21.85,0H14a8.88,8.88,0,0,1-7.29-3.37A8.61,8.61,0,0,1,5.46,39c1.37-2.84,3.07-5.52,4.65-8.25Q16.19,20.22,22.28,9.67a9.32,9.32,0,0,1,6.54-4.76,9,9,0,0,1,9,3.75c1.92,3.08,3.69,6.25,5.51,9.39C47.1,24.51,50.81,31,54.56,37.43A12.29,12.29,0,0,1,56.24,42ZM30.31,47.85H46.65a5.2,5.2,0,0,0,4-1.59,5,5,0,0,0,.62-6.19Q44.75,28.76,38.21,17.46c-1.22-2.11-2.39-4.25-3.69-6.31A4.63,4.63,0,0,0,29.89,9a5,5,0,0,0-4,2.73Q19.49,22.87,13,34c-1.27,2.2-2.58,4.37-3.77,6.61a4.68,4.68,0,0,0,.33,5,5,5,0,0,0,4.47,2.25Z"/><path class="cls-5" d="M55.74,43a19.87,19.87,0,0,1-1,3.16,8.91,8.91,0,0,1-8.52,5.31c-7.28,0-14.57,0-21.85,0h-11a8.88,8.88,0,0,1-7.29-3.37A8.61,8.61,0,0,1,5,38.51C6.33,35.67,8,33,9.61,30.26Q15.69,19.72,21.78,9.17a9.32,9.32,0,0,1,6.54-4.76,9,9,0,0,1,9,3.75c1.92,3.08,3.69,6.25,5.51,9.39C46.6,24,50.31,30.48,54.06,36.93a12.29,12.29,0,0,1,1.68,4.59ZM29.81,47.35H46.15a5.2,5.2,0,0,0,4-1.59,5,5,0,0,0,.62-6.19Q44.25,28.26,37.71,17c-1.22-2.11-2.39-4.25-3.69-6.31a4.63,4.63,0,0,0-4.63-2.17,5,5,0,0,0-4,2.73Q19,22.37,12.53,33.51c-1.27,2.2-2.58,4.37-3.77,6.61a4.68,4.68,0,0,0,.33,5,5,5,0,0,0,4.47,2.25Z"/><path class="cls-5" d="M55.24,42.54a19.87,19.87,0,0,1-1,3.16A8.91,8.91,0,0,1,45.77,51c-7.28,0-14.57,0-21.85,0H13a8.88,8.88,0,0,1-7.29-3.37A8.61,8.61,0,0,1,4.46,38c1.37-2.84,3.07-5.52,4.65-8.25Q15.19,19.22,21.28,8.67a9.32,9.32,0,0,1,6.54-4.76,9,9,0,0,1,9,3.75c1.92,3.08,3.69,6.25,5.51,9.39C46.1,23.51,49.81,30,53.56,36.43A12.29,12.29,0,0,1,55.24,41ZM29.31,46.85H45.65a5.2,5.2,0,0,0,4-1.59,5,5,0,0,0,.62-6.19Q43.75,27.76,37.21,16.46c-1.22-2.11-2.39-4.25-3.69-6.31A4.63,4.63,0,0,0,28.89,8a5,5,0,0,0-4,2.73Q18.49,21.87,12,33c-1.27,2.2-2.58,4.37-3.77,6.61a4.68,4.68,0,0,0,.33,5,5,5,0,0,0,4.47,2.25Z"/><path class="cls-5" d="M54.74,42a19.87,19.87,0,0,1-1,3.16,8.91,8.91,0,0,1-8.52,5.31c-7.28,0-14.57,0-21.85,0h-11a8.88,8.88,0,0,1-7.29-3.37A8.61,8.61,0,0,1,4,37.51C5.33,34.67,7,32,8.61,29.26Q14.69,18.72,20.78,8.17a9.32,9.32,0,0,1,6.54-4.76,9,9,0,0,1,9,3.75c1.92,3.08,3.69,6.25,5.51,9.39C45.6,23,49.31,29.48,53.06,35.93a12.29,12.29,0,0,1,1.68,4.59ZM28.81,46.35H45.15a5.2,5.2,0,0,0,4-1.59,5,5,0,0,0,.62-6.19Q43.25,27.26,36.71,16c-1.22-2.11-2.39-4.25-3.69-6.31a4.63,4.63,0,0,0-4.63-2.17,5,5,0,0,0-4,2.73Q18,21.37,11.53,32.51c-1.27,2.2-2.58,4.37-3.77,6.61a4.68,4.68,0,0,0,.33,5,5,5,0,0,0,4.47,2.25Z"/><path class="cls-5" d="M54.24,41.54a19.87,19.87,0,0,1-1,3.16A8.91,8.91,0,0,1,44.77,50c-7.28,0-14.57,0-21.85,0H12a8.88,8.88,0,0,1-7.29-3.37A8.61,8.61,0,0,1,3.46,37c1.37-2.84,3.07-5.52,4.65-8.25Q14.19,18.22,20.28,7.67a9.32,9.32,0,0,1,6.54-4.76,9,9,0,0,1,9,3.75c1.92,3.08,3.69,6.25,5.51,9.39C45.1,22.51,48.81,29,52.56,35.43A12.29,12.29,0,0,1,54.24,40ZM28.31,45.85H44.65a5.2,5.2,0,0,0,4-1.59,5,5,0,0,0,.62-6.19Q42.75,26.76,36.21,15.46c-1.22-2.11-2.39-4.25-3.69-6.31A4.63,4.63,0,0,0,27.89,7a5,5,0,0,0-4,2.73Q17.49,20.87,11,32c-1.27,2.2-2.58,4.37-3.77,6.61a4.68,4.68,0,0,0,.33,5,5,5,0,0,0,4.47,2.25Z"/><path class="cls-5" d="M53.74,41a19.87,19.87,0,0,1-1,3.16,8.91,8.91,0,0,1-8.52,5.31c-7.28,0-14.57,0-21.85,0h-11a8.88,8.88,0,0,1-7.29-3.37A8.61,8.61,0,0,1,3,36.51C4.33,33.67,6,31,7.61,28.26Q13.68,17.72,19.78,7.17a9.32,9.32,0,0,1,6.54-4.76,9,9,0,0,1,9,3.75c1.92,3.08,3.69,6.25,5.51,9.39C44.6,22,48.31,28.48,52.06,34.93a12.29,12.29,0,0,1,1.68,4.59ZM27.81,45.35H44.15a5.2,5.2,0,0,0,4-1.59,5,5,0,0,0,.62-6.19Q42.25,26.26,35.71,15c-1.22-2.11-2.39-4.25-3.69-6.31a4.63,4.63,0,0,0-4.63-2.17,5,5,0,0,0-4,2.73Q17,20.37,10.53,31.51C9.26,33.71,8,35.88,6.76,38.12a4.68,4.68,0,0,0,.33,5,5,5,0,0,0,4.47,2.25Z"/><path class="cls-5" d="M53.24,40.54a19.87,19.87,0,0,1-1,3.16A8.91,8.91,0,0,1,43.77,49c-7.28,0-14.57,0-21.85,0H11a8.88,8.88,0,0,1-7.29-3.37A8.61,8.61,0,0,1,2.46,36c1.37-2.84,3.07-5.52,4.65-8.25Q13.18,17.22,19.28,6.67a9.32,9.32,0,0,1,6.54-4.76,9,9,0,0,1,9,3.75c1.92,3.08,3.69,6.25,5.51,9.39C44.1,21.51,47.81,28,51.56,34.43A12.29,12.29,0,0,1,53.24,39ZM27.31,44.85H43.65a5.2,5.2,0,0,0,4-1.59,5,5,0,0,0,.62-6.19Q41.75,25.76,35.21,14.46c-1.22-2.11-2.39-4.25-3.69-6.31A4.63,4.63,0,0,0,26.89,6a5,5,0,0,0-4,2.73Q16.49,19.87,10,31c-1.27,2.2-2.58,4.37-3.77,6.61a4.68,4.68,0,0,0,.33,5,5,5,0,0,0,4.47,2.25Z"/><path class="cls-5" d="M52.74,40a19.87,19.87,0,0,1-1,3.16,8.91,8.91,0,0,1-8.52,5.31c-7.28,0-14.57,0-21.85,0h-11a8.88,8.88,0,0,1-7.29-3.37A8.61,8.61,0,0,1,2,35.51C3.33,32.67,5,30,6.61,27.26Q12.68,16.72,18.78,6.17a9.32,9.32,0,0,1,6.54-4.76,9,9,0,0,1,9,3.75c1.92,3.08,3.69,6.25,5.51,9.39C43.6,21,47.31,27.48,51.06,33.93a12.29,12.29,0,0,1,1.68,4.59ZM26.81,44.35H43.15a5.2,5.2,0,0,0,4-1.59,5,5,0,0,0,.62-6.19Q41.25,25.26,34.71,14C33.49,11.85,32.32,9.71,31,7.65a4.63,4.63,0,0,0-4.63-2.17,5,5,0,0,0-4,2.73Q16,19.37,9.53,30.51C8.26,32.71,7,34.88,5.76,37.12a4.68,4.68,0,0,0,.33,5,5,5,0,0,0,4.47,2.25Z"/><path class="cls-5" d="M52.24,39.54a19.87,19.87,0,0,1-1,3.16A8.91,8.91,0,0,1,42.77,48c-7.28,0-14.57,0-21.85,0H10a8.88,8.88,0,0,1-7.29-3.37A8.61,8.61,0,0,1,1.46,35c1.37-2.84,3.07-5.52,4.65-8.25Q12.18,16.22,18.28,5.67A9.32,9.32,0,0,1,24.82.91a9,9,0,0,1,9,3.75c1.92,3.08,3.69,6.25,5.51,9.39C43.1,20.51,46.81,27,50.56,33.43A12.29,12.29,0,0,1,52.24,38ZM26.31,43.85H42.65a5.2,5.2,0,0,0,4-1.59,5,5,0,0,0,.62-6.19Q40.75,24.76,34.21,13.46C33,11.35,31.82,9.21,30.52,7.15A4.63,4.63,0,0,0,25.89,5a5,5,0,0,0-4,2.73Q15.49,18.87,9,30c-1.27,2.2-2.58,4.37-3.77,6.61a4.68,4.68,0,0,0,.33,5,5,5,0,0,0,4.47,2.25Z"/><path class="cls-5" d="M51.74,39a19.87,19.87,0,0,1-1,3.16,8.91,8.91,0,0,1-8.52,5.31c-7.28,0-14.57,0-21.85,0h-11a8.88,8.88,0,0,1-7.29-3.37A8.61,8.61,0,0,1,1,34.51C2.33,31.67,4,29,5.61,26.26Q11.68,15.72,17.78,5.17A9.32,9.32,0,0,1,24.32.41a9,9,0,0,1,9,3.75c1.92,3.08,3.69,6.25,5.51,9.39C42.6,20,46.31,26.48,50.06,32.93a12.29,12.29,0,0,1,1.68,4.59ZM25.81,43.35H42.15a5.2,5.2,0,0,0,4-1.59,5,5,0,0,0,.62-6.19Q40.25,24.26,33.71,13C32.49,10.85,31.32,8.71,30,6.65a4.63,4.63,0,0,0-4.63-2.17,5,5,0,0,0-4,2.73Q15,18.37,8.53,29.51C7.26,31.71,6,33.88,4.76,36.12a4.68,4.68,0,0,0,.33,5,5,5,0,0,0,4.47,2.25Z"/></g><path class="cls-6" d="M51.74,39a19.87,19.87,0,0,1-1,3.16,8.91,8.91,0,0,1-8.52,5.31c-7.28,0-14.57,0-21.85,0h-11a8.88,8.88,0,0,1-7.29-3.37A8.61,8.61,0,0,1,1,34.51C2.33,31.67,4,29,5.61,26.26Q11.68,15.72,17.78,5.17A9.32,9.32,0,0,1,24.32.41a9,9,0,0,1,9,3.75c1.92,3.08,3.69,6.25,5.51,9.39C42.6,20,46.31,26.48,50.06,32.93a12.29,12.29,0,0,1,1.68,4.59ZM25.81,43.35H42.15a5.2,5.2,0,0,0,4-1.59,5,5,0,0,0,.62-6.19Q40.25,24.26,33.71,13C32.49,10.85,31.32,8.71,30,6.65a4.63,4.63,0,0,0-4.63-2.17,5,5,0,0,0-4,2.73Q15,18.37,8.53,29.51C7.26,31.71,6,33.88,4.76,36.12a4.68,4.68,0,0,0,.33,5,5,5,0,0,0,4.47,2.25Z"/><path class="cls-6" d="M28.55,17.78c-.22,3.73-.43,7.27-.63,10.81A14.11,14.11,0,0,1,27.83,30a1.94,1.94,0,0,1-2,1.62A1.87,1.87,0,0,1,24,30c-.15-1.32-.2-2.64-.28-4-.17-2.7-.32-5.4-.5-8.1A2.76,2.76,0,0,1,27,15,2.71,2.71,0,0,1,28.55,17.78Z"/><path class="cls-6" d="M23.25,36.13a2.67,2.67,0,0,1,2.67-2.65,2.65,2.65,0,0,1-.05,5.29A2.65,2.65,0,0,1,23.25,36.13Z"/></g></g></g></svg>