<svg xmlns="http://www.w3.org/2000/svg" xmlns:xlink="http://www.w3.org/1999/xlink" viewBox="0 0 90.86 72.15"><defs><style>.cls-1{fill:none;}.cls-2{isolation:isolate;}.cls-3{clip-path:url(#clip-path);}.cls-4{opacity:0.26;mix-blend-mode:multiply;}.cls-5{fill:#1c5c7f;}.cls-6{fill:#fff;}.cls-7{clip-path:url(#clip-path-2);}</style><clipPath id="clip-path"><path class="cls-1" d="M-530.82,72.21v-82.3a10,10,0,0,1,10-10H80.86a10,10,0,0,1,10,10v82.3Z"/></clipPath><clipPath id="clip-path-2"><path class="cls-1" d="M-657.68,81V-1.28a10,10,0,0,1,10-10H-46a10,10,0,0,1,10,10V81Z"/></clipPath></defs><title>ícone_assuntos_diversos</title><g class="cls-2"><g id="Camada_1" data-name="Camada 1"><g class="cls-3"><g class="cls-4"><path class="cls-5" d="M54,101.94a2,2,0,0,1-1.27-.47,1.92,1.92,0,0,1-.63-1.83L54.32,88A24.31,24.31,0,1,1,66.8,97.57l-12.13,4.26A2.05,2.05,0,0,1,54,101.94ZM74.52,52.19A22.35,22.35,0,0,0,52.2,74.51a22.11,22.11,0,0,0,4,12.73l.24.35L54.12,99.9,66.8,95.45l.34.12a22,22,0,0,0,7.38,1.26,22.32,22.32,0,1,0,0-44.64Z"/><path class="cls-5" d="M53.53,101.44a2,2,0,0,1-1.27-.47,1.92,1.92,0,0,1-.63-1.83l2.19-11.6A24.31,24.31,0,1,1,66.3,97.07l-12.13,4.26A2.05,2.05,0,0,1,53.53,101.44ZM74,51.69A22.35,22.35,0,0,0,51.7,74a22.11,22.11,0,0,0,4,12.73l.24.35L53.62,99.4,66.3,95l.34.12A22,22,0,0,0,74,96.33a22.32,22.32,0,1,0,0-44.64Z"/><path class="cls-5" d="M53,100.94a2,2,0,0,1-1.27-.47,1.92,1.92,0,0,1-.63-1.83L53.32,87A24.31,24.31,0,1,1,65.8,96.57l-12.13,4.26A2.05,2.05,0,0,1,53,100.94ZM73.52,51.19A22.35,22.35,0,0,0,51.2,73.51a22.11,22.11,0,0,0,4,12.73l.24.35L53.12,98.9,65.8,94.45l.34.12a22,22,0,0,0,7.38,1.26,22.32,22.32,0,1,0,0-44.64Z"/><path class="cls-5" d="M52.53,100.44a2,2,0,0,1-1.27-.47,1.92,1.92,0,0,1-.63-1.83l2.19-11.6A24.31,24.31,0,1,1,65.3,96.07l-12.13,4.26A2.05,2.05,0,0,1,52.53,100.44ZM73,50.69A22.35,22.35,0,0,0,50.7,73a22.11,22.11,0,0,0,4,12.73l.24.35L52.62,98.4,65.3,94l.34.12A22,22,0,0,0,73,95.33a22.32,22.32,0,1,0,0-44.64Z"/><path class="cls-5" d="M52,99.94a2,2,0,0,1-1.27-.47,1.92,1.92,0,0,1-.63-1.83L52.32,86A24.31,24.31,0,1,1,64.8,95.57L52.67,99.83A2.05,2.05,0,0,1,52,99.94ZM72.52,50.19A22.35,22.35,0,0,0,50.2,72.51a22.11,22.11,0,0,0,4,12.73l.24.35L52.12,97.9,64.8,93.45l.34.12a22,22,0,0,0,7.38,1.26,22.32,22.32,0,1,0,0-44.64Z"/><path class="cls-5" d="M51.53,99.44A2,2,0,0,1,50.26,99a1.92,1.92,0,0,1-.63-1.83l2.19-11.6A24.31,24.31,0,1,1,64.3,95.07L52.17,99.33A2.05,2.05,0,0,1,51.53,99.44ZM72,49.69A22.35,22.35,0,0,0,49.7,72a22.11,22.11,0,0,0,4,12.73l.24.35L51.62,97.4,64.3,93l.34.12A22,22,0,0,0,72,94.33a22.32,22.32,0,1,0,0-44.64Z"/><path class="cls-5" d="M51,98.94a2,2,0,0,1-1.27-.47,1.92,1.92,0,0,1-.63-1.83L51.32,85A24.31,24.31,0,1,1,63.8,94.57L51.67,98.83A2.05,2.05,0,0,1,51,98.94ZM71.52,49.19A22.35,22.35,0,0,0,49.2,71.51a22.11,22.11,0,0,0,4,12.73l.24.35L51.12,96.9,63.8,92.45l.34.12a22,22,0,0,0,7.38,1.26,22.32,22.32,0,1,0,0-44.64Z"/><path class="cls-5" d="M50.53,98.44A2,2,0,0,1,49.26,98a1.92,1.92,0,0,1-.63-1.83l2.19-11.6A24.31,24.31,0,1,1,63.3,94.07L51.17,98.33A2.05,2.05,0,0,1,50.53,98.44ZM71,48.69A22.35,22.35,0,0,0,48.7,71a22.11,22.11,0,0,0,4,12.73l.24.35L50.62,96.4,63.3,92l.34.12A22,22,0,0,0,71,93.33a22.32,22.32,0,1,0,0-44.64Z"/><path class="cls-5" d="M50,97.94a2,2,0,0,1-1.27-.47,1.92,1.92,0,0,1-.63-1.83L50.32,84A24.31,24.31,0,1,1,62.8,93.57L50.67,97.83A2.05,2.05,0,0,1,50,97.94ZM70.52,48.19A22.35,22.35,0,0,0,48.2,70.51a22.11,22.11,0,0,0,4,12.73l.24.35L50.12,95.9,62.8,91.45l.34.12a22,22,0,0,0,7.38,1.26,22.32,22.32,0,1,0,0-44.64Z"/><path class="cls-5" d="M49.53,97.44A2,2,0,0,1,48.26,97a1.92,1.92,0,0,1-.63-1.83l2.19-11.6A24.31,24.31,0,1,1,62.3,93.07L50.17,97.33A2.05,2.05,0,0,1,49.53,97.44ZM70,47.69A22.35,22.35,0,0,0,47.7,70a22.11,22.11,0,0,0,4,12.73l.24.35L49.62,95.4,62.3,91l.34.12A22,22,0,0,0,70,92.33a22.32,22.32,0,1,0,0-44.64Z"/><path class="cls-5" d="M49,96.94a2,2,0,0,1-1.27-.47,1.92,1.92,0,0,1-.63-1.83L49.32,83A24.31,24.31,0,1,1,61.8,92.57L49.67,96.83A2.05,2.05,0,0,1,49,96.94ZM69.52,47.19A22.35,22.35,0,0,0,47.2,69.51a22.11,22.11,0,0,0,4,12.73l.24.35L49.12,94.9,61.8,90.45l.34.12a22,22,0,0,0,7.38,1.26,22.32,22.32,0,1,0,0-44.64Z"/><path class="cls-5" d="M48.53,96.44A2,2,0,0,1,47.26,96a1.92,1.92,0,0,1-.63-1.83l2.19-11.6A24.31,24.31,0,1,1,61.3,92.07L49.17,96.33A2.05,2.05,0,0,1,48.53,96.44ZM69,46.69A22.35,22.35,0,0,0,46.7,69a22.11,22.11,0,0,0,4,12.73l.24.35L48.62,94.4,61.3,90l.34.12A22,22,0,0,0,69,91.33a22.32,22.32,0,1,0,0-44.64Z"/><path class="cls-5" d="M48,95.94a2,2,0,0,1-1.27-.47,1.92,1.92,0,0,1-.63-1.83L48.32,82A24.31,24.31,0,1,1,60.8,91.57L48.67,95.83A2.05,2.05,0,0,1,48,95.94ZM68.52,46.19A22.35,22.35,0,0,0,46.2,68.51a22.11,22.11,0,0,0,4,12.73l.24.35L48.12,93.9,60.8,89.45l.34.12a22,22,0,0,0,7.38,1.26,22.32,22.32,0,1,0,0-44.64Z"/><path class="cls-5" d="M47.53,95.44A2,2,0,0,1,46.26,95a1.92,1.92,0,0,1-.63-1.83l2.19-11.6A24.31,24.31,0,1,1,60.3,91.07L48.17,95.33A2.05,2.05,0,0,1,47.53,95.44ZM68,45.69A22.35,22.35,0,0,0,45.7,68a22.11,22.11,0,0,0,4,12.73l.24.35L47.62,93.4,60.3,89l.34.12A22,22,0,0,0,68,90.33a22.32,22.32,0,1,0,0-44.64Z"/><path class="cls-5" d="M47,94.94a2,2,0,0,1-1.27-.47,1.92,1.92,0,0,1-.63-1.83L47.32,81A24.31,24.31,0,1,1,59.8,90.57L47.67,94.83A2.05,2.05,0,0,1,47,94.94ZM67.52,45.19A22.35,22.35,0,0,0,45.2,67.51a22.11,22.11,0,0,0,4,12.73l.24.35L47.12,92.9,59.8,88.45l.34.12a22,22,0,0,0,7.38,1.26,22.32,22.32,0,1,0,0-44.64Z"/><path class="cls-5" d="M46.53,94.44A2,2,0,0,1,45.26,94a1.92,1.92,0,0,1-.63-1.83l2.19-11.6A24.31,24.31,0,1,1,59.3,90.07L47.17,94.33A2.05,2.05,0,0,1,46.53,94.44ZM67,44.69A22.35,22.35,0,0,0,44.7,67a22.11,22.11,0,0,0,4,12.73l.24.35L46.62,92.4,59.3,88l.34.12A22,22,0,0,0,67,89.33a22.32,22.32,0,1,0,0-44.64Z"/><path class="cls-5" d="M46,93.94a2,2,0,0,1-1.27-.47,1.92,1.92,0,0,1-.63-1.83L46.32,80A24.31,24.31,0,1,1,58.8,89.57L46.67,93.83A2.05,2.05,0,0,1,46,93.94ZM66.52,44.19A22.35,22.35,0,0,0,44.2,66.51a22.11,22.11,0,0,0,4,12.73l.24.35L46.12,91.9,58.8,87.45l.34.12a22,22,0,0,0,7.38,1.26,22.32,22.32,0,1,0,0-44.64Z"/><path class="cls-5" d="M45.53,93.44A2,2,0,0,1,44.26,93a1.92,1.92,0,0,1-.63-1.83l2.19-11.6A24.31,24.31,0,1,1,58.3,89.07L46.17,93.33A2.05,2.05,0,0,1,45.53,93.44ZM66,43.69A22.35,22.35,0,0,0,43.7,66a22.11,22.11,0,0,0,4,12.73l.24.35L45.62,91.4,58.3,87l.34.12A22,22,0,0,0,66,88.33a22.32,22.32,0,1,0,0-44.64Z"/><path class="cls-5" d="M45,92.94a2,2,0,0,1-1.27-.47,1.92,1.92,0,0,1-.63-1.83L45.32,79A24.31,24.31,0,1,1,57.8,88.57L45.67,92.83A2.05,2.05,0,0,1,45,92.94ZM65.52,43.19A22.35,22.35,0,0,0,43.2,65.51a22.11,22.11,0,0,0,4,12.73l.24.35L45.12,90.9,57.8,86.45l.34.12a22,22,0,0,0,7.38,1.26,22.32,22.32,0,1,0,0-44.64Z"/><path class="cls-5" d="M44.53,92.44A2,2,0,0,1,43.26,92a1.92,1.92,0,0,1-.63-1.83l2.19-11.6A24.31,24.31,0,1,1,57.3,88.07L45.17,92.33A2.05,2.05,0,0,1,44.53,92.44ZM65,42.69A22.35,22.35,0,0,0,42.7,65a22.11,22.11,0,0,0,4,12.73l.24.35L44.62,90.4,57.3,86l.34.12A22,22,0,0,0,65,87.33a22.32,22.32,0,1,0,0-44.64Z"/><path class="cls-5" d="M44,91.94a2,2,0,0,1-1.27-.47,1.92,1.92,0,0,1-.63-1.83L44.32,78A24.31,24.31,0,1,1,56.8,87.57L44.67,91.83A2.05,2.05,0,0,1,44,91.94ZM64.52,42.19A22.35,22.35,0,0,0,42.2,64.51a22.11,22.11,0,0,0,4,12.73l.24.35L44.12,89.9,56.8,85.45l.34.12a22,22,0,0,0,7.38,1.26,22.32,22.32,0,1,0,0-44.64Z"/><path class="cls-5" d="M43.53,91.44A2,2,0,0,1,42.26,91a1.92,1.92,0,0,1-.63-1.83l2.19-11.6A24.31,24.31,0,1,1,56.3,87.07L44.17,91.33A2.05,2.05,0,0,1,43.53,91.44ZM64,41.69A22.35,22.35,0,0,0,41.7,64a22.11,22.11,0,0,0,4,12.73l.24.35L43.62,89.4,56.3,85l.34.12A22,22,0,0,0,64,86.33a22.32,22.32,0,1,0,0-44.64Z"/><path class="cls-5" d="M43,90.94a2,2,0,0,1-1.27-.47,1.92,1.92,0,0,1-.63-1.83L43.32,77A24.31,24.31,0,1,1,55.8,86.57L43.67,90.83A2.05,2.05,0,0,1,43,90.94ZM63.52,41.19A22.35,22.35,0,0,0,41.2,63.51a22.11,22.11,0,0,0,4,12.73l.24.35L43.12,88.9,55.8,84.45l.34.12a22,22,0,0,0,7.38,1.26,22.32,22.32,0,0,0,0-44.64Z"/><path class="cls-5" d="M42.53,90.44A2,2,0,0,1,41.26,90a1.92,1.92,0,0,1-.63-1.83l2.19-11.6A24.31,24.31,0,1,1,55.3,86.07L43.17,90.33A2.05,2.05,0,0,1,42.53,90.44ZM63,40.69A22.35,22.35,0,0,0,40.7,63a22.11,22.11,0,0,0,4,12.73l.24.35L42.62,88.4,55.3,84l.34.12A22,22,0,0,0,63,85.33a22.32,22.32,0,0,0,0-44.64Z"/><path class="cls-5" d="M42,89.94a2,2,0,0,1-1.27-.47,1.92,1.92,0,0,1-.63-1.83L42.32,76A24.31,24.31,0,1,1,54.8,85.57L42.67,89.83A2.05,2.05,0,0,1,42,89.94ZM62.52,40.19A22.35,22.35,0,0,0,40.2,62.51a22.11,22.11,0,0,0,4,12.73l.24.35L42.12,87.9,54.8,83.45l.34.12a22,22,0,0,0,7.38,1.26,22.32,22.32,0,0,0,0-44.64Z"/><path class="cls-5" d="M41.53,89.44A2,2,0,0,1,40.26,89a1.92,1.92,0,0,1-.63-1.83l2.19-11.6A24.31,24.31,0,1,1,54.3,85.07L42.17,89.33A2.05,2.05,0,0,1,41.53,89.44ZM62,39.69A22.35,22.35,0,0,0,39.7,62a22.11,22.11,0,0,0,4,12.73l.24.35L41.62,87.4,54.3,83l.34.12A22,22,0,0,0,62,84.33a22.32,22.32,0,0,0,0-44.64Z"/><path class="cls-5" d="M41,88.94a2,2,0,0,1-1.27-.47,1.92,1.92,0,0,1-.63-1.83L41.32,75A24.31,24.31,0,1,1,53.8,84.57L41.67,88.83A2.05,2.05,0,0,1,41,88.94ZM61.52,39.19A22.35,22.35,0,0,0,39.2,61.51a22.11,22.11,0,0,0,4,12.73l.24.35L41.12,86.9,53.8,82.45l.34.12a22,22,0,0,0,7.38,1.26,22.32,22.32,0,0,0,0-44.64Z"/><path class="cls-5" d="M40.53,88.44A2,2,0,0,1,39.26,88a1.92,1.92,0,0,1-.63-1.83l2.19-11.6A24.31,24.31,0,1,1,53.3,84.07L41.17,88.33A2.05,2.05,0,0,1,40.53,88.44ZM61,38.69A22.35,22.35,0,0,0,38.7,61a22.11,22.11,0,0,0,4,12.73l.24.35L40.62,86.4,53.3,82l.34.12A22,22,0,0,0,61,83.33a22.32,22.32,0,0,0,0-44.64Z"/><path class="cls-5" d="M40,87.94a2,2,0,0,1-1.27-.47,1.92,1.92,0,0,1-.63-1.83L40.32,74A24.31,24.31,0,1,1,52.8,83.57L40.67,87.83A2.05,2.05,0,0,1,40,87.94ZM60.52,38.19A22.35,22.35,0,0,0,38.2,60.51a22.11,22.11,0,0,0,4,12.73l.24.35L40.12,85.9,52.8,81.45l.34.12a22,22,0,0,0,7.38,1.26,22.32,22.32,0,0,0,0-44.64Z"/><path class="cls-5" d="M39.53,87.44A2,2,0,0,1,38.26,87a1.92,1.92,0,0,1-.63-1.83l2.19-11.6A24.31,24.31,0,1,1,52.3,83.07L40.17,87.33A2.05,2.05,0,0,1,39.53,87.44ZM60,37.69A22.35,22.35,0,0,0,37.7,60a22.11,22.11,0,0,0,4,12.73l.24.35L39.62,85.4,52.3,81l.34.12A22,22,0,0,0,60,82.33a22.32,22.32,0,0,0,0-44.64Z"/><path class="cls-5" d="M39,86.94a2,2,0,0,1-1.27-.47,1.92,1.92,0,0,1-.63-1.83L39.32,73A24.31,24.31,0,1,1,51.8,82.57L39.67,86.83A2.05,2.05,0,0,1,39,86.94ZM59.52,37.19A22.35,22.35,0,0,0,37.2,59.51a22.11,22.11,0,0,0,4,12.73l.24.35L39.12,84.9,51.8,80.45l.34.12a22,22,0,0,0,7.38,1.26,22.32,22.32,0,0,0,0-44.64Z"/><path class="cls-5" d="M38.53,86.44A2,2,0,0,1,37.26,86a1.92,1.92,0,0,1-.63-1.83l2.19-11.6A24.31,24.31,0,1,1,51.3,82.07L39.17,86.33A2.05,2.05,0,0,1,38.53,86.44ZM59,36.69A22.35,22.35,0,0,0,36.7,59a22.11,22.11,0,0,0,4,12.73l.24.35L38.62,84.4,51.3,80l.34.12A22,22,0,0,0,59,81.33a22.32,22.32,0,0,0,0-44.64Z"/><path class="cls-5" d="M38,85.94a2,2,0,0,1-1.27-.47,1.92,1.92,0,0,1-.63-1.83L38.32,72A24.31,24.31,0,1,1,50.8,81.57L38.67,85.83A2.05,2.05,0,0,1,38,85.94ZM58.52,36.19A22.35,22.35,0,0,0,36.2,58.51a22.11,22.11,0,0,0,4,12.73l.24.35L38.12,83.9,50.8,79.45l.34.12a22,22,0,0,0,7.38,1.26,22.32,22.32,0,0,0,0-44.64Z"/><path class="cls-5" d="M37.53,85.44A2,2,0,0,1,36.26,85a1.92,1.92,0,0,1-.63-1.83l2.19-11.6A24.31,24.31,0,1,1,50.3,81.07L38.17,85.33A2.05,2.05,0,0,1,37.53,85.44ZM58,35.69A22.35,22.35,0,0,0,35.7,58a22.11,22.11,0,0,0,4,12.73l.24.35L37.62,83.4,50.3,79l.34.12A22,22,0,0,0,58,80.33a22.32,22.32,0,0,0,0-44.64Z"/><path class="cls-5" d="M37,84.94a2,2,0,0,1-1.27-.47,1.92,1.92,0,0,1-.63-1.83L37.32,71A24.31,24.31,0,1,1,49.8,80.57L37.67,84.83A2.05,2.05,0,0,1,37,84.94ZM57.52,35.19A22.35,22.35,0,0,0,35.2,57.51a22.11,22.11,0,0,0,4,12.73l.24.35L37.12,82.9,49.8,78.45l.34.12a22,22,0,0,0,7.38,1.26,22.32,22.32,0,0,0,0-44.64Z"/><path class="cls-5" d="M36.53,84.44A2,2,0,0,1,35.26,84a1.92,1.92,0,0,1-.63-1.83l2.19-11.6A24.31,24.31,0,1,1,49.3,80.07L37.17,84.33A2.05,2.05,0,0,1,36.53,84.44ZM57,34.69A22.35,22.35,0,0,0,34.7,57a22.11,22.11,0,0,0,4,12.73l.24.35L36.62,82.4,49.3,78l.34.12A22,22,0,0,0,57,79.33a22.32,22.32,0,0,0,0-44.64Z"/><path class="cls-5" d="M36,83.94a2,2,0,0,1-1.27-.47,1.92,1.92,0,0,1-.63-1.83L36.32,70A24.31,24.31,0,1,1,48.8,79.57L36.67,83.83A2.05,2.05,0,0,1,36,83.94ZM56.52,34.19A22.35,22.35,0,0,0,34.2,56.51a22.11,22.11,0,0,0,4,12.73l.24.35L36.12,81.9,48.8,77.45l.34.12a22,22,0,0,0,7.38,1.26,22.32,22.32,0,0,0,0-44.64Z"/><path class="cls-5" d="M35.53,83.44A2,2,0,0,1,34.26,83a1.92,1.92,0,0,1-.63-1.83l2.19-11.6A24.31,24.31,0,1,1,48.3,79.07L36.17,83.33A2.05,2.05,0,0,1,35.53,83.44ZM56,33.69A22.35,22.35,0,0,0,33.7,56a22.11,22.11,0,0,0,4,12.73l.24.35L35.62,81.4,48.3,77l.34.12A22,22,0,0,0,56,78.33a22.32,22.32,0,0,0,0-44.64Z"/><path class="cls-5" d="M35,82.94a2,2,0,0,1-1.27-.47,1.92,1.92,0,0,1-.63-1.83L35.32,69A24.31,24.31,0,1,1,47.8,78.57L35.67,82.83A2.05,2.05,0,0,1,35,82.94ZM55.52,33.19A22.35,22.35,0,0,0,33.2,55.51a22.11,22.11,0,0,0,4,12.73l.24.35L35.12,80.9,47.8,76.45l.34.12a22,22,0,0,0,7.38,1.26,22.32,22.32,0,0,0,0-44.64Z"/><path class="cls-5" d="M34.53,82.44A2,2,0,0,1,33.26,82a1.92,1.92,0,0,1-.63-1.83l2.19-11.6A24.31,24.31,0,1,1,47.3,78.07L35.17,82.33A2.05,2.05,0,0,1,34.53,82.44ZM55,32.69A22.35,22.35,0,0,0,32.7,55a22.11,22.11,0,0,0,4,12.73l.24.35L34.62,80.4,47.3,76l.34.12A22,22,0,0,0,55,77.33a22.32,22.32,0,0,0,0-44.64Z"/><path class="cls-5" d="M34,81.94a2,2,0,0,1-1.27-.47,1.92,1.92,0,0,1-.63-1.83L34.32,68A24.31,24.31,0,1,1,46.8,77.57L34.67,81.83A2.05,2.05,0,0,1,34,81.94ZM54.52,32.19A22.35,22.35,0,0,0,32.2,54.51a22.11,22.11,0,0,0,4,12.73l.24.35L34.12,79.9,46.8,75.45l.34.12a22,22,0,0,0,7.38,1.26,22.32,22.32,0,0,0,0-44.64Z"/><path class="cls-5" d="M33.53,81.44A2,2,0,0,1,32.26,81a1.92,1.92,0,0,1-.63-1.83l2.19-11.6A24.31,24.31,0,1,1,46.3,77.07L34.17,81.33A2.05,2.05,0,0,1,33.53,81.44ZM54,31.69A22.35,22.35,0,0,0,31.7,54a22.11,22.11,0,0,0,4,12.73l.24.35L33.62,79.4,46.3,75l.34.12A22,22,0,0,0,54,76.33a22.32,22.32,0,1,0,0-44.64Z"/><path class="cls-5" d="M33,80.94a2,2,0,0,1-1.27-.47,1.92,1.92,0,0,1-.63-1.83L33.32,67A24.31,24.31,0,1,1,45.8,76.57L33.67,80.83A2.05,2.05,0,0,1,33,80.94ZM53.52,31.19A22.35,22.35,0,0,0,31.2,53.51a22.11,22.11,0,0,0,4,12.73l.24.35L33.12,78.9,45.8,74.45l.34.12a22,22,0,0,0,7.38,1.26,22.32,22.32,0,1,0,0-44.64Z"/><path class="cls-5" d="M32.53,80.44A2,2,0,0,1,31.26,80a1.92,1.92,0,0,1-.63-1.83l2.19-11.6A24.31,24.31,0,1,1,45.3,76.07L33.17,80.33A2.05,2.05,0,0,1,32.53,80.44ZM53,30.69A22.35,22.35,0,0,0,30.7,53a22.11,22.11,0,0,0,4,12.73l.24.35L32.62,78.4,45.3,74l.34.12A22,22,0,0,0,53,75.33a22.32,22.32,0,1,0,0-44.64Z"/><path class="cls-5" d="M32,79.94a2,2,0,0,1-1.27-.47,1.92,1.92,0,0,1-.63-1.83L32.32,66A24.31,24.31,0,1,1,44.8,75.57L32.67,79.83A2.05,2.05,0,0,1,32,79.94ZM52.52,30.19A22.35,22.35,0,0,0,30.2,52.51a22.11,22.11,0,0,0,4,12.73l.24.35L32.12,77.9,44.8,73.45l.34.12a22,22,0,0,0,7.38,1.26,22.32,22.32,0,1,0,0-44.64Z"/><path class="cls-5" d="M31.53,79.44A2,2,0,0,1,30.26,79a1.92,1.92,0,0,1-.63-1.83l2.19-11.6A24.31,24.31,0,1,1,44.3,75.07L32.17,79.33A2.05,2.05,0,0,1,31.53,79.44ZM52,29.69A22.35,22.35,0,0,0,29.7,52a22.11,22.11,0,0,0,4,12.73l.24.35L31.62,77.4,44.3,73l.34.12A22,22,0,0,0,52,74.33a22.32,22.32,0,1,0,0-44.64Z"/><path class="cls-5" d="M31,78.94a2,2,0,0,1-1.27-.47,1.92,1.92,0,0,1-.63-1.83L31.32,65A24.31,24.31,0,1,1,43.8,74.57L31.67,78.83A2.05,2.05,0,0,1,31,78.94ZM51.52,29.19A22.35,22.35,0,0,0,29.2,51.51a22.11,22.11,0,0,0,4,12.73l.24.35L31.12,76.9,43.8,72.45l.34.12a22,22,0,0,0,7.38,1.26,22.32,22.32,0,1,0,0-44.64Z"/><path class="cls-5" d="M30.53,78.44A2,2,0,0,1,29.26,78a1.92,1.92,0,0,1-.63-1.83l2.19-11.6A24.31,24.31,0,1,1,43.3,74.07L31.17,78.33A2.05,2.05,0,0,1,30.53,78.44ZM51,28.69A22.35,22.35,0,0,0,28.7,51a22.11,22.11,0,0,0,4,12.73l.24.35L30.62,76.4,43.3,72l.34.12A22,22,0,0,0,51,73.33a22.32,22.32,0,1,0,0-44.64Z"/><path class="cls-5" d="M30,77.94a2,2,0,0,1-1.27-.47,1.92,1.92,0,0,1-.63-1.83L30.32,64A24.31,24.31,0,1,1,42.8,73.57L30.67,77.83A2.05,2.05,0,0,1,30,77.94ZM50.52,28.19A22.35,22.35,0,0,0,28.2,50.51a22.11,22.11,0,0,0,4,12.73l.24.35L30.12,75.9,42.8,71.45l.34.12a22,22,0,0,0,7.38,1.26,22.32,22.32,0,1,0,0-44.64Z"/><path class="cls-5" d="M29.53,77.44A2,2,0,0,1,28.26,77a1.92,1.92,0,0,1-.63-1.83l2.19-11.6A24.31,24.31,0,1,1,42.3,73.07L30.17,77.33A2.05,2.05,0,0,1,29.53,77.44ZM50,27.69A22.35,22.35,0,0,0,27.7,50a22.11,22.11,0,0,0,4,12.73l.24.35L29.62,75.4,42.3,71l.34.12A22,22,0,0,0,50,72.33a22.32,22.32,0,1,0,0-44.64Z"/><path class="cls-5" d="M29,76.94a2,2,0,0,1-1.27-.47,1.92,1.92,0,0,1-.63-1.83L29.32,63A24.31,24.31,0,1,1,41.8,72.57L29.67,76.83A2.05,2.05,0,0,1,29,76.94ZM49.52,27.19A22.35,22.35,0,0,0,27.2,49.51a22.11,22.11,0,0,0,4,12.73l.24.35L29.12,74.9,41.8,70.45l.34.12a22,22,0,0,0,7.38,1.26,22.32,22.32,0,1,0,0-44.64Z"/><path class="cls-5" d="M28.53,76.44A2,2,0,0,1,27.26,76a1.92,1.92,0,0,1-.63-1.83l2.19-11.6A24.31,24.31,0,1,1,41.3,72.07L29.17,76.33A2.05,2.05,0,0,1,28.53,76.44ZM49,26.69A22.35,22.35,0,0,0,26.7,49a22.11,22.11,0,0,0,4,12.73l.24.35L28.62,74.4,41.3,70l.34.12A22,22,0,0,0,49,71.33a22.32,22.32,0,1,0,0-44.64Z"/><path class="cls-5" d="M28,75.94a2,2,0,0,1-1.27-.47,1.92,1.92,0,0,1-.63-1.83L28.32,62A24.31,24.31,0,1,1,40.8,71.57L28.67,75.83A2.05,2.05,0,0,1,28,75.94ZM48.52,26.19A22.35,22.35,0,0,0,26.2,48.51a22.11,22.11,0,0,0,4,12.73l.24.35L28.12,73.9,40.8,69.45l.34.12a22,22,0,0,0,7.38,1.26,22.32,22.32,0,1,0,0-44.64Z"/><path class="cls-5" d="M27.53,75.44A2,2,0,0,1,26.26,75a1.92,1.92,0,0,1-.63-1.83l2.19-11.6A24.31,24.31,0,1,1,40.3,71.07L28.17,75.33A2.05,2.05,0,0,1,27.53,75.44ZM48,25.69A22.35,22.35,0,0,0,25.7,48a22.11,22.11,0,0,0,4,12.73l.24.35L27.62,73.4,40.3,69l.34.12A22,22,0,0,0,48,70.33a22.32,22.32,0,1,0,0-44.64Z"/><path class="cls-5" d="M27,74.94a2,2,0,0,1-1.27-.47,1.92,1.92,0,0,1-.63-1.83L27.32,61A24.31,24.31,0,1,1,39.8,70.57L27.67,74.83A2.05,2.05,0,0,1,27,74.94ZM47.52,25.19A22.35,22.35,0,0,0,25.2,47.51a22.11,22.11,0,0,0,4,12.73l.24.35L27.12,72.9,39.8,68.45l.34.12a22,22,0,0,0,7.38,1.26,22.32,22.32,0,1,0,0-44.64Z"/><path class="cls-5" d="M26.53,74.44A2,2,0,0,1,25.26,74a1.92,1.92,0,0,1-.63-1.83l2.19-11.6A24.31,24.31,0,1,1,39.3,70.07L27.17,74.33A2.05,2.05,0,0,1,26.53,74.44ZM47,24.69A22.35,22.35,0,0,0,24.7,47a22.11,22.11,0,0,0,4,12.73l.24.35L26.62,72.4,39.3,68l.34.12A22,22,0,0,0,47,69.33a22.32,22.32,0,1,0,0-44.64Z"/><path class="cls-5" d="M26,73.94a2,2,0,0,1-1.27-.47,1.92,1.92,0,0,1-.63-1.83L26.32,60A24.31,24.31,0,1,1,38.8,69.57L26.67,73.83A2.05,2.05,0,0,1,26,73.94ZM46.52,24.19A22.35,22.35,0,0,0,24.2,46.51a22.11,22.11,0,0,0,4,12.73l.24.35L26.12,71.9,38.8,67.45l.34.12a22,22,0,0,0,7.38,1.26,22.32,22.32,0,1,0,0-44.64Z"/><path class="cls-5" d="M25.53,73.44A2,2,0,0,1,24.26,73a1.92,1.92,0,0,1-.63-1.83l2.19-11.6A24.31,24.31,0,1,1,38.3,69.07L26.17,73.33A2.05,2.05,0,0,1,25.53,73.44ZM46,23.69A22.35,22.35,0,0,0,23.7,46a22.11,22.11,0,0,0,4,12.73l.24.35L25.62,71.4,38.3,67l.34.12A22,22,0,0,0,46,68.33a22.32,22.32,0,1,0,0-44.64Z"/><path class="cls-5" d="M25,72.94a2,2,0,0,1-1.27-.47,1.92,1.92,0,0,1-.63-1.83L25.32,59A24.31,24.31,0,1,1,37.8,68.57L25.67,72.83A2.05,2.05,0,0,1,25,72.94ZM45.52,23.19A22.35,22.35,0,0,0,23.2,45.51a22.11,22.11,0,0,0,4,12.73l.24.35L25.12,70.9,37.8,66.45l.34.12a22,22,0,0,0,7.38,1.26,22.32,22.32,0,1,0,0-44.64Z"/><path class="cls-5" d="M24.53,72.44A2,2,0,0,1,23.26,72a1.92,1.92,0,0,1-.63-1.83l2.19-11.6A24.31,24.31,0,1,1,37.3,68.07L25.17,72.33A2.05,2.05,0,0,1,24.53,72.44ZM45,22.69A22.35,22.35,0,0,0,22.7,45a22.11,22.11,0,0,0,4,12.73l.24.35L24.62,70.4,37.3,66l.34.12A22,22,0,0,0,45,67.33a22.32,22.32,0,1,0,0-44.64Z"/><path class="cls-5" d="M24,71.94a2,2,0,0,1-1.27-.47,1.92,1.92,0,0,1-.63-1.83L24.32,58A24.31,24.31,0,1,1,36.8,67.57L24.67,71.83A2.05,2.05,0,0,1,24,71.94ZM44.52,22.19A22.35,22.35,0,0,0,22.2,44.51a22.11,22.11,0,0,0,4,12.73l.24.35L24.12,69.9,36.8,65.45l.34.12a22,22,0,0,0,7.38,1.26,22.32,22.32,0,1,0,0-44.64Z"/><path class="cls-5" d="M23.53,71.44A2,2,0,0,1,22.26,71a1.92,1.92,0,0,1-.63-1.83l2.19-11.6A24.31,24.31,0,1,1,36.3,67.07L24.17,71.33A2.05,2.05,0,0,1,23.53,71.44ZM44,21.69A22.35,22.35,0,0,0,21.7,44a22.11,22.11,0,0,0,4,12.73l.24.35L23.62,69.4,36.3,65l.34.12A22,22,0,0,0,44,66.33a22.32,22.32,0,1,0,0-44.64Z"/><path class="cls-5" d="M23,70.94a2,2,0,0,1-1.27-.47,1.92,1.92,0,0,1-.63-1.83L23.32,57A24.31,24.31,0,1,1,35.8,66.57L23.67,70.83A2.05,2.05,0,0,1,23,70.94ZM43.52,21.19A22.35,22.35,0,0,0,21.2,43.51a22.11,22.11,0,0,0,4,12.73l.24.35L23.12,68.9,35.8,64.45l.34.12a22,22,0,0,0,7.38,1.26,22.32,22.32,0,1,0,0-44.64Z"/><path class="cls-5" d="M22.53,70.44A2,2,0,0,1,21.26,70a1.92,1.92,0,0,1-.63-1.83l2.19-11.6A24.31,24.31,0,1,1,35.3,66.07L23.17,70.33A2.05,2.05,0,0,1,22.53,70.44ZM43,20.69A22.35,22.35,0,0,0,20.7,43a22.11,22.11,0,0,0,4,12.73l.24.35L22.62,68.4,35.3,64l.34.12A22,22,0,0,0,43,65.33a22.32,22.32,0,1,0,0-44.64Z"/><path class="cls-5" d="M22,69.94a2,2,0,0,1-1.27-.47,1.92,1.92,0,0,1-.63-1.83L22.32,56A24.31,24.31,0,1,1,34.8,65.57L22.67,69.83A2.05,2.05,0,0,1,22,69.94ZM42.52,20.19A22.35,22.35,0,0,0,20.2,42.51a22.11,22.11,0,0,0,4,12.73l.24.35L22.12,67.9,34.8,63.45l.34.12a22,22,0,0,0,7.38,1.26,22.32,22.32,0,1,0,0-44.64Z"/><path class="cls-5" d="M21.53,69.44A2,2,0,0,1,20.26,69a1.92,1.92,0,0,1-.63-1.83l2.19-11.6A24.31,24.31,0,1,1,34.3,65.07L22.17,69.33A2.05,2.05,0,0,1,21.53,69.44ZM42,19.69A22.35,22.35,0,0,0,19.7,42a22.11,22.11,0,0,0,4,12.73l.24.35L21.62,67.4,34.3,63l.34.12A22,22,0,0,0,42,64.33a22.32,22.32,0,1,0,0-44.64Z"/><path class="cls-5" d="M21,68.94a2,2,0,0,1-1.27-.47,1.92,1.92,0,0,1-.63-1.83L21.32,55A24.31,24.31,0,1,1,33.8,64.57L21.67,68.83A2.05,2.05,0,0,1,21,68.94ZM41.52,19.19A22.35,22.35,0,0,0,19.2,41.51a22.11,22.11,0,0,0,4,12.73l.24.35L21.12,66.9,33.8,62.45l.34.12a22,22,0,0,0,7.38,1.26,22.32,22.32,0,1,0,0-44.64Z"/><path class="cls-5" d="M20.53,68.44A2,2,0,0,1,19.26,68a1.92,1.92,0,0,1-.63-1.83l2.19-11.6A24.31,24.31,0,1,1,33.3,64.07L21.17,68.33A2.05,2.05,0,0,1,20.53,68.44ZM41,18.69A22.35,22.35,0,0,0,18.7,41a22.11,22.11,0,0,0,4,12.73l.24.35L20.62,66.4,33.3,62l.34.12A22,22,0,0,0,41,63.33a22.32,22.32,0,1,0,0-44.64Z"/><path class="cls-5" d="M20,67.94a2,2,0,0,1-1.27-.47,1.92,1.92,0,0,1-.63-1.83L20.32,54A24.31,24.31,0,1,1,32.8,63.57L20.67,67.83A2.05,2.05,0,0,1,20,67.94ZM40.52,18.19A22.35,22.35,0,0,0,18.2,40.51a22.11,22.11,0,0,0,4,12.73l.24.35L20.12,65.9,32.8,61.45l.34.12a22,22,0,0,0,7.38,1.26,22.32,22.32,0,1,0,0-44.64Z"/><path class="cls-5" d="M19.53,67.44A2,2,0,0,1,18.26,67a1.92,1.92,0,0,1-.63-1.83l2.19-11.6A24.31,24.31,0,1,1,32.3,63.07L20.17,67.33A2.05,2.05,0,0,1,19.53,67.44ZM40,17.69A22.35,22.35,0,0,0,17.7,40a22.11,22.11,0,0,0,4,12.73l.24.35L19.62,65.4,32.3,61l.34.12A22,22,0,0,0,40,62.33a22.32,22.32,0,1,0,0-44.64Z"/><path class="cls-5" d="M19,66.94a2,2,0,0,1-1.27-.47,1.92,1.92,0,0,1-.63-1.83L19.32,53A24.31,24.31,0,1,1,31.8,62.57L19.67,66.83A2.05,2.05,0,0,1,19,66.94ZM39.52,17.19A22.35,22.35,0,0,0,17.2,39.51a22.11,22.11,0,0,0,4,12.73l.24.35L19.12,64.9,31.8,60.45l.34.12a22,22,0,0,0,7.38,1.26,22.32,22.32,0,1,0,0-44.64Z"/><path class="cls-5" d="M18.53,66.44A2,2,0,0,1,17.26,66a1.92,1.92,0,0,1-.63-1.83l2.19-11.6A24.31,24.31,0,1,1,31.3,62.07L19.17,66.33A2.05,2.05,0,0,1,18.53,66.44ZM39,16.69A22.35,22.35,0,0,0,16.7,39a22.11,22.11,0,0,0,4,12.73l.24.35L18.62,64.4,31.3,60l.34.12A22,22,0,0,0,39,61.33a22.32,22.32,0,1,0,0-44.64Z"/><path class="cls-5" d="M18,65.94a2,2,0,0,1-1.27-.47,1.92,1.92,0,0,1-.63-1.83L18.32,52A24.31,24.31,0,1,1,30.8,61.57L18.67,65.83A2.05,2.05,0,0,1,18,65.94ZM38.52,16.19A22.35,22.35,0,0,0,16.2,38.51a22.11,22.11,0,0,0,4,12.73l.24.35L18.12,63.9,30.8,59.45l.34.12a22,22,0,0,0,7.38,1.26,22.32,22.32,0,1,0,0-44.64Z"/><path class="cls-5" d="M17.53,65.44A2,2,0,0,1,16.26,65a1.92,1.92,0,0,1-.63-1.83l2.19-11.6A24.31,24.31,0,1,1,30.3,61.07L18.17,65.33A2.05,2.05,0,0,1,17.53,65.44ZM38,15.69A22.35,22.35,0,0,0,15.7,38a22.11,22.11,0,0,0,4,12.73l.24.35L17.62,63.4,30.3,59l.34.12A22,22,0,0,0,38,60.33a22.32,22.32,0,0,0,0-44.64Z"/><path class="cls-5" d="M17,64.94a2,2,0,0,1-1.27-.47,1.92,1.92,0,0,1-.63-1.83L17.32,51A24.31,24.31,0,1,1,29.8,60.57L17.67,64.83A2.05,2.05,0,0,1,17,64.94ZM37.52,15.19A22.35,22.35,0,0,0,15.2,37.51a22.11,22.11,0,0,0,4,12.73l.24.35L17.12,62.9,29.8,58.45l.34.12a22,22,0,0,0,7.38,1.26,22.32,22.32,0,0,0,0-44.64Z"/><path class="cls-5" d="M16.53,64.44A2,2,0,0,1,15.26,64a1.92,1.92,0,0,1-.63-1.83l2.19-11.6A24.31,24.31,0,1,1,29.3,60.07L17.17,64.33A2.05,2.05,0,0,1,16.53,64.44ZM37,14.69A22.35,22.35,0,0,0,14.7,37a22.11,22.11,0,0,0,4,12.73l.24.35L16.62,62.4,29.3,58l.34.12A22,22,0,0,0,37,59.33a22.32,22.32,0,0,0,0-44.64Z"/><path class="cls-5" d="M16,63.94a2,2,0,0,1-1.27-.47,1.92,1.92,0,0,1-.63-1.83L16.32,50A24.31,24.31,0,1,1,28.8,59.57L16.67,63.83A2.05,2.05,0,0,1,16,63.94ZM36.52,14.19A22.35,22.35,0,0,0,14.2,36.51a22.11,22.11,0,0,0,4,12.73l.24.35L16.12,61.9,28.8,57.45l.34.12a22,22,0,0,0,7.38,1.26,22.32,22.32,0,0,0,0-44.64Z"/><path class="cls-5" d="M15.53,63.44A2,2,0,0,1,14.26,63a1.92,1.92,0,0,1-.63-1.83l2.19-11.6A24.31,24.31,0,1,1,28.3,59.07L16.17,63.33A2.05,2.05,0,0,1,15.53,63.44ZM36,13.69A22.35,22.35,0,0,0,13.7,36a22.11,22.11,0,0,0,4,12.73l.24.35L15.62,61.4,28.3,57l.34.12A22,22,0,0,0,36,58.33a22.32,22.32,0,0,0,0-44.64Z"/><path class="cls-5" d="M15,62.94a2,2,0,0,1-1.27-.47,1.92,1.92,0,0,1-.63-1.83L15.32,49A24.31,24.31,0,1,1,27.8,58.57L15.67,62.83A2.05,2.05,0,0,1,15,62.94ZM35.52,13.19A22.35,22.35,0,0,0,13.2,35.51a22.11,22.11,0,0,0,4,12.73l.24.35L15.12,60.9,27.8,56.45l.34.12a22,22,0,0,0,7.38,1.26,22.32,22.32,0,0,0,0-44.64Z"/><path class="cls-5" d="M14.53,62.44A2,2,0,0,1,13.26,62a1.92,1.92,0,0,1-.63-1.83l2.19-11.6A24.31,24.31,0,1,1,27.3,58.07L15.17,62.33A2.05,2.05,0,0,1,14.53,62.44ZM35,12.69A22.35,22.35,0,0,0,12.7,35a22.11,22.11,0,0,0,4,12.73l.24.35L14.62,60.4,27.3,56l.34.12A22,22,0,0,0,35,57.33a22.32,22.32,0,0,0,0-44.64Z"/><path class="cls-5" d="M14,61.94a2,2,0,0,1-1.27-.47,1.92,1.92,0,0,1-.63-1.83L14.32,48A24.31,24.31,0,1,1,26.8,57.57L14.67,61.83A2.05,2.05,0,0,1,14,61.94ZM34.52,12.19A22.35,22.35,0,0,0,12.2,34.51a22.11,22.11,0,0,0,4,12.73l.24.35L14.12,59.9,26.8,55.45l.34.12a22,22,0,0,0,7.38,1.26,22.32,22.32,0,0,0,0-44.64Z"/><path class="cls-5" d="M13.53,61.44A2,2,0,0,1,12.26,61a1.92,1.92,0,0,1-.63-1.83l2.19-11.6A24.31,24.31,0,1,1,26.3,57.07L14.17,61.33A2.05,2.05,0,0,1,13.53,61.44ZM34,11.69A22.35,22.35,0,0,0,11.7,34a22.11,22.11,0,0,0,4,12.73l.24.35L13.62,59.4,26.3,55l.34.12A22,22,0,0,0,34,56.33a22.32,22.32,0,0,0,0-44.64Z"/><path class="cls-5" d="M13,60.94a2,2,0,0,1-1.27-.47,1.92,1.92,0,0,1-.63-1.83L13.32,47A24.31,24.31,0,1,1,25.8,56.57L13.67,60.83A2.05,2.05,0,0,1,13,60.94ZM33.52,11.19A22.35,22.35,0,0,0,11.2,33.51a22.11,22.11,0,0,0,4,12.73l.24.35L13.12,58.9,25.8,54.45l.34.12a22,22,0,0,0,7.38,1.26,22.32,22.32,0,0,0,0-44.64Z"/><path class="cls-5" d="M12.53,60.44A2,2,0,0,1,11.26,60a1.92,1.92,0,0,1-.63-1.83l2.19-11.6A24.31,24.31,0,1,1,25.3,56.07L13.17,60.33A2.05,2.05,0,0,1,12.53,60.44ZM33,10.69A22.35,22.35,0,0,0,10.7,33a22.11,22.11,0,0,0,4,12.73l.24.35L12.62,58.4,25.3,54l.34.12A22,22,0,0,0,33,55.33a22.32,22.32,0,0,0,0-44.64Z"/><path class="cls-5" d="M12,59.94a2,2,0,0,1-1.27-.47,1.92,1.92,0,0,1-.63-1.83L12.32,46A24.31,24.31,0,1,1,24.8,55.57L12.67,59.83A2.05,2.05,0,0,1,12,59.94ZM32.52,10.19A22.35,22.35,0,0,0,10.2,32.51a22.11,22.11,0,0,0,4,12.73l.24.35L12.12,57.9,24.8,53.45l.34.12a22,22,0,0,0,7.38,1.26,22.32,22.32,0,0,0,0-44.64Z"/><path class="cls-5" d="M11.53,59.44A2,2,0,0,1,10.26,59a1.92,1.92,0,0,1-.63-1.83l2.19-11.6A24.31,24.31,0,1,1,24.3,55.07L12.17,59.33A2.05,2.05,0,0,1,11.53,59.44ZM32,9.69A22.35,22.35,0,0,0,9.7,32a22.11,22.11,0,0,0,4,12.73l.24.35L11.62,57.4,24.3,53l.34.12A22,22,0,0,0,32,54.33,22.32,22.32,0,0,0,32,9.69Z"/><path class="cls-5" d="M11,58.94a2,2,0,0,1-1.27-.47,1.92,1.92,0,0,1-.63-1.83L11.32,45A24.31,24.31,0,1,1,23.8,54.57L11.67,58.83A2.05,2.05,0,0,1,11,58.94ZM31.52,9.19A22.35,22.35,0,0,0,9.2,31.51a22.11,22.11,0,0,0,4,12.73l.24.35L11.12,56.9,23.8,52.45l.34.12a22,22,0,0,0,7.38,1.26,22.32,22.32,0,0,0,0-44.64Z"/><path class="cls-5" d="M10.53,58.44A2,2,0,0,1,9.26,58a1.92,1.92,0,0,1-.63-1.83l2.19-11.6A24.31,24.31,0,1,1,23.3,54.07L11.17,58.33A2.05,2.05,0,0,1,10.53,58.44ZM31,8.69A22.35,22.35,0,0,0,8.7,31a22.11,22.11,0,0,0,4,12.73l.24.35L10.62,56.4,23.3,52l.34.12A22,22,0,0,0,31,53.33,22.32,22.32,0,0,0,31,8.69Z"/><path class="cls-5" d="M10,57.94a2,2,0,0,1-1.27-.47,1.92,1.92,0,0,1-.63-1.83L10.32,44A24.31,24.31,0,1,1,22.8,53.57L10.67,57.83A2.05,2.05,0,0,1,10,57.94ZM30.52,8.19A22.35,22.35,0,0,0,8.2,30.51a22.11,22.11,0,0,0,4,12.73l.24.35L10.12,55.9,22.8,51.45l.34.12a22,22,0,0,0,7.38,1.26,22.32,22.32,0,0,0,0-44.64Z"/><path class="cls-5" d="M9.53,57.44A2,2,0,0,1,8.26,57a1.92,1.92,0,0,1-.63-1.83l2.19-11.6A24.31,24.31,0,1,1,22.3,53.07L10.17,57.33A2.05,2.05,0,0,1,9.53,57.44ZM30,7.69A22.35,22.35,0,0,0,7.7,30a22.11,22.11,0,0,0,4,12.73l.24.35L9.62,55.4,22.3,51l.34.12A22,22,0,0,0,30,52.33,22.32,22.32,0,0,0,30,7.69Z"/><path class="cls-5" d="M9,56.94a2,2,0,0,1-1.27-.47,1.92,1.92,0,0,1-.63-1.83L9.32,43A24.31,24.31,0,1,1,21.8,52.57L9.67,56.83A2.05,2.05,0,0,1,9,56.94ZM29.52,7.19A22.35,22.35,0,0,0,7.2,29.51a22.11,22.11,0,0,0,4,12.73l.24.35L9.12,54.9,21.8,50.45l.34.12a22,22,0,0,0,7.38,1.26,22.32,22.32,0,0,0,0-44.64Z"/><path class="cls-5" d="M8.53,56.44A2,2,0,0,1,7.26,56a1.92,1.92,0,0,1-.63-1.83l2.19-11.6A24.31,24.31,0,1,1,21.3,52.07L9.17,56.33A2.05,2.05,0,0,1,8.53,56.44ZM29,6.69A22.35,22.35,0,0,0,6.7,29a22.11,22.11,0,0,0,4,12.73l.24.35L8.62,54.4,21.3,50l.34.12A22,22,0,0,0,29,51.33,22.32,22.32,0,0,0,29,6.69Z"/><path class="cls-5" d="M8,55.94a2,2,0,0,1-1.27-.47,1.92,1.92,0,0,1-.63-1.83L8.32,42A24.31,24.31,0,1,1,20.8,51.57L8.67,55.83A2.05,2.05,0,0,1,8,55.94ZM28.52,6.19A22.35,22.35,0,0,0,6.2,28.51a22.11,22.11,0,0,0,4,12.73l.24.35L8.12,53.9,20.8,49.45l.34.12a22,22,0,0,0,7.38,1.26,22.32,22.32,0,0,0,0-44.64Z"/><path class="cls-5" d="M7.53,55.44A2,2,0,0,1,6.26,55a1.92,1.92,0,0,1-.63-1.83l2.19-11.6A24.31,24.31,0,1,1,20.3,51.07L8.17,55.33A2.05,2.05,0,0,1,7.53,55.44ZM28,5.69A22.35,22.35,0,0,0,5.7,28a22.11,22.11,0,0,0,4,12.73l.24.35L7.62,53.4,20.3,49l.34.12A22,22,0,0,0,28,50.33,22.32,22.32,0,0,0,28,5.69Z"/><path class="cls-5" d="M7,54.94a2,2,0,0,1-1.27-.47,1.92,1.92,0,0,1-.63-1.83L7.32,41A24.31,24.31,0,1,1,19.8,50.57L7.67,54.83A2.05,2.05,0,0,1,7,54.94ZM27.52,5.19A22.35,22.35,0,0,0,5.2,27.51a22.11,22.11,0,0,0,4,12.73l.24.35L7.12,52.9,19.8,48.45l.34.12a22,22,0,0,0,7.38,1.26,22.32,22.32,0,0,0,0-44.64Z"/><path class="cls-5" d="M6.53,54.44A2,2,0,0,1,5.26,54a1.92,1.92,0,0,1-.63-1.83l2.19-11.6A24.31,24.31,0,1,1,19.3,50.07L7.17,54.33A2.05,2.05,0,0,1,6.53,54.44ZM27,4.69A22.35,22.35,0,0,0,4.7,27a22.11,22.11,0,0,0,4,12.73l.24.35L6.62,52.4,19.3,48l.34.12A22,22,0,0,0,27,49.33,22.32,22.32,0,0,0,27,4.69Z"/><path class="cls-5" d="M6,53.94a2,2,0,0,1-1.27-.47,1.92,1.92,0,0,1-.63-1.83L6.32,40A24.31,24.31,0,1,1,18.8,49.57L6.67,53.83A2.05,2.05,0,0,1,6,53.94ZM26.52,4.19A22.35,22.35,0,0,0,4.2,26.51a22.11,22.11,0,0,0,4,12.73l.24.35L6.12,51.9,18.8,47.45l.34.12a22,22,0,0,0,7.38,1.26,22.32,22.32,0,0,0,0-44.64Z"/><path class="cls-5" d="M5.53,53.44A2,2,0,0,1,4.26,53a1.92,1.92,0,0,1-.63-1.83l2.19-11.6A24.31,24.31,0,1,1,18.3,49.07L6.17,53.33A2.05,2.05,0,0,1,5.53,53.44ZM26,3.69A22.35,22.35,0,0,0,3.7,26a22.11,22.11,0,0,0,4,12.73l.24.35L5.62,51.4,18.3,47l.34.12A22,22,0,0,0,26,48.33,22.32,22.32,0,0,0,26,3.69Z"/><path class="cls-5" d="M5,52.94a2,2,0,0,1-1.27-.47,1.92,1.92,0,0,1-.63-1.83L5.32,39A24.31,24.31,0,1,1,17.8,48.57L5.67,52.83A2.05,2.05,0,0,1,5,52.94ZM25.52,3.19A22.35,22.35,0,0,0,3.2,25.51a22.11,22.11,0,0,0,4,12.73l.24.35L5.12,50.9,17.8,46.45l.34.12a22,22,0,0,0,7.38,1.26,22.32,22.32,0,0,0,0-44.64Z"/><path class="cls-5" d="M4.53,52.44A2,2,0,0,1,3.26,52a1.92,1.92,0,0,1-.63-1.83l2.19-11.6A24.31,24.31,0,1,1,17.3,48.07L5.17,52.33A2.05,2.05,0,0,1,4.53,52.44ZM25,2.69A22.35,22.35,0,0,0,2.7,25a22.11,22.11,0,0,0,4,12.73l.24.35L4.62,50.4,17.3,46l.34.12A22,22,0,0,0,25,47.33,22.32,22.32,0,0,0,25,2.69Z"/><path class="cls-5" d="M4,51.94a2,2,0,0,1-1.27-.47,1.92,1.92,0,0,1-.63-1.83L4.32,38A24.31,24.31,0,1,1,16.8,47.57L4.67,51.83A2.05,2.05,0,0,1,4,51.94ZM24.52,2.19A22.35,22.35,0,0,0,2.2,24.51a22.11,22.11,0,0,0,4,12.73l.24.35L4.12,49.9,16.8,45.45l.34.12a22,22,0,0,0,7.38,1.26,22.32,22.32,0,0,0,0-44.64Z"/></g><path class="cls-6" d="M4,51.94a2,2,0,0,1-1.27-.47,1.92,1.92,0,0,1-.63-1.83L4.32,38A24.31,24.31,0,1,1,16.8,47.57L4.67,51.83A2.05,2.05,0,0,1,4,51.94ZM24.52,2.19A22.35,22.35,0,0,0,2.2,24.51a22.11,22.11,0,0,0,4,12.73l.24.35L4.12,49.9,16.8,45.45l.34.12a22,22,0,0,0,7.38,1.26,22.32,22.32,0,0,0,0-44.64Z"/><path class="cls-5" d="M29.85,35.31l.69.38c-1.1.43-2,.76-2.62,1a7.15,7.15,0,0,1-2.28.34,4.58,4.58,0,0,1-3.09-1,3.16,3.16,0,0,1-1.1-2.46,9.64,9.64,0,0,1,.08-1.19c.06-.4.15-.86.27-1.37l1.37-4.84q.18-.69.3-1.32a5.3,5.3,0,0,0,.13-1.13,1.8,1.8,0,0,0-.38-1.3,3,3,0,0,0-1.74-.51,3.8,3.8,0,0,0-1.09.17c-.37.11-.69.22-1,.32l-.92-.53c.89-.36,1.75-.67,2.57-.93a7.68,7.68,0,0,1,2.33-.39,4.45,4.45,0,0,1,3,.95A3.18,3.18,0,0,1,27.52,24c0,.21,0,.58-.07,1.11a7,7,0,0,1-.28,1.46l-1.36,4.82c-.11.39-.21.83-.3,1.33a6.89,6.89,0,0,0-.13,1.13A1.86,1.86,0,0,0,26,35.24a3.74,3.74,0,0,0,1.87.55,4.42,4.42,0,0,0,1.12-.17,6.08,6.08,0,0,0,.91-.31Z"/><path class="cls-6" d="M29.85,35.31l.69.38c-1.1.43-2,.76-2.62,1a7.15,7.15,0,0,1-2.28.34,4.58,4.58,0,0,1-3.09-1,3.16,3.16,0,0,1-1.1-2.46,9.64,9.64,0,0,1,.08-1.19c.06-.4.15-.86.27-1.37l1.37-4.84q.18-.69.3-1.32a5.3,5.3,0,0,0,.13-1.13,1.8,1.8,0,0,0-.38-1.3,3,3,0,0,0-1.74-.51,3.8,3.8,0,0,0-1.09.17c-.37.11-.69.22-1,.32l-.92-.53c.89-.36,1.75-.67,2.57-.93a7.68,7.68,0,0,1,2.33-.39,4.45,4.45,0,0,1,3,.95A3.18,3.18,0,0,1,27.52,24c0,.21,0,.58-.07,1.11a7,7,0,0,1-.28,1.46l-1.36,4.82c-.11.39-.21.83-.3,1.33a6.89,6.89,0,0,0-.13,1.13A1.86,1.86,0,0,0,26,35.24a3.74,3.74,0,0,0,1.87.55,4.42,4.42,0,0,0,1.12-.17,6.08,6.08,0,0,0,.91-.31Z"/><path class="cls-6" d="M27.78,14.78a2.85,2.85,0,0,1-1,2.15,3.42,3.42,0,0,1-4.6,0,2.87,2.87,0,0,1,0-4.3,3.39,3.39,0,0,1,4.6,0,2.85,2.85,0,0,1,1,2.15Z"/></g></g></g></svg>