<svg xmlns="http://www.w3.org/2000/svg" xmlns:xlink="http://www.w3.org/1999/xlink" viewBox="0 0 622.65 93.64"><defs><style>.cls-1{fill:none;}.cls-2{isolation:isolate;}.cls-3{fill:url(#Gradiente_sem_nome_5);}.cls-4{clip-path:url(#clip-path);}.cls-5{opacity:0.26;mix-blend-mode:multiply;}.cls-6{fill:#1c5c7f;}.cls-7{fill:#fff;}</style><radialGradient id="Gradiente_sem_nome_5" cx="153.03" cy="-299.43" fx="-215.05194116720088" fy="-331.8110588139469" r="475.41" gradientUnits="userSpaceOnUse"><stop offset="0.49" stop-color="#1a5e7c"/><stop offset="0.72" stop-color="#1c607e"/><stop offset="0.83" stop-color="#246585"/><stop offset="0.92" stop-color="#316e90"/><stop offset="0.99" stop-color="#437ba0"/></radialGradient><clipPath id="clip-path"><path class="cls-1" d="M.49,93V10.67a10,10,0,0,1,10-10H612.16a10,10,0,0,1,10,10V93Z"/></clipPath></defs><title>TOPO_Assuntos_Diversos</title><g class="cls-2"><g id="Camada_1" data-name="Camada 1"><path class="cls-3" d="M.49,93V10.67a10,10,0,0,1,10-10H612.16a10,10,0,0,1,10,10V93Z"/><g class="cls-4"><g class="cls-5"><path class="cls-6" d="M585.35,122.69a1.93,1.93,0,0,1-1.9-2.29l2.19-11.6a24.06,24.06,0,0,1-4.12-13.53,24.32,24.32,0,1,1,24.31,24.31,24.09,24.09,0,0,1-7.71-1.25L586,122.58A1.8,1.8,0,0,1,585.35,122.69ZM605.83,73a22.34,22.34,0,0,0-22.31,22.32,22.06,22.06,0,0,0,4,12.73l.24.35-2.32,12.31,12.68-4.45.33.12A22.32,22.32,0,1,0,605.83,73Z"/><path class="cls-6" d="M584.85,122.19a1.93,1.93,0,0,1-1.9-2.29l2.19-11.6A24.06,24.06,0,0,1,581,94.77a24.32,24.32,0,1,1,24.31,24.31,24.09,24.09,0,0,1-7.71-1.25l-12.13,4.25A1.8,1.8,0,0,1,584.85,122.19Zm20.48-49.74A22.34,22.34,0,0,0,583,94.77a22.06,22.06,0,0,0,4,12.73l.24.35-2.32,12.31,12.68-4.45.33.12a22.32,22.32,0,1,0,7.38-43.38Z"/><path class="cls-6" d="M584.35,121.69a1.93,1.93,0,0,1-1.9-2.29l2.19-11.6a24.06,24.06,0,0,1-4.12-13.53,24.32,24.32,0,1,1,24.31,24.31,24.09,24.09,0,0,1-7.71-1.25L585,121.58A1.8,1.8,0,0,1,584.35,121.69ZM604.83,72a22.34,22.34,0,0,0-22.31,22.32,22.06,22.06,0,0,0,4,12.73l.24.35-2.32,12.31,12.68-4.45.33.12A22.32,22.32,0,1,0,604.83,72Z"/><path class="cls-6" d="M583.85,121.19a1.93,1.93,0,0,1-1.9-2.29l2.19-11.6A24.06,24.06,0,0,1,580,93.77a24.32,24.32,0,1,1,24.31,24.31,24.09,24.09,0,0,1-7.71-1.25l-12.13,4.25A1.8,1.8,0,0,1,583.85,121.19Zm20.48-49.74A22.34,22.34,0,0,0,582,93.77a22.06,22.06,0,0,0,4,12.73l.24.35-2.32,12.31,12.68-4.45.33.12a22.32,22.32,0,1,0,7.38-43.38Z"/><path class="cls-6" d="M583.35,120.69a1.93,1.93,0,0,1-1.9-2.29l2.19-11.6a24.06,24.06,0,0,1-4.12-13.53,24.32,24.32,0,1,1,24.31,24.31,24.09,24.09,0,0,1-7.71-1.25L584,120.58A1.8,1.8,0,0,1,583.35,120.69ZM603.83,71a22.34,22.34,0,0,0-22.31,22.32,22.06,22.06,0,0,0,4,12.73l.24.35-2.32,12.31,12.68-4.45.33.12A22.32,22.32,0,1,0,603.83,71Z"/><path class="cls-6" d="M582.85,120.19a1.93,1.93,0,0,1-1.9-2.29l2.19-11.6A24.06,24.06,0,0,1,579,92.77a24.32,24.32,0,1,1,24.31,24.31,24.09,24.09,0,0,1-7.71-1.25l-12.13,4.25A1.8,1.8,0,0,1,582.85,120.19Zm20.48-49.74A22.34,22.34,0,0,0,581,92.77a22.06,22.06,0,0,0,4,12.73l.24.35-2.32,12.31,12.68-4.45.33.12a22.32,22.32,0,1,0,7.38-43.38Z"/><path class="cls-6" d="M582.35,119.69a1.93,1.93,0,0,1-1.9-2.29l2.19-11.6a24.06,24.06,0,0,1-4.12-13.53,24.32,24.32,0,1,1,24.31,24.31,24.09,24.09,0,0,1-7.71-1.25L583,119.58A1.8,1.8,0,0,1,582.35,119.69ZM602.83,70a22.34,22.34,0,0,0-22.31,22.32,22.06,22.06,0,0,0,4,12.73l.24.35-2.32,12.31,12.68-4.45.33.12A22.32,22.32,0,1,0,602.83,70Z"/><path class="cls-6" d="M581.85,119.19a1.93,1.93,0,0,1-1.9-2.29l2.19-11.6A24.06,24.06,0,0,1,578,91.77a24.32,24.32,0,1,1,24.31,24.31,24.09,24.09,0,0,1-7.71-1.25l-12.13,4.25A1.8,1.8,0,0,1,581.85,119.19Zm20.48-49.74A22.34,22.34,0,0,0,580,91.77a22.06,22.06,0,0,0,4,12.73l.24.35-2.32,12.31,12.68-4.45.33.12a22.32,22.32,0,1,0,7.38-43.38Z"/><path class="cls-6" d="M581.35,118.69a1.93,1.93,0,0,1-1.9-2.29l2.19-11.6a24.06,24.06,0,0,1-4.12-13.53,24.32,24.32,0,1,1,24.31,24.31,24.09,24.09,0,0,1-7.71-1.25L582,118.58A1.8,1.8,0,0,1,581.35,118.69ZM601.83,69a22.34,22.34,0,0,0-22.31,22.32,22.06,22.06,0,0,0,4,12.73l.24.35-2.32,12.31,12.68-4.45.33.12A22.32,22.32,0,1,0,601.83,69Z"/><path class="cls-6" d="M580.85,118.19a1.93,1.93,0,0,1-1.9-2.29l2.19-11.6A24.06,24.06,0,0,1,577,90.77a24.32,24.32,0,1,1,24.31,24.31,24.09,24.09,0,0,1-7.71-1.25l-12.13,4.25A1.8,1.8,0,0,1,580.85,118.19Zm20.48-49.74A22.34,22.34,0,0,0,579,90.77a22.06,22.06,0,0,0,4,12.73l.24.35-2.32,12.31,12.68-4.45.33.12a22.32,22.32,0,1,0,7.38-43.38Z"/><path class="cls-6" d="M580.35,117.69a1.93,1.93,0,0,1-1.9-2.29l2.19-11.6a24.06,24.06,0,0,1-4.12-13.53,24.32,24.32,0,1,1,24.31,24.31,24.09,24.09,0,0,1-7.71-1.25L581,117.58A1.8,1.8,0,0,1,580.35,117.69ZM600.83,68a22.34,22.34,0,0,0-22.31,22.32,22.06,22.06,0,0,0,4,12.73l.24.35-2.32,12.31,12.68-4.45.33.12A22.32,22.32,0,1,0,600.83,68Z"/><path class="cls-6" d="M579.85,117.19a1.93,1.93,0,0,1-1.9-2.29l2.19-11.6A24.06,24.06,0,0,1,576,89.77a24.32,24.32,0,1,1,24.31,24.31,24.09,24.09,0,0,1-7.71-1.25l-12.13,4.25A1.8,1.8,0,0,1,579.85,117.19Zm20.48-49.74A22.34,22.34,0,0,0,578,89.77a22.06,22.06,0,0,0,4,12.73l.24.35-2.32,12.31,12.68-4.45.33.12a22.32,22.32,0,1,0,7.38-43.38Z"/><path class="cls-6" d="M579.35,116.69a1.93,1.93,0,0,1-1.9-2.29l2.19-11.6a24.06,24.06,0,0,1-4.12-13.53,24.32,24.32,0,1,1,24.31,24.31,24.09,24.09,0,0,1-7.71-1.25L580,116.58A1.8,1.8,0,0,1,579.35,116.69ZM599.83,67a22.34,22.34,0,0,0-22.31,22.32,22.06,22.06,0,0,0,4,12.73l.24.35-2.32,12.31,12.68-4.45.33.12A22.32,22.32,0,1,0,599.83,67Z"/><path class="cls-6" d="M578.85,116.19a1.93,1.93,0,0,1-1.9-2.29l2.19-11.6A24.06,24.06,0,0,1,575,88.77a24.32,24.32,0,1,1,24.31,24.31,24.09,24.09,0,0,1-7.71-1.25l-12.13,4.25A1.8,1.8,0,0,1,578.85,116.19Zm20.48-49.74A22.34,22.34,0,0,0,577,88.77a22.06,22.06,0,0,0,4,12.73l.24.35-2.32,12.31,12.68-4.45.33.12a22.32,22.32,0,1,0,7.38-43.38Z"/><path class="cls-6" d="M578.35,115.69a1.93,1.93,0,0,1-1.9-2.29l2.19-11.6a24.06,24.06,0,0,1-4.12-13.53,24.32,24.32,0,1,1,24.31,24.31,24.09,24.09,0,0,1-7.71-1.25L579,115.58A1.8,1.8,0,0,1,578.35,115.69ZM598.83,66a22.34,22.34,0,0,0-22.31,22.32,22.06,22.06,0,0,0,4,12.73l.24.35-2.32,12.31,12.68-4.45.33.12A22.32,22.32,0,1,0,598.83,66Z"/><path class="cls-6" d="M577.85,115.19a1.93,1.93,0,0,1-1.9-2.29l2.19-11.6A24.06,24.06,0,0,1,574,87.77a24.32,24.32,0,1,1,24.31,24.31,24.09,24.09,0,0,1-7.71-1.25l-12.13,4.25A1.8,1.8,0,0,1,577.85,115.19Zm20.48-49.74A22.34,22.34,0,0,0,576,87.77a22.06,22.06,0,0,0,4,12.73l.24.35-2.32,12.31,12.68-4.45.33.12a22.32,22.32,0,1,0,7.38-43.38Z"/><path class="cls-6" d="M577.35,114.69a1.93,1.93,0,0,1-1.9-2.29l2.19-11.6a24.06,24.06,0,0,1-4.12-13.53,24.32,24.32,0,1,1,24.31,24.31,24.09,24.09,0,0,1-7.71-1.25L578,114.58A1.8,1.8,0,0,1,577.35,114.69ZM597.83,65a22.34,22.34,0,0,0-22.31,22.32,22.06,22.06,0,0,0,4,12.73l.24.35-2.32,12.31,12.68-4.45.33.12A22.32,22.32,0,1,0,597.83,65Z"/><path class="cls-6" d="M576.85,114.19a1.93,1.93,0,0,1-1.9-2.29l2.19-11.6A24.06,24.06,0,0,1,573,86.77a24.32,24.32,0,1,1,24.31,24.31,24.09,24.09,0,0,1-7.71-1.25l-12.13,4.25A1.8,1.8,0,0,1,576.85,114.19Zm20.48-49.74A22.34,22.34,0,0,0,575,86.77a22.06,22.06,0,0,0,4,12.73l.24.35-2.32,12.31,12.68-4.45.33.12a22.32,22.32,0,1,0,7.38-43.38Z"/><path class="cls-6" d="M576.35,113.69a1.93,1.93,0,0,1-1.9-2.29l2.19-11.6a24.06,24.06,0,0,1-4.12-13.53,24.32,24.32,0,1,1,24.31,24.31,24.09,24.09,0,0,1-7.71-1.25L577,113.58A1.8,1.8,0,0,1,576.35,113.69ZM596.83,64a22.34,22.34,0,0,0-22.31,22.32,22.06,22.06,0,0,0,4,12.73l.24.35-2.32,12.31,12.68-4.45.33.12A22.32,22.32,0,1,0,596.83,64Z"/><path class="cls-6" d="M575.85,113.19a1.93,1.93,0,0,1-1.9-2.29l2.19-11.6A24.06,24.06,0,0,1,572,85.77a24.32,24.32,0,1,1,24.31,24.31,24.09,24.09,0,0,1-7.71-1.25l-12.13,4.25A1.8,1.8,0,0,1,575.85,113.19Zm20.48-49.74A22.34,22.34,0,0,0,574,85.77a22.06,22.06,0,0,0,4,12.73l.24.35-2.32,12.31,12.68-4.45.33.12a22.32,22.32,0,1,0,7.38-43.38Z"/><path class="cls-6" d="M575.35,112.69a1.93,1.93,0,0,1-1.9-2.29l2.19-11.6a24.06,24.06,0,0,1-4.12-13.53,24.32,24.32,0,1,1,24.31,24.31,24.09,24.09,0,0,1-7.71-1.25L576,112.58A1.8,1.8,0,0,1,575.35,112.69ZM595.83,63a22.34,22.34,0,0,0-22.31,22.32,22.06,22.06,0,0,0,4,12.73l.24.35-2.32,12.31,12.68-4.45.33.12A22.32,22.32,0,1,0,595.83,63Z"/><path class="cls-6" d="M574.85,112.19a1.93,1.93,0,0,1-1.9-2.29l2.19-11.6A24.06,24.06,0,0,1,571,84.77a24.32,24.32,0,1,1,24.31,24.31,24.09,24.09,0,0,1-7.71-1.25l-12.13,4.25A1.8,1.8,0,0,1,574.85,112.19Zm20.48-49.74A22.34,22.34,0,0,0,573,84.77a22.06,22.06,0,0,0,4,12.73l.24.35-2.32,12.31,12.68-4.45.33.12a22.32,22.32,0,1,0,7.38-43.38Z"/><path class="cls-6" d="M574.35,111.69a1.93,1.93,0,0,1-1.9-2.29l2.19-11.6a24.06,24.06,0,0,1-4.12-13.53,24.32,24.32,0,1,1,24.31,24.31,24.09,24.09,0,0,1-7.71-1.25L575,111.58A1.8,1.8,0,0,1,574.35,111.69ZM594.83,62a22.34,22.34,0,0,0-22.31,22.32,22.06,22.06,0,0,0,4,12.73l.24.35-2.32,12.31,12.68-4.45.33.12A22.32,22.32,0,1,0,594.83,62Z"/><path class="cls-6" d="M573.85,111.19a1.93,1.93,0,0,1-1.9-2.29l2.19-11.6A24.06,24.06,0,0,1,570,83.77a24.32,24.32,0,1,1,24.31,24.31,24.09,24.09,0,0,1-7.71-1.25l-12.13,4.25A1.8,1.8,0,0,1,573.85,111.19Zm20.48-49.74A22.34,22.34,0,0,0,572,83.77a22.06,22.06,0,0,0,4,12.73l.24.35-2.32,12.31,12.68-4.45.33.12a22.32,22.32,0,1,0,7.38-43.38Z"/><path class="cls-6" d="M573.35,110.69a1.93,1.93,0,0,1-1.9-2.29l2.19-11.6a24.06,24.06,0,0,1-4.12-13.53,24.32,24.32,0,1,1,24.31,24.31,24.09,24.09,0,0,1-7.71-1.25L574,110.58A1.8,1.8,0,0,1,573.35,110.69ZM593.83,61a22.34,22.34,0,0,0-22.31,22.32,22.06,22.06,0,0,0,4,12.73l.24.35-2.32,12.31,12.68-4.45.33.12A22.32,22.32,0,1,0,593.83,61Z"/><path class="cls-6" d="M572.85,110.19a1.93,1.93,0,0,1-1.9-2.29l2.19-11.6A24.06,24.06,0,0,1,569,82.77a24.32,24.32,0,1,1,24.31,24.31,24.09,24.09,0,0,1-7.71-1.25l-12.13,4.25A1.8,1.8,0,0,1,572.85,110.19Zm20.48-49.74A22.34,22.34,0,0,0,571,82.77a22.06,22.06,0,0,0,4,12.73l.24.35-2.32,12.31,12.68-4.45.33.12a22.32,22.32,0,1,0,7.38-43.38Z"/><path class="cls-6" d="M572.35,109.69a1.93,1.93,0,0,1-1.9-2.29l2.19-11.6a24.06,24.06,0,0,1-4.12-13.53,24.32,24.32,0,1,1,24.31,24.31,24.09,24.09,0,0,1-7.71-1.25L573,109.58A1.8,1.8,0,0,1,572.35,109.69ZM592.83,60a22.34,22.34,0,0,0-22.31,22.32,22.06,22.06,0,0,0,4,12.73l.24.35-2.32,12.31,12.68-4.45.33.12A22.32,22.32,0,1,0,592.83,60Z"/><path class="cls-6" d="M571.85,109.19a1.93,1.93,0,0,1-1.9-2.29l2.19-11.6A24.06,24.06,0,0,1,568,81.77a24.32,24.32,0,1,1,24.31,24.31,24.09,24.09,0,0,1-7.71-1.25l-12.13,4.25A1.8,1.8,0,0,1,571.85,109.19Zm20.48-49.74A22.34,22.34,0,0,0,570,81.77a22.06,22.06,0,0,0,4,12.73l.24.35-2.32,12.31,12.68-4.45.33.12a22.32,22.32,0,1,0,7.38-43.38Z"/><path class="cls-6" d="M571.35,108.69a1.93,1.93,0,0,1-1.9-2.29l2.19-11.6a24.06,24.06,0,0,1-4.12-13.53,24.32,24.32,0,1,1,24.31,24.31,24.09,24.09,0,0,1-7.71-1.25L572,108.58A1.8,1.8,0,0,1,571.35,108.69ZM591.83,59a22.34,22.34,0,0,0-22.31,22.32,22.06,22.06,0,0,0,4,12.73l.24.35-2.32,12.31,12.68-4.45.33.12A22.32,22.32,0,1,0,591.83,59Z"/><path class="cls-6" d="M570.85,108.19a1.93,1.93,0,0,1-1.9-2.29l2.19-11.6A24.06,24.06,0,0,1,567,80.77a24.32,24.32,0,1,1,24.31,24.31,24.09,24.09,0,0,1-7.71-1.25l-12.13,4.25A1.8,1.8,0,0,1,570.85,108.19Zm20.48-49.74A22.34,22.34,0,0,0,569,80.77a22.06,22.06,0,0,0,4,12.73l.24.35-2.32,12.31,12.68-4.45.33.12a22.32,22.32,0,1,0,7.38-43.38Z"/><path class="cls-6" d="M570.35,107.69a1.93,1.93,0,0,1-1.9-2.29l2.19-11.6a24.06,24.06,0,0,1-4.12-13.53,24.32,24.32,0,1,1,24.31,24.31,24.09,24.09,0,0,1-7.71-1.25L571,107.58A1.8,1.8,0,0,1,570.35,107.69ZM590.83,58a22.34,22.34,0,0,0-22.31,22.32,22.06,22.06,0,0,0,4,12.73l.24.35-2.32,12.31,12.68-4.45.33.12A22.32,22.32,0,1,0,590.83,58Z"/><path class="cls-6" d="M569.85,107.19a1.93,1.93,0,0,1-1.9-2.29l2.19-11.6A24.06,24.06,0,0,1,566,79.77a24.32,24.32,0,1,1,24.31,24.31,24.09,24.09,0,0,1-7.71-1.25l-12.13,4.25A1.8,1.8,0,0,1,569.85,107.19Zm20.48-49.74A22.34,22.34,0,0,0,568,79.77a22.06,22.06,0,0,0,4,12.73l.24.35-2.32,12.31,12.68-4.45.33.12a22.32,22.32,0,1,0,7.38-43.38Z"/><path class="cls-6" d="M569.35,106.69a1.93,1.93,0,0,1-1.9-2.29l2.19-11.6a24.06,24.06,0,0,1-4.12-13.53,24.32,24.32,0,1,1,24.31,24.31,24.09,24.09,0,0,1-7.71-1.25L570,106.58A1.8,1.8,0,0,1,569.35,106.69ZM589.83,57a22.34,22.34,0,0,0-22.31,22.32,22.06,22.06,0,0,0,4,12.73l.24.35-2.32,12.31,12.68-4.45.33.12A22.32,22.32,0,1,0,589.83,57Z"/><path class="cls-6" d="M568.85,106.19a1.93,1.93,0,0,1-1.9-2.29l2.19-11.6A24.06,24.06,0,0,1,565,78.77a24.32,24.32,0,1,1,24.31,24.31,24.09,24.09,0,0,1-7.71-1.25l-12.13,4.25A1.8,1.8,0,0,1,568.85,106.19Zm20.48-49.74A22.34,22.34,0,0,0,567,78.77a22.06,22.06,0,0,0,4,12.73l.24.35-2.32,12.31,12.68-4.45.33.12a22.32,22.32,0,1,0,7.38-43.38Z"/><path class="cls-6" d="M568.35,105.69a1.93,1.93,0,0,1-1.9-2.29l2.19-11.6a24.06,24.06,0,0,1-4.12-13.53,24.32,24.32,0,1,1,24.31,24.31,24.09,24.09,0,0,1-7.71-1.25L569,105.58A1.8,1.8,0,0,1,568.35,105.69ZM588.83,56a22.34,22.34,0,0,0-22.31,22.32,22.06,22.06,0,0,0,4,12.73l.24.35-2.32,12.31,12.68-4.45.33.12A22.32,22.32,0,1,0,588.83,56Z"/><path class="cls-6" d="M567.85,105.19a1.93,1.93,0,0,1-1.9-2.29l2.19-11.6A24.06,24.06,0,0,1,564,77.77a24.32,24.32,0,1,1,24.31,24.31,24.09,24.09,0,0,1-7.71-1.25l-12.13,4.25A1.8,1.8,0,0,1,567.85,105.19Zm20.48-49.74A22.34,22.34,0,0,0,566,77.77a22.06,22.06,0,0,0,4,12.73l.24.35-2.32,12.31,12.68-4.45.33.12a22.32,22.32,0,1,0,7.38-43.38Z"/><path class="cls-6" d="M567.35,104.69a1.93,1.93,0,0,1-1.9-2.29l2.19-11.6a24.06,24.06,0,0,1-4.12-13.53,24.32,24.32,0,1,1,24.31,24.31,24.09,24.09,0,0,1-7.71-1.25L568,104.58A1.8,1.8,0,0,1,567.35,104.69ZM587.83,55a22.34,22.34,0,0,0-22.31,22.32,22.06,22.06,0,0,0,4,12.73l.24.35-2.32,12.31,12.68-4.45.33.12A22.32,22.32,0,1,0,587.83,55Z"/><path class="cls-6" d="M566.85,104.19a1.93,1.93,0,0,1-1.9-2.29l2.19-11.6A24.06,24.06,0,0,1,563,76.77a24.32,24.32,0,1,1,24.31,24.31,24.09,24.09,0,0,1-7.71-1.25l-12.13,4.25A1.8,1.8,0,0,1,566.85,104.19Zm20.48-49.74A22.34,22.34,0,0,0,565,76.77a22.06,22.06,0,0,0,4,12.73l.24.35-2.32,12.31,12.68-4.45.33.12a22.32,22.32,0,1,0,7.38-43.38Z"/><path class="cls-6" d="M566.35,103.69a1.93,1.93,0,0,1-1.9-2.29l2.19-11.6a24.06,24.06,0,0,1-4.12-13.53,24.32,24.32,0,1,1,24.31,24.31,24.09,24.09,0,0,1-7.71-1.25L567,103.58A1.8,1.8,0,0,1,566.35,103.69ZM586.83,54a22.34,22.34,0,0,0-22.31,22.32,22.06,22.06,0,0,0,4,12.73l.24.35-2.32,12.31,12.68-4.45.33.12A22.32,22.32,0,1,0,586.83,54Z"/><path class="cls-6" d="M565.85,103.19a1.93,1.93,0,0,1-1.9-2.29l2.19-11.6A24.06,24.06,0,0,1,562,75.77a24.32,24.32,0,1,1,24.31,24.31,24.09,24.09,0,0,1-7.71-1.25l-12.13,4.25A1.8,1.8,0,0,1,565.85,103.19Zm20.48-49.74A22.34,22.34,0,0,0,564,75.77a22.06,22.06,0,0,0,4,12.73l.24.35-2.32,12.31,12.68-4.45.33.12a22.32,22.32,0,1,0,7.38-43.38Z"/><path class="cls-6" d="M565.35,102.69a1.93,1.93,0,0,1-1.9-2.29l2.19-11.6a24.06,24.06,0,0,1-4.12-13.53,24.32,24.32,0,1,1,24.31,24.31,24.09,24.09,0,0,1-7.71-1.25L566,102.58A1.8,1.8,0,0,1,565.35,102.69ZM585.83,53a22.34,22.34,0,0,0-22.31,22.32,22.06,22.06,0,0,0,4,12.73l.24.35-2.32,12.31,12.68-4.45.33.12A22.32,22.32,0,1,0,585.83,53Z"/><path class="cls-6" d="M564.85,102.19A1.93,1.93,0,0,1,563,99.9l2.19-11.6A24.06,24.06,0,0,1,561,74.77a24.32,24.32,0,1,1,24.31,24.31,24.09,24.09,0,0,1-7.71-1.25l-12.13,4.25A1.8,1.8,0,0,1,564.85,102.19Zm20.48-49.74A22.34,22.34,0,0,0,563,74.77a22.06,22.06,0,0,0,4,12.73l.24.35-2.32,12.31,12.68-4.45.33.12a22.32,22.32,0,1,0,7.38-43.38Z"/><path class="cls-6" d="M564.35,101.69a1.93,1.93,0,0,1-1.9-2.29l2.19-11.6a24.06,24.06,0,0,1-4.12-13.53,24.32,24.32,0,1,1,24.31,24.31,24.09,24.09,0,0,1-7.71-1.25L565,101.58A1.8,1.8,0,0,1,564.35,101.69ZM584.83,52a22.34,22.34,0,0,0-22.31,22.32,22.06,22.06,0,0,0,4,12.73l.24.35-2.32,12.31,12.68-4.45.33.12A22.32,22.32,0,1,0,584.83,52Z"/><path class="cls-6" d="M563.85,101.19A1.93,1.93,0,0,1,562,98.9l2.19-11.6A24.06,24.06,0,0,1,560,73.77a24.32,24.32,0,1,1,24.31,24.31,24.09,24.09,0,0,1-7.71-1.25l-12.13,4.25A1.8,1.8,0,0,1,563.85,101.19Zm20.48-49.74A22.34,22.34,0,0,0,562,73.77a22.06,22.06,0,0,0,4,12.73l.24.35-2.32,12.31,12.68-4.45.33.12a22.32,22.32,0,1,0,7.38-43.38Z"/><path class="cls-6" d="M563.35,100.69a1.93,1.93,0,0,1-1.9-2.29l2.19-11.6a24.06,24.06,0,0,1-4.12-13.53,24.32,24.32,0,1,1,24.31,24.31,24.09,24.09,0,0,1-7.71-1.25L564,100.58A1.8,1.8,0,0,1,563.35,100.69ZM583.83,51a22.34,22.34,0,0,0-22.31,22.32,22.06,22.06,0,0,0,4,12.73l.24.35-2.32,12.31,12.68-4.45.33.12A22.32,22.32,0,1,0,583.83,51Z"/><path class="cls-6" d="M562.85,100.19A1.93,1.93,0,0,1,561,97.9l2.19-11.6A24.06,24.06,0,0,1,559,72.77a24.32,24.32,0,1,1,24.31,24.31,24.09,24.09,0,0,1-7.71-1.25l-12.13,4.25A1.8,1.8,0,0,1,562.85,100.19Zm20.48-49.74A22.34,22.34,0,0,0,561,72.77a22.06,22.06,0,0,0,4,12.73l.24.35-2.32,12.31,12.68-4.45.33.12a22.32,22.32,0,1,0,7.38-43.38Z"/><path class="cls-6" d="M562.35,99.69a1.93,1.93,0,0,1-1.9-2.29l2.19-11.6a24.06,24.06,0,0,1-4.12-13.53,24.32,24.32,0,1,1,24.31,24.31,24.09,24.09,0,0,1-7.71-1.25L563,99.58A1.8,1.8,0,0,1,562.35,99.69ZM582.83,50a22.34,22.34,0,0,0-22.31,22.32,22.06,22.06,0,0,0,4,12.73l.24.35-2.32,12.31,12.68-4.45.33.12A22.32,22.32,0,1,0,582.83,50Z"/><path class="cls-6" d="M561.85,99.19A1.93,1.93,0,0,1,560,96.9l2.19-11.6A24.06,24.06,0,0,1,558,71.77a24.32,24.32,0,1,1,24.31,24.31,24.09,24.09,0,0,1-7.71-1.25l-12.13,4.25A1.8,1.8,0,0,1,561.85,99.19Zm20.48-49.74A22.34,22.34,0,0,0,560,71.77a22.06,22.06,0,0,0,4,12.73l.24.35-2.32,12.31,12.68-4.45.33.12a22.32,22.32,0,1,0,7.38-43.38Z"/><path class="cls-6" d="M561.35,98.69a1.93,1.93,0,0,1-1.9-2.29l2.19-11.6a24.06,24.06,0,0,1-4.12-13.53,24.32,24.32,0,1,1,24.31,24.31,24.09,24.09,0,0,1-7.71-1.25L562,98.58A1.8,1.8,0,0,1,561.35,98.69ZM581.83,49a22.34,22.34,0,0,0-22.31,22.32,22.06,22.06,0,0,0,4,12.73l.24.35-2.32,12.31,12.68-4.45.33.12A22.32,22.32,0,1,0,581.83,49Z"/><path class="cls-6" d="M560.85,98.19A1.93,1.93,0,0,1,559,95.9l2.19-11.6A24.06,24.06,0,0,1,557,70.77a24.32,24.32,0,1,1,24.31,24.31,24.09,24.09,0,0,1-7.71-1.25l-12.13,4.25A1.8,1.8,0,0,1,560.85,98.19Zm20.48-49.74A22.34,22.34,0,0,0,559,70.77a22.06,22.06,0,0,0,4,12.73l.24.35-2.32,12.31,12.68-4.45.33.12a22.32,22.32,0,1,0,7.38-43.38Z"/><path class="cls-6" d="M560.35,97.69a1.93,1.93,0,0,1-1.9-2.29l2.19-11.6a24.06,24.06,0,0,1-4.12-13.53,24.32,24.32,0,1,1,24.31,24.31,24.09,24.09,0,0,1-7.71-1.25L561,97.58A1.8,1.8,0,0,1,560.35,97.69ZM580.83,48a22.34,22.34,0,0,0-22.31,22.32,22.06,22.06,0,0,0,4,12.73l.24.35-2.32,12.31,12.68-4.45.33.12A22.32,22.32,0,1,0,580.83,48Z"/><path class="cls-6" d="M559.85,97.19A1.93,1.93,0,0,1,558,94.9l2.19-11.6A24.06,24.06,0,0,1,556,69.77a24.32,24.32,0,1,1,24.31,24.31,24.09,24.09,0,0,1-7.71-1.25l-12.13,4.25A1.8,1.8,0,0,1,559.85,97.19Zm20.48-49.74A22.34,22.34,0,0,0,558,69.77a22.06,22.06,0,0,0,4,12.73l.24.35-2.32,12.31,12.68-4.45.33.12a22.32,22.32,0,1,0,7.38-43.38Z"/><path class="cls-6" d="M559.35,96.69a1.93,1.93,0,0,1-1.9-2.29l2.19-11.6a24.06,24.06,0,0,1-4.12-13.53,24.32,24.32,0,1,1,24.31,24.31,24.09,24.09,0,0,1-7.71-1.25L560,96.58A1.8,1.8,0,0,1,559.35,96.69ZM579.83,47a22.34,22.34,0,0,0-22.31,22.32,22.06,22.06,0,0,0,4,12.73l.24.35-2.32,12.31,12.68-4.45.33.12A22.32,22.32,0,1,0,579.83,47Z"/><path class="cls-6" d="M558.85,96.19A1.93,1.93,0,0,1,557,93.9l2.19-11.6A24.06,24.06,0,0,1,555,68.77a24.32,24.32,0,1,1,24.31,24.31,24.09,24.09,0,0,1-7.71-1.25l-12.13,4.25A1.8,1.8,0,0,1,558.85,96.19Zm20.48-49.74A22.34,22.34,0,0,0,557,68.77a22.06,22.06,0,0,0,4,12.73l.24.35-2.32,12.31,12.68-4.45.33.12a22.32,22.32,0,1,0,7.38-43.38Z"/><path class="cls-6" d="M558.35,95.69a1.93,1.93,0,0,1-1.9-2.29l2.19-11.6a24.06,24.06,0,0,1-4.12-13.53,24.32,24.32,0,1,1,24.31,24.31,24.09,24.09,0,0,1-7.71-1.25L559,95.58A1.8,1.8,0,0,1,558.35,95.69ZM578.83,46a22.34,22.34,0,0,0-22.31,22.32,22.06,22.06,0,0,0,4,12.73l.24.35-2.32,12.31,12.68-4.45.33.12A22.32,22.32,0,1,0,578.83,46Z"/><path class="cls-6" d="M557.85,95.19A1.93,1.93,0,0,1,556,92.9l2.19-11.6A24.06,24.06,0,0,1,554,67.77a24.32,24.32,0,1,1,24.31,24.31,24.09,24.09,0,0,1-7.71-1.25l-12.13,4.25A1.8,1.8,0,0,1,557.85,95.19Zm20.48-49.74A22.34,22.34,0,0,0,556,67.77a22.06,22.06,0,0,0,4,12.73l.24.35-2.32,12.31,12.68-4.45.33.12a22.32,22.32,0,1,0,7.38-43.38Z"/><path class="cls-6" d="M557.35,94.69a1.93,1.93,0,0,1-1.9-2.29l2.19-11.6a24.06,24.06,0,0,1-4.12-13.53,24.32,24.32,0,1,1,24.31,24.31,24.09,24.09,0,0,1-7.71-1.25L558,94.58A1.8,1.8,0,0,1,557.35,94.69ZM577.83,45a22.34,22.34,0,0,0-22.31,22.32,22.06,22.06,0,0,0,4,12.73l.24.35-2.32,12.31,12.68-4.45.33.12A22.32,22.32,0,1,0,577.83,45Z"/><path class="cls-6" d="M556.85,94.19A1.93,1.93,0,0,1,555,91.9l2.19-11.6A24.06,24.06,0,0,1,553,66.77a24.32,24.32,0,1,1,24.31,24.31,24.09,24.09,0,0,1-7.71-1.25l-12.13,4.25A1.8,1.8,0,0,1,556.85,94.19Zm20.48-49.74A22.34,22.34,0,0,0,555,66.77a22.06,22.06,0,0,0,4,12.73l.24.35-2.32,12.31,12.68-4.45.33.12a22.32,22.32,0,1,0,7.38-43.38Z"/><path class="cls-6" d="M556.35,93.69a1.93,1.93,0,0,1-1.9-2.29l2.19-11.6a24.06,24.06,0,0,1-4.12-13.53,24.32,24.32,0,1,1,24.31,24.31,24.09,24.09,0,0,1-7.71-1.25L557,93.58A1.8,1.8,0,0,1,556.35,93.69ZM576.83,44a22.34,22.34,0,0,0-22.31,22.32,22.06,22.06,0,0,0,4,12.73l.24.35-2.32,12.31,12.68-4.45.33.12A22.32,22.32,0,1,0,576.83,44Z"/><path class="cls-6" d="M555.85,93.19A1.93,1.93,0,0,1,554,90.9l2.19-11.6A24.06,24.06,0,0,1,552,65.77a24.32,24.32,0,1,1,24.31,24.31,24.09,24.09,0,0,1-7.71-1.25l-12.13,4.25A1.8,1.8,0,0,1,555.85,93.19Zm20.48-49.74A22.34,22.34,0,0,0,554,65.77a22.06,22.06,0,0,0,4,12.73l.24.35-2.32,12.31,12.68-4.45.33.12a22.32,22.32,0,1,0,7.38-43.38Z"/><path class="cls-6" d="M555.35,92.69a1.93,1.93,0,0,1-1.9-2.29l2.19-11.6a24.06,24.06,0,0,1-4.12-13.53,24.32,24.32,0,1,1,24.31,24.31,24.09,24.09,0,0,1-7.71-1.25L556,92.58A1.8,1.8,0,0,1,555.35,92.69ZM575.83,43a22.34,22.34,0,0,0-22.31,22.32,22.06,22.06,0,0,0,4,12.73l.24.35-2.32,12.31,12.68-4.45.33.12A22.32,22.32,0,1,0,575.83,43Z"/><path class="cls-6" d="M554.85,92.19A1.93,1.93,0,0,1,553,89.9l2.19-11.6A24.06,24.06,0,0,1,551,64.77a24.32,24.32,0,1,1,24.31,24.31,24.09,24.09,0,0,1-7.71-1.25l-12.13,4.25A1.8,1.8,0,0,1,554.85,92.19Zm20.48-49.74A22.34,22.34,0,0,0,553,64.77a22.06,22.06,0,0,0,4,12.73l.24.35-2.32,12.31,12.68-4.45.33.12a22.32,22.32,0,1,0,7.38-43.38Z"/><path class="cls-6" d="M554.35,91.69a1.93,1.93,0,0,1-1.9-2.29l2.19-11.6a24.06,24.06,0,0,1-4.12-13.53,24.32,24.32,0,1,1,24.31,24.31,24.09,24.09,0,0,1-7.71-1.25L555,91.58A1.8,1.8,0,0,1,554.35,91.69ZM574.83,42a22.34,22.34,0,0,0-22.31,22.32,22.06,22.06,0,0,0,4,12.73l.24.35-2.32,12.31,12.68-4.45.33.12A22.32,22.32,0,1,0,574.83,42Z"/><path class="cls-6" d="M553.85,91.19A1.93,1.93,0,0,1,552,88.9l2.19-11.6A24.06,24.06,0,0,1,550,63.77a24.32,24.32,0,1,1,24.31,24.31,24.09,24.09,0,0,1-7.71-1.25l-12.13,4.25A1.8,1.8,0,0,1,553.85,91.19Zm20.48-49.74A22.34,22.34,0,0,0,552,63.77a22.06,22.06,0,0,0,4,12.73l.24.35-2.32,12.31,12.68-4.45.33.12a22.32,22.32,0,1,0,7.38-43.38Z"/><path class="cls-6" d="M553.35,90.69a1.93,1.93,0,0,1-1.9-2.29l2.19-11.6a24.06,24.06,0,0,1-4.12-13.53,24.32,24.32,0,1,1,24.31,24.31,24.09,24.09,0,0,1-7.71-1.25L554,90.58A1.8,1.8,0,0,1,553.35,90.69ZM573.83,41a22.34,22.34,0,0,0-22.31,22.32,22.06,22.06,0,0,0,4,12.73l.24.35-2.32,12.31,12.68-4.45.33.12A22.32,22.32,0,1,0,573.83,41Z"/><path class="cls-6" d="M552.85,90.19A1.93,1.93,0,0,1,551,87.9l2.19-11.6A24.06,24.06,0,0,1,549,62.77a24.32,24.32,0,1,1,24.31,24.31,24.09,24.09,0,0,1-7.71-1.25l-12.13,4.25A1.8,1.8,0,0,1,552.85,90.19Zm20.48-49.74A22.34,22.34,0,0,0,551,62.77a22.06,22.06,0,0,0,4,12.73l.24.35-2.32,12.31,12.68-4.45.33.12a22.32,22.32,0,1,0,7.38-43.38Z"/><path class="cls-6" d="M552.35,89.69a1.93,1.93,0,0,1-1.9-2.29l2.19-11.6a24.06,24.06,0,0,1-4.12-13.53,24.32,24.32,0,1,1,24.31,24.31,24.09,24.09,0,0,1-7.71-1.25L553,89.58A1.8,1.8,0,0,1,552.35,89.69ZM572.83,40a22.34,22.34,0,0,0-22.31,22.32,22.06,22.06,0,0,0,4,12.73l.24.35-2.32,12.31,12.68-4.45.33.12A22.32,22.32,0,1,0,572.83,40Z"/><path class="cls-6" d="M551.85,89.19A1.93,1.93,0,0,1,550,86.9l2.19-11.6A24.06,24.06,0,0,1,548,61.77a24.32,24.32,0,1,1,24.31,24.31,24.09,24.09,0,0,1-7.71-1.25l-12.13,4.25A1.8,1.8,0,0,1,551.85,89.19Zm20.48-49.74A22.34,22.34,0,0,0,550,61.77a22.06,22.06,0,0,0,4,12.73l.24.35-2.32,12.31,12.68-4.45.33.12a22.32,22.32,0,1,0,7.38-43.38Z"/><path class="cls-6" d="M551.35,88.69a1.93,1.93,0,0,1-1.9-2.29l2.19-11.6a24.06,24.06,0,0,1-4.12-13.53,24.32,24.32,0,1,1,24.31,24.31,24.09,24.09,0,0,1-7.71-1.25L552,88.58A1.8,1.8,0,0,1,551.35,88.69ZM571.83,39a22.34,22.34,0,0,0-22.31,22.32,22.06,22.06,0,0,0,4,12.73l.24.35-2.32,12.31,12.68-4.45.33.12A22.32,22.32,0,1,0,571.83,39Z"/><path class="cls-6" d="M550.85,88.19A1.93,1.93,0,0,1,549,85.9l2.19-11.6A24.06,24.06,0,0,1,547,60.77a24.32,24.32,0,1,1,24.31,24.31,24.09,24.09,0,0,1-7.71-1.25l-12.13,4.25A1.8,1.8,0,0,1,550.85,88.19Zm20.48-49.74A22.34,22.34,0,0,0,549,60.77a22.06,22.06,0,0,0,4,12.73l.24.35-2.32,12.31,12.68-4.45.33.12a22.32,22.32,0,1,0,7.38-43.38Z"/><path class="cls-6" d="M550.35,87.69a1.93,1.93,0,0,1-1.9-2.29l2.19-11.6a24.06,24.06,0,0,1-4.12-13.53,24.32,24.32,0,1,1,24.31,24.31,24.09,24.09,0,0,1-7.71-1.25L551,87.58A1.8,1.8,0,0,1,550.35,87.69ZM570.83,38a22.34,22.34,0,0,0-22.31,22.32,22.06,22.06,0,0,0,4,12.73l.24.35-2.32,12.31,12.68-4.45.33.12A22.32,22.32,0,1,0,570.83,38Z"/><path class="cls-6" d="M549.85,87.19A1.93,1.93,0,0,1,548,84.9l2.19-11.6A24.06,24.06,0,0,1,546,59.77a24.32,24.32,0,1,1,24.31,24.31,24.09,24.09,0,0,1-7.71-1.25l-12.13,4.25A1.8,1.8,0,0,1,549.85,87.19Zm20.48-49.74A22.34,22.34,0,0,0,548,59.77a22.06,22.06,0,0,0,4,12.73l.24.35-2.32,12.31,12.68-4.45.33.12a22.32,22.32,0,1,0,7.38-43.38Z"/><path class="cls-6" d="M549.35,86.69a1.93,1.93,0,0,1-1.9-2.29l2.19-11.6a24.06,24.06,0,0,1-4.12-13.53,24.32,24.32,0,1,1,24.31,24.31,24.09,24.09,0,0,1-7.71-1.25L550,86.58A1.8,1.8,0,0,1,549.35,86.69ZM569.83,37a22.34,22.34,0,0,0-22.31,22.32,22.06,22.06,0,0,0,4,12.73l.24.35-2.32,12.31,12.68-4.45.33.12A22.32,22.32,0,1,0,569.83,37Z"/><path class="cls-6" d="M548.85,86.19A1.93,1.93,0,0,1,547,83.9l2.19-11.6A24.06,24.06,0,0,1,545,58.77a24.32,24.32,0,1,1,24.31,24.31,24.09,24.09,0,0,1-7.71-1.25l-12.13,4.25A1.8,1.8,0,0,1,548.85,86.19Zm20.48-49.74A22.34,22.34,0,0,0,547,58.77a22.06,22.06,0,0,0,4,12.73l.24.35-2.32,12.31,12.68-4.45.33.12a22.32,22.32,0,1,0,7.38-43.38Z"/><path class="cls-6" d="M548.35,85.69a1.93,1.93,0,0,1-1.9-2.29l2.19-11.6a24.06,24.06,0,0,1-4.12-13.53,24.32,24.32,0,1,1,24.31,24.31,24.09,24.09,0,0,1-7.71-1.25L549,85.58A1.8,1.8,0,0,1,548.35,85.69ZM568.83,36a22.34,22.34,0,0,0-22.31,22.32,22.06,22.06,0,0,0,4,12.73l.24.35-2.32,12.31,12.68-4.45.33.12A22.32,22.32,0,1,0,568.83,36Z"/><path class="cls-6" d="M547.85,85.19A1.93,1.93,0,0,1,546,82.9l2.19-11.6A24.06,24.06,0,0,1,544,57.77a24.32,24.32,0,1,1,24.31,24.31,24.09,24.09,0,0,1-7.71-1.25l-12.13,4.25A1.8,1.8,0,0,1,547.85,85.19Zm20.48-49.74A22.34,22.34,0,0,0,546,57.77a22.06,22.06,0,0,0,4,12.73l.24.35-2.32,12.31,12.68-4.45.33.12a22.32,22.32,0,1,0,7.38-43.38Z"/><path class="cls-6" d="M547.35,84.69a1.93,1.93,0,0,1-1.9-2.29l2.19-11.6a24.06,24.06,0,0,1-4.12-13.53,24.32,24.32,0,1,1,24.31,24.31,24.09,24.09,0,0,1-7.71-1.25L548,84.58A1.8,1.8,0,0,1,547.35,84.69ZM567.83,35a22.34,22.34,0,0,0-22.31,22.32,22.06,22.06,0,0,0,4,12.73l.24.35-2.32,12.31,12.68-4.45.33.12A22.32,22.32,0,1,0,567.83,35Z"/><path class="cls-6" d="M546.85,84.19A1.93,1.93,0,0,1,545,81.9l2.19-11.6A24.06,24.06,0,0,1,543,56.77a24.32,24.32,0,1,1,24.31,24.31,24.09,24.09,0,0,1-7.71-1.25l-12.13,4.25A1.8,1.8,0,0,1,546.85,84.19Zm20.48-49.74A22.34,22.34,0,0,0,545,56.77a22.06,22.06,0,0,0,4,12.73l.24.35-2.32,12.31,12.68-4.45.33.12a22.32,22.32,0,1,0,7.38-43.38Z"/><path class="cls-6" d="M546.35,83.69a1.93,1.93,0,0,1-1.9-2.29l2.19-11.6a24.06,24.06,0,0,1-4.12-13.53,24.32,24.32,0,1,1,24.31,24.31,24.09,24.09,0,0,1-7.71-1.25L547,83.58A1.8,1.8,0,0,1,546.35,83.69ZM566.83,34a22.34,22.34,0,0,0-22.31,22.32,22.06,22.06,0,0,0,4,12.73l.24.35-2.32,12.31,12.68-4.45.33.12A22.32,22.32,0,1,0,566.83,34Z"/><path class="cls-6" d="M545.85,83.19A1.93,1.93,0,0,1,544,80.9l2.19-11.6A24.06,24.06,0,0,1,542,55.77a24.32,24.32,0,1,1,24.31,24.31,24.09,24.09,0,0,1-7.71-1.25l-12.13,4.25A1.8,1.8,0,0,1,545.85,83.19Zm20.48-49.74A22.34,22.34,0,0,0,544,55.77a22.06,22.06,0,0,0,4,12.73l.24.35-2.32,12.31,12.68-4.45.33.12a22.32,22.32,0,1,0,7.38-43.38Z"/><path class="cls-6" d="M545.35,82.69a1.93,1.93,0,0,1-1.9-2.29l2.19-11.6a24.06,24.06,0,0,1-4.12-13.53,24.32,24.32,0,1,1,24.31,24.31,24.09,24.09,0,0,1-7.71-1.25L546,82.58A1.8,1.8,0,0,1,545.35,82.69ZM565.83,33a22.34,22.34,0,0,0-22.31,22.32,22.06,22.06,0,0,0,4,12.73l.24.35-2.32,12.31,12.68-4.45.33.12A22.32,22.32,0,1,0,565.83,33Z"/><path class="cls-6" d="M544.85,82.19A1.93,1.93,0,0,1,543,79.9l2.19-11.6A24.06,24.06,0,0,1,541,54.77a24.32,24.32,0,1,1,24.31,24.31,24.09,24.09,0,0,1-7.71-1.25l-12.13,4.25A1.8,1.8,0,0,1,544.85,82.19Zm20.48-49.74A22.34,22.34,0,0,0,543,54.77a22.06,22.06,0,0,0,4,12.73l.24.35-2.32,12.31,12.68-4.45.33.12a22.32,22.32,0,1,0,7.38-43.38Z"/><path class="cls-6" d="M544.35,81.69a1.93,1.93,0,0,1-1.9-2.29l2.19-11.6a24.06,24.06,0,0,1-4.12-13.53,24.32,24.32,0,1,1,24.31,24.31,24.09,24.09,0,0,1-7.71-1.25L545,81.58A1.8,1.8,0,0,1,544.35,81.69ZM564.83,32a22.34,22.34,0,0,0-22.31,22.32,22.06,22.06,0,0,0,4,12.73l.24.35-2.32,12.31,12.68-4.45.33.12A22.32,22.32,0,1,0,564.83,32Z"/><path class="cls-6" d="M543.85,81.19A1.93,1.93,0,0,1,542,78.9l2.19-11.6A24.06,24.06,0,0,1,540,53.77a24.32,24.32,0,1,1,24.31,24.31,24.09,24.09,0,0,1-7.71-1.25l-12.13,4.25A1.8,1.8,0,0,1,543.85,81.19Zm20.48-49.74A22.34,22.34,0,0,0,542,53.77a22.06,22.06,0,0,0,4,12.73l.24.35-2.32,12.31,12.68-4.45.33.12a22.32,22.32,0,1,0,7.38-43.38Z"/><path class="cls-6" d="M543.35,80.69a1.93,1.93,0,0,1-1.9-2.29l2.19-11.6a24.06,24.06,0,0,1-4.12-13.53,24.32,24.32,0,1,1,24.31,24.31,24.09,24.09,0,0,1-7.71-1.25L544,80.58A1.8,1.8,0,0,1,543.35,80.69ZM563.83,31a22.34,22.34,0,0,0-22.31,22.32,22.06,22.06,0,0,0,4,12.73l.24.35-2.32,12.31,12.68-4.45.33.12A22.32,22.32,0,1,0,563.83,31Z"/><path class="cls-6" d="M542.85,80.19A1.93,1.93,0,0,1,541,77.9l2.19-11.6A24.06,24.06,0,0,1,539,52.77a24.32,24.32,0,1,1,24.31,24.31,24.09,24.09,0,0,1-7.71-1.25l-12.13,4.25A1.8,1.8,0,0,1,542.85,80.19Zm20.48-49.74A22.34,22.34,0,0,0,541,52.77a22.06,22.06,0,0,0,4,12.73l.24.35-2.32,12.31,12.68-4.45.33.12a22.32,22.32,0,1,0,7.38-43.38Z"/><path class="cls-6" d="M542.35,79.69a1.93,1.93,0,0,1-1.9-2.29l2.19-11.6a24.06,24.06,0,0,1-4.12-13.53,24.32,24.32,0,1,1,24.31,24.31,24.09,24.09,0,0,1-7.71-1.25L543,79.58A1.8,1.8,0,0,1,542.35,79.69ZM562.83,30a22.34,22.34,0,0,0-22.31,22.32,22.06,22.06,0,0,0,4,12.73l.24.35-2.32,12.31,12.68-4.45.33.12A22.32,22.32,0,1,0,562.83,30Z"/><path class="cls-6" d="M541.85,79.19A1.93,1.93,0,0,1,540,76.9l2.19-11.6A24.06,24.06,0,0,1,538,51.77a24.32,24.32,0,1,1,24.31,24.31,24.09,24.09,0,0,1-7.71-1.25l-12.13,4.25A1.8,1.8,0,0,1,541.85,79.19Zm20.48-49.74A22.34,22.34,0,0,0,540,51.77a22.06,22.06,0,0,0,4,12.73l.24.35-2.32,12.31,12.68-4.45.33.12a22.32,22.32,0,1,0,7.38-43.38Z"/><path class="cls-6" d="M541.35,78.69a1.93,1.93,0,0,1-1.9-2.29l2.19-11.6a24.06,24.06,0,0,1-4.12-13.53,24.32,24.32,0,1,1,24.31,24.31,24.09,24.09,0,0,1-7.71-1.25L542,78.58A1.8,1.8,0,0,1,541.35,78.69ZM561.83,29a22.34,22.34,0,0,0-22.31,22.32,22.06,22.06,0,0,0,4,12.73l.24.35-2.32,12.31,12.68-4.45.33.12A22.32,22.32,0,1,0,561.83,29Z"/><path class="cls-6" d="M540.85,78.19A1.93,1.93,0,0,1,539,75.9l2.19-11.6A24.06,24.06,0,0,1,537,50.77a24.32,24.32,0,1,1,24.31,24.31,24.09,24.09,0,0,1-7.71-1.25l-12.13,4.25A1.8,1.8,0,0,1,540.85,78.19Zm20.48-49.74A22.34,22.34,0,0,0,539,50.77a22.06,22.06,0,0,0,4,12.73l.24.35-2.32,12.31,12.68-4.45.33.12a22.32,22.32,0,1,0,7.38-43.38Z"/><path class="cls-6" d="M540.35,77.69a1.93,1.93,0,0,1-1.9-2.29l2.19-11.6a24.06,24.06,0,0,1-4.12-13.53,24.32,24.32,0,1,1,24.31,24.31,24.09,24.09,0,0,1-7.71-1.25L541,77.58A1.8,1.8,0,0,1,540.35,77.69ZM560.83,28a22.34,22.34,0,0,0-22.31,22.32,22.06,22.06,0,0,0,4,12.73l.24.35-2.32,12.31,12.68-4.45.33.12A22.32,22.32,0,1,0,560.83,28Z"/><path class="cls-6" d="M539.85,77.19A1.93,1.93,0,0,1,538,74.9l2.19-11.6A24.06,24.06,0,0,1,536,49.77a24.32,24.32,0,1,1,24.31,24.31,24.09,24.09,0,0,1-7.71-1.25l-12.13,4.25A1.8,1.8,0,0,1,539.85,77.19Zm20.48-49.74A22.34,22.34,0,0,0,538,49.77a22.06,22.06,0,0,0,4,12.73l.24.35-2.32,12.31,12.68-4.45.33.12a22.32,22.32,0,1,0,7.38-43.38Z"/><path class="cls-6" d="M539.35,76.69a1.93,1.93,0,0,1-1.9-2.29l2.19-11.6a24.06,24.06,0,0,1-4.12-13.53,24.32,24.32,0,1,1,24.31,24.31,24.09,24.09,0,0,1-7.71-1.25L540,76.58A1.8,1.8,0,0,1,539.35,76.69ZM559.83,27a22.34,22.34,0,0,0-22.31,22.32,22.06,22.06,0,0,0,4,12.73l.24.35-2.32,12.31,12.68-4.45.33.12A22.32,22.32,0,1,0,559.83,27Z"/><path class="cls-6" d="M538.85,76.19A1.93,1.93,0,0,1,537,73.9l2.19-11.6A24.06,24.06,0,0,1,535,48.77a24.32,24.32,0,1,1,24.31,24.31,24.09,24.09,0,0,1-7.71-1.25l-12.13,4.25A1.8,1.8,0,0,1,538.85,76.19Zm20.48-49.74A22.34,22.34,0,0,0,537,48.77a22.06,22.06,0,0,0,4,12.73l.24.35-2.32,12.31,12.68-4.45.33.12a22.32,22.32,0,1,0,7.38-43.38Z"/><path class="cls-6" d="M538.35,75.69a1.93,1.93,0,0,1-1.9-2.29l2.19-11.6a24.06,24.06,0,0,1-4.12-13.53,24.32,24.32,0,1,1,24.31,24.31,24.09,24.09,0,0,1-7.71-1.25L539,75.58A1.8,1.8,0,0,1,538.35,75.69ZM558.83,26a22.34,22.34,0,0,0-22.31,22.32,22.06,22.06,0,0,0,4,12.73l.24.35-2.32,12.31,12.68-4.45.33.12A22.32,22.32,0,1,0,558.83,26Z"/><path class="cls-6" d="M537.85,75.19A1.93,1.93,0,0,1,536,72.9l2.19-11.6A24.06,24.06,0,0,1,534,47.77a24.32,24.32,0,1,1,24.31,24.31,24.09,24.09,0,0,1-7.71-1.25l-12.13,4.25A1.8,1.8,0,0,1,537.85,75.19Zm20.48-49.74A22.34,22.34,0,0,0,536,47.77a22.06,22.06,0,0,0,4,12.73l.24.35-2.32,12.31,12.68-4.45.33.12a22.32,22.32,0,1,0,7.38-43.38Z"/><path class="cls-6" d="M537.35,74.69a1.93,1.93,0,0,1-1.9-2.29l2.19-11.6a24.06,24.06,0,0,1-4.12-13.53,24.32,24.32,0,1,1,24.31,24.31,24.09,24.09,0,0,1-7.71-1.25L538,74.58A1.8,1.8,0,0,1,537.35,74.69ZM557.83,25a22.34,22.34,0,0,0-22.31,22.32,22.06,22.06,0,0,0,4,12.73l.24.35-2.32,12.31,12.68-4.45.33.12A22.32,22.32,0,1,0,557.83,25Z"/><path class="cls-6" d="M536.85,74.19A1.93,1.93,0,0,1,535,71.9l2.19-11.6A24.06,24.06,0,0,1,533,46.77a24.32,24.32,0,1,1,24.31,24.31,24.09,24.09,0,0,1-7.71-1.25l-12.13,4.25A1.8,1.8,0,0,1,536.85,74.19Zm20.48-49.74A22.34,22.34,0,0,0,535,46.77a22.06,22.06,0,0,0,4,12.73l.24.35-2.32,12.31,12.68-4.45.33.12a22.32,22.32,0,1,0,7.38-43.38Z"/><path class="cls-6" d="M536.35,73.69a1.93,1.93,0,0,1-1.9-2.29l2.19-11.6a24.06,24.06,0,0,1-4.12-13.53,24.32,24.32,0,1,1,24.31,24.31,24.09,24.09,0,0,1-7.71-1.25L537,73.58A1.8,1.8,0,0,1,536.35,73.69ZM556.83,24a22.34,22.34,0,0,0-22.31,22.32,22.06,22.06,0,0,0,4,12.73l.24.35-2.32,12.31,12.68-4.45.33.12A22.32,22.32,0,1,0,556.83,24Z"/><path class="cls-6" d="M535.85,73.19A1.93,1.93,0,0,1,534,70.9l2.19-11.6A24.06,24.06,0,0,1,532,45.77a24.32,24.32,0,1,1,24.31,24.31,24.09,24.09,0,0,1-7.71-1.25l-12.13,4.25A1.8,1.8,0,0,1,535.85,73.19Zm20.48-49.74A22.34,22.34,0,0,0,534,45.77a22.06,22.06,0,0,0,4,12.73l.24.35-2.32,12.31,12.68-4.45.33.12a22.32,22.32,0,1,0,7.38-43.38Z"/><path class="cls-6" d="M535.35,72.69a1.93,1.93,0,0,1-1.9-2.29l2.19-11.6a24.06,24.06,0,0,1-4.12-13.53,24.32,24.32,0,1,1,24.31,24.31,24.09,24.09,0,0,1-7.71-1.25L536,72.58A1.8,1.8,0,0,1,535.35,72.69ZM555.83,23a22.34,22.34,0,0,0-22.31,22.32,22.06,22.06,0,0,0,4,12.73l.24.35-2.32,12.31,12.68-4.45.33.12A22.32,22.32,0,1,0,555.83,23Z"/></g><path class="cls-7" d="M535.35,72.69a1.93,1.93,0,0,1-1.9-2.29l2.19-11.6a24.06,24.06,0,0,1-4.12-13.53,24.32,24.32,0,1,1,24.31,24.31,24.09,24.09,0,0,1-7.71-1.25L536,72.58A1.8,1.8,0,0,1,535.35,72.69ZM555.83,23a22.34,22.34,0,0,0-22.31,22.32,22.06,22.06,0,0,0,4,12.73l.24.35-2.32,12.31,12.68-4.45.33.12A22.32,22.32,0,1,0,555.83,23Z"/><path class="cls-6" d="M561.17,56.07l.68.38c-1.09.43-2,.76-2.62,1a6.82,6.82,0,0,1-2.27.34,4.51,4.51,0,0,1-3.09-1,3.1,3.1,0,0,1-1.1-2.46,8,8,0,0,1,.08-1.18,11,11,0,0,1,.27-1.37l1.36-4.85c.13-.46.23-.9.31-1.31a6.22,6.22,0,0,0,.13-1.14,1.71,1.71,0,0,0-.39-1.29,3,3,0,0,0-1.74-.51,3.79,3.79,0,0,0-1.08.17c-.38.11-.69.21-1,.31l-.93-.52c.9-.37,1.76-.68,2.58-.94a7.67,7.67,0,0,1,2.32-.39,4.43,4.43,0,0,1,3,1,3.17,3.17,0,0,1,1.07,2.48c0,.21,0,.58-.08,1.11a7.14,7.14,0,0,1-.27,1.46l-1.36,4.82c-.11.39-.21.83-.3,1.33a6.68,6.68,0,0,0-.13,1.13,1.8,1.8,0,0,0,.57,1.38,3.63,3.63,0,0,0,1.86.56,4.12,4.12,0,0,0,1.13-.18,5.6,5.6,0,0,0,.91-.3Z"/><path class="cls-7" d="M561.17,56.07l.68.38c-1.09.43-2,.76-2.62,1a6.82,6.82,0,0,1-2.27.34,4.51,4.51,0,0,1-3.09-1,3.1,3.1,0,0,1-1.1-2.46,8,8,0,0,1,.08-1.18,11,11,0,0,1,.27-1.37l1.36-4.85c.13-.46.23-.9.31-1.31a6.22,6.22,0,0,0,.13-1.14,1.71,1.71,0,0,0-.39-1.29,3,3,0,0,0-1.74-.51,3.79,3.79,0,0,0-1.08.17c-.38.11-.69.21-1,.31l-.93-.52c.9-.37,1.76-.68,2.58-.94a7.67,7.67,0,0,1,2.32-.39,4.43,4.43,0,0,1,3,1,3.17,3.17,0,0,1,1.07,2.48c0,.21,0,.58-.08,1.11a7.14,7.14,0,0,1-.27,1.46l-1.36,4.82c-.11.39-.21.83-.3,1.33a6.68,6.68,0,0,0-.13,1.13,1.8,1.8,0,0,0,.57,1.38,3.63,3.63,0,0,0,1.86.56,4.12,4.12,0,0,0,1.13-.18,5.6,5.6,0,0,0,.91-.3Z"/><path class="cls-7" d="M559.1,35.54a2.8,2.8,0,0,1-1,2.14,3.2,3.2,0,0,1-2.29.89,3.27,3.27,0,0,1-2.31-.89,2.8,2.8,0,0,1-1-2.14,2.86,2.86,0,0,1,1-2.16,3.29,3.29,0,0,1,2.31-.89,3.24,3.24,0,0,1,2.29.89,2.86,2.86,0,0,1,1,2.16Z"/></g></g></g></svg>